<svg xmlns="http://www.w3.org/2000/svg" viewBox="0 0 800 800" role="img" aria-label="A bongo standing motionless deep in dense forest undergrowth, its chestnut-and-white striped coat nearly dissolving into broken shafts of dappled light and shadow, spiraled pale-tipped horns laid back along its body">
  <defs>
    <radialGradient id="bo-night" cx="60%" cy="24%" r="95%">
      <stop offset="0%" stop-color="#1a2620"/>
      <stop offset="55%" stop-color="#101a15"/>
      <stop offset="100%" stop-color="#0a1310"/>
    </radialGradient>
    <linearGradient id="bo-shaft" x1="0" y1="0" x2="1" y2="1">
      <stop offset="0%" stop-color="#f4ecd2" stop-opacity="0"/>
      <stop offset="45%" stop-color="#f4ecd2" stop-opacity=".22"/>
      <stop offset="55%" stop-color="#f4ecd2" stop-opacity=".22"/>
      <stop offset="100%" stop-color="#f4ecd2" stop-opacity="0"/>
    </linearGradient>
    <linearGradient id="bo-body" x1="0" y1="0" x2="1" y2="1">
      <stop offset="0%" stop-color="#9a5c34"/>
      <stop offset="60%" stop-color="#7a4326"/>
      <stop offset="100%" stop-color="#4a2716"/>
    </linearGradient>
    <linearGradient id="bo-body-dark" x1="0" y1="0" x2="1" y2="1">
      <stop offset="0%" stop-color="#4a2716"/>
      <stop offset="100%" stop-color="#331a0f"/>
    </linearGradient>
    <radialGradient id="bo-glow" cx="50%" cy="45%" r="60%">
      <stop offset="0%" stop-color="#f6ecd6"/>
      <stop offset="55%" stop-color="#c9a45a" stop-opacity=".5"/>
      <stop offset="100%" stop-color="#c9a45a" stop-opacity="0"/>
    </radialGradient>
    <filter id="bo-blur" x="-60%" y="-60%" width="220%" height="220%">
      <feGaussianBlur stdDeviation="14" result="b"/>
      <feMerge><feMergeNode in="b"/></feMerge>
    </filter>
    <filter id="bo-soft" x="-40%" y="-40%" width="180%" height="180%">
      <feGaussianBlur stdDeviation="1.1"/>
    </filter>
  </defs>
  <rect width="800" height="800" rx="24" fill="url(#bo-night)"/>
  <g filter="url(#bo-blur)" opacity=".85"><rect x="120" y="-60" width="130" height="700" fill="url(#bo-shaft)" opacity="1.00" transform="rotate(24 185 290)"/>
  <rect x="520" y="-80" width="160" height="760" fill="url(#bo-shaft)" opacity="0.90" transform="rotate(20 600 300)"/>
  <rect x="680" y="-40" width="90" height="700" fill="url(#bo-shaft)" opacity="0.70" transform="rotate(28 725 310)"/></g>
  <g opacity=".95"><rect x="120" y="-60" width="130" height="700" fill="url(#bo-shaft)" opacity="1.00" transform="rotate(24 185 290)"/>
  <rect x="520" y="-80" width="160" height="760" fill="url(#bo-shaft)" opacity="0.90" transform="rotate(20 600 300)"/>
  <rect x="680" y="-40" width="90" height="700" fill="url(#bo-shaft)" opacity="0.70" transform="rotate(28 725 310)"/></g>
  <g id="bo-fern-back" opacity=".85"><path d="M44.44444444444444 560 Q35 541 21 528" fill="none" stroke="#0d1712" stroke-width="3.5" stroke-linecap="round" opacity=".92"/>
    <path d="M44.44444444444444 560 Q40 536 33 521" fill="none" stroke="#0d1712" stroke-width="3.5" stroke-linecap="round" opacity=".92"/>
    <path d="M44.44444444444444 560 Q44 532 44 514" fill="none" stroke="#0d1712" stroke-width="3.5" stroke-linecap="round" opacity=".92"/>
    <path d="M44.44444444444444 560 Q49 536 56 521" fill="none" stroke="#0d1712" stroke-width="3.5" stroke-linecap="round" opacity=".92"/>
    <path d="M44.44444444444444 560 Q54 541 68 528" fill="none" stroke="#0d1712" stroke-width="3.5" stroke-linecap="round" opacity=".92"/>
    <path d="M133.33333333333331 560 Q121 535 102 518" fill="none" stroke="#0d1712" stroke-width="4.6" stroke-linecap="round" opacity=".92"/>
    <path d="M133.33333333333331 560 Q127 529 118 508" fill="none" stroke="#0d1712" stroke-width="4.6" stroke-linecap="round" opacity=".92"/>
    <path d="M133.33333333333331 560 Q133 524 133 499" fill="none" stroke="#0d1712" stroke-width="4.6" stroke-linecap="round" opacity=".92"/>
    <path d="M133.33333333333331 560 Q140 529 149 508" fill="none" stroke="#0d1712" stroke-width="4.6" stroke-linecap="round" opacity=".92"/>
    <path d="M133.33333333333331 560 Q146 535 165 518" fill="none" stroke="#0d1712" stroke-width="4.6" stroke-linecap="round" opacity=".92"/>
    <path d="M222.22222222222223 560 Q207 529 183 508" fill="none" stroke="#0d1712" stroke-width="5.7" stroke-linecap="round" opacity=".92"/>
    <path d="M222.22222222222223 560 Q214 522 203 496" fill="none" stroke="#0d1712" stroke-width="5.7" stroke-linecap="round" opacity=".92"/>
    <path d="M222.22222222222223 560 Q222 515 222 485" fill="none" stroke="#0d1712" stroke-width="5.7" stroke-linecap="round" opacity=".92"/>
    <path d="M222.22222222222223 560 Q230 522 242 496" fill="none" stroke="#0d1712" stroke-width="5.7" stroke-linecap="round" opacity=".92"/>
    <path d="M222.22222222222223 560 Q238 529 261 508" fill="none" stroke="#0d1712" stroke-width="5.7" stroke-linecap="round" opacity=".92"/>
    <path d="M311.1111111111111 560 Q302 541 287 528" fill="none" stroke="#0d1712" stroke-width="3.5" stroke-linecap="round" opacity=".92"/>
    <path d="M311.1111111111111 560 Q306 536 299 521" fill="none" stroke="#0d1712" stroke-width="3.5" stroke-linecap="round" opacity=".92"/>
    <path d="M311.1111111111111 560 Q311 532 311 514" fill="none" stroke="#0d1712" stroke-width="3.5" stroke-linecap="round" opacity=".92"/>
    <path d="M311.1111111111111 560 Q316 536 323 521" fill="none" stroke="#0d1712" stroke-width="3.5" stroke-linecap="round" opacity=".92"/>
    <path d="M311.1111111111111 560 Q321 541 335 528" fill="none" stroke="#0d1712" stroke-width="3.5" stroke-linecap="round" opacity=".92"/>
    <path d="M400.0 560 Q387 535 369 518" fill="none" stroke="#0d1712" stroke-width="4.6" stroke-linecap="round" opacity=".92"/>
    <path d="M400.0 560 Q394 529 384 508" fill="none" stroke="#0d1712" stroke-width="4.6" stroke-linecap="round" opacity=".92"/>
    <path d="M400.0 560 Q400 524 400 499" fill="none" stroke="#0d1712" stroke-width="4.6" stroke-linecap="round" opacity=".92"/>
    <path d="M400.0 560 Q406 529 416 508" fill="none" stroke="#0d1712" stroke-width="4.6" stroke-linecap="round" opacity=".92"/>
    <path d="M400.0 560 Q413 535 431 518" fill="none" stroke="#0d1712" stroke-width="4.6" stroke-linecap="round" opacity=".92"/>
    <path d="M488.88888888888886 560 Q473 529 450 508" fill="none" stroke="#0d1712" stroke-width="5.7" stroke-linecap="round" opacity=".92"/>
    <path d="M488.88888888888886 560 Q481 522 470 496" fill="none" stroke="#0d1712" stroke-width="5.7" stroke-linecap="round" opacity=".92"/>
    <path d="M488.88888888888886 560 Q489 515 489 485" fill="none" stroke="#0d1712" stroke-width="5.7" stroke-linecap="round" opacity=".92"/>
    <path d="M488.88888888888886 560 Q497 522 508 496" fill="none" stroke="#0d1712" stroke-width="5.7" stroke-linecap="round" opacity=".92"/>
    <path d="M488.88888888888886 560 Q504 529 528 508" fill="none" stroke="#0d1712" stroke-width="5.7" stroke-linecap="round" opacity=".92"/>
    <path d="M577.7777777777777 560 Q568 541 554 528" fill="none" stroke="#0d1712" stroke-width="3.5" stroke-linecap="round" opacity=".92"/>
    <path d="M577.7777777777777 560 Q573 536 566 521" fill="none" stroke="#0d1712" stroke-width="3.5" stroke-linecap="round" opacity=".92"/>
    <path d="M577.7777777777777 560 Q578 532 578 514" fill="none" stroke="#0d1712" stroke-width="3.5" stroke-linecap="round" opacity=".92"/>
    <path d="M577.7777777777777 560 Q583 536 590 521" fill="none" stroke="#0d1712" stroke-width="3.5" stroke-linecap="round" opacity=".92"/>
    <path d="M577.7777777777777 560 Q587 541 602 528" fill="none" stroke="#0d1712" stroke-width="3.5" stroke-linecap="round" opacity=".92"/>
    <path d="M666.6666666666666 560 Q654 535 635 518" fill="none" stroke="#0d1712" stroke-width="4.6" stroke-linecap="round" opacity=".92"/>
    <path d="M666.6666666666666 560 Q660 529 651 508" fill="none" stroke="#0d1712" stroke-width="4.6" stroke-linecap="round" opacity=".92"/>
    <path d="M666.6666666666666 560 Q667 524 667 499" fill="none" stroke="#0d1712" stroke-width="4.6" stroke-linecap="round" opacity=".92"/>
    <path d="M666.6666666666666 560 Q673 529 682 508" fill="none" stroke="#0d1712" stroke-width="4.6" stroke-linecap="round" opacity=".92"/>
    <path d="M666.6666666666666 560 Q679 535 698 518" fill="none" stroke="#0d1712" stroke-width="4.6" stroke-linecap="round" opacity=".92"/>
    <path d="M755.5555555555555 560 Q740 529 717 508" fill="none" stroke="#0d1712" stroke-width="5.7" stroke-linecap="round" opacity=".92"/>
    <path d="M755.5555555555555 560 Q748 522 736 496" fill="none" stroke="#0d1712" stroke-width="5.7" stroke-linecap="round" opacity=".92"/>
    <path d="M755.5555555555555 560 Q756 515 756 485" fill="none" stroke="#0d1712" stroke-width="5.7" stroke-linecap="round" opacity=".92"/>
    <path d="M755.5555555555555 560 Q763 522 775 496" fill="none" stroke="#0d1712" stroke-width="5.7" stroke-linecap="round" opacity=".92"/>
    <path d="M755.5555555555555 560 Q771 529 794 508" fill="none" stroke="#0d1712" stroke-width="5.7" stroke-linecap="round" opacity=".92"/></g>
  <ellipse cx="420" cy="627.4" rx="157.5" ry="22.8" fill="#080604" fill-opacity=".55"/>
  
  <g id="bo-bongo" transform="translate(420,430) scale(1.05)">
    <g id="bo-legs-back">
      <path d="M58 88 L60 196" fill="none" stroke="#7a4326" stroke-width="26" stroke-linecap="round"/>
      <path d="M118 76 L126 190" fill="none" stroke="#7a4326" stroke-width="24" stroke-linecap="round"/>
    </g>
    <path d="M168 -6 Q196 34 186 82" fill="none" stroke="#4a2716" stroke-width="5" stroke-linecap="round"/>
    <path d="M-142 -30 C-158 -54 -146 -82 -112 -90 C-84 -96 -62 -90 -48 -74 C-10 -90 52 -96 104 -84 C142 -76 168 -48 172 -8 C176 24 162 56 140 78 C120 96 86 100 52 92 C6 100 -46 96 -84 78 C-118 62 -136 34 -142 -2 C-144 -12 -140 -22 -142 -30 Z" fill="url(#bo-body)" stroke="#080604" stroke-opacity=".85" stroke-width="1.8"/>
    <g id="bo-stripes"><path d="M-96 -70 Q-88 1 -96 72" fill="none" stroke="#eee3c8" stroke-opacity=".78" stroke-width="6.5" stroke-linecap="round"/><path d="M-68 -72 Q-74 2 -68 75" fill="none" stroke="#eee3c8" stroke-opacity=".78" stroke-width="6.5" stroke-linecap="round"/><path d="M-40 -74 Q-32 2 -40 78" fill="none" stroke="#eee3c8" stroke-opacity=".78" stroke-width="6.5" stroke-linecap="round"/><path d="M-14 -76 Q-20 2 -14 81" fill="none" stroke="#eee3c8" stroke-opacity=".78" stroke-width="6.5" stroke-linecap="round"/><path d="M12 -78 Q20 3 12 84" fill="none" stroke="#eee3c8" stroke-opacity=".78" stroke-width="6.5" stroke-linecap="round"/><path d="M38 -76 Q32 2 38 81" fill="none" stroke="#eee3c8" stroke-opacity=".78" stroke-width="6.5" stroke-linecap="round"/><path d="M64 -74 Q72 2 64 78" fill="none" stroke="#eee3c8" stroke-opacity=".78" stroke-width="6.5" stroke-linecap="round"/><path d="M90 -72 Q84 2 90 75" fill="none" stroke="#eee3c8" stroke-opacity=".78" stroke-width="6.5" stroke-linecap="round"/><path d="M116 -70 Q124 1 116 72" fill="none" stroke="#eee3c8" stroke-opacity=".78" stroke-width="6.5" stroke-linecap="round"/></g>
    <path d="M-134 -66 C-150 -84 -172 -86 -182 -72 C-176 -58 -156 -52 -134 -66 Z" fill="url(#bo-body-dark)" stroke="#080604" stroke-opacity=".7" stroke-width="1.2"/>
    <path d="M-150 -64 C-118 -92 -70 -104 -18 -100 C-56 -88 -96 -76 -128 -56 Z" fill="none" stroke="#2a1810" stroke-width="7" stroke-linecap="round" opacity=".9"/>
    <path d="M-150 -64 C-118 -92 -70 -104 -18 -100 C-56 -88 -96 -76 -128 -56 Z" fill="none" stroke="#e6d9b8" stroke-width="3" stroke-linecap="round" stroke-dasharray="0 74 14" opacity=".8"/>
    <path d="M-108 -64 C-130 -72 -152 -64 -164 -44 C-176 -22 -176 4 -166 22 C-158 36 -142 42 -128 36 C-116 30 -108 16 -104 -2 C-100 -26 -100 -52 -108 -64 Z" fill="url(#bo-body)" stroke="#080604" stroke-opacity=".85" stroke-width="1.6"/>
    <path d="M-146 -30 L-136 -18 L-146 -6" fill="none" stroke="#eee3c8" stroke-opacity=".7" stroke-width="4" stroke-linecap="round"/>
    <circle cx="-146" cy="-16" r="3.6" fill="#080604"/><circle cx="-147" cy="-17" r="1.1" fill="#e8ddbe" fill-opacity=".85"/>
    <path d="M-118 -58 C-132 -78 -154 -82 -166 -68 C-158 -52 -136 -44 -118 -58 Z" fill="url(#bo-body)" stroke="#080604" stroke-opacity=".75" stroke-width="1.3"/>
    <path d="M-140 -48 C-104 -82 -48 -98 10 -96 C-30 -80 -78 -64 -116 -38 Z" fill="none" stroke="#2a1810" stroke-width="8" stroke-linecap="round"/>
    <path d="M-140 -48 C-104 -82 -48 -98 10 -96 C-30 -80 -78 -64 -116 -38 Z" fill="none" stroke="#e6d9b8" stroke-width="3.4" stroke-linecap="round" stroke-dasharray="0 82 16" opacity=".92"/>
    <g id="bo-legs-front">
      <path d="M-96 62 L-104 192" fill="none" stroke="#4a2716" stroke-width="24" stroke-linecap="round"/>
      <path d="M-38 80 L-42 196" fill="none" stroke="#4a2716" stroke-width="26" stroke-linecap="round"/>
    </g>
  </g>
  <g id="bo-fern-front" filter="url(#bo-soft)"><path d="M57.142857142857146 738 Q48 719 33 706" fill="none" stroke="#16241c" stroke-width="3.5" stroke-linecap="round" opacity=".92"/>
    <path d="M57.142857142857146 738 Q52 714 45 699" fill="none" stroke="#16241c" stroke-width="3.5" stroke-linecap="round" opacity=".92"/>
    <path d="M57.142857142857146 738 Q57 710 57 692" fill="none" stroke="#16241c" stroke-width="3.5" stroke-linecap="round" opacity=".92"/>
    <path d="M57.142857142857146 738 Q62 714 69 699" fill="none" stroke="#16241c" stroke-width="3.5" stroke-linecap="round" opacity=".92"/>
    <path d="M57.142857142857146 738 Q67 719 81 706" fill="none" stroke="#16241c" stroke-width="3.5" stroke-linecap="round" opacity=".92"/>
    <path d="M171.42857142857144 738 Q159 713 140 696" fill="none" stroke="#16241c" stroke-width="4.6" stroke-linecap="round" opacity=".92"/>
    <path d="M171.42857142857144 738 Q165 707 156 686" fill="none" stroke="#16241c" stroke-width="4.6" stroke-linecap="round" opacity=".92"/>
    <path d="M171.42857142857144 738 Q171 702 171 677" fill="none" stroke="#16241c" stroke-width="4.6" stroke-linecap="round" opacity=".92"/>
    <path d="M171.42857142857144 738 Q178 707 187 686" fill="none" stroke="#16241c" stroke-width="4.6" stroke-linecap="round" opacity=".92"/>
    <path d="M171.42857142857144 738 Q184 713 203 696" fill="none" stroke="#16241c" stroke-width="4.6" stroke-linecap="round" opacity=".92"/>
    <path d="M285.7142857142857 738 Q270 707 247 686" fill="none" stroke="#16241c" stroke-width="5.7" stroke-linecap="round" opacity=".92"/>
    <path d="M285.7142857142857 738 Q278 700 266 674" fill="none" stroke="#16241c" stroke-width="5.7" stroke-linecap="round" opacity=".92"/>
    <path d="M285.7142857142857 738 Q286 693 286 663" fill="none" stroke="#16241c" stroke-width="5.7" stroke-linecap="round" opacity=".92"/>
    <path d="M285.7142857142857 738 Q293 700 305 674" fill="none" stroke="#16241c" stroke-width="5.7" stroke-linecap="round" opacity=".92"/>
    <path d="M285.7142857142857 738 Q301 707 324 686" fill="none" stroke="#16241c" stroke-width="5.7" stroke-linecap="round" opacity=".92"/>
    <path d="M400.0 738 Q390 719 376 706" fill="none" stroke="#16241c" stroke-width="3.5" stroke-linecap="round" opacity=".92"/>
    <path d="M400.0 738 Q395 714 388 699" fill="none" stroke="#16241c" stroke-width="3.5" stroke-linecap="round" opacity=".92"/>
    <path d="M400.0 738 Q400 710 400 692" fill="none" stroke="#16241c" stroke-width="3.5" stroke-linecap="round" opacity=".92"/>
    <path d="M400.0 738 Q405 714 412 699" fill="none" stroke="#16241c" stroke-width="3.5" stroke-linecap="round" opacity=".92"/>
    <path d="M400.0 738 Q410 719 424 706" fill="none" stroke="#16241c" stroke-width="3.5" stroke-linecap="round" opacity=".92"/>
    <path d="M514.2857142857143 738 Q502 713 483 696" fill="none" stroke="#16241c" stroke-width="4.6" stroke-linecap="round" opacity=".92"/>
    <path d="M514.2857142857143 738 Q508 707 499 686" fill="none" stroke="#16241c" stroke-width="4.6" stroke-linecap="round" opacity=".92"/>
    <path d="M514.2857142857143 738 Q514 702 514 677" fill="none" stroke="#16241c" stroke-width="4.6" stroke-linecap="round" opacity=".92"/>
    <path d="M514.2857142857143 738 Q521 707 530 686" fill="none" stroke="#16241c" stroke-width="4.6" stroke-linecap="round" opacity=".92"/>
    <path d="M514.2857142857143 738 Q527 713 546 696" fill="none" stroke="#16241c" stroke-width="4.6" stroke-linecap="round" opacity=".92"/>
    <path d="M628.5714285714286 738 Q613 707 590 686" fill="none" stroke="#16241c" stroke-width="5.7" stroke-linecap="round" opacity=".92"/>
    <path d="M628.5714285714286 738 Q621 700 609 674" fill="none" stroke="#16241c" stroke-width="5.7" stroke-linecap="round" opacity=".92"/>
    <path d="M628.5714285714286 738 Q629 693 629 663" fill="none" stroke="#16241c" stroke-width="5.7" stroke-linecap="round" opacity=".92"/>
    <path d="M628.5714285714286 738 Q636 700 648 674" fill="none" stroke="#16241c" stroke-width="5.7" stroke-linecap="round" opacity=".92"/>
    <path d="M628.5714285714286 738 Q644 707 667 686" fill="none" stroke="#16241c" stroke-width="5.7" stroke-linecap="round" opacity=".92"/>
    <path d="M742.8571428571429 738 Q733 719 719 706" fill="none" stroke="#16241c" stroke-width="3.5" stroke-linecap="round" opacity=".92"/>
    <path d="M742.8571428571429 738 Q738 714 731 699" fill="none" stroke="#16241c" stroke-width="3.5" stroke-linecap="round" opacity=".92"/>
    <path d="M742.8571428571429 738 Q743 710 743 692" fill="none" stroke="#16241c" stroke-width="3.5" stroke-linecap="round" opacity=".92"/>
    <path d="M742.8571428571429 738 Q748 714 755 699" fill="none" stroke="#16241c" stroke-width="3.5" stroke-linecap="round" opacity=".92"/>
    <path d="M742.8571428571429 738 Q752 719 767 706" fill="none" stroke="#16241c" stroke-width="3.5" stroke-linecap="round" opacity=".92"/></g>
</svg>
