<svg xmlns="http://www.w3.org/2000/svg" viewBox="0 0 800 800" role="img" aria-label="A male superb bird-of-paradise mid-display, his black cape fanned into a smooth, near two-dimensional shape with a glowing blue-green breast shield at its center, standing on his cleared forest-floor court while an ordinary, unremarkable perched bird waits in the shadow nearby">
  <defs>
    <radialGradient id="sb-night" cx="50%" cy="18%" r="95%">
      <stop offset="0%" stop-color="#141c22"/>
      <stop offset="55%" stop-color="#0a0e12"/>
      <stop offset="100%" stop-color="#05070a"/>
    </radialGradient>
    <radialGradient id="sb-shield" cx="46%" cy="40%" r="60%">
      <stop offset="0%" stop-color="#8ff5e6"/>
      <stop offset="45%" stop-color="#20c9b0"/>
      <stop offset="100%" stop-color="#0f6a5c"/>
    </radialGradient>
    <radialGradient id="sb-clearing" cx="50%" cy="50%" r="55%">
      <stop offset="0%" stop-color="#3a2c18"/>
      <stop offset="100%" stop-color="#2a2010"/>
    </radialGradient>
    <linearGradient id="sb-cape" x1="0" y1="0" x2="0" y2="1">
      <stop offset="0%" stop-color="#232a2f" stop-opacity=".5"/>
      <stop offset="18%" stop-color="#050506"/>
      <stop offset="100%" stop-color="#050506"/>
    </linearGradient>
    <filter id="sb-glow" x="-80%" y="-80%" width="260%" height="260%">
      <feGaussianBlur stdDeviation="10" result="b"/>
      <feMerge><feMergeNode in="b"/><feMergeNode in="SourceGraphic"/></feMerge>
    </filter>
    <filter id="sb-soft" x="-40%" y="-40%" width="180%" height="180%">
      <feGaussianBlur stdDeviation="3" result="b2"/>
      <feMerge><feMergeNode in="b2"/><feMergeNode in="SourceGraphic"/></feMerge>
    </filter>
  </defs>
  <rect width="800" height="800" rx="24" fill="url(#sb-night)"/>
  <rect width="800" height="320" fill="#0d1712" opacity=".35"/>
  <path d="M0 560 C176.0 542 320.0 574 480.0 552 C640.0 540 720.0 566 800 556 L800 800 L0 800 Z"
        fill="#150f0a"/>
  <ellipse cx="400" cy="610" rx="210" ry="90" fill="url(#sb-clearing)" opacity=".9"/>
  <g><path d="M60 700 Q68.0 660.0 64.0 622.0" fill="none" stroke="#101a0e" stroke-width="3.0" stroke-linecap="round"/>
    <path d="M60 700 Q76 694 63 686" fill="none" stroke="#1c2a1a" stroke-width="2.2" stroke-linecap="round" opacity=".85"/>
    <path d="M60 700 Q44 694 57 686" fill="none" stroke="#1c2a1a" stroke-width="2.2" stroke-linecap="round" opacity=".85"/>
    <path d="M62 680 Q76 674 65 666" fill="none" stroke="#1c2a1a" stroke-width="2.2" stroke-linecap="round" opacity=".85"/>
    <path d="M62 680 Q48 674 59 666" fill="none" stroke="#1c2a1a" stroke-width="2.2" stroke-linecap="round" opacity=".85"/>
    <path d="M64 661 Q76 655 66 647" fill="none" stroke="#1c2a1a" stroke-width="2.2" stroke-linecap="round" opacity=".85"/>
    <path d="M64 661 Q52 655 62 647" fill="none" stroke="#1c2a1a" stroke-width="2.2" stroke-linecap="round" opacity=".85"/>
    <path d="M66 642 Q76 636 68 628" fill="none" stroke="#1c2a1a" stroke-width="2.2" stroke-linecap="round" opacity=".85"/>
    <path d="M66 642 Q56 636 64 628" fill="none" stroke="#1c2a1a" stroke-width="2.2" stroke-linecap="round" opacity=".85"/>
    <path d="M68 622 Q76 616 70 608" fill="none" stroke="#1c2a1a" stroke-width="2.2" stroke-linecap="round" opacity=".85"/>
    <path d="M68 622 Q60 616 66 608" fill="none" stroke="#1c2a1a" stroke-width="2.2" stroke-linecap="round" opacity=".85"/><path d="M140 730 Q133.6 698.0 136.8 667.6" fill="none" stroke="#101a0e" stroke-width="2.4" stroke-linecap="round"/>
    <path d="M140 730 Q127 725 137 719" fill="none" stroke="#1c2a1a" stroke-width="1.8" stroke-linecap="round" opacity=".85"/>
    <path d="M140 730 Q153 725 143 719" fill="none" stroke="#1c2a1a" stroke-width="1.8" stroke-linecap="round" opacity=".85"/>
    <path d="M138 714 Q127 710 136 703" fill="none" stroke="#1c2a1a" stroke-width="1.8" stroke-linecap="round" opacity=".85"/>
    <path d="M138 714 Q150 710 141 703" fill="none" stroke="#1c2a1a" stroke-width="1.8" stroke-linecap="round" opacity=".85"/>
    <path d="M137 699 Q127 694 135 688" fill="none" stroke="#1c2a1a" stroke-width="1.8" stroke-linecap="round" opacity=".85"/>
    <path d="M137 699 Q146 694 139 688" fill="none" stroke="#1c2a1a" stroke-width="1.8" stroke-linecap="round" opacity=".85"/>
    <path d="M135 683 Q127 678 134 672" fill="none" stroke="#1c2a1a" stroke-width="1.8" stroke-linecap="round" opacity=".85"/>
    <path d="M135 683 Q143 678 137 672" fill="none" stroke="#1c2a1a" stroke-width="1.8" stroke-linecap="round" opacity=".85"/>
    <path d="M134 668 Q127 663 132 656" fill="none" stroke="#1c2a1a" stroke-width="1.8" stroke-linecap="round" opacity=".85"/>
    <path d="M134 668 Q140 663 135 656" fill="none" stroke="#1c2a1a" stroke-width="1.8" stroke-linecap="round" opacity=".85"/><path d="M700 690 Q692.8 654.0 696.4 619.8" fill="none" stroke="#101a0e" stroke-width="2.7" stroke-linecap="round"/>
    <path d="M700 690 Q686 685 697 677" fill="none" stroke="#1c2a1a" stroke-width="2.0" stroke-linecap="round" opacity=".85"/>
    <path d="M700 690 Q714 685 703 677" fill="none" stroke="#1c2a1a" stroke-width="2.0" stroke-linecap="round" opacity=".85"/>
    <path d="M698 672 Q686 667 696 660" fill="none" stroke="#1c2a1a" stroke-width="2.0" stroke-linecap="round" opacity=".85"/>
    <path d="M698 672 Q711 667 701 660" fill="none" stroke="#1c2a1a" stroke-width="2.0" stroke-linecap="round" opacity=".85"/>
    <path d="M696 655 Q686 650 694 642" fill="none" stroke="#1c2a1a" stroke-width="2.0" stroke-linecap="round" opacity=".85"/>
    <path d="M696 655 Q707 650 699 642" fill="none" stroke="#1c2a1a" stroke-width="2.0" stroke-linecap="round" opacity=".85"/>
    <path d="M695 637 Q686 632 693 625" fill="none" stroke="#1c2a1a" stroke-width="2.0" stroke-linecap="round" opacity=".85"/>
    <path d="M695 637 Q704 632 696 625" fill="none" stroke="#1c2a1a" stroke-width="2.0" stroke-linecap="round" opacity=".85"/>
    <path d="M693 620 Q686 614 691 607" fill="none" stroke="#1c2a1a" stroke-width="2.0" stroke-linecap="round" opacity=".85"/>
    <path d="M693 620 Q700 614 694 607" fill="none" stroke="#1c2a1a" stroke-width="2.0" stroke-linecap="round" opacity=".85"/><path d="M750 720 Q755.6 692.0 752.8 665.4" fill="none" stroke="#101a0e" stroke-width="2.1" stroke-linecap="round"/>
    <path d="M750 720 Q761 716 752 710" fill="none" stroke="#1c2a1a" stroke-width="1.5" stroke-linecap="round" opacity=".85"/>
    <path d="M750 720 Q739 716 748 710" fill="none" stroke="#1c2a1a" stroke-width="1.5" stroke-linecap="round" opacity=".85"/>
    <path d="M751 706 Q761 702 753 697" fill="none" stroke="#1c2a1a" stroke-width="1.5" stroke-linecap="round" opacity=".85"/>
    <path d="M751 706 Q742 702 749 697" fill="none" stroke="#1c2a1a" stroke-width="1.5" stroke-linecap="round" opacity=".85"/>
    <path d="M753 693 Q761 688 754 683" fill="none" stroke="#1c2a1a" stroke-width="1.5" stroke-linecap="round" opacity=".85"/>
    <path d="M753 693 Q744 688 751 683" fill="none" stroke="#1c2a1a" stroke-width="1.5" stroke-linecap="round" opacity=".85"/>
    <path d="M754 679 Q761 675 756 669" fill="none" stroke="#1c2a1a" stroke-width="1.5" stroke-linecap="round" opacity=".85"/>
    <path d="M754 679 Q747 675 753 669" fill="none" stroke="#1c2a1a" stroke-width="1.5" stroke-linecap="round" opacity=".85"/>
    <path d="M756 665 Q761 661 757 656" fill="none" stroke="#1c2a1a" stroke-width="1.5" stroke-linecap="round" opacity=".85"/>
    <path d="M756 665 Q750 661 754 656" fill="none" stroke="#1c2a1a" stroke-width="1.5" stroke-linecap="round" opacity=".85"/></g>
  <g opacity=".8"><ellipse cx="40" cy="564" rx="18" ry="5" fill="#0c0805" opacity=".7"/>
    <ellipse cx="120" cy="570" rx="24" ry="5" fill="#0c0805" opacity=".7"/>
    <ellipse cx="200" cy="564" rx="30" ry="5" fill="#0c0805" opacity=".7"/>
    <ellipse cx="280" cy="570" rx="18" ry="5" fill="#0c0805" opacity=".7"/>
    <ellipse cx="360" cy="564" rx="24" ry="5" fill="#0c0805" opacity=".7"/>
    <ellipse cx="440" cy="570" rx="30" ry="5" fill="#0c0805" opacity=".7"/>
    <ellipse cx="520" cy="564" rx="18" ry="5" fill="#0c0805" opacity=".7"/>
    <ellipse cx="600" cy="570" rx="24" ry="5" fill="#0c0805" opacity=".7"/>
    <ellipse cx="680" cy="564" rx="30" ry="5" fill="#0c0805" opacity=".7"/>
    <ellipse cx="760" cy="570" rx="18" ry="5" fill="#0c0805" opacity=".7"/></g>
  
  <g id="sb-plain-bird" opacity=".55">
    <path d="M97.5 226.5 L157.5 226.5" fill="none" stroke="#0c0805" stroke-width="2.2" stroke-linecap="round"/>
    <path d="M133.5 214.5 Q148.5 220.5 154.5 232.5" fill="none" stroke="#12100c" stroke-width="3.8" stroke-linecap="round"/>
    <path d="M106.5 210 C103.5 199.5 109.5 192.0 120 192.0 C130.5 192.0 136.5 201.0 135.0 211.5 C133.5 220.5 124.5 225.0 117.0 223.5 C111.0 222.0 108.0 216.0 106.5 210 Z" fill="#12100c"/>
    <path d="M106.5 205.5 L97.5 208.5 L106.5 211.5 Z" fill="#0c0805"/>
    <circle cx="112.5" cy="204.0" r="1.2" fill="#eafff9" fill-opacity=".5"/>
  </g>
  
  <g id="sb-display">
    <ellipse cx="400" cy="656.0" rx="128.0" ry="20.0" fill="#000000" fill-opacity=".55"/>
    <path d="M400 300.0 C512.0 300.0 552.0 378.0 550.0 460.0 C548.0 540.0 492.0 622.0 400 652.0 C308.0 622.0 252.0 540.0 250.0 460.0 C248.0 378.0 288.0 300.0 400 300.0 Z" fill="url(#sb-cape)" stroke="#232a2f" stroke-opacity=".4" stroke-width="1.4"/>
    <path d="M370.0 304.0 C386.0 290.0 414.0 290.0 430.0 304.0" fill="none" stroke="#0f6a5c" stroke-opacity=".55" stroke-width="3.0" stroke-linecap="round"/>
    <ellipse cx="400" cy="414.0" rx="46.0" ry="58.0" fill="url(#sb-shield)" filter="url(#sb-glow)"/>
    <circle cx="383.0" cy="342.0" r="4.2" fill="#eafff9" filter="url(#sb-soft)"/>
    <circle cx="417.0" cy="342.0" r="4.2" fill="#eafff9" filter="url(#sb-soft)"/>
  </g>
</svg>
