<svg xmlns="http://www.w3.org/2000/svg" viewBox="0 0 400 500" role="img" aria-label="A male superb bird-of-paradise mid-display, closer and centered, the fanned black shape and glowing breast shield filling the frame">
  <defs>
    <radialGradient id="sb-night" cx="50%" cy="18%" r="95%">
      <stop offset="0%" stop-color="#141c22"/>
      <stop offset="55%" stop-color="#0a0e12"/>
      <stop offset="100%" stop-color="#05070a"/>
    </radialGradient>
    <radialGradient id="sb-shield" cx="46%" cy="40%" r="60%">
      <stop offset="0%" stop-color="#8ff5e6"/>
      <stop offset="45%" stop-color="#20c9b0"/>
      <stop offset="100%" stop-color="#0f6a5c"/>
    </radialGradient>
    <radialGradient id="sb-clearing" cx="50%" cy="50%" r="55%">
      <stop offset="0%" stop-color="#3a2c18"/>
      <stop offset="100%" stop-color="#2a2010"/>
    </radialGradient>
    <linearGradient id="sb-cape" x1="0" y1="0" x2="0" y2="1">
      <stop offset="0%" stop-color="#232a2f" stop-opacity=".5"/>
      <stop offset="18%" stop-color="#050506"/>
      <stop offset="100%" stop-color="#050506"/>
    </linearGradient>
    <filter id="sb-glow" x="-80%" y="-80%" width="260%" height="260%">
      <feGaussianBlur stdDeviation="10" result="b"/>
      <feMerge><feMergeNode in="b"/><feMergeNode in="SourceGraphic"/></feMerge>
    </filter>
    <filter id="sb-soft" x="-40%" y="-40%" width="180%" height="180%">
      <feGaussianBlur stdDeviation="3" result="b2"/>
      <feMerge><feMergeNode in="b2"/><feMergeNode in="SourceGraphic"/></feMerge>
    </filter>
  </defs>
  <rect width="400" height="500" rx="18" fill="url(#sb-night)"/>
  <rect width="400" height="200" fill="#0d1712" opacity=".35"/>
  <path d="M0 370 C88.0 352 160.0 384 240.0 362 C320.0 350 360.0 376 400 366 L400 500 L0 500 Z"
        fill="#150f0a"/>
  <ellipse cx="200" cy="396" rx="130" ry="56" fill="url(#sb-clearing)" opacity=".9"/>
  <g><path d="M30 460 Q34.8 436.0 32.4 413.2" fill="none" stroke="#101a0e" stroke-width="1.8" stroke-linecap="round"/>
    <path d="M30 460 Q40 456 32 452" fill="none" stroke="#1c2a1a" stroke-width="1.3" stroke-linecap="round" opacity=".85"/>
    <path d="M30 460 Q20 456 28 452" fill="none" stroke="#1c2a1a" stroke-width="1.3" stroke-linecap="round" opacity=".85"/>
    <path d="M31 448 Q40 445 33 440" fill="none" stroke="#1c2a1a" stroke-width="1.3" stroke-linecap="round" opacity=".85"/>
    <path d="M31 448 Q23 445 30 440" fill="none" stroke="#1c2a1a" stroke-width="1.3" stroke-linecap="round" opacity=".85"/>
    <path d="M32 437 Q40 433 34 428" fill="none" stroke="#1c2a1a" stroke-width="1.3" stroke-linecap="round" opacity=".85"/>
    <path d="M32 437 Q25 433 31 428" fill="none" stroke="#1c2a1a" stroke-width="1.3" stroke-linecap="round" opacity=".85"/>
    <path d="M34 425 Q40 421 35 416" fill="none" stroke="#1c2a1a" stroke-width="1.3" stroke-linecap="round" opacity=".85"/>
    <path d="M34 425 Q28 421 32 416" fill="none" stroke="#1c2a1a" stroke-width="1.3" stroke-linecap="round" opacity=".85"/>
    <path d="M35 413 Q40 410 36 405" fill="none" stroke="#1c2a1a" stroke-width="1.3" stroke-linecap="round" opacity=".85"/>
    <path d="M35 413 Q30 410 34 405" fill="none" stroke="#1c2a1a" stroke-width="1.3" stroke-linecap="round" opacity=".85"/><path d="M368 456 Q363.6 434.0 365.8 413.1" fill="none" stroke="#101a0e" stroke-width="1.7" stroke-linecap="round"/>
    <path d="M368 456 Q359 453 366 448" fill="none" stroke="#1c2a1a" stroke-width="1.2" stroke-linecap="round" opacity=".85"/>
    <path d="M368 456 Q377 453 370 448" fill="none" stroke="#1c2a1a" stroke-width="1.2" stroke-linecap="round" opacity=".85"/>
    <path d="M367 445 Q359 442 365 438" fill="none" stroke="#1c2a1a" stroke-width="1.2" stroke-linecap="round" opacity=".85"/>
    <path d="M367 445 Q375 442 368 438" fill="none" stroke="#1c2a1a" stroke-width="1.2" stroke-linecap="round" opacity=".85"/>
    <path d="M366 435 Q359 431 364 427" fill="none" stroke="#1c2a1a" stroke-width="1.2" stroke-linecap="round" opacity=".85"/>
    <path d="M366 435 Q372 431 367 427" fill="none" stroke="#1c2a1a" stroke-width="1.2" stroke-linecap="round" opacity=".85"/>
    <path d="M365 424 Q359 421 364 416" fill="none" stroke="#1c2a1a" stroke-width="1.2" stroke-linecap="round" opacity=".85"/>
    <path d="M365 424 Q370 421 366 416" fill="none" stroke="#1c2a1a" stroke-width="1.2" stroke-linecap="round" opacity=".85"/>
    <path d="M364 413 Q359 410 363 405" fill="none" stroke="#1c2a1a" stroke-width="1.2" stroke-linecap="round" opacity=".85"/>
    <path d="M364 413 Q368 410 364 405" fill="none" stroke="#1c2a1a" stroke-width="1.2" stroke-linecap="round" opacity=".85"/></g>
  <g opacity=".8"><ellipse cx="20" cy="374" rx="18" ry="5" fill="#0c0805" opacity=".7"/>
    <ellipse cx="60" cy="380" rx="24" ry="5" fill="#0c0805" opacity=".7"/>
    <ellipse cx="100" cy="374" rx="30" ry="5" fill="#0c0805" opacity=".7"/>
    <ellipse cx="140" cy="380" rx="18" ry="5" fill="#0c0805" opacity=".7"/>
    <ellipse cx="180" cy="374" rx="24" ry="5" fill="#0c0805" opacity=".7"/>
    <ellipse cx="220" cy="380" rx="30" ry="5" fill="#0c0805" opacity=".7"/>
    <ellipse cx="260" cy="374" rx="18" ry="5" fill="#0c0805" opacity=".7"/>
    <ellipse cx="300" cy="380" rx="24" ry="5" fill="#0c0805" opacity=".7"/>
    <ellipse cx="340" cy="374" rx="30" ry="5" fill="#0c0805" opacity=".7"/>
    <ellipse cx="380" cy="380" rx="18" ry="5" fill="#0c0805" opacity=".7"/></g>
  
  <g id="sb-plain-bird" opacity=".55">
    <path d="M325.0 131.0 L365.0 131.0" fill="none" stroke="#0c0805" stroke-width="1.5" stroke-linecap="round"/>
    <path d="M349.0 123.0 Q359.0 127.0 363.0 135.0" fill="none" stroke="#12100c" stroke-width="2.5" stroke-linecap="round"/>
    <path d="M331.0 120 C329.0 113.0 333.0 108.0 340 108.0 C347.0 108.0 351.0 114.0 350.0 121.0 C349.0 127.0 343.0 130.0 338.0 129.0 C334.0 128.0 332.0 124.0 331.0 120 Z" fill="#12100c"/>
    <path d="M331.0 117.0 L325.0 119.0 L331.0 121.0 Z" fill="#0c0805"/>
    <circle cx="335.0" cy="116.0" r="0.8" fill="#eafff9" fill-opacity=".5"/>
  </g>
  
  <g id="sb-display">
    <ellipse cx="198" cy="422.76" rx="84.48" ry="14.56" fill="#000000" fill-opacity=".55"/>
    <path d="M198 187.8 C271.92 187.8 298.32 239.28 297.0 293.4 C295.68 346.2 258.72 400.32 198 420.12 C137.28 400.32 100.32 346.2 99.0 293.4 C97.67999999999999 239.28 124.08 187.8 198 187.8 Z" fill="url(#sb-cape)" stroke="#232a2f" stroke-opacity=".4" stroke-width="1.4"/>
    <path d="M178.2 190.44 C188.76 181.2 207.24 181.2 217.8 190.44" fill="none" stroke="#0f6a5c" stroke-opacity=".55" stroke-width="2.0" stroke-linecap="round"/>
    <ellipse cx="198" cy="263.04" rx="30.360000000000003" ry="38.28" fill="url(#sb-shield)" filter="url(#sb-glow)"/>
    <circle cx="186.78" cy="215.51999999999998" r="2.8" fill="#eafff9" filter="url(#sb-soft)"/>
    <circle cx="209.22" cy="215.51999999999998" r="2.8" fill="#eafff9" filter="url(#sb-soft)"/>
  </g>
</svg>
