<svg xmlns="http://www.w3.org/2000/svg" viewBox="0 0 400 500" role="img" aria-label="A kookaburra calling at dawn on a bare branch, closer and calmer, with family silhouettes nearby">
  <defs>
    <linearGradient id="kb-sky" x1="0" y1="0" x2="0" y2="1">
      <stop offset="0%" stop-color="#0d1114"/>
      <stop offset="55%" stop-color="#141a1f"/>
      <stop offset="100%" stop-color="#1b232b"/>
    </linearGradient>
    <radialGradient id="kb-dawn" cx="50%" cy="100%" r="85%">
      <stop offset="0%" stop-color="#f6c877" stop-opacity=".85"/>
      <stop offset="45%" stop-color="#c9793f" stop-opacity=".38"/>
      <stop offset="100%" stop-color="#c9793f" stop-opacity="0"/>
    </radialGradient>
    <linearGradient id="kb-body" x1="0" y1="0" x2="1" y2="1">
      <stop offset="0%" stop-color="#a89474"/>
      <stop offset="100%" stop-color="#4f4536"/>
    </linearGradient>
    <linearGradient id="kb-cream" x1="0" y1="0" x2="0" y2="1">
      <stop offset="0%" stop-color="#e9dfc6"/>
      <stop offset="100%" stop-color="#cabe9c"/>
    </linearGradient>
    <linearGradient id="kb-beak" x1="0" y1="0" x2="1" y2="1">
      <stop offset="0%" stop-color="#e8ddc4"/>
      <stop offset="100%" stop-color="#3a3226"/>
    </linearGradient>
    <filter id="kb-blur" x="-60%" y="-60%" width="220%" height="220%">
      <feGaussianBlur stdDeviation="8" result="b"/>
      <feMerge><feMergeNode in="b"/><feMergeNode in="SourceGraphic"/></feMerge>
    </filter>
  </defs>
  <rect width="400" height="500" rx="18" fill="url(#kb-sky)"/>
  <rect width="400" height="500" rx="18" fill="url(#kb-dawn)"/>
  <g id="kb-tree"><path d="M0 390 C-13 348 19 309 64 306 C109 309 141 348 128.0 390 Z" fill="#11150f"/>
    <path d="M88.0 414 C74 362 108 314 156 310 C204 314 238 362 224.0 414 Z" fill="#11150f"/>
    <path d="M200.0 390 C188 344 218 301 260 298 C302 301 332 344 320.0 390 Z" fill="#11150f"/>
    <path d="M288.0 408 C274 359 308 314 356 310 C404 314 438 359 424.0 408 Z" fill="#11150f"/></g>
  <g id="kb-family"><g opacity="0.5"><path d="M73.0 300.2 L95.0 300.2" stroke="#11150f" stroke-width="1.4" stroke-linecap="round"/><path d="M75.2 292.0 C75.2 284.3 80.7 279.9 85.1 281.0 C89.5 282.1 92.8 287.6 92.8 292.0 C92.8 296.9 87.3 299.7 82.9 299.7 C78.5 299.7 75.2 296.4 75.2 292.0 Z" fill="#0c0a07"/><path d="M91.7 288.7 L98.3 290.4 L91.7 292.6 Z" fill="#0c0a07"/></g><g opacity="0.45"><path d="M318.0 289.0 L342.0 289.0" stroke="#11150f" stroke-width="1.5" stroke-linecap="round"/><path d="M320.4 280.0 C320.4 271.6 326.4 266.8 331.2 268.0 C336.0 269.2 339.6 275.2 339.6 280.0 C339.6 285.4 333.6 288.4 328.8 288.4 C324.0 288.4 320.4 284.8 320.4 280.0 Z" fill="#0c0a07"/><path d="M338.4 276.4 L345.6 278.2 L338.4 280.6 Z" fill="#0c0a07"/></g></g>
  <g filter="url(#kb-blur)"><path d="M13 306 C132 294 234 302 319 288 C387 278 455 284 533 272" fill="none" stroke="#241c15" stroke-width="9" stroke-linecap="round"/><path d="M13 306 C132 294 234 302 319 288 C387 278 455 284 533 272" fill="none" stroke="#171009" stroke-width="2.4" stroke-linecap="round" opacity=".6"/><path d="M183 290 L193 268" fill="none" stroke="#241c15" stroke-width="4" stroke-linecap="round"/><path d="M343 282 L370 262" fill="none" stroke="#241c15" stroke-width="3.4" stroke-linecap="round"/></g>
  <path d="M259.5 196.2 Q272 181.3 284.5 196.2" fill="none" stroke="#f9dca0" stroke-opacity="0.50" stroke-width="2.0" stroke-linecap="round"/>
    <path d="M250.2 200.9 Q272 174.7 293.8 200.9" fill="none" stroke="#f9dca0" stroke-opacity="0.36" stroke-width="2.0" stroke-linecap="round"/>
    <path d="M240.8 205.6 Q272 168.2 303.2 205.6" fill="none" stroke="#f9dca0" stroke-opacity="0.22" stroke-width="2.0" stroke-linecap="round"/>
  <ellipse cx="198" cy="321.76" rx="51.52" ry="11.280000000000001" fill="#0c0a07" fill-opacity=".4"/>
  
  <g id="kb-bird" transform="translate(198,250) scale(0.92)">
    <path d="M-16 40 L-20 64" fill="none" stroke="#4f4536" stroke-width="6" stroke-linecap="round"/><path d="M4 44 L2 66" fill="none" stroke="#4f4536" stroke-width="6" stroke-linecap="round"/><path d="M-26 64 L-8 64 M-20 64 L-20 70" fill="none" stroke="#4f4536" stroke-width="5" stroke-linecap="round"/><path d="M-8 66 L10 66 M2 66 L2 72" fill="none" stroke="#4f4536" stroke-width="5" stroke-linecap="round"/>
    <path d="M30 18 C58 30 82 40 96 58 C80 52 58 46 34 40 Z" fill="#7a6a52" stroke="#0c0a07" stroke-opacity=".8" stroke-width="1.6"/>
    <path d="M34 22 L46 44" stroke="#2b241b" stroke-width="4" stroke-linecap="round" opacity=".7"/>
      <path d="M47 29 L59 54" stroke="#2b241b" stroke-width="4" stroke-linecap="round" opacity=".7"/>
      <path d="M60 36 L72 64" stroke="#2b241b" stroke-width="4" stroke-linecap="round" opacity=".7"/>
    <path d="M-6 -8 C18 -4 40 10 44 34 C24 28 2 18 -10 2 Z" fill="#4f4536" opacity=".9"/>
    <path d="M-46 -4 C-48 -30 -30 -52 -2 -54 C26 -56 50 -38 52 -12 C54 10 42 30 20 38 C-2 46 -28 42 -40 24 C-46 14 -45 4 -46 -4 Z" fill="url(#kb-body)" stroke="#0c0a07" stroke-opacity=".85" stroke-width="1.8"/>
    <path d="M-38 6 C-36 -6 -24 -16 -10 -16 C2 -16 12 -6 14 8 C16 22 6 34 -10 36 C-26 38 -40 22 -38 6 Z" fill="url(#kb-cream)" opacity=".95"/>
    <path d="M-2 -14 C22 -10 46 6 50 32 C48 42 34 46 18 42 C2 34 -10 14 -2 -14 Z" fill="#7a6a52" stroke="#0c0a07" stroke-opacity=".7" stroke-width="1.4"/>
    <path d="M-40 -40 C-46 -58 -36 -76 -14 -80 C8 -84 28 -72 30 -52 C31 -38 22 -26 6 -22 C-14 -18 -34 -24 -40 -40 Z" fill="url(#kb-body)" stroke="#0c0a07" stroke-opacity=".85" stroke-width="1.8"/>
    <path d="M-38 -46 C-24 -40 -6 -40 8 -48" fill="none" stroke="#2b241b" stroke-width="6" stroke-linecap="round" opacity=".8"/>
    <path d="M22 -56 C52 -64 86 -66 108 -58 L96 -50 C70 -52 42 -50 22 -44 Z" fill="url(#kb-beak)" stroke="#0c0a07" stroke-opacity=".85" stroke-width="1.4"/>
    <path d="M24 -38 C52 -36 80 -34 100 -30 L90 -24 C64 -26 40 -28 22 -30 Z" fill="#3a3226" stroke="#0c0a07" stroke-opacity=".85" stroke-width="1.2"/>
    <circle cx="-6" cy="-54" r="4.2" fill="#0c0a07"/><circle cx="-7.5" cy="-55.5" r="1.3" fill="#e9dfc6" fill-opacity=".85"/>
  </g>
</svg>
