<svg xmlns="http://www.w3.org/2000/svg" viewBox="0 0 800 800" role="img" aria-label="A kookaburra perched on a bare gum-tree branch at first light, beak open mid-call, with the rest of its family group visible as smaller silhouettes in the canopy">
  <defs>
    <linearGradient id="kb-sky" x1="0" y1="0" x2="0" y2="1">
      <stop offset="0%" stop-color="#0d1114"/>
      <stop offset="55%" stop-color="#141a1f"/>
      <stop offset="100%" stop-color="#1b232b"/>
    </linearGradient>
    <radialGradient id="kb-dawn" cx="50%" cy="100%" r="85%">
      <stop offset="0%" stop-color="#f6c877" stop-opacity=".85"/>
      <stop offset="45%" stop-color="#c9793f" stop-opacity=".38"/>
      <stop offset="100%" stop-color="#c9793f" stop-opacity="0"/>
    </radialGradient>
    <linearGradient id="kb-body" x1="0" y1="0" x2="1" y2="1">
      <stop offset="0%" stop-color="#a89474"/>
      <stop offset="100%" stop-color="#4f4536"/>
    </linearGradient>
    <linearGradient id="kb-cream" x1="0" y1="0" x2="0" y2="1">
      <stop offset="0%" stop-color="#e9dfc6"/>
      <stop offset="100%" stop-color="#cabe9c"/>
    </linearGradient>
    <linearGradient id="kb-beak" x1="0" y1="0" x2="1" y2="1">
      <stop offset="0%" stop-color="#e8ddc4"/>
      <stop offset="100%" stop-color="#3a3226"/>
    </linearGradient>
    <filter id="kb-blur" x="-60%" y="-60%" width="220%" height="220%">
      <feGaussianBlur stdDeviation="8" result="b"/>
      <feMerge><feMergeNode in="b"/><feMergeNode in="SourceGraphic"/></feMerge>
    </filter>
  </defs>
  <rect width="800" height="800" rx="24" fill="url(#kb-sky)"/>
  <rect width="800" height="800" rx="24" fill="url(#kb-dawn)"/>
  <g id="kb-tree"><path d="M0 620 C-26 578 38 539 128 536 C218 539 282 578 256.0 620 Z" fill="#11150f"/>
    <path d="M176.0 644 C149 592 217 544 312 540 C407 544 475 592 448.0 644 Z" fill="#11150f"/>
    <path d="M400.0 620 C376 574 436 531 520 528 C604 531 664 574 640.0 620 Z" fill="#11150f"/>
    <path d="M576.0 638 C549 589 617 544 712 540 C807 544 875 589 848.0 638 Z" fill="#11150f"/></g>
  <g id="kb-family"><g opacity="0.55"><path d="M132.0 493.5 L168.0 493.5" stroke="#11150f" stroke-width="2.2" stroke-linecap="round"/><path d="M135.6 480.0 C135.6 467.4 144.6 460.2 151.8 462.0 C159.0 463.8 164.4 472.8 164.4 480.0 C164.4 488.1 155.4 492.6 148.2 492.6 C141.0 492.6 135.6 487.2 135.6 480.0 Z" fill="#0c0a07"/><path d="M162.6 474.6 L173.4 477.3 L162.6 480.9 Z" fill="#0c0a07"/></g><g opacity="0.4"><path d="M216.0 440.5 L244.0 440.5" stroke="#11150f" stroke-width="1.8" stroke-linecap="round"/><path d="M218.8 430.0 C218.8 420.2 225.8 414.6 231.4 416.0 C237.0 417.4 241.2 424.4 241.2 430.0 C241.2 436.3 234.2 439.8 228.6 439.8 C223.0 439.8 218.8 435.6 218.8 430.0 Z" fill="#0c0a07"/><path d="M239.8 425.8 L248.2 427.9 L239.8 430.7 Z" fill="#0c0a07"/></g><g opacity="0.5"><path d="M620.0 475.0 L660.0 475.0" stroke="#11150f" stroke-width="2.5" stroke-linecap="round"/><path d="M624.0 460.0 C624.0 446.0 634.0 438.0 642.0 440.0 C650.0 442.0 656.0 452.0 656.0 460.0 C656.0 469.0 646.0 474.0 638.0 474.0 C630.0 474.0 624.0 468.0 624.0 460.0 Z" fill="#0c0a07"/><path d="M654.0 454.0 L666.0 457.0 L654.0 461.0 Z" fill="#0c0a07"/></g></g>
  <g filter="url(#kb-blur)"><path d="M59 488 C276 476 462 484 617 470 C741 460 865 466 1008 454" fill="none" stroke="#241c15" stroke-width="9" stroke-linecap="round"/><path d="M59 488 C276 476 462 484 617 470 C741 460 865 466 1008 454" fill="none" stroke="#171009" stroke-width="2.4" stroke-linecap="round" opacity=".6"/><path d="M369 472 L388 450" fill="none" stroke="#241c15" stroke-width="4" stroke-linecap="round"/><path d="M660 464 L710 444" fill="none" stroke="#241c15" stroke-width="3.4" stroke-linecap="round"/></g>
  <path d="M535.2 310.4 Q556 285.4 576.8 310.4" fill="none" stroke="#f9dca0" stroke-opacity="0.50" stroke-width="3.4" stroke-linecap="round"/>
    <path d="M519.6 318.2 Q556 274.5 592.4 318.2" fill="none" stroke="#f9dca0" stroke-opacity="0.36" stroke-width="3.4" stroke-linecap="round"/>
    <path d="M504.0 326.0 Q556 263.6 608.0 326.0" fill="none" stroke="#f9dca0" stroke-opacity="0.22" stroke-width="3.4" stroke-linecap="round"/>
  <ellipse cx="400" cy="520.9" rx="86.8" ry="16.950000000000003" fill="#0c0a07" fill-opacity=".4"/>
  
  <g id="kb-bird" transform="translate(400,400) scale(1.55)">
    <path d="M-16 40 L-20 64" fill="none" stroke="#4f4536" stroke-width="6" stroke-linecap="round"/><path d="M4 44 L2 66" fill="none" stroke="#4f4536" stroke-width="6" stroke-linecap="round"/><path d="M-26 64 L-8 64 M-20 64 L-20 70" fill="none" stroke="#4f4536" stroke-width="5" stroke-linecap="round"/><path d="M-8 66 L10 66 M2 66 L2 72" fill="none" stroke="#4f4536" stroke-width="5" stroke-linecap="round"/>
    <path d="M30 18 C58 30 82 40 96 58 C80 52 58 46 34 40 Z" fill="#7a6a52" stroke="#0c0a07" stroke-opacity=".8" stroke-width="1.6"/>
    <path d="M34 22 L46 44" stroke="#2b241b" stroke-width="4" stroke-linecap="round" opacity=".7"/>
      <path d="M47 29 L59 54" stroke="#2b241b" stroke-width="4" stroke-linecap="round" opacity=".7"/>
      <path d="M60 36 L72 64" stroke="#2b241b" stroke-width="4" stroke-linecap="round" opacity=".7"/>
    <path d="M-6 -8 C18 -4 40 10 44 34 C24 28 2 18 -10 2 Z" fill="#4f4536" opacity=".9"/>
    <path d="M-46 -4 C-48 -30 -30 -52 -2 -54 C26 -56 50 -38 52 -12 C54 10 42 30 20 38 C-2 46 -28 42 -40 24 C-46 14 -45 4 -46 -4 Z" fill="url(#kb-body)" stroke="#0c0a07" stroke-opacity=".85" stroke-width="1.8"/>
    <path d="M-38 6 C-36 -6 -24 -16 -10 -16 C2 -16 12 -6 14 8 C16 22 6 34 -10 36 C-26 38 -40 22 -38 6 Z" fill="url(#kb-cream)" opacity=".95"/>
    <path d="M-2 -14 C22 -10 46 6 50 32 C48 42 34 46 18 42 C2 34 -10 14 -2 -14 Z" fill="#7a6a52" stroke="#0c0a07" stroke-opacity=".7" stroke-width="1.4"/>
    <path d="M-40 -40 C-46 -58 -36 -76 -14 -80 C8 -84 28 -72 30 -52 C31 -38 22 -26 6 -22 C-14 -18 -34 -24 -40 -40 Z" fill="url(#kb-body)" stroke="#0c0a07" stroke-opacity=".85" stroke-width="1.8"/>
    <path d="M-38 -46 C-24 -40 -6 -40 8 -48" fill="none" stroke="#2b241b" stroke-width="6" stroke-linecap="round" opacity=".8"/>
    <path d="M22 -56 C52 -64 86 -66 108 -58 L96 -50 C70 -52 42 -50 22 -44 Z" fill="url(#kb-beak)" stroke="#0c0a07" stroke-opacity=".85" stroke-width="1.4"/>
    <path d="M24 -38 C52 -36 80 -34 100 -30 L90 -24 C64 -26 40 -28 22 -30 Z" fill="#3a3226" stroke="#0c0a07" stroke-opacity=".85" stroke-width="1.2"/>
    <circle cx="-6" cy="-54" r="4.2" fill="#0c0a07"/><circle cx="-7.5" cy="-55.5" r="1.3" fill="#e9dfc6" fill-opacity=".85"/>
  </g>
</svg>
