<svg xmlns="http://www.w3.org/2000/svg" viewBox="0 0 400 500" role="img" aria-label="A leafcutter ant carrying a green leaf fragment along a pheromone trail in a dark forest understory">
  <defs>
    <radialGradient id="lo-night" cx="50%" cy="24%" r="92%">
      <stop offset="0%"  stop-color="#162418"/>
      <stop offset="45%" stop-color="#0d1e18"/>
      <stop offset="100%" stop-color="#08100c"/>
    </radialGradient>
    <radialGradient id="lo-spill">
      <stop offset="0%"   stop-color="#5aaf7a" stop-opacity=".14"/>
      <stop offset="100%" stop-color="#5aaf7a" stop-opacity="0"/>
    </radialGradient>
    <linearGradient id="lo-veil" x1="0" y1="0" x2="0" y2="1">
      <stop offset="0%"  stop-color="#08100c" stop-opacity="0"/>
      <stop offset="100%" stop-color="#08100c" stop-opacity=".72"/>
    </linearGradient>
    <linearGradient id="lo-leaf-sink" x1="0" y1="0" x2="0" y2="1">
      <stop offset="0%"   stop-color="#08100c" stop-opacity="0"/>
      <stop offset="100%" stop-color="#08100c" stop-opacity=".28"/>
    </linearGradient>
    <!-- Scaled clip paths for overture -->
    <clipPath id="lo-clip-leaf"><path d="M161 109 C177 101 195 103 206 113 C217 124 217 140 211 153 C204 167 191 175 178 178 C165 181 150 176 141 165 C131 154 131 137 138 126 C145 116 154 111 161 109 Z"/></clipPath>
    <clipPath id="lo-clip-gaster"><path d="M286 255 C286 275 278 290 265 296 C253 302 239 298 230 288 C221 278 219 264 221 254 C224 243 232 235 243 234 C255 233 286 237 286 255 Z"/></clipPath>
    <clipPath id="lo-clip-mesosoma"><path d="M218 254 C217 245 220 236 226 232 C232 228 240 228 244 233 C248 238 247 245 243 249 C233 255 219 259 218 254 Z M157 237 C157 229 165 223 175 223 C186 223 198 227 206 234 C211 239 213 247 211 252 C208 256 196 257 184 253 C170 249 157 245 157 237 Z"/></clipPath>
    <clipPath id="lo-clip-head"><path d="M140 236 C132 228 129 214 134 209 C139 200 151 197 161 201 C173 206 179 216 177 227 C175 237 165 243 155 242 C148 241 142 239 140 236 Z"/></clipPath>
  </defs>

  <g id="ov-ground">
    <rect width="400" height="500" rx="18" fill="url(#lo-night)"/>
    <ellipse cx="180" cy="150" rx="104" ry="90" fill="url(#lo-spill)"/>
  </g>

  <g id="ov-thicket">
    <path d="M46 424 Q41 381 73 351" fill="none" stroke="#1e3a20" stroke-opacity="0.22" stroke-width="1.0"/>
      <line x1="49" y1="415" x2="41" y2="403" stroke="#1e3a20" stroke-opacity="0.19" stroke-width="0.72" stroke-linecap="round"/>
      <line x1="49" y1="415" x2="63" y2="411" stroke="#1e3a20" stroke-opacity="0.19" stroke-width="0.72" stroke-linecap="round"/>
      <line x1="53" y1="406" x2="46" y2="395" stroke="#1e3a20" stroke-opacity="0.19" stroke-width="0.72" stroke-linecap="round"/>
      <line x1="53" y1="406" x2="65" y2="402" stroke="#1e3a20" stroke-opacity="0.19" stroke-width="0.72" stroke-linecap="round"/>
      <line x1="56" y1="397" x2="50" y2="387" stroke="#1e3a20" stroke-opacity="0.19" stroke-width="0.72" stroke-linecap="round"/>
      <line x1="56" y1="397" x2="67" y2="393" stroke="#1e3a20" stroke-opacity="0.19" stroke-width="0.72" stroke-linecap="round"/>
      <line x1="59" y1="387" x2="54" y2="379" stroke="#1e3a20" stroke-opacity="0.19" stroke-width="0.72" stroke-linecap="round"/>
      <line x1="59" y1="387" x2="69" y2="385" stroke="#1e3a20" stroke-opacity="0.19" stroke-width="0.72" stroke-linecap="round"/>
      <line x1="63" y1="378" x2="58" y2="371" stroke="#1e3a20" stroke-opacity="0.19" stroke-width="0.72" stroke-linecap="round"/>
      <line x1="63" y1="378" x2="71" y2="376" stroke="#1e3a20" stroke-opacity="0.19" stroke-width="0.72" stroke-linecap="round"/>
      <line x1="66" y1="369" x2="62" y2="363" stroke="#1e3a20" stroke-opacity="0.19" stroke-width="0.72" stroke-linecap="round"/>
      <line x1="66" y1="369" x2="73" y2="367" stroke="#1e3a20" stroke-opacity="0.19" stroke-width="0.72" stroke-linecap="round"/>
      <line x1="69" y1="360" x2="66" y2="355" stroke="#1e3a20" stroke-opacity="0.19" stroke-width="0.72" stroke-linecap="round"/>
      <line x1="69" y1="360" x2="75" y2="358" stroke="#1e3a20" stroke-opacity="0.19" stroke-width="0.72" stroke-linecap="round"/>
    <path d="M368 428 Q340 398 351 358" fill="none" stroke="#1e3a20" stroke-opacity="0.2" stroke-width="1.0"/>
      <line x1="366" y1="419" x2="354" y2="414" stroke="#1e3a20" stroke-opacity="0.17" stroke-width="0.72" stroke-linecap="round"/>
      <line x1="366" y1="419" x2="374" y2="409" stroke="#1e3a20" stroke-opacity="0.17" stroke-width="0.72" stroke-linecap="round"/>
      <line x1="364" y1="411" x2="353" y2="406" stroke="#1e3a20" stroke-opacity="0.17" stroke-width="0.72" stroke-linecap="round"/>
      <line x1="364" y1="411" x2="371" y2="401" stroke="#1e3a20" stroke-opacity="0.17" stroke-width="0.72" stroke-linecap="round"/>
      <line x1="361" y1="402" x2="352" y2="398" stroke="#1e3a20" stroke-opacity="0.17" stroke-width="0.72" stroke-linecap="round"/>
      <line x1="361" y1="402" x2="368" y2="394" stroke="#1e3a20" stroke-opacity="0.17" stroke-width="0.72" stroke-linecap="round"/>
      <line x1="359" y1="393" x2="351" y2="390" stroke="#1e3a20" stroke-opacity="0.17" stroke-width="0.72" stroke-linecap="round"/>
      <line x1="359" y1="393" x2="365" y2="386" stroke="#1e3a20" stroke-opacity="0.17" stroke-width="0.72" stroke-linecap="round"/>
      <line x1="357" y1="384" x2="350" y2="381" stroke="#1e3a20" stroke-opacity="0.17" stroke-width="0.72" stroke-linecap="round"/>
      <line x1="357" y1="384" x2="362" y2="378" stroke="#1e3a20" stroke-opacity="0.17" stroke-width="0.72" stroke-linecap="round"/>
      <line x1="355" y1="376" x2="349" y2="373" stroke="#1e3a20" stroke-opacity="0.17" stroke-width="0.72" stroke-linecap="round"/>
      <line x1="355" y1="376" x2="359" y2="371" stroke="#1e3a20" stroke-opacity="0.17" stroke-width="0.72" stroke-linecap="round"/>
      <line x1="353" y1="367" x2="348" y2="365" stroke="#1e3a20" stroke-opacity="0.17" stroke-width="0.72" stroke-linecap="round"/>
      <line x1="353" y1="367" x2="356" y2="363" stroke="#1e3a20" stroke-opacity="0.17" stroke-width="0.72" stroke-linecap="round"/>
    <circle cx="344.7" cy="414.0" r="0.59" fill="#080c08" fill-opacity="0.32"/>
      <circle cx="316.8" cy="466.7" r="0.92" fill="#080c08" fill-opacity="0.37"/>
      <circle cx="78.0" cy="424.3" r="1.25" fill="#080c08" fill-opacity="0.21"/>
      <circle cx="97.0" cy="434.4" r="0.85" fill="#080c08" fill-opacity="0.20"/>
      <circle cx="99.4" cy="455.8" r="0.62" fill="#080c08" fill-opacity="0.38"/>
      <circle cx="149.6" cy="440.1" r="0.81" fill="#080c08" fill-opacity="0.30"/>
      <circle cx="265.0" cy="474.2" r="1.26" fill="#080c08" fill-opacity="0.23"/>
      <circle cx="108.5" cy="415.4" r="0.52" fill="#080c08" fill-opacity="0.22"/>
      <circle cx="352.0" cy="436.1" r="0.81" fill="#080c08" fill-opacity="0.32"/>
      <circle cx="127.1" cy="441.7" r="0.54" fill="#080c08" fill-opacity="0.29"/>
      <circle cx="232.2" cy="461.8" r="1.00" fill="#080c08" fill-opacity="0.35"/>
      <circle cx="327.8" cy="444.3" r="1.19" fill="#080c08" fill-opacity="0.39"/>
      <circle cx="149.0" cy="421.6" r="0.71" fill="#080c08" fill-opacity="0.19"/>
      <circle cx="199.5" cy="470.5" r="0.60" fill="#080c08" fill-opacity="0.36"/>
      <circle cx="286.2" cy="437.8" r="1.03" fill="#080c08" fill-opacity="0.39"/>
      <circle cx="125.7" cy="410.8" r="0.52" fill="#080c08" fill-opacity="0.17"/>
      <circle cx="163.8" cy="445.4" r="0.96" fill="#080c08" fill-opacity="0.35"/>
      <circle cx="127.8" cy="439.5" r="1.28" fill="#080c08" fill-opacity="0.36"/>
      <circle cx="218.5" cy="421.6" r="0.85" fill="#080c08" fill-opacity="0.39"/>
      <circle cx="217.0" cy="421.5" r="0.52" fill="#080c08" fill-opacity="0.29"/>
      <circle cx="184.8" cy="468.0" r="0.71" fill="#080c08" fill-opacity="0.30"/>
      <circle cx="343.9" cy="462.2" r="1.12" fill="#080c08" fill-opacity="0.40"/>
      <circle cx="336.4" cy="467.8" r="1.11" fill="#080c08" fill-opacity="0.33"/>
      <circle cx="328.6" cy="445.8" r="1.16" fill="#080c08" fill-opacity="0.28"/>
      <circle cx="56.3" cy="427.6" r="0.88" fill="#080c08" fill-opacity="0.38"/>
      <circle cx="337.6" cy="418.4" r="1.03" fill="#080c08" fill-opacity="0.29"/>
      <circle cx="270.5" cy="478.2" r="0.79" fill="#080c08" fill-opacity="0.38"/>
      <circle cx="72.1" cy="436.3" r="1.13" fill="#080c08" fill-opacity="0.28"/>
      <circle cx="250.0" cy="452.5" r="0.43" fill="#080c08" fill-opacity="0.26"/>
      <circle cx="201.9" cy="417.1" r="1.15" fill="#080c08" fill-opacity="0.39"/>
      <circle cx="239.3" cy="472.0" r="0.84" fill="#080c08" fill-opacity="0.26"/>
      <circle cx="177.4" cy="460.0" r="0.45" fill="#080c08" fill-opacity="0.34"/>
      <circle cx="149.1" cy="424.4" r="1.13" fill="#080c08" fill-opacity="0.33"/>
      <circle cx="382.9" cy="449.2" r="0.77" fill="#080c08" fill-opacity="0.40"/>
      <circle cx="363.3" cy="455.1" r="1.25" fill="#080c08" fill-opacity="0.18"/>
      <circle cx="109.3" cy="472.9" r="1.24" fill="#080c08" fill-opacity="0.27"/>
      <circle cx="46.0" cy="446.4" r="0.61" fill="#080c08" fill-opacity="0.38"/>
      <circle cx="217.6" cy="426.9" r="1.23" fill="#080c08" fill-opacity="0.26"/>
      <circle cx="255.7" cy="457.0" r="0.86" fill="#080c08" fill-opacity="0.28"/>
      <circle cx="261.3" cy="410.5" r="1.29" fill="#080c08" fill-opacity="0.36"/>
      <circle cx="195.3" cy="479.4" r="0.43" fill="#080c08" fill-opacity="0.32"/>
      <circle cx="321.0" cy="416.4" r="1.06" fill="#080c08" fill-opacity="0.33"/>
      <circle cx="66.2" cy="454.4" r="0.50" fill="#080c08" fill-opacity="0.33"/>
      <circle cx="206.0" cy="451.2" r="1.22" fill="#080c08" fill-opacity="0.38"/>
      <circle cx="302.1" cy="417.2" r="0.60" fill="#080c08" fill-opacity="0.19"/>
      <circle cx="130.5" cy="457.7" r="0.62" fill="#080c08" fill-opacity="0.35"/>
      <circle cx="346.5" cy="462.6" r="0.98" fill="#080c08" fill-opacity="0.26"/>
      <circle cx="176.1" cy="407.0" r="0.86" fill="#080c08" fill-opacity="0.34"/>
      <circle cx="311.2" cy="456.0" r="0.41" fill="#080c08" fill-opacity="0.17"/>
      <circle cx="168.6" cy="440.2" r="0.46" fill="#080c08" fill-opacity="0.23"/>
      <circle cx="147.8" cy="406.2" r="1.00" fill="#080c08" fill-opacity="0.31"/>
      <circle cx="208.4" cy="434.2" r="1.17" fill="#080c08" fill-opacity="0.33"/>
      <circle cx="253.6" cy="405.9" r="1.25" fill="#080c08" fill-opacity="0.28"/>
      <circle cx="72.4" cy="418.8" r="1.02" fill="#080c08" fill-opacity="0.29"/>
      <circle cx="117.6" cy="475.2" r="1.00" fill="#080c08" fill-opacity="0.29"/>
      <circle cx="174.1" cy="458.5" r="0.82" fill="#080c08" fill-opacity="0.22"/>
      <circle cx="369.8" cy="447.7" r="0.92" fill="#080c08" fill-opacity="0.22"/>
      <circle cx="198.0" cy="448.3" r="1.06" fill="#080c08" fill-opacity="0.32"/>
      <circle cx="294.0" cy="456.2" r="0.93" fill="#080c08" fill-opacity="0.24"/>
      <circle cx="82.7" cy="414.6" r="0.91" fill="#080c08" fill-opacity="0.32"/>
      <circle cx="166.3" cy="410.4" r="1.02" fill="#080c08" fill-opacity="0.18"/>
      <circle cx="252.7" cy="423.1" r="1.06" fill="#080c08" fill-opacity="0.36"/>
      <circle cx="333.8" cy="450.5" r="0.70" fill="#080c08" fill-opacity="0.39"/>
      <circle cx="213.8" cy="451.7" r="0.65" fill="#080c08" fill-opacity="0.19"/>
      <circle cx="309.4" cy="420.5" r="0.76" fill="#080c08" fill-opacity="0.39"/>
      <circle cx="357.4" cy="427.8" r="0.43" fill="#080c08" fill-opacity="0.21"/>
      <circle cx="208.9" cy="440.7" r="0.80" fill="#080c08" fill-opacity="0.35"/>
      <circle cx="277.1" cy="437.3" r="1.30" fill="#080c08" fill-opacity="0.25"/>
      <circle cx="83.2" cy="472.8" r="0.61" fill="#080c08" fill-opacity="0.22"/>
      <circle cx="264.6" cy="458.6" r="0.65" fill="#080c08" fill-opacity="0.26"/>
      <circle cx="275.9" cy="477.5" r="1.26" fill="#080c08" fill-opacity="0.27"/>
      <circle cx="181.0" cy="436.3" r="1.10" fill="#080c08" fill-opacity="0.20"/>
      <circle cx="53.8" cy="447.0" r="1.00" fill="#080c08" fill-opacity="0.21"/>
      <circle cx="363.3" cy="435.0" r="0.59" fill="#080c08" fill-opacity="0.34"/>
      <circle cx="338.1" cy="451.6" r="0.45" fill="#080c08" fill-opacity="0.28"/>
      <circle cx="218.5" cy="439.2" r="1.20" fill="#080c08" fill-opacity="0.27"/>
      <circle cx="23.9" cy="435.6" r="1.28" fill="#080c08" fill-opacity="0.38"/>
      <circle cx="379.5" cy="436.7" r="0.44" fill="#080c08" fill-opacity="0.40"/>
      <circle cx="136.5" cy="463.2" r="0.59" fill="#080c08" fill-opacity="0.23"/>
      <circle cx="36.3" cy="421.2" r="0.54" fill="#080c08" fill-opacity="0.17"/>
      <circle cx="288.5" cy="413.0" r="0.64" fill="#080c08" fill-opacity="0.19"/>
      <circle cx="169.0" cy="403.1" r="1.01" fill="#080c08" fill-opacity="0.21"/>
      <circle cx="201.1" cy="470.8" r="1.26" fill="#080c08" fill-opacity="0.20"/>
      <circle cx="359.0" cy="443.9" r="0.47" fill="#080c08" fill-opacity="0.38"/>
      <circle cx="95.1" cy="420.1" r="0.90" fill="#080c08" fill-opacity="0.26"/>
      <circle cx="86.6" cy="449.1" r="0.54" fill="#080c08" fill-opacity="0.22"/>
      <circle cx="176.3" cy="457.3" r="0.75" fill="#080c08" fill-opacity="0.20"/>
      <circle cx="324.1" cy="451.3" r="0.45" fill="#080c08" fill-opacity="0.32"/>
      <circle cx="385.0" cy="443.9" r="0.77" fill="#080c08" fill-opacity="0.29"/>
      <circle cx="32.1" cy="444.1" r="0.49" fill="#080c08" fill-opacity="0.18"/>
      <circle cx="23.5" cy="425.7" r="0.57" fill="#080c08" fill-opacity="0.19"/>
      <circle cx="216.3" cy="421.8" r="1.26" fill="#080c08" fill-opacity="0.36"/>
      <circle cx="220.9" cy="417.8" r="0.79" fill="#080c08" fill-opacity="0.32"/>
      <circle cx="45.3" cy="443.4" r="0.82" fill="#080c08" fill-opacity="0.38"/>
      <circle cx="278.9" cy="449.6" r="0.95" fill="#080c08" fill-opacity="0.40"/>
      <circle cx="54.1" cy="457.6" r="0.90" fill="#080c08" fill-opacity="0.39"/>
      <circle cx="206.9" cy="474.1" r="0.93" fill="#080c08" fill-opacity="0.32"/>
      <circle cx="120.6" cy="426.0" r="0.73" fill="#080c08" fill-opacity="0.37"/>
      <circle cx="180.9" cy="480.7" r="0.95" fill="#080c08" fill-opacity="0.35"/>
      <circle cx="190.6" cy="410.9" r="0.88" fill="#080c08" fill-opacity="0.29"/>
  </g>

  <!-- pheromone trail, smaller scale -->
  <g id="ov-trail">
    <line x1="42.4" y1="294.0" x2="55.3" y2="294.5" stroke="#9aa5ae" stroke-opacity="0.27" stroke-width="1.05" stroke-linecap="round"/>
      <line x1="61.7" y1="291.4" x2="73.6" y2="291.4" stroke="#9aa5ae" stroke-opacity="0.31" stroke-width="1.02" stroke-linecap="round"/>
      <line x1="83.8" y1="291.6" x2="100.0" y2="292.0" stroke="#9aa5ae" stroke-opacity="0.26" stroke-width="1.09" stroke-linecap="round"/>
      <line x1="103.5" y1="294.4" x2="112.2" y2="294.1" stroke="#9aa5ae" stroke-opacity="0.36" stroke-width="1.17" stroke-linecap="round"/>
      <line x1="127.4" y1="291.1" x2="142.5" y2="290.4" stroke="#9aa5ae" stroke-opacity="0.32" stroke-width="1.02" stroke-linecap="round"/>
      <line x1="147.0" y1="293.0" x2="161.5" y2="293.6" stroke="#9aa5ae" stroke-opacity="0.22" stroke-width="0.97" stroke-linecap="round"/>
      <line x1="165.9" y1="292.3" x2="180.6" y2="292.3" stroke="#9aa5ae" stroke-opacity="0.23" stroke-width="1.00" stroke-linecap="round"/>
      <line x1="192.3" y1="296.2" x2="203.6" y2="296.4" stroke="#9aa5ae" stroke-opacity="0.26" stroke-width="1.01" stroke-linecap="round"/>
      <line x1="213.6" y1="291.8" x2="226.1" y2="291.8" stroke="#9aa5ae" stroke-opacity="0.22" stroke-width="0.90" stroke-linecap="round"/>
      <line x1="233.9" y1="291.5" x2="252.7" y2="291.4" stroke="#9aa5ae" stroke-opacity="0.27" stroke-width="0.63" stroke-linecap="round"/>
      <line x1="256.2" y1="292.2" x2="265.6" y2="292.2" stroke="#9aa5ae" stroke-opacity="0.26" stroke-width="1.00" stroke-linecap="round"/>
      <line x1="270.2" y1="295.5" x2="286.4" y2="294.9" stroke="#9aa5ae" stroke-opacity="0.26" stroke-width="0.61" stroke-linecap="round"/>
      <line x1="292.0" y1="291.4" x2="312.3" y2="290.9" stroke="#9aa5ae" stroke-opacity="0.23" stroke-width="0.68" stroke-linecap="round"/>
      <line x1="315.6" y1="291.8" x2="332.7" y2="290.9" stroke="#9aa5ae" stroke-opacity="0.24" stroke-width="0.98" stroke-linecap="round"/>
      <line x1="337.0" y1="294.8" x2="352.9" y2="295.5" stroke="#9aa5ae" stroke-opacity="0.22" stroke-width="1.17" stroke-linecap="round"/>
      <line x1="360.8" y1="292.3" x2="380.0" y2="292.3" stroke="#9aa5ae" stroke-opacity="0.23" stroke-width="0.70" stroke-linecap="round"/>
  </g>

  <!-- overture ant+leaf: scaled version of the hero composition -->
  <!-- Leaf at ~52% scale, shifted to fit the 400×500 frame -->
  <g transform="translate(40,60) scale(0.52)">
    <!-- leaf -->
    <path d="M310 210 C340 195 376 198 396 218 C418 240 418 270 406 295 C392 322 368 338 342 344 C316 350 288 340 270 318 C250 296 250 264 266 242 C278 224 296 216 310 210 Z"
          fill="#3d7a5c" fill-opacity=".90"/>
    <g clip-path="url(#lo-clip-leaf)">
      <line x1="668.9" y1="434.7" x2="407.5" y2="638.9" stroke="#1a3a28" stroke-opacity="0.28" stroke-width="0.8"/>
      <line x1="664.1" y1="429.1" x2="402.7" y2="633.3" stroke="#1a3a28" stroke-opacity="0.28" stroke-width="0.8"/>
      <line x1="658.6" y1="423.6" x2="397.3" y2="627.8" stroke="#1a3a28" stroke-opacity="0.24" stroke-width="0.8"/>
      <line x1="654.2" y1="418.1" x2="392.8" y2="622.3" stroke="#1a3a28" stroke-opacity="0.30" stroke-width="0.8"/>
      <line x1="650.0" y1="412.6" x2="388.7" y2="616.8" stroke="#1a3a28" stroke-opacity="0.23" stroke-width="0.8"/>
      <line x1="647.9" y1="407.1" x2="386.5" y2="611.3" stroke="#1a3a28" stroke-opacity="0.36" stroke-width="0.8"/>
      <line x1="642.8" y1="401.6" x2="381.4" y2="605.8" stroke="#1a3a28" stroke-opacity="0.37" stroke-width="0.8"/>
      <line x1="637.5" y1="396.0" x2="376.1" y2="600.2" stroke="#1a3a28" stroke-opacity="0.25" stroke-width="0.8"/>
      <line x1="633.5" y1="390.5" x2="372.1" y2="594.7" stroke="#1a3a28" stroke-opacity="0.34" stroke-width="0.8"/>
      <line x1="629.4" y1="385.0" x2="368.0" y2="589.2" stroke="#1a3a28" stroke-opacity="0.24" stroke-width="0.8"/>
      <line x1="625.3" y1="379.5" x2="363.9" y2="583.7" stroke="#1a3a28" stroke-opacity="0.33" stroke-width="0.8"/>
      <line x1="620.0" y1="374.0" x2="358.6" y2="578.2" stroke="#1a3a28" stroke-opacity="0.36" stroke-width="0.8"/>
      <line x1="617.1" y1="368.5" x2="355.7" y2="572.7" stroke="#1a3a28" stroke-opacity="0.27" stroke-width="0.8"/>
      <line x1="611.7" y1="362.9" x2="350.4" y2="567.1" stroke="#1a3a28" stroke-opacity="0.23" stroke-width="0.8"/>
      <line x1="606.7" y1="357.4" x2="345.4" y2="561.6" stroke="#1a3a28" stroke-opacity="0.21" stroke-width="0.8"/>
      <line x1="604.4" y1="351.9" x2="343.0" y2="556.1" stroke="#1a3a28" stroke-opacity="0.23" stroke-width="0.8"/>
      <line x1="599.7" y1="346.4" x2="338.4" y2="550.6" stroke="#1a3a28" stroke-opacity="0.26" stroke-width="0.8"/>
      <line x1="595.6" y1="340.9" x2="334.2" y2="545.1" stroke="#1a3a28" stroke-opacity="0.41" stroke-width="0.8"/>
      <line x1="589.5" y1="335.4" x2="328.1" y2="539.6" stroke="#1a3a28" stroke-opacity="0.28" stroke-width="0.8"/>
      <line x1="585.9" y1="329.9" x2="324.6" y2="534.0" stroke="#1a3a28" stroke-opacity="0.40" stroke-width="0.8"/>
      <line x1="581.6" y1="324.3" x2="320.2" y2="528.5" stroke="#1a3a28" stroke-opacity="0.39" stroke-width="0.8"/>
      <line x1="576.9" y1="318.8" x2="315.6" y2="523.0" stroke="#1a3a28" stroke-opacity="0.41" stroke-width="0.8"/>
      <line x1="572.7" y1="313.3" x2="311.4" y2="517.5" stroke="#1a3a28" stroke-opacity="0.38" stroke-width="0.8"/>
      <line x1="568.3" y1="307.8" x2="307.0" y2="512.0" stroke="#1a3a28" stroke-opacity="0.41" stroke-width="0.8"/>
      <line x1="565.2" y1="302.3" x2="303.9" y2="506.5" stroke="#1a3a28" stroke-opacity="0.26" stroke-width="0.8"/>
      <line x1="559.6" y1="296.8" x2="298.3" y2="501.0" stroke="#1a3a28" stroke-opacity="0.27" stroke-width="0.8"/>
      <line x1="555.6" y1="291.2" x2="294.2" y2="495.4" stroke="#1a3a28" stroke-opacity="0.33" stroke-width="0.8"/>
      <line x1="551.0" y1="285.7" x2="289.6" y2="489.9" stroke="#1a3a28" stroke-opacity="0.28" stroke-width="0.8"/>
      <line x1="548.2" y1="280.2" x2="286.8" y2="484.4" stroke="#1a3a28" stroke-opacity="0.37" stroke-width="0.8"/>
      <line x1="543.8" y1="274.7" x2="282.5" y2="478.9" stroke="#1a3a28" stroke-opacity="0.37" stroke-width="0.8"/>
      <line x1="540.1" y1="269.2" x2="278.8" y2="473.4" stroke="#1a3a28" stroke-opacity="0.39" stroke-width="0.8"/>
      <line x1="534.6" y1="263.7" x2="273.3" y2="467.9" stroke="#1a3a28" stroke-opacity="0.38" stroke-width="0.8"/>
      <line x1="529.2" y1="258.1" x2="267.8" y2="462.3" stroke="#1a3a28" stroke-opacity="0.30" stroke-width="0.8"/>
      <line x1="526.5" y1="252.6" x2="265.1" y2="456.8" stroke="#1a3a28" stroke-opacity="0.39" stroke-width="0.8"/>
      <line x1="521.9" y1="247.1" x2="260.5" y2="451.3" stroke="#1a3a28" stroke-opacity="0.27" stroke-width="0.8"/>
      <line x1="517.1" y1="241.6" x2="255.8" y2="445.8" stroke="#1a3a28" stroke-opacity="0.37" stroke-width="0.8"/>
      <line x1="513.9" y1="236.1" x2="252.5" y2="440.3" stroke="#1a3a28" stroke-opacity="0.28" stroke-width="0.8"/>
      <line x1="508.3" y1="230.6" x2="246.9" y2="434.8" stroke="#1a3a28" stroke-opacity="0.38" stroke-width="0.8"/>
      <line x1="503.7" y1="225.0" x2="242.4" y2="429.2" stroke="#1a3a28" stroke-opacity="0.29" stroke-width="0.8"/>
      <line x1="501.3" y1="219.5" x2="239.9" y2="423.7" stroke="#1a3a28" stroke-opacity="0.26" stroke-width="0.8"/>
      <line x1="496.3" y1="214.0" x2="234.9" y2="418.2" stroke="#1a3a28" stroke-opacity="0.29" stroke-width="0.8"/>
      <line x1="490.4" y1="208.5" x2="229.1" y2="412.7" stroke="#1a3a28" stroke-opacity="0.42" stroke-width="0.8"/>
      <line x1="488.1" y1="203.0" x2="226.7" y2="407.2" stroke="#1a3a28" stroke-opacity="0.25" stroke-width="0.8"/>
      <line x1="483.4" y1="197.5" x2="222.1" y2="401.7" stroke="#1a3a28" stroke-opacity="0.26" stroke-width="0.8"/>
      <line x1="478.8" y1="191.9" x2="217.4" y2="396.1" stroke="#1a3a28" stroke-opacity="0.23" stroke-width="0.8"/>
      <line x1="475.5" y1="186.4" x2="214.1" y2="390.6" stroke="#1a3a28" stroke-opacity="0.37" stroke-width="0.8"/>
      <line x1="469.2" y1="180.9" x2="207.8" y2="385.1" stroke="#1a3a28" stroke-opacity="0.21" stroke-width="0.8"/>
      <line x1="465.3" y1="175.4" x2="204.0" y2="379.6" stroke="#1a3a28" stroke-opacity="0.36" stroke-width="0.8"/>
      <line x1="461.3" y1="169.9" x2="200.0" y2="374.1" stroke="#1a3a28" stroke-opacity="0.37" stroke-width="0.8"/>
      <line x1="456.3" y1="164.4" x2="194.9" y2="368.6" stroke="#1a3a28" stroke-opacity="0.22" stroke-width="0.8"/>
      <line x1="453.2" y1="158.9" x2="191.8" y2="363.1" stroke="#1a3a28" stroke-opacity="0.34" stroke-width="0.8"/>
      <line x1="448.6" y1="153.3" x2="187.2" y2="357.5" stroke="#1a3a28" stroke-opacity="0.39" stroke-width="0.8"/>
      <line x1="443.2" y1="147.8" x2="181.9" y2="352.0" stroke="#1a3a28" stroke-opacity="0.35" stroke-width="0.8"/>
      <line x1="440.9" y1="142.3" x2="179.5" y2="346.5" stroke="#1a3a28" stroke-opacity="0.39" stroke-width="0.8"/>
      <line x1="434.9" y1="136.8" x2="173.5" y2="341.0" stroke="#1a3a28" stroke-opacity="0.32" stroke-width="0.8"/>
      <line x1="431.6" y1="131.3" x2="170.2" y2="335.5" stroke="#1a3a28" stroke-opacity="0.42" stroke-width="0.8"/>
      <line x1="426.6" y1="125.8" x2="165.2" y2="330.0" stroke="#1a3a28" stroke-opacity="0.38" stroke-width="0.8"/>
      <line x1="421.8" y1="120.2" x2="160.5" y2="324.4" stroke="#1a3a28" stroke-opacity="0.30" stroke-width="0.8"/>
      <line x1="418.8" y1="114.7" x2="157.5" y2="318.9" stroke="#1a3a28" stroke-opacity="0.27" stroke-width="0.8"/>
      <line x1="414.9" y1="109.2" x2="153.5" y2="313.4" stroke="#1a3a28" stroke-opacity="0.27" stroke-width="0.8"/>
      <line x1="410.8" y1="103.7" x2="149.4" y2="307.9" stroke="#1a3a28" stroke-opacity="0.27" stroke-width="0.8"/>
      <line x1="404.7" y1="98.2" x2="143.3" y2="302.4" stroke="#1a3a28" stroke-opacity="0.32" stroke-width="0.8"/>
      <line x1="399.9" y1="92.7" x2="138.5" y2="296.9" stroke="#1a3a28" stroke-opacity="0.27" stroke-width="0.8"/>
      <line x1="397.8" y1="87.1" x2="136.5" y2="291.3" stroke="#1a3a28" stroke-opacity="0.35" stroke-width="0.8"/>
      <line x1="391.3" y1="81.6" x2="130.0" y2="285.8" stroke="#1a3a28" stroke-opacity="0.35" stroke-width="0.8"/>
      <line x1="387.8" y1="76.1" x2="126.5" y2="280.3" stroke="#1a3a28" stroke-opacity="0.35" stroke-width="0.8"/>
      <line x1="384.8" y1="70.6" x2="123.4" y2="274.8" stroke="#1a3a28" stroke-opacity="0.41" stroke-width="0.8"/>
      <line x1="380.3" y1="65.1" x2="118.9" y2="269.3" stroke="#1a3a28" stroke-opacity="0.33" stroke-width="0.8"/>
      <line x1="374.5" y1="59.6" x2="113.1" y2="263.8" stroke="#1a3a28" stroke-opacity="0.30" stroke-width="0.8"/>
      <line x1="371.3" y1="54.0" x2="109.9" y2="258.2" stroke="#1a3a28" stroke-opacity="0.35" stroke-width="0.8"/>
      <line x1="366.3" y1="48.5" x2="105.0" y2="252.7" stroke="#1a3a28" stroke-opacity="0.28" stroke-width="0.8"/>
      <line x1="362.4" y1="43.0" x2="101.0" y2="247.2" stroke="#1a3a28" stroke-opacity="0.28" stroke-width="0.8"/>
      <line x1="358.5" y1="37.5" x2="97.2" y2="241.7" stroke="#1a3a28" stroke-opacity="0.38" stroke-width="0.8"/>
      <line x1="353.6" y1="32.0" x2="92.2" y2="236.2" stroke="#1a3a28" stroke-opacity="0.29" stroke-width="0.8"/>
      <line x1="348.9" y1="26.5" x2="87.6" y2="230.7" stroke="#1a3a28" stroke-opacity="0.27" stroke-width="0.8"/>
      <line x1="345.3" y1="21.0" x2="84.0" y2="225.1" stroke="#1a3a28" stroke-opacity="0.37" stroke-width="0.8"/>
      <line x1="340.9" y1="15.4" x2="79.5" y2="219.6" stroke="#1a3a28" stroke-opacity="0.31" stroke-width="0.8"/>
      <line x1="337.3" y1="9.9" x2="76.0" y2="214.1" stroke="#1a3a28" stroke-opacity="0.37" stroke-width="0.8"/>
      <line x1="332.1" y1="4.4" x2="70.7" y2="208.6" stroke="#1a3a28" stroke-opacity="0.25" stroke-width="0.8"/>
      <line x1="328.7" y1="-1.1" x2="67.3" y2="203.1" stroke="#1a3a28" stroke-opacity="0.37" stroke-width="0.8"/>
      <line x1="323.1" y1="-6.6" x2="61.8" y2="197.6" stroke="#1a3a28" stroke-opacity="0.27" stroke-width="0.8"/>
      <line x1="320.2" y1="-12.1" x2="58.8" y2="192.1" stroke="#1a3a28" stroke-opacity="0.31" stroke-width="0.8"/>
      <line x1="316.0" y1="-17.7" x2="54.6" y2="186.5" stroke="#1a3a28" stroke-opacity="0.36" stroke-width="0.8"/>
      <line x1="310.7" y1="-23.2" x2="49.3" y2="181.0" stroke="#1a3a28" stroke-opacity="0.33" stroke-width="0.8"/>
      <line x1="305.6" y1="-28.7" x2="44.2" y2="175.5" stroke="#1a3a28" stroke-opacity="0.24" stroke-width="0.8"/>
      <line x1="303.1" y1="-34.2" x2="41.7" y2="170.0" stroke="#1a3a28" stroke-opacity="0.34" stroke-width="0.8"/>
      <line x1="297.7" y1="-39.7" x2="36.3" y2="164.5" stroke="#1a3a28" stroke-opacity="0.22" stroke-width="0.8"/>
      <line x1="294.3" y1="-45.2" x2="32.9" y2="159.0" stroke="#1a3a28" stroke-opacity="0.36" stroke-width="0.8"/>
      <line x1="288.2" y1="-50.8" x2="26.8" y2="153.4" stroke="#1a3a28" stroke-opacity="0.30" stroke-width="0.8"/>
      <line x1="283.6" y1="-56.3" x2="22.2" y2="147.9" stroke="#1a3a28" stroke-opacity="0.41" stroke-width="0.8"/>
      <line x1="279.9" y1="-61.8" x2="18.6" y2="142.4" stroke="#1a3a28" stroke-opacity="0.25" stroke-width="0.8"/>
      <line x1="275.8" y1="-67.3" x2="14.4" y2="136.9" stroke="#1a3a28" stroke-opacity="0.24" stroke-width="0.8"/>
      <line x1="271.0" y1="-72.8" x2="9.6" y2="131.4" stroke="#1a3a28" stroke-opacity="0.33" stroke-width="0.8"/>
      <line x1="266.9" y1="-78.3" x2="5.5" y2="125.9" stroke="#1a3a28" stroke-opacity="0.36" stroke-width="0.8"/>
      <line x1="262.8" y1="-83.9" x2="1.4" y2="120.3" stroke="#1a3a28" stroke-opacity="0.41" stroke-width="0.8"/>
      <path d="M340 215 C368 210 394 226 400 250 C406 272 394 292 376 302"
            fill="#5aaf7a" fill-opacity=".26"/>
    </g>
    <line x1="261.7" y1="268.4" x2="398.3" y2="287.6" stroke="#d4d8dc" stroke-opacity=".18" stroke-width="1.1"/>
      <path d="M284.4 271.6 Q288.4 285.4 300.4 299.2" fill="none" stroke="#d4d8dc" stroke-opacity="0.17" stroke-width=".7"/>
      <path d="M284.4 271.6 Q299.9 260.5 307.4 249.5" fill="none" stroke="#d4d8dc" stroke-opacity="0.17" stroke-width=".7"/>
      <path d="M307.2 274.8 Q314.2 293.9 329.3 313.0" fill="none" stroke="#d4d8dc" stroke-opacity="0.21" stroke-width=".7"/>
      <path d="M307.2 274.8 Q327.1 259.5 338.9 244.2" fill="none" stroke="#d4d8dc" stroke-opacity="0.21" stroke-width=".7"/>
      <path d="M330.0 278.0 Q340.1 302.4 358.1 326.7" fill="none" stroke="#d4d8dc" stroke-opacity="0.25" stroke-width=".7"/>
      <path d="M330.0 278.0 Q354.2 258.5 370.5 238.9" fill="none" stroke="#d4d8dc" stroke-opacity="0.25" stroke-width=".7"/>
      <path d="M352.8 281.2 Q359.8 300.3 374.8 319.4" fill="none" stroke="#d4d8dc" stroke-opacity="0.29" stroke-width=".7"/>
      <path d="M352.8 281.2 Q372.6 265.9 384.5 250.6" fill="none" stroke="#d4d8dc" stroke-opacity="0.29" stroke-width=".7"/>
      <path d="M375.6 284.4 Q379.5 298.2 391.5 312.0" fill="none" stroke="#d4d8dc" stroke-opacity="0.33" stroke-width=".7"/>
      <path d="M375.6 284.4 Q391.0 273.3 398.5 262.3" fill="none" stroke="#d4d8dc" stroke-opacity="0.33" stroke-width=".7"/>
    <path d="M270 318 C276 332 286 344 300 350 C314 356 328 352 342 344"
          fill="none" stroke="#d4d8dc" stroke-opacity=".36" stroke-width="2.0" stroke-linecap="round"/>
    <path d="M310 210 C340 195 376 198 396 218 C418 240 418 270 406 295 C392 322 368 338 342 344 C316 350 288 340 270 318 C250 296 250 264 266 242 C278 224 296 216 310 210 Z"
          fill="none" stroke="#1a3a28" stroke-opacity=".80" stroke-width="1.4"/>
    <path d="M310 210 C340 195 376 198 396 218 C418 240 418 270 406 295 C392 322 368 338 342 344 C316 350 288 340 270 318 C250 296 250 264 266 242 C278 224 296 216 310 210 Z"
          fill="url(#lo-leaf-sink)" fill-opacity="1"/>

    <!-- ant at this scale -->
    <g id="lo-ant-legs" stroke="#3a1e0a" stroke-opacity=".88" stroke-linecap="round" stroke-linejoin="round" fill="none" stroke-width="3.6">
      <polyline points="318,438 296,490 262,538"/>
      <polyline points="310,438 278,476 248,510"/>
      <polyline points="360,476 344,532 322,572"/>
      <polyline points="408,482 400,538 390,580"/>
    </g>
    <path d="M550 490 C550 528 534 558 510 568 C486 578 460 572 442 554 C424 536 418 510 424 488 C430 466 446 452 466 450 C490 448 550 456 550 490 Z" fill="#3a1e0a" fill-opacity=".96"/>
    <path d="M550 490 C550 528 534 558 510 568 C486 578 460 572 442 554 C424 536 418 510 424 488 C430 466 446 452 466 450 C490 448 550 456 550 490 Z" fill="none" stroke="#080c08" stroke-opacity=".82" stroke-width="1.4"/>
    <path d="M406 484 C404 476 408 468 416 466 C424 464 432 468 432 476 C432 482 428 488 420 490 C412 492 406 490 406 484 Z M390 480 C388 474 392 466 400 464 C408 462 416 466 416 474 C416 480 412 486 404 488 C396 490 390 486 390 480 Z" fill="#5c3015" fill-opacity=".92"/>
    <path d="M418 488 C416 472 422 454 434 446 C446 438 462 438 470 448 C478 458 476 472 468 480 C448 492 424 498 418 488 Z M302 456 C302 440 318 428 338 428 C360 428 382 436 396 450 C406 460 412 476 406 484 C398 492 376 494 354 488 C326 480 302 472 302 456 Z" fill="#3a1e0a" fill-opacity=".96"/>
    <path d="M418 488 C416 472 422 454 434 446 C446 438 462 438 470 448 C478 458 476 472 468 480 C448 492 424 498 418 488 Z M302 456 C302 440 318 428 338 428 C360 428 382 436 396 450 C406 460 412 476 406 484 C398 492 376 494 354 488 C326 480 302 472 302 456 Z" fill="none" stroke="#080c08" stroke-opacity=".78" stroke-width="1.2"/>
    <path d="M270 454 C254 438 248 418 258 402 C268 386 290 380 310 388 C332 396 344 416 340 436 C336 456 318 468 298 466 C284 464 274 462 270 454 Z" fill="#3a1e0a" fill-opacity=".97"/>
    <ellipse cx="300" cy="416" rx="8" ry="6" fill="#080c08" fill-opacity=".80"/>
    <path d="M270 454 C254 438 248 418 258 402 C268 386 290 380 310 388 C332 396 344 416 340 436 C336 456 318 468 298 466 C284 464 274 462 270 454 Z" fill="none" stroke="#080c08" stroke-opacity=".82" stroke-width="1.2"/>
    <path d="M262 418 C246 408 234 400 228 412 C222 424 232 438 252 440"
          fill="none" stroke="#3a1e0a" stroke-opacity=".88" stroke-width="4.0" stroke-linecap="round"/>
    <path d="M262 440 C246 442 230 448 226 442 C220 434 228 420 250 418"
          fill="none" stroke="#3a1e0a" stroke-opacity=".80" stroke-width="3.4" stroke-linecap="round"/>
    <path d="M240 430 L292 398 L302 395"
          fill="none" stroke="#3d7a5c" stroke-opacity=".60" stroke-width="3.0" stroke-linecap="round"/>
    <!-- near antenna -->
    <path d="M292 388 C310 358 334 326 346 300"
          fill="none" stroke="#3a1e0a" stroke-opacity=".80" stroke-width="1.9" stroke-linecap="round"/>
  </g>

  <g id="ov-cover">
    <path d="M100 498 Q100 440 137 397" fill="none" stroke="#080c08" stroke-opacity="0.88" stroke-width="1.3"/>
      <line x1="104" y1="487" x2="93" y2="470" stroke="#080c08" stroke-opacity="0.75" stroke-width="0.94" stroke-linecap="round"/>
      <line x1="104" y1="487" x2="123" y2="481" stroke="#080c08" stroke-opacity="0.75" stroke-width="0.94" stroke-linecap="round"/>
      <line x1="108" y1="475" x2="98" y2="460" stroke="#080c08" stroke-opacity="0.75" stroke-width="0.94" stroke-linecap="round"/>
      <line x1="108" y1="475" x2="126" y2="470" stroke="#080c08" stroke-opacity="0.75" stroke-width="0.94" stroke-linecap="round"/>
      <line x1="112" y1="464" x2="103" y2="451" stroke="#080c08" stroke-opacity="0.75" stroke-width="0.94" stroke-linecap="round"/>
      <line x1="112" y1="464" x2="128" y2="460" stroke="#080c08" stroke-opacity="0.75" stroke-width="0.94" stroke-linecap="round"/>
      <line x1="116" y1="453" x2="108" y2="441" stroke="#080c08" stroke-opacity="0.75" stroke-width="0.94" stroke-linecap="round"/>
      <line x1="116" y1="453" x2="131" y2="449" stroke="#080c08" stroke-opacity="0.75" stroke-width="0.94" stroke-linecap="round"/>
      <line x1="121" y1="442" x2="113" y2="431" stroke="#080c08" stroke-opacity="0.75" stroke-width="0.94" stroke-linecap="round"/>
      <line x1="121" y1="442" x2="133" y2="438" stroke="#080c08" stroke-opacity="0.75" stroke-width="0.94" stroke-linecap="round"/>
      <line x1="125" y1="430" x2="118" y2="421" stroke="#080c08" stroke-opacity="0.75" stroke-width="0.94" stroke-linecap="round"/>
      <line x1="125" y1="430" x2="135" y2="427" stroke="#080c08" stroke-opacity="0.75" stroke-width="0.94" stroke-linecap="round"/>
      <line x1="129" y1="419" x2="123" y2="411" stroke="#080c08" stroke-opacity="0.75" stroke-width="0.94" stroke-linecap="round"/>
      <line x1="129" y1="419" x2="138" y2="416" stroke="#080c08" stroke-opacity="0.75" stroke-width="0.94" stroke-linecap="round"/>
      <line x1="133" y1="408" x2="128" y2="401" stroke="#080c08" stroke-opacity="0.75" stroke-width="0.94" stroke-linecap="round"/>
      <line x1="133" y1="408" x2="140" y2="406" stroke="#080c08" stroke-opacity="0.75" stroke-width="0.94" stroke-linecap="round"/>
    <path d="M296 500 Q264 456 272 403" fill="none" stroke="#080c08" stroke-opacity="0.88" stroke-width="1.3"/>
      <line x1="293" y1="489" x2="276" y2="482" stroke="#080c08" stroke-opacity="0.75" stroke-width="0.94" stroke-linecap="round"/>
      <line x1="293" y1="489" x2="305" y2="475" stroke="#080c08" stroke-opacity="0.75" stroke-width="0.94" stroke-linecap="round"/>
      <line x1="291" y1="478" x2="275" y2="472" stroke="#080c08" stroke-opacity="0.75" stroke-width="0.94" stroke-linecap="round"/>
      <line x1="291" y1="478" x2="301" y2="466" stroke="#080c08" stroke-opacity="0.75" stroke-width="0.94" stroke-linecap="round"/>
      <line x1="288" y1="468" x2="274" y2="462" stroke="#080c08" stroke-opacity="0.75" stroke-width="0.94" stroke-linecap="round"/>
      <line x1="288" y1="468" x2="298" y2="456" stroke="#080c08" stroke-opacity="0.75" stroke-width="0.94" stroke-linecap="round"/>
      <line x1="285" y1="457" x2="273" y2="452" stroke="#080c08" stroke-opacity="0.75" stroke-width="0.94" stroke-linecap="round"/>
      <line x1="285" y1="457" x2="294" y2="446" stroke="#080c08" stroke-opacity="0.75" stroke-width="0.94" stroke-linecap="round"/>
      <line x1="283" y1="446" x2="271" y2="442" stroke="#080c08" stroke-opacity="0.75" stroke-width="0.94" stroke-linecap="round"/>
      <line x1="283" y1="446" x2="290" y2="437" stroke="#080c08" stroke-opacity="0.75" stroke-width="0.94" stroke-linecap="round"/>
      <line x1="280" y1="435" x2="270" y2="431" stroke="#080c08" stroke-opacity="0.75" stroke-width="0.94" stroke-linecap="round"/>
      <line x1="280" y1="435" x2="287" y2="427" stroke="#080c08" stroke-opacity="0.75" stroke-width="0.94" stroke-linecap="round"/>
      <line x1="277" y1="425" x2="269" y2="421" stroke="#080c08" stroke-opacity="0.75" stroke-width="0.94" stroke-linecap="round"/>
      <line x1="277" y1="425" x2="283" y2="418" stroke="#080c08" stroke-opacity="0.75" stroke-width="0.94" stroke-linecap="round"/>
      <line x1="274" y1="414" x2="268" y2="411" stroke="#080c08" stroke-opacity="0.75" stroke-width="0.94" stroke-linecap="round"/>
      <line x1="274" y1="414" x2="279" y2="408" stroke="#080c08" stroke-opacity="0.75" stroke-width="0.94" stroke-linecap="round"/>
    <rect x="0" y="300" width="400" height="200" fill="url(#lo-veil)"/>
    <path d="M0 440 C 90 420, 210 444, 300 428 C 350 418, 374 428, 400 420 L400 500 L0 500 Z"
          fill="#080c08" fill-opacity=".80"/>
  </g>
</svg>
