<svg xmlns="http://www.w3.org/2000/svg" viewBox="0 0 800 800" role="img" aria-label="An aardwolf stands alone at a termite mound on open grassland under a moonless, star-scattered sky, head lowered and tongue reaching the mound's surface, its mane lying flat rather than raised">
  <defs>
    <radialGradient id="aw-night" cx="40%" cy="18%" r="95%">
      <stop offset="0%" stop-color="#182233"/>
      <stop offset="55%" stop-color="#0f1520"/>
      <stop offset="100%" stop-color="#0a0e14"/>
    </radialGradient>
    <radialGradient id="aw-glow" cx="50%" cy="42%" r="60%">
      <stop offset="0%" stop-color="#e8c07a"/>
      <stop offset="55%" stop-color="#a8703c"/>
      <stop offset="100%" stop-color="#6b4423"/>
    </radialGradient>
    <radialGradient id="aw-mound-ambient" cx="50%" cy="50%" r="50%">
      <stop offset="0%" stop-color="#e8c07a" stop-opacity=".35"/>
      <stop offset="65%" stop-color="#e8c07a" stop-opacity=".12"/>
      <stop offset="100%" stop-color="#e8c07a" stop-opacity="0"/>
    </radialGradient>
    <linearGradient id="aw-body" x1="0" y1="0" x2="1" y2="1">
      <stop offset="0%" stop-color="#ad8a58"/>
      <stop offset="100%" stop-color="#5c4423"/>
    </linearGradient>
    <filter id="aw-blur" x="-60%" y="-60%" width="220%" height="220%">
      <feGaussianBlur stdDeviation="8" result="b"/>
      <feMerge><feMergeNode in="b"/><feMergeNode in="SourceGraphic"/></feMerge>
    </filter>
  </defs>
  <rect width="800" height="800" rx="24" fill="url(#aw-night)"/>
  <g id="aw-stars"><circle cx="258" cy="130" r="0.70" fill="#dce6f2" fill-opacity="0.35"/>
    <circle cx="54" cy="66" r="1.05" fill="#dce6f2" fill-opacity="0.46"/>
    <circle cx="523" cy="93" r="1.40" fill="#dce6f2" fill-opacity="0.57"/>
    <circle cx="293" cy="229" r="1.75" fill="#dce6f2" fill-opacity="0.68"/>
    <circle cx="600" cy="392" r="0.70" fill="#dce6f2" fill-opacity="0.79"/>
    <circle cx="776" cy="184" r="1.05" fill="#dce6f2" fill-opacity="0.35"/>
    <circle cx="105" cy="371" r="1.40" fill="#dce6f2" fill-opacity="0.46"/>
    <circle cx="95" cy="219" r="1.75" fill="#dce6f2" fill-opacity="0.57"/>
    <circle cx="542" cy="206" r="0.70" fill="#dce6f2" fill-opacity="0.68"/>
    <circle cx="298" cy="414" r="1.05" fill="#dce6f2" fill-opacity="0.79"/>
    <circle cx="87" cy="249" r="1.40" fill="#dce6f2" fill-opacity="0.35"/>
    <circle cx="297" cy="433" r="1.75" fill="#dce6f2" fill-opacity="0.46"/>
    <circle cx="84" cy="212" r="0.70" fill="#dce6f2" fill-opacity="0.57"/>
    <circle cx="220" cy="100" r="1.05" fill="#dce6f2" fill-opacity="0.68"/>
    <circle cx="469" cy="15" r="1.40" fill="#dce6f2" fill-opacity="0.79"/>
    <circle cx="99" cy="55" r="1.75" fill="#dce6f2" fill-opacity="0.35"/>
    <circle cx="26" cy="490" r="0.70" fill="#dce6f2" fill-opacity="0.46"/>
    <circle cx="542" cy="90" r="1.05" fill="#dce6f2" fill-opacity="0.57"/>
    <circle cx="451" cy="325" r="1.40" fill="#dce6f2" fill-opacity="0.68"/>
    <circle cx="301" cy="285" r="1.75" fill="#dce6f2" fill-opacity="0.79"/>
    <circle cx="368" cy="368" r="0.70" fill="#dce6f2" fill-opacity="0.35"/>
    <circle cx="464" cy="304" r="1.05" fill="#dce6f2" fill-opacity="0.46"/>
    <circle cx="33" cy="331" r="1.40" fill="#dce6f2" fill-opacity="0.57"/>
    <circle cx="103" cy="467" r="1.75" fill="#dce6f2" fill-opacity="0.68"/>
    <circle cx="310" cy="134" r="0.70" fill="#dce6f2" fill-opacity="0.79"/>
    <circle cx="786" cy="422" r="1.05" fill="#dce6f2" fill-opacity="0.35"/>
    <circle cx="15" cy="113" r="1.40" fill="#dce6f2" fill-opacity="0.46"/>
    <circle cx="305" cy="457" r="1.75" fill="#dce6f2" fill-opacity="0.57"/>
    <circle cx="652" cy="444" r="0.70" fill="#dce6f2" fill-opacity="0.68"/>
    <circle cx="708" cy="156" r="1.05" fill="#dce6f2" fill-opacity="0.79"/>
    <circle cx="397" cy="487" r="1.40" fill="#dce6f2" fill-opacity="0.35"/>
    <circle cx="107" cy="175" r="1.75" fill="#dce6f2" fill-opacity="0.46"/>
    <circle cx="594" cy="450" r="0.70" fill="#dce6f2" fill-opacity="0.57"/>
    <circle cx="230" cy="338" r="1.05" fill="#dce6f2" fill-opacity="0.68"/>
    <circle cx="379" cy="253" r="1.40" fill="#dce6f2" fill-opacity="0.79"/>
    <circle cx="309" cy="293" r="1.75" fill="#dce6f2" fill-opacity="0.35"/>
    <circle cx="136" cy="232" r="0.70" fill="#dce6f2" fill-opacity="0.46"/>
    <circle cx="152" cy="328" r="1.05" fill="#dce6f2" fill-opacity="0.57"/>
    <circle cx="761" cy="67" r="1.40" fill="#dce6f2" fill-opacity="0.68"/>
    <circle cx="111" cy="27" r="1.75" fill="#dce6f2" fill-opacity="0.79"/>
    <circle cx="78" cy="110" r="0.70" fill="#dce6f2" fill-opacity="0.35"/>
    <circle cx="474" cy="46" r="1.05" fill="#dce6f2" fill-opacity="0.46"/>
    <circle cx="743" cy="73" r="1.40" fill="#dce6f2" fill-opacity="0.57"/>
    <circle cx="313" cy="209" r="1.75" fill="#dce6f2" fill-opacity="0.68"/>
    <circle cx="420" cy="372" r="0.70" fill="#dce6f2" fill-opacity="0.79"/>
    <circle cx="396" cy="164" r="1.05" fill="#dce6f2" fill-opacity="0.35"/>
    <circle cx="325" cy="351" r="1.40" fill="#dce6f2" fill-opacity="0.46"/>
    <circle cx="115" cy="199" r="1.75" fill="#dce6f2" fill-opacity="0.57"/></g>
  <g id="aw-scrub"><path d="M60 630 Q55.5 624.6 51.0 621.0" fill="none" stroke="#0b110e" stroke-width="2.0" stroke-linecap="round" opacity=".85"/>
    <path d="M60 630 Q57.8 621.9 55.5 616.5" fill="none" stroke="#0b110e" stroke-width="2.0" stroke-linecap="round" opacity=".85"/>
    <path d="M60 630 Q60.0 619.2 60.0 612.0" fill="none" stroke="#0b110e" stroke-width="2.0" stroke-linecap="round" opacity=".85"/>
    <path d="M60 630 Q62.2 624.6 64.5 621.0" fill="none" stroke="#0b110e" stroke-width="2.0" stroke-linecap="round" opacity=".85"/>
    <path d="M60 630 Q64.5 621.9 69.0 616.5" fill="none" stroke="#0b110e" stroke-width="2.0" stroke-linecap="round" opacity=".85"/>
    <path d="M150 604 Q146.5 599.8 143.0 597.0" fill="none" stroke="#0b110e" stroke-width="1.5" stroke-linecap="round" opacity=".85"/>
    <path d="M150 604 Q148.2 597.7 146.5 593.5" fill="none" stroke="#0b110e" stroke-width="1.5" stroke-linecap="round" opacity=".85"/>
    <path d="M150 604 Q150.0 595.6 150.0 590.0" fill="none" stroke="#0b110e" stroke-width="1.5" stroke-linecap="round" opacity=".85"/>
    <path d="M150 604 Q151.8 599.8 153.5 597.0" fill="none" stroke="#0b110e" stroke-width="1.5" stroke-linecap="round" opacity=".85"/>
    <path d="M150 604 Q153.5 597.7 157.0 593.5" fill="none" stroke="#0b110e" stroke-width="1.5" stroke-linecap="round" opacity=".85"/>
    <path d="M700 624 Q695.8 618.9 691.5 615.5" fill="none" stroke="#0b110e" stroke-width="1.9" stroke-linecap="round" opacity=".85"/>
    <path d="M700 624 Q697.9 616.4 695.8 611.2" fill="none" stroke="#0b110e" stroke-width="1.9" stroke-linecap="round" opacity=".85"/>
    <path d="M700 624 Q700.0 613.8 700.0 607.0" fill="none" stroke="#0b110e" stroke-width="1.9" stroke-linecap="round" opacity=".85"/>
    <path d="M700 624 Q702.1 618.9 704.2 615.5" fill="none" stroke="#0b110e" stroke-width="1.9" stroke-linecap="round" opacity=".85"/>
    <path d="M700 624 Q704.2 616.4 708.5 611.2" fill="none" stroke="#0b110e" stroke-width="1.9" stroke-linecap="round" opacity=".85"/>
    <path d="M760 600 Q756.8 596.1 753.5 593.5" fill="none" stroke="#0b110e" stroke-width="1.4" stroke-linecap="round" opacity=".85"/>
    <path d="M760 600 Q758.4 594.1 756.8 590.2" fill="none" stroke="#0b110e" stroke-width="1.4" stroke-linecap="round" opacity=".85"/>
    <path d="M760 600 Q760.0 592.2 760.0 587.0" fill="none" stroke="#0b110e" stroke-width="1.4" stroke-linecap="round" opacity=".85"/>
    <path d="M760 600 Q761.6 596.1 763.2 593.5" fill="none" stroke="#0b110e" stroke-width="1.4" stroke-linecap="round" opacity=".85"/>
    <path d="M760 600 Q763.2 594.1 766.5 590.2" fill="none" stroke="#0b110e" stroke-width="1.4" stroke-linecap="round" opacity=".85"/></g>
  <path d="M0 580 C176.0 564 336.0 594 480.0 576 C640.0 564 720.0 586 800 578 L800 800 L0 800 Z"
        fill="#141b17" opacity=".94"/>
  <g opacity=".7"><path d="M25 596 Q28 588.8 30 584" fill="none" stroke="#0b110e" stroke-width="2.2" stroke-linecap="round" opacity=".75"/>
    <path d="M75 601 Q72 590.8 70 584" fill="none" stroke="#0b110e" stroke-width="2.2" stroke-linecap="round" opacity=".75"/>
    <path d="M125 606 Q128 592.8 130 584" fill="none" stroke="#0b110e" stroke-width="2.2" stroke-linecap="round" opacity=".75"/>
    <path d="M175 596 Q172 588.8 170 584" fill="none" stroke="#0b110e" stroke-width="2.2" stroke-linecap="round" opacity=".75"/>
    <path d="M225 601 Q228 590.8 230 584" fill="none" stroke="#0b110e" stroke-width="2.2" stroke-linecap="round" opacity=".75"/>
    <path d="M275 606 Q272 592.8 270 584" fill="none" stroke="#0b110e" stroke-width="2.2" stroke-linecap="round" opacity=".75"/>
    <path d="M325 596 Q328 588.8 330 584" fill="none" stroke="#0b110e" stroke-width="2.2" stroke-linecap="round" opacity=".75"/>
    <path d="M375 601 Q372 590.8 370 584" fill="none" stroke="#0b110e" stroke-width="2.2" stroke-linecap="round" opacity=".75"/>
    <path d="M425 606 Q428 592.8 430 584" fill="none" stroke="#0b110e" stroke-width="2.2" stroke-linecap="round" opacity=".75"/>
    <path d="M475 596 Q472 588.8 470 584" fill="none" stroke="#0b110e" stroke-width="2.2" stroke-linecap="round" opacity=".75"/>
    <path d="M525 601 Q528 590.8 530 584" fill="none" stroke="#0b110e" stroke-width="2.2" stroke-linecap="round" opacity=".75"/>
    <path d="M575 606 Q572 592.8 570 584" fill="none" stroke="#0b110e" stroke-width="2.2" stroke-linecap="round" opacity=".75"/>
    <path d="M625 596 Q628 588.8 630 584" fill="none" stroke="#0b110e" stroke-width="2.2" stroke-linecap="round" opacity=".75"/>
    <path d="M675 601 Q672 590.8 670 584" fill="none" stroke="#0b110e" stroke-width="2.2" stroke-linecap="round" opacity=".75"/>
    <path d="M725 606 Q728 592.8 730 584" fill="none" stroke="#0b110e" stroke-width="2.2" stroke-linecap="round" opacity=".75"/>
    <path d="M775 596 Q772 588.8 770 584" fill="none" stroke="#0b110e" stroke-width="2.2" stroke-linecap="round" opacity=".75"/></g>
  
  <g>
    <ellipse cx="560" cy="568.3" rx="71.3" ry="50.6" fill="url(#aw-mound-ambient)"/>
    <g filter="url(#aw-blur)">
      <path d="M507.1 586.7 C502.5 561.4 525.5 531.5 555.4 522.3 C583.0 515.4 608.3 531.5 615.2 559.1 C619.8 577.5 608.3 593.6 583.0 598.2 C553.1 602.8 514.0 600.5 507.1 586.7 Z" fill="url(#aw-glow)" stroke="#070503" stroke-opacity=".55" stroke-width="1.4"/>
    </g>
    <path d="M525.5 577.5 Q548.5 563.7 566.9 570.6" fill="none" stroke="#6b4423" stroke-opacity=".55" stroke-width="2.8"/>
    <path d="M539.3 549.9 Q562.3 540.7 585.3 549.9" fill="none" stroke="#6b4423" stroke-opacity=".5" stroke-width="2.5"/>
    <path d="M553.1 591.3 Q576.1 582.1 599.1 586.7" fill="none" stroke="#6b4423" stroke-opacity=".5" stroke-width="2.5"/>
  </g>
  <ellipse cx="290.0" cy="688.0" rx="100.0" ry="18.0" fill="#070503" fill-opacity=".45"/>
  
  <g id="aw-aardwolf" transform="translate(330,560) scale(1.0)">
    <g id="aw-legs-back">
      <path d="M30 30 L34 126" fill="none" stroke="#8a6a3c" stroke-width="14" stroke-linecap="round"/>
      <path d="M70 14 L78 120" fill="none" stroke="#8a6a3c" stroke-width="14" stroke-linecap="round"/>
    </g>
    <path d="M92 -4 Q126 18 128 56 Q130 80 112 92" fill="none" stroke="#5c4423" stroke-width="9" stroke-linecap="round"/>
    <path d="M92 -4 Q126 18 128 56 Q130 80 112 92" fill="none" stroke="#070503" stroke-width="9" stroke-linecap="round" opacity=".18" transform="translate(4,10)"/>
    <path d="M-96 -44 C-112 -58 -108 -78 -86 -88 C-64 -98 -38 -96 -14 -84 C18 -92 56 -88 80 -66 C98 -50 104 -24 94 2 C84 26 56 40 22 38 C-14 42 -56 38 -82 22 C-100 10 -108 -10 -104 -28 C-102 -34 -99 -40 -96 -44 Z" fill="url(#aw-body)" stroke="#070503" stroke-opacity=".85" stroke-width="1.6"/>
    <g><path d="M-56 -70 L-70 -30" fill="none" stroke="#28190f" stroke-width="4" stroke-linecap="round" opacity=".7"/>
      <path d="M-24 -78 L-38 -32" fill="none" stroke="#28190f" stroke-width="4" stroke-linecap="round" opacity=".7"/>
      <path d="M10 -76 L-2 -28" fill="none" stroke="#28190f" stroke-width="4" stroke-linecap="round" opacity=".65"/>
      <path d="M44 -64 L34 -20" fill="none" stroke="#28190f" stroke-width="4" stroke-linecap="round" opacity=".6"/>
      <path d="M68 -46 L60 -8" fill="none" stroke="#28190f" stroke-width="3.6" stroke-linecap="round" opacity=".55"/></g>
    <path d="M-80 -84 C-56 -96 -24 -98 6 -90 C30 -84 52 -76 66 -64 C44 -68 18 -78 -10 -80 C-36 -82 -60 -80 -80 -84 Z" fill="#3a2a18" stroke="#070503" stroke-opacity=".4" stroke-width="1"/>
    <path d="M-86 -84 C-98 -102 -100 -124 -90 -138 C-82 -124 -78 -104 -78 -90 Z" fill="#5c4423" stroke="#070503" stroke-opacity=".8" stroke-width="1.3"/>
    <path d="M-96 -52 C-118 -46 -140 -30 -156 -6 C-166 10 -172 26 -176 40 L-186 36 C-180 14 -168 -10 -152 -30 C-136 -50 -116 -62 -96 -66 Z" fill="url(#aw-body)" stroke="#070503" stroke-opacity=".85" stroke-width="1.5"/>
    <path d="M-180 38 Q-192 52 -198 66" fill="none" stroke="#e8c07a" stroke-opacity=".85" stroke-width="2.6" stroke-linecap="round"/>
    <circle cx="-108" cy="-58" r="2.6" fill="#070503"/><circle cx="-109" cy="-59" r=".8" fill="#e6d9b8" fill-opacity=".8"/>
    <g id="aw-legs-front">
      <path d="M-72 18 L-78 124" fill="none" stroke="#5c4423" stroke-width="13" stroke-linecap="round"/>
      <path d="M-24 30 L-30 128" fill="none" stroke="#5c4423" stroke-width="13" stroke-linecap="round"/>
    </g>
  </g>
</svg>
