<svg xmlns="http://www.w3.org/2000/svg" viewBox="0 0 400 500" role="img" aria-label="A Fossa closer in, mid-descent on a dusk-lit trunk, claws hooked into the bark">
  <defs>
    <radialGradient id="fs-night" cx="50%" cy="18%" r="95%">
      <stop offset="0%" stop-color="#1c3247"/>
      <stop offset="55%" stop-color="#122333"/>
      <stop offset="100%" stop-color="#0e1720"/>
    </radialGradient>
    <linearGradient id="fs-horizon" x1="0" y1="0" x2="0" y2="1">
      <stop offset="0%" stop-color="#2a170f" stop-opacity="0"/>
      <stop offset="72%" stop-color="#2a170f" stop-opacity=".55"/>
      <stop offset="100%" stop-color="#4a2a1c" stop-opacity=".8"/>
    </linearGradient>
    <linearGradient id="fs-trunk" x1="0" y1="0" x2="1" y2="0">
      <stop offset="0%" stop-color="#4a3524"/>
      <stop offset="55%" stop-color="#2f2118"/>
      <stop offset="100%" stop-color="#1c130d"/>
    </linearGradient>
    <linearGradient id="fs-body" x1="0" y1="0" x2="1" y2="1">
      <stop offset="0%" stop-color="#7a4a34"/>
      <stop offset="100%" stop-color="#4e2f22"/>
    </linearGradient>
    <radialGradient id="fs-glow" cx="50%" cy="50%" r="50%">
      <stop offset="0%" stop-color="#e8a752" stop-opacity=".9"/>
      <stop offset="100%" stop-color="#e8a752" stop-opacity="0"/>
    </radialGradient>
    <filter id="fs-blur" x="-80%" y="-80%" width="260%" height="260%">
      <feGaussianBlur stdDeviation="7" result="b"/>
      <feMerge><feMergeNode in="b"/><feMergeNode in="SourceGraphic"/></feMerge>
    </filter>
  </defs>
  <rect width="400" height="500" rx="18" fill="url(#fs-night)"/>
  <rect width="400" height="500" rx="18" fill="url(#fs-horizon)"/>
  <g id="fs-canopy" opacity=".92"><path d="M-26 51 C-19 18 10 5 25 8 C42 3 68 18 74 46 C57 37 39 32 23 36 C8 32 -11 37 -26 51 Z" fill="#132a24"/>
    <path d="M54 52 C62 13 98 -3 116 1 C137 -5 168 13 176 46 C155 36 133 30 114 34 C95 30 73 36 54 52 Z" fill="#132a24"/>
    <path d="M86 54 C96 8 137 -12 159 -7 C183 -14 220 8 229 46 C205 34 178 27 157 32 C135 27 108 34 86 54 Z" fill="#132a24"/>
    <path d="M198 51 C205 18 234 5 249 8 C266 3 292 18 298 46 C281 37 263 32 247 36 C232 32 213 37 198 51 Z" fill="#132a24"/>
    <path d="M230 52 C238 13 274 -3 292 1 C313 -5 344 13 352 46 C331 36 309 30 290 34 C271 30 249 36 230 52 Z" fill="#132a24"/>
    <path d="M310 54 C320 8 361 -12 383 -7 C407 -14 444 8 453 46 C429 34 402 27 381 32 C359 27 332 34 310 54 Z" fill="#132a24"/></g>
  <g id="fs-canopy-back" opacity=".55"><path d="M-19 25 C-12 -8 16 -21 32 -18 C49 -23 74 -8 81 20 C64 11 45 6 30 10 C15 6 -4 11 -19 25 Z" fill="#0b1a16"/>
    <path d="M74 26 C82 -13 118 -29 136 -25 C157 -31 188 -13 196 20 C175 10 153 4 134 8 C115 4 93 10 74 26 Z" fill="#0b1a16"/>
    <path d="M120 28 C130 -18 171 -38 192 -33 C217 -40 253 -18 263 20 C238 8 212 1 190 6 C168 1 142 8 120 28 Z" fill="#0b1a16"/>
    <path d="M245 25 C252 -8 280 -21 296 -18 C313 -23 338 -8 345 20 C328 11 309 6 294 10 C279 6 260 11 245 25 Z" fill="#0b1a16"/>
    <path d="M290 26 C298 -13 334 -29 352 -25 C373 -31 404 -13 412 20 C391 10 369 4 350 8 C331 4 309 10 290 26 Z" fill="#0b1a16"/></g>
  
  <g id="fs-trunk">
    <path d="M184 20 C178 245 188 430 182 470
             L238 470 C232 430 242 245 236 20 Z"
          fill="url(#fs-trunk)" stroke="#0a0806" stroke-opacity=".5" stroke-width="1.4"/>
    <path d="M201 50 C205 110 199 170 204 240"
          fill="none" stroke="#1c130d" stroke-opacity=".55" stroke-width="2.4" stroke-linecap="round"/>
    <path d="M220 90 C217 150 222 210 217 280"
          fill="none" stroke="#1c130d" stroke-opacity=".4" stroke-width="2" stroke-linecap="round"/>
  </g>
  <g filter="url(#fs-blur)" opacity=".85"><circle cx="168" cy="436" r="16" fill="url(#fs-glow)"/></g><g filter="url(#fs-blur)" opacity=".85"><circle cx="248" cy="448" r="12" fill="url(#fs-glow)"/></g>
  <ellipse cx="210" cy="464" rx="83" ry="14" fill="#0a0806" fill-opacity=".35"/>
  
  <g id="fs-fossa" transform="translate(210,270) scale(0.62)">
    <path d="M-40 -70 C-60 -58 -70 -40 -68 -20" fill="none" stroke="#4e2f22" stroke-width="9" stroke-linecap="round"/>
    <path d="M-42 -30 C-62 -18 -70 0 -66 20" fill="none" stroke="#7a4a34" stroke-width="9" stroke-linecap="round"/>
    <path d="M-68 -20 l-6 4 m--6 -1 l-6 -2" fill="none" stroke="#d9c9a8" stroke-opacity=".85" stroke-width="1.6" stroke-linecap="round"/>
    <path d="M-66 20 l-6 4 m--6 -1 l-6 -2" fill="none" stroke="#d9c9a8" stroke-opacity=".85" stroke-width="1.6" stroke-linecap="round"/>
    <path d="M-24 -124 C-40 -158 -34 -198 -4 -222 C18 -240 22 -268 6 -292" fill="none" stroke="#4e2f22" stroke-width="10" stroke-linecap="round"/>
    <path d="M-30 -132 C-52 -118 -58 -84 -46 -52 C-36 -28 -40 2 -30 30 C-20 58 -24 88 -8 110 C2 124 16 128 24 118 C14 96 16 70 8 44 C0 16 4 -14 -4 -44 C-10 -70 -6 -100 8 -120 C-4 -130 -18 -136 -30 -132 Z" fill="url(#fs-body)" stroke="#0a0806" stroke-opacity=".85" stroke-width="1.6"/>
    <path d="M-30 -132 C-52 -118 -58 -84 -46 -52"
          fill="none" stroke="#e8d9c2" stroke-opacity=".22" stroke-width="1.8"/>
    <path d="M18 126 C34 140 40 156 38 172" fill="none" stroke="#7a4a34" stroke-width="9" stroke-linecap="round"/>
    <path d="M-4 140 C2 156 2 172 -6 184" fill="none" stroke="#4e2f22" stroke-width="9" stroke-linecap="round"/>
    <path d="M38 172 l6 4 m-6 -1 l6 -2" fill="none" stroke="#d9c9a8" stroke-opacity=".85" stroke-width="1.6" stroke-linecap="round"/>
    <path d="M-6 184 l6 4 m-6 -1 l6 -2" fill="none" stroke="#d9c9a8" stroke-opacity=".85" stroke-width="1.6" stroke-linecap="round"/>
    <path d="M-4 108 C-16 118 -20 136 -12 152 C-4 168 16 176 32 170 C46 164 52 148 46 134 C40 118 24 108 8 108 C4 108 0 108 -4 108 Z" fill="url(#fs-body)" stroke="#0a0806" stroke-opacity=".85" stroke-width="1.6"/>
    <path d="M2 108 C-2 96 8 88 18 94 C16 102 10 108 2 108 Z" fill="#4e2f22" stroke="#0a0806" stroke-opacity=".7" stroke-width="1"/>
    <path d="M22 106 C22 94 34 88 42 96 C38 104 30 110 22 106 Z" fill="#4e2f22" stroke="#0a0806" stroke-opacity=".7" stroke-width="1"/>
    <g filter="url(#fs-blur)"><circle cx="30" cy="140" r="9" fill="url(#fs-glow)"/><circle cx="30" cy="140" r="3.2" fill="#0a0806"/><circle cx="31.4" cy="138.6" r="1" fill="#e8d9c2" fill-opacity=".9"/></g>
  </g>
</svg>
