<svg xmlns="http://www.w3.org/2000/svg" viewBox="0 0 400 500" role="img" aria-label="A Wallcreeper working a crevice on a grey cliff face, its wing flashing crimson mid-flutter, closer and more solitary">
  <defs>
    <linearGradient id="wc-rock" x1="0" y1="0" x2="0.35" y2="1">
      <stop offset="0%" stop-color="#7d8892"/>
      <stop offset="42%" stop-color="#5c6670"/>
      <stop offset="100%" stop-color="#2b3238"/>
    </linearGradient>
    <linearGradient id="wc-sky" x1="0" y1="0" x2="0" y2="1">
      <stop offset="0%" stop-color="#cfd8de"/>
      <stop offset="100%" stop-color="#93a0a9" stop-opacity="0"/>
    </linearGradient>
    <radialGradient id="wc-glow" cx="50%" cy="50%" r="50%">
      <stop offset="0%" stop-color="#e2954a" stop-opacity=".85"/>
      <stop offset="55%" stop-color="#c23b2e" stop-opacity=".4"/>
      <stop offset="100%" stop-color="#c23b2e" stop-opacity="0"/>
    </radialGradient>
    <linearGradient id="wc-body" x1="0" y1="0" x2="1" y2="1">
      <stop offset="0%" stop-color="#88919a"/>
      <stop offset="100%" stop-color="#4a525c"/>
    </linearGradient>
    <filter id="wc-blur" x="-80%" y="-80%" width="260%" height="260%">
      <feGaussianBlur stdDeviation="8" result="b"/>
      <feMerge><feMergeNode in="b"/><feMergeNode in="SourceGraphic"/></feMerge>
    </filter>
  </defs>
  <rect width="400" height="500" rx="18" fill="url(#wc-rock)"/>
  <rect x="0" y="0" width="400" height="90" fill="url(#wc-sky)"/>
  <path d="M-60 106 L-40 66 L60 32 L150 56 L260 20 L360 60 L460 36 L560 70 L660 44 L760 72 L460 56 L460 106 Z" fill="#2b3238" opacity=".55"/>
  <g opacity=".9"><path d="M-40 85.14 C88.0 37.84 220.00000000000003 75.68 280.0 28.38 C344.0 -9.46 440 47.300000000000004 440 47.300000000000004 L440 513.0 L-40 513.0 Z" fill="#5c6670" opacity=".55"/>
  <path d="M-40 236.5 C72.0 198.66 160.0 264.88000000000005 248.0 217.58 C328.0 179.74 376.0 236.5 440 217.58 L440 513.0 L-40 513.0 Z" fill="#454e57" opacity=".6"/>
  <path d="M-40 368.94 C96.0 340.56 200.0 397.32 304.0 350.02 C360.0 321.64000000000004 392.0 368.94 440 350.02 L440 513.0 L-40 513.0 Z" fill="#2b3238" opacity=".55"/></g>
  <path d="M140 180 Q198 256 255 302 T320 400" fill="none" stroke="#1c2226" stroke-width="5" stroke-linecap="round" opacity=".8"/><path d="M140 180 Q198 256 255 302 T320 400" fill="none" stroke="#7d8892" stroke-width="1.2" stroke-linecap="round" opacity=".22" transform="translate(1,-1)"/>
  
  <g id="wc-wallcreeper" transform="translate(232,300) scale(0.95)">
    <ellipse cx="0" cy="70" rx="70" ry="16" fill="#0b0a08" fill-opacity=".35"/>
    <path d="M-6 50 L-14 76 L-22 80" fill="none" stroke="#242428" stroke-width="3.2" stroke-linecap="round"/><path d="M8 52 L16 78 L24 82" fill="none" stroke="#242428" stroke-width="3.2" stroke-linecap="round"/>
    <path d="M2 62 C10 82 8 100 -2 112 C-6 96 -6 78 2 62 Z" fill="#4a525c"/>
    <g filter="url(#wc-blur)">
      <path d="M-8 -38 C-46 -58 -84 -64 -110 -48 C-100 -30 -72 -18 -38 -14 C-22 -12 -10 -20 -8 -38 Z" fill="#c23b2e" stroke="#8f2a20" stroke-width="1.2"/>
      <path d="M-110 -48 C-134 -52 -158 -46 -172 -30 C-156 -18 -132 -12 -108 -16 C-98 -24 -98 -40 -110 -48 Z" fill="#1c1f22" stroke="#8f2a20" stroke-opacity=".5" stroke-width="1"/>
      <circle cx="-132" cy="-32" r="3.6" fill="#eae7de"/>
      <circle cx="-152" cy="-26" r="2.8" fill="#eae7de"/>
    </g>
    <path d="M-2 -90 C-20 -84 -30 -50 -28 -10 C-26 26 -14 58 4 66 C18 72 30 58 32 30 C34 -6 28 -46 14 -78 C8 -88 4 -92 -2 -90 Z" fill="url(#wc-body)" stroke="#1c1f22" stroke-opacity=".85" stroke-width="1.6"/>
    <path d="M8 -30 C20 -18 24 6 18 30 C10 42 -2 40 -4 26 C-2 2 0 -18 8 -30 Z" fill="#4a525c" stroke="#1c1f22" stroke-opacity=".6" stroke-width="1"/>
    <path d="M-4 -114 m-19,0 a19,17 0 1,0 38,0 a19,17 0 1,0 -38,0" fill="url(#wc-body)" stroke="#1c1f22" stroke-opacity=".85" stroke-width="1.4"/>
    <path d="M-16 -102 C-10 -92 2 -88 12 -94 C4 -84 -10 -84 -16 -102 Z" fill="#d9d3c5" opacity=".92"/>
    <path d="M15 -118 Q38 -110 48 -90 Q52 -80 49 -72" fill="none" stroke="#242428" stroke-width="4.4" stroke-linecap="round"/>
    <circle cx="2" cy="-118" r="3.2" fill="#0c0a08"/><circle cx="1" cy="-119" r="1" fill="#d9d3c5" fill-opacity=".85"/>
  </g>
</svg>
