<svg xmlns="http://www.w3.org/2000/svg" viewBox="0 0 800 800" role="img" aria-label="A sun bear braced against a dark tree trunk high in the canopy, claws sunk into a split hollow and its long tongue reaching past them toward a faint glow of honey inside, the pale gold crescent on its chest the only other light in the frame">
  <defs>
    <radialGradient id="sb-night" cx="30%" cy="24%" r="95%">
      <stop offset="0%" stop-color="#1f160c"/>
      <stop offset="55%" stop-color="#140d07"/>
      <stop offset="100%" stop-color="#0a0603"/>
    </radialGradient>
    <radialGradient id="sb-honey" cx="50%" cy="50%" r="50%">
      <stop offset="0%" stop-color="#ffe9a8"/>
      <stop offset="45%" stop-color="#e0a83c" stop-opacity=".85"/>
      <stop offset="100%" stop-color="#e0a83c" stop-opacity="0"/>
    </radialGradient>
    <radialGradient id="sb-crest" cx="50%" cy="40%" r="60%">
      <stop offset="0%" stop-color="#f7dfa0"/>
      <stop offset="100%" stop-color="#e7b64f"/>
    </radialGradient>
    <linearGradient id="sb-bark" x1="0" y1="0" x2="1" y2="1">
      <stop offset="0%" stop-color="#54402a"/>
      <stop offset="100%" stop-color="#241a0e"/>
    </linearGradient>
    <linearGradient id="sb-fur" x1="0" y1="0" x2="0" y2="1">
      <stop offset="0%" stop-color="#2a221c"/>
      <stop offset="100%" stop-color="#0c0906"/>
    </linearGradient>
    <filter id="sb-blur" x="-80%" y="-80%" width="260%" height="260%">
      <feGaussianBlur stdDeviation="10" result="b"/>
      <feMerge><feMergeNode in="b"/><feMergeNode in="SourceGraphic"/></feMerge>
    </filter>
    <filter id="sb-blur-soft" x="-80%" y="-80%" width="260%" height="260%">
      <feGaussianBlur stdDeviation="4" result="b"/>
      <feMerge><feMergeNode in="b"/><feMergeNode in="SourceGraphic"/></feMerge>
    </filter>
  </defs>
  <rect width="800" height="800" rx="24" fill="url(#sb-night)"/>
  <g id="sb-canopy" opacity=".9"><path d="M6.199999999999996 81.0 C12.799999999999997 43.599999999999994 50.2 26.0 74.4 30.4 C103.0 21.599999999999994 138.2 41.4 142.60000000000002 72.2 C120.6 65.6 89.8 59.0 67.8 63.4 C45.8 59.0 23.799999999999997 72.2 6.199999999999996 81.0 Z" fill="#1a2010"/>
    <path d="M167.8 49.0 C173.2 18.4 203.8 4.0 223.6 7.600000000000001 C247.0 0.3999999999999986 275.8 16.599999999999998 279.4 41.8 C261.4 36.4 236.2 31.0 218.2 34.6 C200.2 31.0 182.2 41.8 167.8 49.0 Z" fill="#10140a"/>
    <path d="M330.4 72.0 C337.6 31.200000000000003 378.4 12.0 404.8 16.800000000000004 C436.0 7.200000000000003 474.4 28.8 479.2 62.4 C455.2 55.2 421.6 48.0 397.6 52.8 C373.6 48.0 349.6 62.4 330.4 72.0 Z" fill="#1a2010"/>
    <path d="M522.0 54.0 C528.0 20.0 562.0 4.0 584.0 8.0 C610.0 0.0 642.0 18.0 646.0 46.0 C626.0 40.0 598.0 34.0 578.0 38.0 C558.0 34.0 538.0 46.0 522.0 54.0 Z" fill="#10140a"/>
    <path d="M684.9 83.5 C690.6 51.2 722.9 36.0 743.8 39.800000000000004 C768.5 32.2 798.9 49.3 802.7 75.9 C783.7 70.2 757.1 64.5 738.1 68.3 C719.1 64.5 700.1 75.9 684.9 83.5 Z" fill="#1a2010"/></g>
  
  <g id="sb-trunk">
    <path d="M475 90 C465 291 469 559 458 760 L662 760 C651 559 655 291 645 90 Z" fill="url(#sb-bark)" stroke="#000000" stroke-opacity=".8" stroke-width="1.6"/>
    <path d="M515 98 C511 358 519 592 513 754" fill="none" stroke="#241a0e" stroke-opacity=".55" stroke-width="2.4" stroke-linecap="round"/>
    <path d="M549 98 C545 358 553 592 547 754" fill="none" stroke="#241a0e" stroke-opacity=".55" stroke-width="2.4" stroke-linecap="round"/>
    <path d="M583 98 C579 358 587 592 581 754" fill="none" stroke="#241a0e" stroke-opacity=".55" stroke-width="2.4" stroke-linecap="round"/>
    <path d="M617 98 C613 358 621 592 615 754" fill="none" stroke="#241a0e" stroke-opacity=".55" stroke-width="2.4" stroke-linecap="round"/>
    <g filter="url(#sb-blur)">
      <circle cx="540" cy="360" r="99" fill="url(#sb-honey)" opacity=".85"/>
    </g>
    <path d="M488 360 C499 308 557 299 584 331 C601 363 581 409 546 418 C511 415 482 383 488 360 Z" fill="#0d0904"/>
    <g filter="url(#sb-blur-soft)">
      <ellipse cx="543" cy="369" rx="29" ry="21"
               fill="url(#sb-honey)"/>
    </g>
  </g>
  <ellipse cx="330" cy="642.5" rx="105.8" ry="22.4" fill="#000000" fill-opacity=".55"/>
  
  <g id="sb-bear" transform="translate(330,470) scale(1.15)">
    <path d="M-86 30 Q-104 44 -98 62" fill="none" stroke="#0c0906" stroke-width="9" stroke-linecap="round"/>
    <g id="sb-legs-back"><path d="M-62 58 L-70 128" fill="none" stroke="#0c0906" stroke-width="20" stroke-linecap="round"/>
      <path d="M8 72 L6 134" fill="none" stroke="#0c0906" stroke-width="20" stroke-linecap="round"/></g>
    <path d="M40 60 L58 126" fill="none" stroke="#181310" stroke-width="19" stroke-linecap="round"/>
    <path d="M-92 -10 C-100 -42 -78 -70 -42 -78 C-8 -86 30 -78 52 -52 C70 -30 72 4 62 34 C52 62 26 80 -8 82 C-44 84 -78 68 -92 38 C-98 22 -98 4 -92 -10 Z" fill="url(#sb-fur)" stroke="#000000" stroke-opacity=".85" stroke-width="1.8"/>
    <path d="M-14 2 C2 -10 24 -10 38 2 C30 16 14 24 2 22 C-8 20 -14 10 -14 2 Z" fill="url(#sb-crest)" opacity=".95"/>
    <path d="M-70 -56 C-84 -78 -78 -104 -54 -114 C-32 -122 -6 -116 8 -98 C20 -82 16 -62 2 -48 C-14 -34 -38 -32 -54 -40 C-64 -45 -68 -50 -70 -56 Z" fill="#181310" stroke="#000000" stroke-opacity=".85" stroke-width="1.6"/>
    <circle cx="-72" cy="-98" r="13" fill="#0c0906" stroke="#000000" stroke-opacity=".7" stroke-width="1.2"/>
    <circle cx="-24" cy="-112" r="12" fill="#0c0906" stroke="#000000" stroke-opacity=".7" stroke-width="1.2"/>
    <path d="M-46 -46 C-58 -40 -62 -28 -54 -18 C-46 -8 -30 -6 -20 -14 C-14 -22 -16 -34 -24 -42 C-30 -48 -38 -50 -46 -46 Z" fill="#2a221c" opacity=".9"/>
    <circle cx="-46" cy="-58" r="3.2" fill="#000000"/><circle cx="-47" cy="-59" r="1" fill="#e8ddbe" fill-opacity=".8"/>
    <ellipse cx="-40" cy="-22" rx="5.2" ry="3.6" fill="#000000"/>
    <path d="M-30 -14 C64 -24 158 -67 238 -110" fill="none" stroke="#0c0906" stroke-width="17" stroke-linecap="round"/>
    <path d="M-30 -14 C64 -24 158 -67 238 -110" fill="none" stroke="#181310" stroke-width="10" stroke-linecap="round" opacity=".7"/>
    <g filter="url(#sb-blur-soft)">
      <path d="M232 -106 C248 -98 262 -100 272 -112" fill="none" stroke="#c65c3e" stroke-width="4.6" stroke-linecap="round"/>
    </g>
    <g id="sb-claws"><path d="M238 -110 L252 -116" fill="none" stroke="#e8ddbe" stroke-width="3.4" stroke-linecap="round"/>
      <path d="M238 -110 L254 -108" fill="none" stroke="#e8ddbe" stroke-width="3.4" stroke-linecap="round"/>
      <path d="M238 -110 L251 -99" fill="none" stroke="#e8ddbe" stroke-width="3.4" stroke-linecap="round"/></g>
  </g>
</svg>
