<svg xmlns="http://www.w3.org/2000/svg" viewBox="0 0 800 800" role="img" aria-label="A pure white snow petrel gliding low over bare dark rock and ice deep in the Antarctic interior, no water in sight, heading toward one small shadowed crevice in a distant rock outcrop">
  <defs>
    <linearGradient id="sp-sky" x1="0" y1="0" x2="0" y2="1">
      <stop offset="0%" stop-color="#212a32"/>
      <stop offset="55%" stop-color="#3a4750"/>
      <stop offset="100%" stop-color="#dfe6e2" stop-opacity=".55"/>
    </linearGradient>
    <radialGradient id="sp-horizon" cx="50%" cy="100%" r="75%">
      <stop offset="0%" stop-color="#f2f5f0" stop-opacity=".65"/>
      <stop offset="55%" stop-color="#dfe6e2" stop-opacity=".28"/>
      <stop offset="100%" stop-color="#dfe6e2" stop-opacity="0"/>
    </radialGradient>
    <linearGradient id="sp-rock" x1="0" y1="0" x2="0" y2="1">
      <stop offset="0%" stop-color="#493f33"/>
      <stop offset="100%" stop-color="#161310"/>
    </linearGradient>
    <radialGradient id="sp-crevice" cx="50%" cy="45%" r="60%">
      <stop offset="0%" stop-color="#e9d9a8" stop-opacity=".5"/>
      <stop offset="60%" stop-color="#e9d9a8" stop-opacity=".12"/>
      <stop offset="100%" stop-color="#e9d9a8" stop-opacity="0"/>
    </radialGradient>
    <linearGradient id="sp-bird" x1="0" y1="0" x2="0" y2="1">
      <stop offset="0%" stop-color="#f2f5f0"/>
      <stop offset="100%" stop-color="#cdd0c6"/>
    </linearGradient>
    <filter id="sp-blur" x="-60%" y="-60%" width="220%" height="220%">
      <feGaussianBlur stdDeviation="8" result="b"/>
      <feMerge><feMergeNode in="b"/><feMergeNode in="SourceGraphic"/></feMerge>
    </filter>
  </defs>
  <rect width="800" height="800" rx="24" fill="url(#sp-sky)"/>
  <ellipse cx="400.0" cy="622" rx="560.0" ry="176.0" fill="url(#sp-horizon)"/>
  <g id="sp-ridge" opacity=".9"><path d="M-11.0 674.0 L16.0 621.8 L43.0 643.4 L66.4 600.2 L89.8 639.8 L116.80000000000001 616.4 L143.8 650.6 L152.8 677.6 Z" fill="#161310"/>
    <path d="M115.5 644.0 L147.0 583.1 L178.5 608.3 L205.8 557.9 L233.1 604.1 L264.6 576.8 L296.1 616.7 L306.6 648.2 Z" fill="#161310"/>
    <path d="M474.5 654.0 L503.0 598.9 L531.5 621.7 L556.2 576.1 L580.9 617.9 L609.4 593.2 L637.9 629.3 L647.4 657.8 Z" fill="#161310"/>
    <path d="M643.5 630.0 L669.0 580.7 L694.5 601.1 L716.6 560.3 L738.7 597.7 L764.2 575.6 L789.7 607.9 L798.2 633.4 Z" fill="#161310"/></g>
  <path d="M0 592 C176.0 576 360.0 606 528.0 584 C656.0 574 736.0 598 800 588 L800 800 L0 800 Z"
        fill="url(#sp-rock)" opacity=".96"/>
  <g opacity=".8"><ellipse cx="28" cy="616" rx="12" ry="5" fill="#dfe4e2" opacity="0.14"/>
    <ellipse cx="138" cy="626" rx="21" ry="7" fill="#dfe4e2" opacity="0.19"/>
    <ellipse cx="188" cy="636" rx="22" ry="9" fill="#dfe4e2" opacity="0.24000000000000002"/>
    <ellipse cx="298" cy="646" rx="15" ry="5" fill="#dfe4e2" opacity="0.14"/>
    <ellipse cx="348" cy="616" rx="17" ry="7" fill="#dfe4e2" opacity="0.19"/>
    <ellipse cx="458" cy="626" rx="27" ry="9" fill="#dfe4e2" opacity="0.24000000000000002"/>
    <ellipse cx="508" cy="636" rx="12" ry="5" fill="#dfe4e2" opacity="0.14"/>
    <ellipse cx="618" cy="646" rx="21" ry="7" fill="#dfe4e2" opacity="0.19"/>
    <ellipse cx="668" cy="616" rx="22" ry="9" fill="#dfe4e2" opacity="0.24000000000000002"/>
    <ellipse cx="778" cy="626" rx="15" ry="5" fill="#dfe4e2" opacity="0.14"/></g>
  
  <g>
    <path d="M483.0 677.4 L502.8 629.0 L538.0 598.2 L566.6 624.6 L597.4 602.6 L628.2 637.8 L639.2 677.4 Z" fill="url(#sp-rock)" stroke="#0a0a0a" stroke-opacity=".7" stroke-width="1.4"/>
    <g filter="url(#sp-blur)">
      <ellipse cx="560" cy="651" rx="22" ry="18" fill="url(#sp-crevice)"/>
    </g>
    <path d="M553.4 673.0 C544.6 655.4 549.0 637.8 562.2 633.4 C573.2 637.8 575.4 655.4 568.8 673.0 Z" fill="#12100c"/>
  </g>
  
  <g id="sp-petrel" transform="translate(300,360) scale(1.5)">
    <path d="M-18 -10 C-4 -40 30 -64 78 -70 C56 -52 30 -36 6 -20 C-4 -14 -12 -10 -18 -10 Z" fill="#cdd0c6" stroke="#0a0a0a" stroke-opacity=".5" stroke-width="1.1"/>
    <path d="M-14 2 C-2 26 26 46 66 56 C46 38 22 24 2 10 C-6 4 -10 2 -14 2 Z" fill="#f3f0e6" stroke="#0a0a0a" stroke-opacity=".5" stroke-width="1.1"/>
    <path d="M-58 -4 C-46 -14 -24 -16 -2 -12 C18 -8 34 2 40 10 C30 14 14 16 -6 14 C-26 12 -46 8 -58 -4 Z" fill="url(#sp-bird)" stroke="#0a0a0a" stroke-opacity=".7" stroke-width="1.3"/>
    <path d="M38 8 L62 2 L64 12 L40 16 Z" fill="#cdd0c6" stroke="#0a0a0a" stroke-opacity=".5" stroke-width="1"/>
    <path d="M-52 -8 C-60 -12 -68 -10 -72 -4 C-68 0 -58 -2 -52 -8 Z" fill="#f3f0e6" stroke="#0a0a0a" stroke-opacity=".7" stroke-width="1.2"/>
    <path d="M-71 -5 L-82 -2 L-70 1 Z" fill="#0a0a0a"/>
    <circle cx="-60" cy="-7" r="2.4" fill="#0a0a0a"/>
  </g>
</svg>
