<svg xmlns="http://www.w3.org/2000/svg" viewBox="0 0 800 800" role="img" aria-label="A ringtail descending a sheer granite ledge headfirst under a starlit, moonless sky, its hind feet turned backward against the rock and its long ringed tail swept out over the drop as a counterweight, a single warm cabin window glowing small and distant far below">
  <defs>
    <radialGradient id="rth-night" cx="38%" cy="14%" r="100%">
      <stop offset="0%" stop-color="#232a3c"/>
      <stop offset="55%" stop-color="#171c28"/>
      <stop offset="100%" stop-color="#0e1017"/>
    </radialGradient>
    <linearGradient id="rth-rock" x1="0" y1="0" x2="1" y2="1">
      <stop offset="0%" stop-color="#6a7386"/>
      <stop offset="60%" stop-color="#454b59"/>
      <stop offset="100%" stop-color="#2b2f3a"/>
    </linearGradient>
    <linearGradient id="rth-body" x1="0" y1="0" x2="1" y2="1">
      <stop offset="0%" stop-color="#5c4d3d"/>
      <stop offset="100%" stop-color="#3a3025"/>
    </linearGradient>
    <radialGradient id="rth-cabin" cx="50%" cy="50%" r="50%">
      <stop offset="0%" stop-color="#f7e6b8" stop-opacity=".95"/>
      <stop offset="45%" stop-color="#e8c07a" stop-opacity=".5"/>
      <stop offset="100%" stop-color="#e8c07a" stop-opacity="0"/>
    </radialGradient>
    <filter id="rth-blur" x="-80%" y="-80%" width="260%" height="260%">
      <feGaussianBlur stdDeviation="10" result="b"/>
      <feMerge><feMergeNode in="b"/><feMergeNode in="SourceGraphic"/></feMerge>
    </filter>
  </defs>
  <rect width="800" height="800" rx="24" fill="url(#rth-night)"/>
  <g opacity=".85"><circle cx="392.3" cy="43.9" r="1.26" fill="#dfe4ee" fill-opacity="0.75"/>
    <circle cx="448.6" cy="49.3" r="1.04" fill="#dfe4ee" fill-opacity="0.25"/>
    <circle cx="92.4" cy="24.0" r="0.82" fill="#dfe4ee" fill-opacity="0.35"/>
    <circle cx="195.2" cy="232.8" r="0.60" fill="#dfe4ee" fill-opacity="0.45"/>
    <circle cx="354.6" cy="315.9" r="1.48" fill="#dfe4ee" fill-opacity="0.55"/>
    <circle cx="405.1" cy="225.9" r="1.26" fill="#dfe4ee" fill-opacity="0.65"/>
    <circle cx="62.8" cy="7.2" r="1.04" fill="#dfe4ee" fill-opacity="0.75"/>
    <circle cx="703.1" cy="402.3" r="0.82" fill="#dfe4ee" fill-opacity="0.25"/>
    <circle cx="471.5" cy="316.5" r="0.60" fill="#dfe4ee" fill-opacity="0.35"/>
    <circle cx="328.7" cy="69.8" r="1.48" fill="#dfe4ee" fill-opacity="0.45"/>
    <circle cx="227.6" cy="19.0" r="1.26" fill="#dfe4ee" fill-opacity="0.55"/>
    <circle cx="625.0" cy="6.3" r="1.04" fill="#dfe4ee" fill-opacity="0.65"/>
    <circle cx="526.0" cy="131.3" r="0.82" fill="#dfe4ee" fill-opacity="0.75"/>
    <circle cx="61.3" cy="364.9" r="0.60" fill="#dfe4ee" fill-opacity="0.25"/>
    <circle cx="398.8" cy="494.2" r="1.48" fill="#dfe4ee" fill-opacity="0.35"/>
    <circle cx="188.1" cy="398.3" r="1.26" fill="#dfe4ee" fill-opacity="0.45"/>
    <circle cx="537.6" cy="158.4" r="1.04" fill="#dfe4ee" fill-opacity="0.55"/>
    <circle cx="126.4" cy="2.6" r="0.82" fill="#dfe4ee" fill-opacity="0.65"/>
    <circle cx="448.3" cy="85.5" r="0.60" fill="#dfe4ee" fill-opacity="0.75"/>
    <circle cx="389.8" cy="102.4" r="1.48" fill="#dfe4ee" fill-opacity="0.25"/>
    <circle cx="141.0" cy="226.4" r="1.26" fill="#dfe4ee" fill-opacity="0.35"/>
    <circle cx="40.1" cy="391.5" r="1.04" fill="#dfe4ee" fill-opacity="0.45"/>
    <circle cx="751.3" cy="403.5" r="0.82" fill="#dfe4ee" fill-opacity="0.55"/>
    <circle cx="775.9" cy="380.1" r="0.60" fill="#dfe4ee" fill-opacity="0.65"/>
    <circle cx="96.6" cy="35.1" r="1.48" fill="#dfe4ee" fill-opacity="0.75"/>
    <circle cx="355.4" cy="276.2" r="1.26" fill="#dfe4ee" fill-opacity="0.25"/>
    <circle cx="764.6" cy="174.4" r="1.04" fill="#dfe4ee" fill-opacity="0.35"/>
    <circle cx="151.3" cy="214.8" r="0.82" fill="#dfe4ee" fill-opacity="0.45"/>
    <circle cx="335.4" cy="423.4" r="0.60" fill="#dfe4ee" fill-opacity="0.55"/>
    <circle cx="440.3" cy="312.0" r="1.48" fill="#dfe4ee" fill-opacity="0.65"/>
    <circle cx="537.5" cy="145.4" r="1.26" fill="#dfe4ee" fill-opacity="0.75"/>
    <circle cx="224.7" cy="59.7" r="1.04" fill="#dfe4ee" fill-opacity="0.25"/>
    <circle cx="136.3" cy="7.6" r="0.82" fill="#dfe4ee" fill-opacity="0.35"/>
    <circle cx="788.5" cy="33.5" r="0.60" fill="#dfe4ee" fill-opacity="0.45"/>
    <circle cx="356.5" cy="383.7" r="1.48" fill="#dfe4ee" fill-opacity="0.55"/>
    <circle cx="186.1" cy="459.8" r="1.26" fill="#dfe4ee" fill-opacity="0.65"/>
    <circle cx="437.6" cy="85.8" r="1.04" fill="#dfe4ee" fill-opacity="0.75"/>
    <circle cx="264.3" cy="114.2" r="0.82" fill="#dfe4ee" fill-opacity="0.25"/>
    <circle cx="122.9" cy="387.4" r="0.60" fill="#dfe4ee" fill-opacity="0.35"/>
    <circle cx="618.3" cy="12.9" r="1.48" fill="#dfe4ee" fill-opacity="0.45"/>
    <circle cx="281.4" cy="449.6" r="1.26" fill="#dfe4ee" fill-opacity="0.55"/>
    <circle cx="280.0" cy="492.8" r="1.04" fill="#dfe4ee" fill-opacity="0.65"/>
    <circle cx="63.7" cy="21.5" r="0.82" fill="#dfe4ee" fill-opacity="0.75"/>
    <circle cx="741.0" cy="108.9" r="0.60" fill="#dfe4ee" fill-opacity="0.25"/>
    <circle cx="190.9" cy="487.0" r="1.48" fill="#dfe4ee" fill-opacity="0.35"/>
    <circle cx="707.3" cy="318.4" r="1.26" fill="#dfe4ee" fill-opacity="0.45"/></g>
  
  <path d="M0 0 L16.0 0 C240.0 48.0 272.0 176.0 240.0 304.0 C208.0 416.0 272.0 496.0 240.0 608.0 C216.0 704.0 264.0 768.0 240.0 800 L0 800 Z" fill="url(#rth-rock)"/>
  <path d="M0 0 L16.0 0 C176.0 48.0 200.0 160.0 176.0 288.0 C152.0 400.0 200.0 480.0 168.0 592.0 C144.0 688.0 192.0 752.0 168.0 800 L0 800 Z" fill="#2b2f3a" opacity=".55"/>
  <path d="M128.0 80.0 C160.0 192.0 112.00000000000001 272.0 144.0 384.0 C168.0 463.99999999999994 120.0 544.0 136.0 640.0" fill="none" stroke="#0e1017" stroke-width="3" stroke-opacity=".5" stroke-linecap="round"/>
  <path d="M0 240.00 L208.00 232.00" stroke="#2b2f3a" stroke-width="3" stroke-linecap="round" opacity=".5"/>
    <path d="M0 416.00 L160.00 408.00" stroke="#2b2f3a" stroke-width="2.4" stroke-linecap="round" opacity=".5"/>
    <path d="M0 560.00 L192.00 552.00" stroke="#2b2f3a" stroke-width="2" stroke-linecap="round" opacity=".5"/>
  <ellipse cx="298" cy="328.5" rx="42.0" ry="10.5" fill="#0e1017" fill-opacity=".4"/>
  
  <g filter="url(#rth-blur)">
    <circle cx="650" cy="706" r="28.8" fill="url(#rth-cabin)"/>
    <rect x="645.5" y="702.4" width="9.0" height="7.2" rx="1.2" fill="#f7e6b8"/>
  </g>
  
  <g id="rth-figure" transform="translate(298,402) scale(1.05)">
    <g id="rth-hind-legs">
      <path d="M-24 -70 C-52 -64 -70 -42 -72 -14" fill="none" stroke="#3a3025" stroke-width="13" stroke-linecap="round"/><ellipse cx="-74" cy="-6" rx="10" ry="6.5" fill="#3a3025" transform="rotate(-150 -74 -6)"/>
      <line x1="-74" y1="-2" x2="-70" y2="-14" stroke="#211c17" stroke-width="1.6" stroke-linecap="round"/>
      <line x1="-70" y1="-2" x2="-66" y2="-14" stroke="#211c17" stroke-width="1.6" stroke-linecap="round"/>
      <line x1="-66" y1="-2" x2="-62" y2="-14" stroke="#211c17" stroke-width="1.6" stroke-linecap="round"/>
      <path d="M8 -78 C34 -72 50 -50 52 -22" fill="none" stroke="#5c4d3d" stroke-width="13" stroke-linecap="round"/><ellipse cx="54" cy="-14" rx="10" ry="6.5" fill="#5c4d3d" transform="rotate(-30 54 -14)"/>
      <line x1="50" y1="-10" x2="54" y2="-22" stroke="#e6ddc6" stroke-width="1.6" stroke-linecap="round"/>
      <line x1="54" y1="-10" x2="58" y2="-22" stroke="#e6ddc6" stroke-width="1.6" stroke-linecap="round"/>
      <line x1="58" y1="-10" x2="62" y2="-22" stroke="#e6ddc6" stroke-width="1.6" stroke-linecap="round"/>
    </g>
    <path d="M16 -116 C70 -140 128 -118 158 -64 C182 -20 180 34 156 72" fill="none" stroke="#0e1017" stroke-opacity=".35" stroke-width="17"/>
    <g id="rth-tail"><path d="M16 -116 C70 -140 128 -118 158 -64 C182 -20 180 34 156 72" fill="none" stroke="#211c17" stroke-width="15" stroke-linecap="butt" pathLength="100" stroke-dasharray="11.11 88.89" stroke-dashoffset="-0.00"/><path d="M16 -116 C70 -140 128 -118 158 -64 C182 -20 180 34 156 72" fill="none" stroke="#e6ddc6" stroke-width="15" stroke-linecap="butt" pathLength="100" stroke-dasharray="11.11 88.89" stroke-dashoffset="-11.11"/><path d="M16 -116 C70 -140 128 -118 158 -64 C182 -20 180 34 156 72" fill="none" stroke="#211c17" stroke-width="15" stroke-linecap="butt" pathLength="100" stroke-dasharray="11.11 88.89" stroke-dashoffset="-22.22"/><path d="M16 -116 C70 -140 128 -118 158 -64 C182 -20 180 34 156 72" fill="none" stroke="#e6ddc6" stroke-width="15" stroke-linecap="butt" pathLength="100" stroke-dasharray="11.11 88.89" stroke-dashoffset="-33.33"/><path d="M16 -116 C70 -140 128 -118 158 -64 C182 -20 180 34 156 72" fill="none" stroke="#211c17" stroke-width="15" stroke-linecap="butt" pathLength="100" stroke-dasharray="11.11 88.89" stroke-dashoffset="-44.44"/><path d="M16 -116 C70 -140 128 -118 158 -64 C182 -20 180 34 156 72" fill="none" stroke="#e6ddc6" stroke-width="15" stroke-linecap="butt" pathLength="100" stroke-dasharray="11.11 88.89" stroke-dashoffset="-55.56"/><path d="M16 -116 C70 -140 128 -118 158 -64 C182 -20 180 34 156 72" fill="none" stroke="#211c17" stroke-width="15" stroke-linecap="butt" pathLength="100" stroke-dasharray="11.11 88.89" stroke-dashoffset="-66.67"/><path d="M16 -116 C70 -140 128 -118 158 -64 C182 -20 180 34 156 72" fill="none" stroke="#e6ddc6" stroke-width="15" stroke-linecap="butt" pathLength="100" stroke-dasharray="11.11 88.89" stroke-dashoffset="-77.78"/><path d="M16 -116 C70 -140 128 -118 158 -64 C182 -20 180 34 156 72" fill="none" stroke="#211c17" stroke-width="15" stroke-linecap="butt" pathLength="100" stroke-dasharray="11.11 88.89" stroke-dashoffset="-88.89"/></g>
    <circle cx="156" cy="72" r="9" fill="#211c17"/>
    <path d="M-30 -118 C-46 -96 -44 -64 -30 -34 C-16 -4 -6 30 2 68 C6 88 2 104 -10 114 C6 118 24 108 30 86 C38 50 30 10 14 -28 C2 -58 2 -92 18 -120 C2 -132 -18 -132 -30 -118 Z" fill="url(#rth-body)" stroke="#0e1017" stroke-opacity=".8" stroke-width="1.6"/>
    <g id="rth-fore-legs">
      <path d="M-18 60 C-32 90 -36 118 -30 142" fill="none" stroke="#3a3025" stroke-width="12" stroke-linecap="round"/><ellipse cx="-31" cy="146" rx="7" ry="4.5" fill="#3a3025" transform="rotate(18 -31 146)"/>
      <path d="M6 66 C-2 96 -4 122 4 144" fill="none" stroke="#5c4d3d" stroke-width="12" stroke-linecap="round"/><ellipse cx="5" cy="148" rx="7" ry="4.5" fill="#5c4d3d" transform="rotate(6 5 148)"/>
    </g>
    <path d="M-8 96 C-28 100 -44 114 -46 132 C-48 150 -34 166 -12 170 C8 174 26 164 30 146 C33 130 24 112 8 102 C3 99 -3 97 -8 96 Z" fill="url(#rth-body)" stroke="#0e1017" stroke-opacity=".8" stroke-width="1.6"/>
    <path d="M-4 96 C-2 80 10 72 20 76 C18 90 8 100 -4 96 Z" fill="#3a3025"/>
    <path d="M16 100 C20 84 32 78 40 84 C36 96 26 104 16 100 Z" fill="#5c4d3d"/>
    <path d="M-38 118 C-30 112 -16 112 -8 120 C-14 132 -30 132 -38 118 Z" fill="#cfc3ac" fill-opacity=".9"/>
    <path d="M-40 140 C-54 146 -58 156 -50 162 C-42 158 -36 150 -40 140 Z" fill="#cfc3ac" fill-opacity=".85"/>
    <circle cx="-20" cy="134" r="3.6" fill="#0a0806"/><circle cx="-21.4" cy="132.4" r="1.1" fill="#eef1f8" fill-opacity=".9"/>
  </g>
</svg>
