<svg xmlns="http://www.w3.org/2000/svg" viewBox="0 0 400 500" role="img" aria-label="A ringtail mid-descent on a dark rock face, hind feet reversed against the stone, tail curved out for balance, a distant lit window far below">
  <defs>
    <radialGradient id="rto-night" cx="38%" cy="14%" r="100%">
      <stop offset="0%" stop-color="#232a3c"/>
      <stop offset="55%" stop-color="#171c28"/>
      <stop offset="100%" stop-color="#0e1017"/>
    </radialGradient>
    <linearGradient id="rto-rock" x1="0" y1="0" x2="1" y2="1">
      <stop offset="0%" stop-color="#6a7386"/>
      <stop offset="60%" stop-color="#454b59"/>
      <stop offset="100%" stop-color="#2b2f3a"/>
    </linearGradient>
    <linearGradient id="rto-body" x1="0" y1="0" x2="1" y2="1">
      <stop offset="0%" stop-color="#5c4d3d"/>
      <stop offset="100%" stop-color="#3a3025"/>
    </linearGradient>
    <radialGradient id="rto-cabin" cx="50%" cy="50%" r="50%">
      <stop offset="0%" stop-color="#f7e6b8" stop-opacity=".95"/>
      <stop offset="45%" stop-color="#e8c07a" stop-opacity=".5"/>
      <stop offset="100%" stop-color="#e8c07a" stop-opacity="0"/>
    </radialGradient>
    <filter id="rto-blur" x="-80%" y="-80%" width="260%" height="260%">
      <feGaussianBlur stdDeviation="10" result="b"/>
      <feMerge><feMergeNode in="b"/><feMergeNode in="SourceGraphic"/></feMerge>
    </filter>
  </defs>
  <rect width="400" height="500" rx="18" fill="url(#rto-night)"/>
  <g opacity=".85"><circle cx="196.2" cy="27.4" r="1.26" fill="#dfe4ee" fill-opacity="0.75"/>
    <circle cx="224.3" cy="30.8" r="1.04" fill="#dfe4ee" fill-opacity="0.25"/>
    <circle cx="46.2" cy="15.0" r="0.82" fill="#dfe4ee" fill-opacity="0.35"/>
    <circle cx="97.6" cy="145.5" r="0.60" fill="#dfe4ee" fill-opacity="0.45"/>
    <circle cx="177.3" cy="197.5" r="1.48" fill="#dfe4ee" fill-opacity="0.55"/>
    <circle cx="202.6" cy="141.2" r="1.26" fill="#dfe4ee" fill-opacity="0.65"/>
    <circle cx="31.4" cy="4.5" r="1.04" fill="#dfe4ee" fill-opacity="0.75"/>
    <circle cx="351.5" cy="251.4" r="0.82" fill="#dfe4ee" fill-opacity="0.25"/>
    <circle cx="235.8" cy="197.8" r="0.60" fill="#dfe4ee" fill-opacity="0.35"/>
    <circle cx="164.3" cy="43.7" r="1.48" fill="#dfe4ee" fill-opacity="0.45"/>
    <circle cx="113.8" cy="11.9" r="1.26" fill="#dfe4ee" fill-opacity="0.55"/>
    <circle cx="312.5" cy="4.0" r="1.04" fill="#dfe4ee" fill-opacity="0.65"/>
    <circle cx="263.0" cy="82.1" r="0.82" fill="#dfe4ee" fill-opacity="0.75"/>
    <circle cx="30.6" cy="228.0" r="0.60" fill="#dfe4ee" fill-opacity="0.25"/>
    <circle cx="199.4" cy="308.9" r="1.48" fill="#dfe4ee" fill-opacity="0.35"/>
    <circle cx="94.0" cy="248.9" r="1.26" fill="#dfe4ee" fill-opacity="0.45"/>
    <circle cx="268.8" cy="99.0" r="1.04" fill="#dfe4ee" fill-opacity="0.55"/>
    <circle cx="63.2" cy="1.6" r="0.82" fill="#dfe4ee" fill-opacity="0.65"/>
    <circle cx="224.2" cy="53.4" r="0.60" fill="#dfe4ee" fill-opacity="0.75"/>
    <circle cx="194.9" cy="64.0" r="1.48" fill="#dfe4ee" fill-opacity="0.25"/>
    <circle cx="70.5" cy="141.5" r="1.26" fill="#dfe4ee" fill-opacity="0.35"/>
    <circle cx="20.0" cy="244.7" r="1.04" fill="#dfe4ee" fill-opacity="0.45"/>
    <circle cx="375.6" cy="252.2" r="0.82" fill="#dfe4ee" fill-opacity="0.55"/>
    <circle cx="388.0" cy="237.5" r="0.60" fill="#dfe4ee" fill-opacity="0.65"/>
    <circle cx="48.3" cy="21.9" r="1.48" fill="#dfe4ee" fill-opacity="0.75"/>
    <circle cx="177.7" cy="172.7" r="1.26" fill="#dfe4ee" fill-opacity="0.25"/>
    <circle cx="382.3" cy="109.0" r="1.04" fill="#dfe4ee" fill-opacity="0.35"/>
    <circle cx="75.7" cy="134.2" r="0.82" fill="#dfe4ee" fill-opacity="0.45"/>
    <circle cx="167.7" cy="264.7" r="0.60" fill="#dfe4ee" fill-opacity="0.55"/>
    <circle cx="220.1" cy="195.0" r="1.48" fill="#dfe4ee" fill-opacity="0.65"/>
    <circle cx="268.7" cy="90.9" r="1.26" fill="#dfe4ee" fill-opacity="0.75"/>
    <circle cx="112.3" cy="37.3" r="1.04" fill="#dfe4ee" fill-opacity="0.25"/>
    <circle cx="68.2" cy="4.8" r="0.82" fill="#dfe4ee" fill-opacity="0.35"/>
    <circle cx="394.2" cy="20.9" r="0.60" fill="#dfe4ee" fill-opacity="0.45"/>
    <circle cx="178.3" cy="239.8" r="1.48" fill="#dfe4ee" fill-opacity="0.55"/>
    <circle cx="93.0" cy="287.4" r="1.26" fill="#dfe4ee" fill-opacity="0.65"/>
    <circle cx="218.8" cy="53.6" r="1.04" fill="#dfe4ee" fill-opacity="0.75"/>
    <circle cx="132.2" cy="71.3" r="0.82" fill="#dfe4ee" fill-opacity="0.25"/>
    <circle cx="61.4" cy="242.1" r="0.60" fill="#dfe4ee" fill-opacity="0.35"/>
    <circle cx="309.1" cy="8.1" r="1.48" fill="#dfe4ee" fill-opacity="0.45"/>
    <circle cx="140.7" cy="281.0" r="1.26" fill="#dfe4ee" fill-opacity="0.55"/>
    <circle cx="140.0" cy="308.0" r="1.04" fill="#dfe4ee" fill-opacity="0.65"/>
    <circle cx="31.9" cy="13.5" r="0.82" fill="#dfe4ee" fill-opacity="0.75"/>
    <circle cx="370.5" cy="68.1" r="0.60" fill="#dfe4ee" fill-opacity="0.25"/>
    <circle cx="95.5" cy="304.3" r="1.48" fill="#dfe4ee" fill-opacity="0.35"/>
    <circle cx="353.7" cy="199.0" r="1.26" fill="#dfe4ee" fill-opacity="0.45"/></g>
  
  <path d="M0 0 L8.0 0 C120.0 30.0 136.0 110.0 120.0 190.0 C104.0 260.0 136.0 310.0 120.0 380.0 C108.0 440.0 132.0 480.0 120.0 500 L0 500 Z" fill="url(#rto-rock)"/>
  <path d="M0 0 L8.0 0 C88.0 30.0 100.0 100.0 88.0 180.0 C76.0 250.0 100.0 300.0 84.0 370.0 C72.0 430.0 96.0 470.0 84.0 500 L0 500 Z" fill="#2b2f3a" opacity=".55"/>
  <path d="M64.0 50.0 C80.0 120.0 56.00000000000001 170.0 72.0 240.0 C84.0 290.0 60.0 340.0 68.0 400.0" fill="none" stroke="#0e1017" stroke-width="3" stroke-opacity=".5" stroke-linecap="round"/>
  <path d="M0 150.00 L104.00 145.00" stroke="#2b2f3a" stroke-width="3" stroke-linecap="round" opacity=".5"/>
    <path d="M0 260.00 L80.00 255.00" stroke="#2b2f3a" stroke-width="2.4" stroke-linecap="round" opacity=".5"/>
    <path d="M0 350.00 L96.00 345.00" stroke="#2b2f3a" stroke-width="2" stroke-linecap="round" opacity=".5"/>
  <ellipse cx="176" cy="203.8" rx="26.400000000000002" ry="6.6000000000000005" fill="#0e1017" fill-opacity=".4"/>
  
  <g filter="url(#rto-blur)">
    <circle cx="330" cy="452" r="19.2" fill="url(#rto-cabin)"/>
    <rect x="327.0" y="449.6" width="6.0" height="4.8" rx="1.2" fill="#f7e6b8"/>
  </g>
  
  <g id="rto-figure" transform="translate(176,250) scale(0.66)">
    <g id="rto-hind-legs">
      <path d="M-24 -70 C-52 -64 -70 -42 -72 -14" fill="none" stroke="#3a3025" stroke-width="13" stroke-linecap="round"/><ellipse cx="-74" cy="-6" rx="10" ry="6.5" fill="#3a3025" transform="rotate(-150 -74 -6)"/>
      <line x1="-74" y1="-2" x2="-70" y2="-14" stroke="#211c17" stroke-width="1.6" stroke-linecap="round"/>
      <line x1="-70" y1="-2" x2="-66" y2="-14" stroke="#211c17" stroke-width="1.6" stroke-linecap="round"/>
      <line x1="-66" y1="-2" x2="-62" y2="-14" stroke="#211c17" stroke-width="1.6" stroke-linecap="round"/>
      <path d="M8 -78 C34 -72 50 -50 52 -22" fill="none" stroke="#5c4d3d" stroke-width="13" stroke-linecap="round"/><ellipse cx="54" cy="-14" rx="10" ry="6.5" fill="#5c4d3d" transform="rotate(-30 54 -14)"/>
      <line x1="50" y1="-10" x2="54" y2="-22" stroke="#e6ddc6" stroke-width="1.6" stroke-linecap="round"/>
      <line x1="54" y1="-10" x2="58" y2="-22" stroke="#e6ddc6" stroke-width="1.6" stroke-linecap="round"/>
      <line x1="58" y1="-10" x2="62" y2="-22" stroke="#e6ddc6" stroke-width="1.6" stroke-linecap="round"/>
    </g>
    <path d="M16 -116 C70 -140 128 -118 158 -64 C182 -20 180 34 156 72" fill="none" stroke="#0e1017" stroke-opacity=".35" stroke-width="17"/>
    <g id="rto-tail"><path d="M16 -116 C70 -140 128 -118 158 -64 C182 -20 180 34 156 72" fill="none" stroke="#211c17" stroke-width="15" stroke-linecap="butt" pathLength="100" stroke-dasharray="11.11 88.89" stroke-dashoffset="-0.00"/><path d="M16 -116 C70 -140 128 -118 158 -64 C182 -20 180 34 156 72" fill="none" stroke="#e6ddc6" stroke-width="15" stroke-linecap="butt" pathLength="100" stroke-dasharray="11.11 88.89" stroke-dashoffset="-11.11"/><path d="M16 -116 C70 -140 128 -118 158 -64 C182 -20 180 34 156 72" fill="none" stroke="#211c17" stroke-width="15" stroke-linecap="butt" pathLength="100" stroke-dasharray="11.11 88.89" stroke-dashoffset="-22.22"/><path d="M16 -116 C70 -140 128 -118 158 -64 C182 -20 180 34 156 72" fill="none" stroke="#e6ddc6" stroke-width="15" stroke-linecap="butt" pathLength="100" stroke-dasharray="11.11 88.89" stroke-dashoffset="-33.33"/><path d="M16 -116 C70 -140 128 -118 158 -64 C182 -20 180 34 156 72" fill="none" stroke="#211c17" stroke-width="15" stroke-linecap="butt" pathLength="100" stroke-dasharray="11.11 88.89" stroke-dashoffset="-44.44"/><path d="M16 -116 C70 -140 128 -118 158 -64 C182 -20 180 34 156 72" fill="none" stroke="#e6ddc6" stroke-width="15" stroke-linecap="butt" pathLength="100" stroke-dasharray="11.11 88.89" stroke-dashoffset="-55.56"/><path d="M16 -116 C70 -140 128 -118 158 -64 C182 -20 180 34 156 72" fill="none" stroke="#211c17" stroke-width="15" stroke-linecap="butt" pathLength="100" stroke-dasharray="11.11 88.89" stroke-dashoffset="-66.67"/><path d="M16 -116 C70 -140 128 -118 158 -64 C182 -20 180 34 156 72" fill="none" stroke="#e6ddc6" stroke-width="15" stroke-linecap="butt" pathLength="100" stroke-dasharray="11.11 88.89" stroke-dashoffset="-77.78"/><path d="M16 -116 C70 -140 128 -118 158 -64 C182 -20 180 34 156 72" fill="none" stroke="#211c17" stroke-width="15" stroke-linecap="butt" pathLength="100" stroke-dasharray="11.11 88.89" stroke-dashoffset="-88.89"/></g>
    <circle cx="156" cy="72" r="9" fill="#211c17"/>
    <path d="M-30 -118 C-46 -96 -44 -64 -30 -34 C-16 -4 -6 30 2 68 C6 88 2 104 -10 114 C6 118 24 108 30 86 C38 50 30 10 14 -28 C2 -58 2 -92 18 -120 C2 -132 -18 -132 -30 -118 Z" fill="url(#rto-body)" stroke="#0e1017" stroke-opacity=".8" stroke-width="1.6"/>
    <g id="rto-fore-legs">
      <path d="M-18 60 C-32 90 -36 118 -30 142" fill="none" stroke="#3a3025" stroke-width="12" stroke-linecap="round"/><ellipse cx="-31" cy="146" rx="7" ry="4.5" fill="#3a3025" transform="rotate(18 -31 146)"/>
      <path d="M6 66 C-2 96 -4 122 4 144" fill="none" stroke="#5c4d3d" stroke-width="12" stroke-linecap="round"/><ellipse cx="5" cy="148" rx="7" ry="4.5" fill="#5c4d3d" transform="rotate(6 5 148)"/>
    </g>
    <path d="M-8 96 C-28 100 -44 114 -46 132 C-48 150 -34 166 -12 170 C8 174 26 164 30 146 C33 130 24 112 8 102 C3 99 -3 97 -8 96 Z" fill="url(#rto-body)" stroke="#0e1017" stroke-opacity=".8" stroke-width="1.6"/>
    <path d="M-4 96 C-2 80 10 72 20 76 C18 90 8 100 -4 96 Z" fill="#3a3025"/>
    <path d="M16 100 C20 84 32 78 40 84 C36 96 26 104 16 100 Z" fill="#5c4d3d"/>
    <path d="M-38 118 C-30 112 -16 112 -8 120 C-14 132 -30 132 -38 118 Z" fill="#cfc3ac" fill-opacity=".9"/>
    <path d="M-40 140 C-54 146 -58 156 -50 162 C-42 158 -36 150 -40 140 Z" fill="#cfc3ac" fill-opacity=".85"/>
    <circle cx="-20" cy="134" r="3.6" fill="#0a0806"/><circle cx="-21.4" cy="132.4" r="1.1" fill="#eef1f8" fill-opacity=".9"/>
  </g>
</svg>
