<svg xmlns="http://www.w3.org/2000/svg" viewBox="0 0 800 800" role="img" aria-label="A dam stretches across a still, wide pond at dusk, a lodge rising near the bank behind it, while a single beaver swims low across the water toward the dam it built, its paddle tail trailing a faint wake">
  <defs>
    <linearGradient id="bv-sky" x1="0" y1="0" x2="0" y2="1">
      <stop offset="0%" stop-color="#2a1f2c"/>
      <stop offset="55%" stop-color="#4a2f2e"/>
      <stop offset="100%" stop-color="#8a5a3a"/>
    </linearGradient>
    <radialGradient id="bv-sun" cx="50%" cy="50%" r="50%">
      <stop offset="0%" stop-color="#f6cf95" stop-opacity=".85"/>
      <stop offset="55%" stop-color="#f2b06a" stop-opacity=".3"/>
      <stop offset="100%" stop-color="#f2b06a" stop-opacity="0"/>
    </radialGradient>
    <linearGradient id="bv-water" x1="0" y1="0" x2="0" y2="1">
      <stop offset="0%" stop-color="#5a4530"/>
      <stop offset="35%" stop-color="#241c18"/>
      <stop offset="100%" stop-color="#120e10"/>
    </linearGradient>
    <linearGradient id="bv-body" x1="0" y1="0" x2="1" y2="1">
      <stop offset="0%" stop-color="#6b4c2a"/>
      <stop offset="100%" stop-color="#2b1e12"/>
    </linearGradient>
    <linearGradient id="bv-dam" x1="0" y1="0" x2="0" y2="1">
      <stop offset="0%" stop-color="#6b4c2a"/>
      <stop offset="100%" stop-color="#2b1e11"/>
    </linearGradient>
    <radialGradient id="bv-glow" cx="50%" cy="50%" r="60%">
      <stop offset="0%" stop-color="#f6dcae"/>
      <stop offset="55%" stop-color="#c98f4a" stop-opacity=".6"/>
      <stop offset="100%" stop-color="#c98f4a" stop-opacity="0"/>
    </radialGradient>
    <filter id="bv-blur" x="-60%" y="-60%" width="220%" height="220%">
      <feGaussianBlur stdDeviation="7" result="b"/>
      <feMerge><feMergeNode in="b"/><feMergeNode in="SourceGraphic"/></feMerge>
    </filter>
  </defs>
  <rect width="800" height="800" rx="24" fill="url(#bv-sky)"/>
  <g opacity=".9"><circle cx="600" cy="150" r="44" fill="#f2b06a" fill-opacity=".8" stroke="#f6cf95" stroke-opacity=".2" stroke-width="1"/>
  <circle cx="600" cy="150" r="78" fill="url(#bv-sun)"/></g>
  <g id="bv-trees" opacity=".9"><path d="M5.0 372 L8 346 L23.0 372 Z" fill="#0c0808"/>
    <path d="M77.0 372 L92 333 L95.0 372 Z" fill="#160f0d"/>
    <path d="M205.0 372 L214 320 L223.0 372 Z" fill="#0c0808"/>
    <path d="M277.0 372 L280 341 L295.0 372 Z" fill="#160f0d"/>
    <path d="M405.0 372 L420 328 L423.0 372 Z" fill="#0c0808"/>
    <path d="M477.0 372 L486 315 L495.0 372 Z" fill="#160f0d"/>
    <path d="M605.0 372 L608 336 L623.0 372 Z" fill="#0c0808"/>
    <path d="M677.0 372 L692 323 L695.0 372 Z" fill="#160f0d"/>
    <path d="M805.0 372 L814 344 L823.0 372 Z" fill="#0c0808"/></g>
  <path d="M0 392 L800 392 L800 800 L0 800 Z" fill="url(#bv-water)" opacity=".97"/>
  <g opacity=".8"><path d="M0 422 Q128 417 272 422 T544 422 T800 422" fill="none" stroke="#8a6a44" stroke-width="1.4" stroke-linecap="round" opacity="0.30"/>
    <path d="M0 444 Q128 437 272 444 T544 444 T800 444" fill="none" stroke="#8a6a44" stroke-width="1.4" stroke-linecap="round" opacity="0.26"/>
    <path d="M0 466 Q128 457 272 466 T544 466 T800 466" fill="none" stroke="#8a6a44" stroke-width="1.4" stroke-linecap="round" opacity="0.22"/>
    <path d="M0 488 Q128 483 272 488 T544 488 T800 488" fill="none" stroke="#8a6a44" stroke-width="1.4" stroke-linecap="round" opacity="0.18"/>
    <path d="M0 510 Q128 503 272 510 T544 510 T800 510" fill="none" stroke="#8a6a44" stroke-width="1.4" stroke-linecap="round" opacity="0.14"/>
    <path d="M0 532 Q128 523 272 532 T544 532 T800 532" fill="none" stroke="#8a6a44" stroke-width="1.4" stroke-linecap="round" opacity="0.10"/>
    <path d="M0 554 Q128 549 272 554 T544 554 T800 554" fill="none" stroke="#8a6a44" stroke-width="1.4" stroke-linecap="round" opacity="0.08"/>
    <path d="M0 576 Q128 569 272 576 T544 576 T800 576" fill="none" stroke="#8a6a44" stroke-width="1.4" stroke-linecap="round" opacity="0.08"/>
    <path d="M0 598 Q128 589 272 598 T544 598 T800 598" fill="none" stroke="#8a6a44" stroke-width="1.4" stroke-linecap="round" opacity="0.08"/></g>
  
  <g id="bv-dam">
    <path d="M40 434 C184 422 314 442 400 436 C486 430 616 422 760 434 L760 478 L40 478 Z" fill="url(#bv-dam)" stroke="#0a0705" stroke-opacity=".7" stroke-width="1.6"/>
    <line x1="50" y1="440" x2="68" y2="436" stroke="#2b1e11" stroke-width="3" stroke-linecap="round" opacity=".55"/><line x1="76" y1="440" x2="94" y2="436" stroke="#2b1e11" stroke-width="3" stroke-linecap="round" opacity=".55"/><line x1="102" y1="440" x2="120" y2="436" stroke="#2b1e11" stroke-width="3" stroke-linecap="round" opacity=".55"/><line x1="128" y1="440" x2="146" y2="436" stroke="#2b1e11" stroke-width="3" stroke-linecap="round" opacity=".55"/><line x1="154" y1="440" x2="172" y2="436" stroke="#2b1e11" stroke-width="3" stroke-linecap="round" opacity=".55"/><line x1="180" y1="440" x2="198" y2="436" stroke="#2b1e11" stroke-width="3" stroke-linecap="round" opacity=".55"/><line x1="206" y1="440" x2="224" y2="436" stroke="#2b1e11" stroke-width="3" stroke-linecap="round" opacity=".55"/><line x1="232" y1="440" x2="250" y2="436" stroke="#2b1e11" stroke-width="3" stroke-linecap="round" opacity=".55"/><line x1="258" y1="440" x2="276" y2="436" stroke="#2b1e11" stroke-width="3" stroke-linecap="round" opacity=".55"/><line x1="284" y1="440" x2="302" y2="436" stroke="#2b1e11" stroke-width="3" stroke-linecap="round" opacity=".55"/><line x1="310" y1="440" x2="328" y2="436" stroke="#2b1e11" stroke-width="3" stroke-linecap="round" opacity=".55"/><line x1="336" y1="440" x2="354" y2="436" stroke="#2b1e11" stroke-width="3" stroke-linecap="round" opacity=".55"/><line x1="362" y1="440" x2="380" y2="436" stroke="#2b1e11" stroke-width="3" stroke-linecap="round" opacity=".55"/><line x1="388" y1="440" x2="406" y2="436" stroke="#2b1e11" stroke-width="3" stroke-linecap="round" opacity=".55"/><line x1="414" y1="440" x2="432" y2="436" stroke="#2b1e11" stroke-width="3" stroke-linecap="round" opacity=".55"/><line x1="440" y1="440" x2="458" y2="436" stroke="#2b1e11" stroke-width="3" stroke-linecap="round" opacity=".55"/><line x1="466" y1="440" x2="484" y2="436" stroke="#2b1e11" stroke-width="3" stroke-linecap="round" opacity=".55"/><line x1="492" y1="440" x2="510" y2="436" stroke="#2b1e11" stroke-width="3" stroke-linecap="round" opacity=".55"/><line x1="518" y1="440" x2="536" y2="436" stroke="#2b1e11" stroke-width="3" stroke-linecap="round" opacity=".55"/><line x1="544" y1="440" x2="562" y2="436" stroke="#2b1e11" stroke-width="3" stroke-linecap="round" opacity=".55"/><line x1="570" y1="440" x2="588" y2="436" stroke="#2b1e11" stroke-width="3" stroke-linecap="round" opacity=".55"/><line x1="596" y1="440" x2="614" y2="436" stroke="#2b1e11" stroke-width="3" stroke-linecap="round" opacity=".55"/><line x1="622" y1="440" x2="640" y2="436" stroke="#2b1e11" stroke-width="3" stroke-linecap="round" opacity=".55"/><line x1="648" y1="440" x2="666" y2="436" stroke="#2b1e11" stroke-width="3" stroke-linecap="round" opacity=".55"/><line x1="674" y1="440" x2="692" y2="436" stroke="#2b1e11" stroke-width="3" stroke-linecap="round" opacity=".55"/><line x1="700" y1="440" x2="718" y2="436" stroke="#2b1e11" stroke-width="3" stroke-linecap="round" opacity=".55"/><line x1="726" y1="440" x2="744" y2="436" stroke="#2b1e11" stroke-width="3" stroke-linecap="round" opacity=".55"/>
    <path d="M371 434 C386 454 400 470 400 490" fill="none" stroke="#5a4530" stroke-width="4" stroke-opacity=".5" stroke-linecap="round"/>
  </g>
  
  <g id="bv-lodge">
    <path d="M535 486 C532 429 587 400 627 403 C674 409 710 443 708 486 L708 529 L535 529 Z" fill="#563d24" stroke="#0a0705" stroke-opacity=".6" stroke-width="1.4"/>
    <line x1="555" y1="465" x2="569" y2="447" stroke="#2f2013" stroke-width="2.3" stroke-linecap="round" opacity=".45"/><line x1="578" y1="465" x2="593" y2="447" stroke="#2f2013" stroke-width="2.3" stroke-linecap="round" opacity=".45"/><line x1="602" y1="465" x2="616" y2="447" stroke="#2f2013" stroke-width="2.3" stroke-linecap="round" opacity=".45"/><line x1="625" y1="465" x2="640" y2="447" stroke="#2f2013" stroke-width="2.3" stroke-linecap="round" opacity=".45"/><line x1="649" y1="465" x2="663" y2="447" stroke="#2f2013" stroke-width="2.3" stroke-linecap="round" opacity=".45"/><line x1="672" y1="465" x2="686" y2="447" stroke="#2f2013" stroke-width="2.3" stroke-linecap="round" opacity=".45"/><line x1="695" y1="465" x2="710" y2="447" stroke="#2f2013" stroke-width="2.3" stroke-linecap="round" opacity=".45"/>
    <ellipse cx="623" cy="472" rx="23" ry="16" fill="#2f2013" opacity=".94"/>
  </g>
  
  <g id="bv-beaver" transform="translate(310,560) scale(1.7)">
    <path d="M-126 30 Q-70 42 -10 30 T60 28" fill="none" stroke="#8a6a44" stroke-width="2" stroke-opacity=".4" stroke-linecap="round"/>
    <path d="M-56 2 C-78 -2 -104 2 -118 10 C-124 14 -122 20 -112 22 C-90 26 -66 18 -52 10 Z" fill="#20191a" stroke="#0a0705" stroke-opacity=".8" stroke-width="1.4"/>
    <line x1="-64" y1="6" x2="-70" y2="16" stroke="#0a0705" stroke-opacity=".35" stroke-width="1.2"/>
    <line x1="-78" y1="6" x2="-84" y2="16" stroke="#0a0705" stroke-opacity=".35" stroke-width="1.2"/>
    <line x1="-92" y1="6" x2="-98" y2="16" stroke="#0a0705" stroke-opacity=".35" stroke-width="1.2"/>
    <line x1="-106" y1="6" x2="-112" y2="16" stroke="#0a0705" stroke-opacity=".35" stroke-width="1.2"/>
    <path d="M-58 6 C-54 -16 -30 -30 -2 -30 C22 -30 40 -20 46 -4 C30 6 -2 10 -30 9 C-42 9 -52 8 -58 6 Z" fill="url(#bv-body)" stroke="#0a0705" stroke-opacity=".9" stroke-width="1.8"/>
    <path d="M28 -2 C24 -18 34 -32 50 -32 C66 -31 78 -20 80 -10 C72 -3 56 -1 42 -2 C36 -2 31 -2 28 -2 Z" fill="url(#bv-body)" stroke="#0a0705" stroke-opacity=".9" stroke-width="1.6"/>
    <rect x="74" y="-11" width="4" height="6" rx="1" fill="#d9a24a" stroke="#0a0705" stroke-width=".6"/><rect x="78.5" y="-11" width="4" height="6" rx="1" fill="#d9a24a" stroke="#0a0705" stroke-width=".6"/>
    <ellipse cx="44" cy="-31" rx="5" ry="4" fill="#2b1e12" stroke="#0a0705" stroke-opacity=".7" stroke-width="1"/>
    <circle cx="56" cy="-22" r="3" fill="#0a0705"/><circle cx="55" cy="-23" r="1" fill="#f6dcae" fill-opacity=".85"/>
  </g>
</svg>
