<svg xmlns="http://www.w3.org/2000/svg" viewBox="0 0 800 800" role="img" aria-label="A cassowary standing almost still in deep rainforest shadow, a single shaft of light on its casque and throat, half-hidden by leaves, one fallen fruit glowing at its feet">
  <defs>
    <radialGradient id="cw-forest" cx="62%" cy="14%" r="95%">
      <stop offset="0%" stop-color="#182617"/>
      <stop offset="55%" stop-color="#0e1610"/>
      <stop offset="100%" stop-color="#0b120c"/>
    </radialGradient>
    <linearGradient id="cw-beam" x1="0.7" y1="0" x2="0.2" y2="1">
      <stop offset="0%" stop-color="#f2d9a0" stop-opacity=".55"/>
      <stop offset="60%" stop-color="#f2d9a0" stop-opacity=".14"/>
      <stop offset="100%" stop-color="#f2d9a0" stop-opacity="0"/>
    </linearGradient>
    <radialGradient id="cw-fruitglow" cx="50%" cy="50%" r="50%">
      <stop offset="0%" stop-color="#f0a868" stop-opacity=".9"/>
      <stop offset="60%" stop-color="#c9633a" stop-opacity=".5"/>
      <stop offset="100%" stop-color="#c9633a" stop-opacity="0"/>
    </radialGradient>
    <linearGradient id="cw-body" x1="0" y1="0" x2="1" y2="1">
      <stop offset="0%" stop-color="#262c39"/>
      <stop offset="100%" stop-color="#0a0c11"/>
    </linearGradient>
    <linearGradient id="cw-neck" x1="0" y1="0" x2="0" y2="1">
      <stop offset="0%" stop-color="#2b5f7a"/>
      <stop offset="100%" stop-color="#1c4256"/>
    </linearGradient>
    <linearGradient id="cw-casque" x1="0" y1="0" x2="0" y2="1">
      <stop offset="0%" stop-color="#8a6a45"/>
      <stop offset="100%" stop-color="#5f4a30"/>
    </linearGradient>
    <filter id="cw-blur" x="-60%" y="-60%" width="220%" height="220%">
      <feGaussianBlur stdDeviation="8" result="b"/>
      <feMerge><feMergeNode in="b"/><feMergeNode in="SourceGraphic"/></feMerge>
    </filter>
  </defs>
  <rect width="800" height="800" rx="24" fill="url(#cw-forest)"/>
  <polygon points="620,0 800,0 560,760 420,760" fill="url(#cw-beam)"/>
  <path d="M0 610 C176.0 594 320.0 624 480.0 606 C640.0 594 720.0 620 800 608 L800 800 L0 800 Z"
        fill="#0d2015" opacity=".9"/>
  
  <g filter="url(#cw-blur)">
    <circle cx="470" cy="664" r="22.0" fill="url(#cw-fruitglow)"/>
    <path d="M456.0 664.0 C456.0 656.0 462.0 651.0 470.0 651.0 C478.0 651.0 484.0 656.0 484.0 664.0 C484.0 671.0 478.0 675.0 470.0 675.0 C462.0 675.0 456.0 671.0 456.0 664.0 Z" fill="#c9633a" stroke="#050705" stroke-opacity=".5" stroke-width="1"/>
  </g>
  <g id="cw-vines"><path d="M60 0 C51.2 96.0 71.0 192.0 55.6 320" fill="none" stroke="#0d2015" stroke-width="3.7" stroke-linecap="round" opacity=".75"/><path d="M740 0 C732.0 108.0 750.0 216.0 736.0 360" fill="none" stroke="#0d2015" stroke-width="3.4" stroke-linecap="round" opacity=".75"/><path d="M400 0 C393.6 66.0 408.0 132.0 396.8 220" fill="none" stroke="#0d2015" stroke-width="2.7" stroke-linecap="round" opacity=".75"/></g>
  <ellipse cx="380" cy="728.0" rx="86.0" ry="18.0" fill="#050705" fill-opacity=".5"/>
  
  <g id="cw-cassowary" transform="translate(380,560) scale(1.0)">
    <g id="cw-legs-back"><path d="M-38 60 L-46 164" fill="none" stroke="#241f16" stroke-width="15" stroke-linecap="round"/><path d="M-46 164 L-64 180 M-46 164 L-40 184 M-46 164 L-30 178" fill="none" stroke="#241f16" stroke-width="6" stroke-linecap="round"/></g>
    <path d="M64 -90 C96 -104 120 -96 130 -74 C112 -78 90 -78 68 -68 Z" fill="#0a0c11" stroke="#050705" stroke-opacity=".8" stroke-width="1.4"/>
    <path d="M-96 -10 C-118 -34 -112 -70 -80 -88 C-48 -106 -4 -108 30 -92 C66 -76 86 -42 84 -4 C82 30 60 58 22 68 C-16 78 -58 72 -84 48 C-100 32 -104 8 -96 -10 Z" fill="url(#cw-body)" stroke="#050705" stroke-opacity=".9" stroke-width="1.8"/>
    <path d="M-58 -78 C-72 -108 -78 -142 -72 -176 C-68 -200 -54 -220 -34 -232 C-46 -208 -50 -182 -46 -158 C-42 -128 -30 -100 -12 -82 C-28 -72 -46 -70 -58 -78 Z" fill="url(#cw-neck)" stroke="#050705" stroke-opacity=".7" stroke-width="1.4"/>
    <path d="M-14 -224 C-10 -208 -10 -190 -16 -176 C-22 -190 -24 -208 -20 -224 Z" fill="#8f2b2b" stroke="#601c1c" stroke-width="1"/>
    <path d="M-46 -224 C-52 -238 -46 -252 -32 -258 C-18 -264 -2 -258 4 -244 C10 -232 4 -218 -10 -212 C-24 -206 -40 -210 -46 -224 Z" fill="url(#cw-neck)" stroke="#050705" stroke-opacity=".8" stroke-width="1.4"/>
    <path d="M-34 -250 C-32 -274 -20 -296 -6 -306 C-14 -286 -14 -264 -18 -246 C-24 -244 -30 -246 -34 -250 Z" fill="url(#cw-casque)" stroke="#050705" stroke-opacity=".7" stroke-width="1.2"/>
    <path d="M2 -246 L26 -238 L2 -232 Z" fill="#5f4a30" stroke="#050705" stroke-opacity=".7" stroke-width="1"/>
    <circle cx="-30" cy="-234" r="3.2" fill="#050705"/><circle cx="-31" cy="-235" r="1" fill="#cdbf9a" fill-opacity=".8"/>
    <g id="cw-legs-front"><path d="M18 64 L26 168" fill="none" stroke="#3a3226" stroke-width="16" stroke-linecap="round"/><path d="M26 168 L6 182" fill="none" stroke="#d9cdb0" stroke-width="6" stroke-linecap="round"/><path d="M26 168 L30 188" fill="none" stroke="#3a3226" stroke-width="6" stroke-linecap="round"/><path d="M26 168 L44 180" fill="none" stroke="#3a3226" stroke-width="6" stroke-linecap="round"/></g>
  </g>
  <g id="cw-foliage"><path d="M70 780 C55.0 735.0 61.0 690.0 70 654.0 C79.0 690.0 85.0 735.0 70 780 Z" fill="#0d2015" opacity=".92" transform="rotate(-8 70 780)"/>
    <path d="M160 800 C142.0 746.0 149.2 692.0 160 648.8 C170.8 692.0 178.0 746.0 160 800 Z" fill="#0d2015" opacity=".92" transform="rotate(6 160 800)"/>
    <path d="M250 790 C237.0 751.0 242.2 712.0 250 680.8 C257.8 712.0 263.0 751.0 250 790 Z" fill="#234a2c" opacity=".92" transform="rotate(-4 250 790)"/>
    <path d="M600 800 C583.0 749.0 589.8 698.0 600 657.2 C610.2 698.0 617.0 749.0 600 800 Z" fill="#0d2015" opacity=".92" transform="rotate(10 600 800)"/>
    <path d="M700 780 C686.0 738.0 691.6 696.0 700 662.4 C708.4 696.0 714.0 738.0 700 780 Z" fill="#0d2015" opacity=".92" transform="rotate(-6 700 780)"/>
    <path d="M760 800 C744.0 752.0 750.4 704.0 760 665.6 C769.6 704.0 776.0 752.0 760 800 Z" fill="#234a2c" opacity=".92" transform="rotate(4 760 800)"/>
    <path d="M40 640 C29.0 607.0 33.4 574.0 40 547.6 C46.6 574.0 51.0 607.0 40 640 Z" fill="#0d2015" opacity=".92" transform="rotate(0 40 640)"/>
    <path d="M740 600 C728.0 564.0 732.8 528.0 740 499.2 C747.2 528.0 752.0 564.0 740 600 Z" fill="#0d2015" opacity=".92" transform="rotate(8 740 600)"/></g>
</svg>
