<svg xmlns="http://www.w3.org/2000/svg" viewBox="0 0 400 500" role="img" aria-label="A giant otter periscoping above the water, closer and calmer, its family resting near the den behind it">
  <defs>
    <radialGradient id="go-sky" cx="70%" cy="14%" r="95%">
      <stop offset="0%" stop-color="#2c2417"/>
      <stop offset="55%" stop-color="#182417"/>
      <stop offset="100%" stop-color="#0e1a12"/>
    </radialGradient>
    <radialGradient id="go-sun" cx="50%" cy="50%" r="50%">
      <stop offset="0%" stop-color="#f0c374" stop-opacity=".55"/>
      <stop offset="60%" stop-color="#f0c374" stop-opacity=".2"/>
      <stop offset="100%" stop-color="#f0c374" stop-opacity="0"/>
    </radialGradient>
    <radialGradient id="go-glow" cx="50%" cy="45%" r="60%">
      <stop offset="0%" stop-color="#f5ecd2"/>
      <stop offset="55%" stop-color="#e9dcb8"/>
      <stop offset="100%" stop-color="#c98f4a"/>
    </radialGradient>
    <linearGradient id="go-body" x1="0" y1="0" x2="1" y2="1">
      <stop offset="0%" stop-color="#6b5636"/>
      <stop offset="100%" stop-color="#2e2415"/>
    </linearGradient>
    <linearGradient id="go-water" x1="0" y1="0" x2="0" y2="1">
      <stop offset="0%" stop-color="#1a2e22"/>
      <stop offset="100%" stop-color="#0f1c14"/>
    </linearGradient>
    <filter id="go-blur" x="-60%" y="-60%" width="220%" height="220%">
      <feGaussianBlur stdDeviation="8" result="b"/>
      <feMerge><feMergeNode in="b"/><feMergeNode in="SourceGraphic"/></feMerge>
    </filter>
  </defs>
  <rect width="400" height="500" rx="18" fill="url(#go-sky)"/>
  <g opacity=".9"><circle cx="320" cy="74" r="24" fill="#f0c374" fill-opacity=".85" stroke="#cbb98f" stroke-opacity=".2" stroke-width="1"/>
  <circle cx="320" cy="74" r="54" fill="url(#go-sun)"/></g>
  <g id="go-reeds"><path d="M24 352 Q22.0 338.2 19.0 329.0" fill="none" stroke="#152016" stroke-width="1.6" stroke-linecap="round"/>
    <path d="M24 352 Q23.4 336.4 22.5 326.0" fill="none" stroke="#152016" stroke-width="1.6" stroke-linecap="round"/>
    <path d="M24 352 Q24.8 334.6 26.0 323.0" fill="none" stroke="#152016" stroke-width="1.6" stroke-linecap="round"/>
    <path d="M24 352 Q26.2 332.8 29.5 320.0" fill="none" stroke="#152016" stroke-width="1.6" stroke-linecap="round"/>
    <path d="M376 326 Q373.8 310.8 370.5 300.7" fill="none" stroke="#152016" stroke-width="1.8" stroke-linecap="round"/>
    <path d="M376 326 Q375.3 308.8 374.4 297.4" fill="none" stroke="#152016" stroke-width="1.8" stroke-linecap="round"/>
    <path d="M376 326 Q376.9 306.9 378.2 294.1" fill="none" stroke="#152016" stroke-width="1.8" stroke-linecap="round"/>
    <path d="M376 326 Q378.4 304.9 382.1 290.8" fill="none" stroke="#152016" stroke-width="1.8" stroke-linecap="round"/></g>
  <path d="M0 352 C88.0 336 160.0 366 240.0 344 C320.0 332 360.0 358 400 348 L400 500 L0 500 Z"
        fill="url(#go-water)" opacity=".96"/>
  <g opacity=".85"><path d="M0 376 Q60 370 128 376 T256 376 T400 376" fill="none" stroke="#233524" stroke-width="1.6" stroke-linecap="round" opacity="0.38"/>
    <path d="M0 402 Q60 394 128 402 T256 402 T400 402" fill="none" stroke="#233524" stroke-width="1.6" stroke-linecap="round" opacity="0.34"/>
    <path d="M0 428 Q60 418 128 428 T256 428 T400 428" fill="none" stroke="#233524" stroke-width="1.6" stroke-linecap="round" opacity="0.29"/>
    <path d="M0 454 Q60 448 128 454 T256 454 T400 454" fill="none" stroke="#233524" stroke-width="1.6" stroke-linecap="round" opacity="0.24"/>
    <path d="M0 480 Q60 472 128 480 T256 480 T400 480" fill="none" stroke="#233524" stroke-width="1.6" stroke-linecap="round" opacity="0.20"/></g>
  
  <g id="go-den">
    <path d="M246 384 C245 347 282 330 308 332 C338 335 360 355 360 384 L360 414 L246 414 Z" fill="#4a3520" stroke="#0a0805" stroke-opacity=".55" stroke-width="1.4"/>
    <ellipse cx="305" cy="368" rx="18" ry="14" fill="#2b1e11" opacity=".92"/>
  </g>
  
  <g transform="translate(282,378) scale(0.38)">
    <path d="M-30 30 C-36 6 -32 -16 -18 -30 C-6 -40 10 -40 20 -30 C32 -16 34 8 28 30 C16 42 -18 42 -30 30 Z" fill="url(#go-body)" stroke="#0a0805" stroke-opacity=".75" stroke-width="1.3"/>
    <ellipse cx="-2" cy="-6" rx="9" ry="13" fill="#e9dcb8" fill-opacity=".55"/>
    <circle cx="14" cy="-32" r="5" fill="#2e2415"/>
    <circle cx="-10" cy="-16" r="2.2" fill="#0a0805"/>
  </g>
  
  <g transform="translate(316,384) scale(0.3)">
    <path d="M-30 30 C-36 6 -32 -16 -18 -30 C-6 -40 10 -40 20 -30 C32 -16 34 8 28 30 C16 42 -18 42 -30 30 Z" fill="url(#go-body)" stroke="#0a0805" stroke-opacity=".75" stroke-width="1.3"/>
    <ellipse cx="-2" cy="-6" rx="9" ry="13" fill="#e9dcb8" fill-opacity=".55"/>
    <circle cx="14" cy="-32" r="5" fill="#2e2415"/>
    <circle cx="-10" cy="-16" r="2.2" fill="#0a0805"/>
  </g>
  <ellipse cx="160" cy="479.2" rx="42.0" ry="15.2" fill="#0a0805" fill-opacity=".45"/>
  
  <g id="go-otter" transform="translate(160,356) scale(0.7)">
    <path d="M-30 128 C-42 168 -32 212 -6 244 C6 254 16 250 18 236 C4 206 -2 168 8 130 C-6 118 -22 118 -30 128 Z" fill="url(#go-body)" stroke="#0a0805" stroke-opacity=".8" stroke-width="1.4"/>
    <path d="M-46 150 C-60 96 -56 30 -42 -28 C-32 -70 -16 -102 2 -110 C18 -102 34 -70 42 -28 C56 30 58 96 46 150 C30 176 -14 176 -46 150 Z" fill="url(#go-body)" stroke="#0a0805" stroke-opacity=".9" stroke-width="1.8"/>
    <g filter="url(#go-blur)">
      <path d="M-16 -32 C-24 -4 -20 34 -2 58 C14 42 18 4 10 -24 C4 -42 -8 -46 -16 -32 Z" fill="url(#go-glow)" stroke="#0a0805" stroke-opacity=".4" stroke-width="1"/>
    </g>
    <ellipse cx="-40" cy="82" rx="13" ry="20" fill="#2e2415" stroke="#0a0805" stroke-opacity=".7" stroke-width="1.2" transform="rotate(-18 -40 82)"/>
    <ellipse cx="-8" cy="-142" rx="36" ry="32" fill="url(#go-body)" stroke="#0a0805" stroke-opacity=".9" stroke-width="1.6"/>
    <path d="M-24 -140 C-42 -144 -54 -136 -56 -128 C-44 -122 -28 -124 -20 -130 Z" fill="#2e2415" stroke="#0a0805" stroke-opacity=".7" stroke-width="1"/>
    <ellipse cx="10" cy="-166" rx="9" ry="8" fill="#2e2415" stroke="#0a0805" stroke-opacity=".8" stroke-width="1.2"/>
    <circle cx="-28" cy="-144" r="3.6" fill="#0a0805"/><circle cx="-29" cy="-145" r="1.1" fill="#cbb98f" fill-opacity=".85"/>
    <path d="M-52 -134 L-92 -144" fill="none" stroke="#cbb98f" stroke-opacity=".5" stroke-width="1.6" stroke-linecap="round"/>
      <path d="M-54 -128 L-96 -128" fill="none" stroke="#cbb98f" stroke-opacity=".5" stroke-width="1.6" stroke-linecap="round"/>
      <path d="M-52 -122 L-90 -112" fill="none" stroke="#cbb98f" stroke-opacity=".5" stroke-width="1.6" stroke-linecap="round"/>
    <ellipse cx="32" cy="88" rx="13" ry="20" fill="#4a3a26" stroke="#0a0805" stroke-opacity=".7" stroke-width="1.2" transform="rotate(14 32 88)"/>
  </g>
</svg>
