<svg xmlns="http://www.w3.org/2000/svg" viewBox="0 0 800 800" role="img" aria-label="A giant otter risen chest-high out of the river, periscoping, facing an unseen threat off-frame, while its family group rests near the mouth of a den cleared into the riverbank behind it">
  <defs>
    <radialGradient id="go-sky" cx="70%" cy="14%" r="95%">
      <stop offset="0%" stop-color="#2c2417"/>
      <stop offset="55%" stop-color="#182417"/>
      <stop offset="100%" stop-color="#0e1a12"/>
    </radialGradient>
    <radialGradient id="go-sun" cx="50%" cy="50%" r="50%">
      <stop offset="0%" stop-color="#f0c374" stop-opacity=".55"/>
      <stop offset="60%" stop-color="#f0c374" stop-opacity=".2"/>
      <stop offset="100%" stop-color="#f0c374" stop-opacity="0"/>
    </radialGradient>
    <radialGradient id="go-glow" cx="50%" cy="45%" r="60%">
      <stop offset="0%" stop-color="#f5ecd2"/>
      <stop offset="55%" stop-color="#e9dcb8"/>
      <stop offset="100%" stop-color="#c98f4a"/>
    </radialGradient>
    <linearGradient id="go-body" x1="0" y1="0" x2="1" y2="1">
      <stop offset="0%" stop-color="#6b5636"/>
      <stop offset="100%" stop-color="#2e2415"/>
    </linearGradient>
    <linearGradient id="go-water" x1="0" y1="0" x2="0" y2="1">
      <stop offset="0%" stop-color="#1a2e22"/>
      <stop offset="100%" stop-color="#0f1c14"/>
    </linearGradient>
    <filter id="go-blur" x="-60%" y="-60%" width="220%" height="220%">
      <feGaussianBlur stdDeviation="8" result="b"/>
      <feMerge><feMergeNode in="b"/><feMergeNode in="SourceGraphic"/></feMerge>
    </filter>
  </defs>
  <rect width="800" height="800" rx="24" fill="url(#go-sky)"/>
  <g opacity=".9"><circle cx="650" cy="128" r="46" fill="#f0c374" fill-opacity=".85" stroke="#cbb98f" stroke-opacity=".2" stroke-width="1"/>
  <circle cx="650" cy="128" r="76" fill="url(#go-sun)"/></g>
  <g id="go-reeds"><path d="M40 540 Q36.6 516.5 31.5 500.9" fill="none" stroke="#152016" stroke-width="2.7" stroke-linecap="round"/>
    <path d="M40 540 Q39.0 513.5 37.5 495.8" fill="none" stroke="#152016" stroke-width="2.7" stroke-linecap="round"/>
    <path d="M40 540 Q41.4 510.4 43.4 490.7" fill="none" stroke="#152016" stroke-width="2.7" stroke-linecap="round"/>
    <path d="M40 540 Q43.7 507.4 49.4 485.6" fill="none" stroke="#152016" stroke-width="2.7" stroke-linecap="round"/>
    <path d="M110 506 Q105.8 477.0 99.5 457.7" fill="none" stroke="#152016" stroke-width="3.4" stroke-linecap="round"/>
    <path d="M110 506 Q108.7 473.2 106.8 451.4" fill="none" stroke="#152016" stroke-width="3.4" stroke-linecap="round"/>
    <path d="M110 506 Q111.7 469.5 114.2 445.1" fill="none" stroke="#152016" stroke-width="3.4" stroke-linecap="round"/>
    <path d="M110 506 Q114.6 465.7 121.5 438.8" fill="none" stroke="#152016" stroke-width="3.4" stroke-linecap="round"/>
    <path d="M740 528 Q736.4 503.2 731.0 486.6" fill="none" stroke="#152016" stroke-width="2.9" stroke-linecap="round"/>
    <path d="M740 528 Q738.9 499.9 737.3 481.2" fill="none" stroke="#152016" stroke-width="2.9" stroke-linecap="round"/>
    <path d="M740 528 Q741.4 496.7 743.6 475.8" fill="none" stroke="#152016" stroke-width="2.9" stroke-linecap="round"/>
    <path d="M740 528 Q744.0 493.4 749.9 470.4" fill="none" stroke="#152016" stroke-width="2.9" stroke-linecap="round"/>
    <path d="M786 498 Q783.0 477.3 778.5 463.5" fill="none" stroke="#152016" stroke-width="2.4" stroke-linecap="round"/>
    <path d="M786 498 Q785.1 474.6 783.8 459.0" fill="none" stroke="#152016" stroke-width="2.4" stroke-linecap="round"/>
    <path d="M786 498 Q787.2 471.9 789.0 454.5" fill="none" stroke="#152016" stroke-width="2.4" stroke-linecap="round"/>
    <path d="M786 498 Q789.3 469.2 794.2 450.0" fill="none" stroke="#152016" stroke-width="2.4" stroke-linecap="round"/></g>
  <path d="M0 548 C176.0 532 320.0 562 480.0 540 C640.0 528 720.0 554 800 544 L800 800 L0 800 Z"
        fill="url(#go-water)" opacity=".96"/>
  <g opacity=".85"><path d="M0 572 Q120 566 256 572 T512 572 T800 572" fill="none" stroke="#233524" stroke-width="1.6" stroke-linecap="round" opacity="0.38"/>
    <path d="M0 598 Q120 590 256 598 T512 598 T800 598" fill="none" stroke="#233524" stroke-width="1.6" stroke-linecap="round" opacity="0.34"/>
    <path d="M0 624 Q120 614 256 624 T512 624 T800 624" fill="none" stroke="#233524" stroke-width="1.6" stroke-linecap="round" opacity="0.29"/>
    <path d="M0 650 Q120 644 256 650 T512 650 T800 650" fill="none" stroke="#233524" stroke-width="1.6" stroke-linecap="round" opacity="0.24"/>
    <path d="M0 676 Q120 668 256 676 T512 676 T800 676" fill="none" stroke="#233524" stroke-width="1.6" stroke-linecap="round" opacity="0.20"/>
    <path d="M0 702 Q120 692 256 702 T512 702 T800 702" fill="none" stroke="#233524" stroke-width="1.6" stroke-linecap="round" opacity="0.16"/>
    <path d="M0 728 Q120 722 256 728 T512 728 T800 728" fill="none" stroke="#233524" stroke-width="1.6" stroke-linecap="round" opacity="0.12"/>
    <path d="M0 754 Q120 746 256 754 T512 754 T800 754" fill="none" stroke="#233524" stroke-width="1.6" stroke-linecap="round" opacity="0.12"/></g>
  
  <g id="go-den">
    <path d="M510 608 C508 546 570 518 614 522 C664 526 700 560 700 608 L700 658 L510 658 Z" fill="#4a3520" stroke="#0a0805" stroke-opacity=".55" stroke-width="1.4"/>
    <ellipse cx="608" cy="582" rx="30" ry="24" fill="#2b1e11" opacity=".92"/>
  </g>
  
  <g transform="translate(566,596) scale(0.62)">
    <path d="M-30 30 C-36 6 -32 -16 -18 -30 C-6 -40 10 -40 20 -30 C32 -16 34 8 28 30 C16 42 -18 42 -30 30 Z" fill="url(#go-body)" stroke="#0a0805" stroke-opacity=".75" stroke-width="1.3"/>
    <ellipse cx="-2" cy="-6" rx="9" ry="13" fill="#e9dcb8" fill-opacity=".55"/>
    <circle cx="14" cy="-32" r="5" fill="#2e2415"/>
    <circle cx="-10" cy="-16" r="2.2" fill="#0a0805"/>
  </g>
  
  <g transform="translate(626,606) scale(0.5)">
    <path d="M-30 30 C-36 6 -32 -16 -18 -30 C-6 -40 10 -40 20 -30 C32 -16 34 8 28 30 C16 42 -18 42 -30 30 Z" fill="url(#go-body)" stroke="#0a0805" stroke-opacity=".75" stroke-width="1.3"/>
    <ellipse cx="-2" cy="-6" rx="9" ry="13" fill="#e9dcb8" fill-opacity=".55"/>
    <circle cx="14" cy="-32" r="5" fill="#2e2415"/>
    <circle cx="-10" cy="-16" r="2.2" fill="#0a0805"/>
  </g>
  <ellipse cx="330" cy="762.4" rx="69.0" ry="22.4" fill="#0a0805" fill-opacity=".45"/>
  
  <g id="go-otter" transform="translate(330,560) scale(1.15)">
    <path d="M-30 128 C-42 168 -32 212 -6 244 C6 254 16 250 18 236 C4 206 -2 168 8 130 C-6 118 -22 118 -30 128 Z" fill="url(#go-body)" stroke="#0a0805" stroke-opacity=".8" stroke-width="1.4"/>
    <path d="M-46 150 C-60 96 -56 30 -42 -28 C-32 -70 -16 -102 2 -110 C18 -102 34 -70 42 -28 C56 30 58 96 46 150 C30 176 -14 176 -46 150 Z" fill="url(#go-body)" stroke="#0a0805" stroke-opacity=".9" stroke-width="1.8"/>
    <g filter="url(#go-blur)">
      <path d="M-16 -32 C-24 -4 -20 34 -2 58 C14 42 18 4 10 -24 C4 -42 -8 -46 -16 -32 Z" fill="url(#go-glow)" stroke="#0a0805" stroke-opacity=".4" stroke-width="1"/>
    </g>
    <ellipse cx="-40" cy="82" rx="13" ry="20" fill="#2e2415" stroke="#0a0805" stroke-opacity=".7" stroke-width="1.2" transform="rotate(-18 -40 82)"/>
    <ellipse cx="-8" cy="-142" rx="36" ry="32" fill="url(#go-body)" stroke="#0a0805" stroke-opacity=".9" stroke-width="1.6"/>
    <path d="M-24 -140 C-42 -144 -54 -136 -56 -128 C-44 -122 -28 -124 -20 -130 Z" fill="#2e2415" stroke="#0a0805" stroke-opacity=".7" stroke-width="1"/>
    <ellipse cx="10" cy="-166" rx="9" ry="8" fill="#2e2415" stroke="#0a0805" stroke-opacity=".8" stroke-width="1.2"/>
    <circle cx="-28" cy="-144" r="3.6" fill="#0a0805"/><circle cx="-29" cy="-145" r="1.1" fill="#cbb98f" fill-opacity=".85"/>
    <path d="M-52 -134 L-92 -144" fill="none" stroke="#cbb98f" stroke-opacity=".5" stroke-width="1.6" stroke-linecap="round"/>
      <path d="M-54 -128 L-96 -128" fill="none" stroke="#cbb98f" stroke-opacity=".5" stroke-width="1.6" stroke-linecap="round"/>
      <path d="M-52 -122 L-90 -112" fill="none" stroke="#cbb98f" stroke-opacity=".5" stroke-width="1.6" stroke-linecap="round"/>
    <ellipse cx="32" cy="88" rx="13" ry="20" fill="#4a3a26" stroke="#0a0805" stroke-opacity=".7" stroke-width="1.2" transform="rotate(14 32 88)"/>
  </g>
</svg>
