<svg xmlns="http://www.w3.org/2000/svg" viewBox="0 0 800 800" role="img" aria-label="A pangolin curled into a complete scaled ball on bare dark ground under a moonless sky, one last sliver of its face visible at the closing seam, a shallow empty burrow nearby">
  <defs>
    <radialGradient id="pg-night" cx="50%" cy="24%" r="95%">
      <stop offset="0%" stop-color="#241407"/>
      <stop offset="55%" stop-color="#1a0f07"/>
      <stop offset="100%" stop-color="#150d08"/>
    </radialGradient>
    <radialGradient id="pg-ground" cx="50%" cy="0%" r="100%">
      <stop offset="0%" stop-color="#1f130a"/>
      <stop offset="100%" stop-color="#120b06"/>
    </radialGradient>
    <linearGradient id="pg-scale-warm" x1="0" y1="0" x2="0" y2="1">
      <stop offset="0%" stop-color="#c65a3c"/>
      <stop offset="100%" stop-color="#4a2418"/>
    </linearGradient>
    <linearGradient id="pg-scale-cool" x1="0" y1="0" x2="0" y2="1">
      <stop offset="0%" stop-color="#7a3a22"/>
      <stop offset="100%" stop-color="#4a2418"/>
    </linearGradient>
    <radialGradient id="pg-glow" cx="50%" cy="50%" r="50%">
      <stop offset="0%" stop-color="#f0c9a0" stop-opacity=".5"/>
      <stop offset="60%" stop-color="#c65a3c" stop-opacity=".16"/>
      <stop offset="100%" stop-color="#c65a3c" stop-opacity="0"/>
    </radialGradient>
    <filter id="pg-blur" x="-60%" y="-60%" width="220%" height="220%">
      <feGaussianBlur stdDeviation="8" result="b"/>
      <feMerge><feMergeNode in="b"/><feMergeNode in="SourceGraphic"/></feMerge>
    </filter>
  </defs>
  <rect width="800" height="800" rx="24" fill="url(#pg-night)"/>
  <g><circle cx="116" cy="133" r="1.0" fill="#e8ddc4" fill-opacity="0.46"/>
    <circle cx="640" cy="201" r="1.3" fill="#e8ddc4" fill-opacity="0.53"/>
    <circle cx="396" cy="157" r="1.1" fill="#e8ddc4" fill-opacity="0.29"/>
    <circle cx="280" cy="345" r="1.1" fill="#e8ddc4" fill-opacity="0.29"/>
    <circle cx="100" cy="85" r="0.7" fill="#e8ddc4" fill-opacity="0.29"/>
    <circle cx="112" cy="1" r="1.2" fill="#e8ddc4" fill-opacity="0.45"/>
    <circle cx="60" cy="173" r="0.7" fill="#e8ddc4" fill-opacity="0.45"/>
    <circle cx="520" cy="329" r="0.9" fill="#e8ddc4" fill-opacity="0.26"/>
    <circle cx="596" cy="413" r="1.0" fill="#e8ddc4" fill-opacity="0.42"/>
    <circle cx="768" cy="129" r="1.5" fill="#e8ddc4" fill-opacity="0.46"/>
    <circle cx="684" cy="213" r="0.8" fill="#e8ddc4" fill-opacity="0.48"/>
    <circle cx="632" cy="209" r="1.0" fill="#e8ddc4" fill-opacity="0.30"/>
    <circle cx="36" cy="21" r="1.4" fill="#e8ddc4" fill-opacity="0.56"/>
    <circle cx="624" cy="49" r="1.5" fill="#e8ddc4" fill-opacity="0.48"/>
    <circle cx="252" cy="21" r="0.8" fill="#e8ddc4" fill-opacity="0.56"/>
    <circle cx="232" cy="185" r="0.8" fill="#e8ddc4" fill-opacity="0.29"/>
    <circle cx="148" cy="229" r="1.2" fill="#e8ddc4" fill-opacity="0.50"/>
    <circle cx="320" cy="121" r="1.2" fill="#e8ddc4" fill-opacity="0.37"/>
    <circle cx="236" cy="301" r="0.6" fill="#e8ddc4" fill-opacity="0.21"/>
    <circle cx="408" cy="185" r="1.0" fill="#e8ddc4" fill-opacity="0.34"/>
    <circle cx="740" cy="405" r="0.8" fill="#e8ddc4" fill-opacity="0.24"/>
    <circle cx="304" cy="129" r="1.1" fill="#e8ddc4" fill-opacity="0.54"/>
    <circle cx="316" cy="397" r="0.8" fill="#e8ddc4" fill-opacity="0.50"/>
    <circle cx="232" cy="33" r="1.5" fill="#e8ddc4" fill-opacity="0.40"/>
    <circle cx="404" cy="333" r="0.8" fill="#e8ddc4" fill-opacity="0.45"/>
    <circle cx="544" cy="393" r="0.8" fill="#e8ddc4" fill-opacity="0.34"/>
    <circle cx="44" cy="117" r="0.8" fill="#e8ddc4" fill-opacity="0.19"/>
    <circle cx="632" cy="225" r="1.5" fill="#e8ddc4" fill-opacity="0.24"/>
    <circle cx="100" cy="413" r="0.7" fill="#e8ddc4" fill-opacity="0.37"/>
    <circle cx="240" cy="433" r="1.2" fill="#e8ddc4" fill-opacity="0.37"/>
    <circle cx="220" cy="173" r="0.8" fill="#e8ddc4" fill-opacity="0.37"/>
    <circle cx="8" cy="65" r="1.1" fill="#e8ddc4" fill-opacity="0.38"/>
    <circle cx="756" cy="85" r="1.1" fill="#e8ddc4" fill-opacity="0.22"/>
    <circle cx="512" cy="217" r="0.7" fill="#e8ddc4" fill-opacity="0.35"/>
    <circle cx="652" cy="45" r="0.8" fill="#e8ddc4" fill-opacity="0.35"/>
    <circle cx="504" cy="49" r="1.4" fill="#e8ddc4" fill-opacity="0.34"/>
    <circle cx="356" cy="45" r="0.8" fill="#e8ddc4" fill-opacity="0.19"/>
    <circle cx="496" cy="193" r="1.7" fill="#e8ddc4" fill-opacity="0.21"/>
    <circle cx="636" cy="349" r="1.0" fill="#e8ddc4" fill-opacity="0.30"/>
    <circle cx="776" cy="137" r="1.0" fill="#e8ddc4" fill-opacity="0.32"/>
    <circle cx="244" cy="397" r="1.1" fill="#e8ddc4" fill-opacity="0.37"/>
    <circle cx="32" cy="273" r="1.3" fill="#e8ddc4" fill-opacity="0.50"/>
    <circle cx="364" cy="93" r="1.6" fill="#e8ddc4" fill-opacity="0.40"/>
    <circle cx="408" cy="73" r="1.4" fill="#e8ddc4" fill-opacity="0.27"/>
    <circle cx="4" cy="245" r="1.6" fill="#e8ddc4" fill-opacity="0.54"/>
    <circle cx="368" cy="49" r="1.5" fill="#e8ddc4" fill-opacity="0.58"/></g>
  <path d="M0 496 C176 464 320 544 480 480 C640 424 736 528 800 480 L800 800 L0 800 Z"
        fill="url(#pg-ground)"/>
  <ellipse cx="160" cy="660" rx="46" ry="14" fill="#0a0603" fill-opacity=".55"/><ellipse cx="160" cy="660" rx="31.3" ry="7.7" fill="#150d08"/>
  <g><ellipse cx="211.1" cy="664.0" rx="3" ry="2" fill="#1f130a" opacity=".7"/>
    <ellipse cx="224.1" cy="667.0" rx="4" ry="2" fill="#1f130a" opacity=".7"/>
    <ellipse cx="229.1" cy="670.0" rx="3" ry="2" fill="#1f130a" opacity=".7"/>
    <ellipse cx="242.1" cy="664.0" rx="4" ry="2" fill="#1f130a" opacity=".7"/>
    <ellipse cx="247.1" cy="667.0" rx="3" ry="2" fill="#1f130a" opacity=".7"/></g>
  <ellipse cx="430" cy="727.6" rx="253.0" ry="50.6" fill="#0a0603" fill-opacity=".5"/>
  <g id="pg-hero"><ellipse cx="430.0" cy="343.5" rx="172.5" ry="92.0" fill="url(#pg-glow)"/>
  <g id="pg-ring-0" opacity="1.00">
    <g transform="translate(499.0,470.0) rotate(90.0)"><path d="M0 -34.5 C39.1 -20.7 40.7 19.3 0 34.5 C-40.7 19.3 -39.1 -20.7 0 -34.5 Z" fill="url(#pg-scale-warm)" stroke="#0a0603" stroke-opacity=".55" stroke-width="1"/><path d="M0 -34.5 C39.1 -20.7 40.7 19.3 0 34.5 C-40.7 19.3 -39.1 -20.7 0 -34.5 Z" fill="none" stroke="#f0c9a0" stroke-opacity=".35" stroke-width="1.1" transform="translate(0,-11.0)"/></g>
    <g transform="translate(478.8,512.0) rotate(135.0)"><path d="M0 -34.5 C39.1 -20.7 40.7 19.3 0 34.5 C-40.7 19.3 -39.1 -20.7 0 -34.5 Z" fill="url(#pg-scale-warm)" stroke="#0a0603" stroke-opacity=".55" stroke-width="1"/><path d="M0 -34.5 C39.1 -20.7 40.7 19.3 0 34.5 C-40.7 19.3 -39.1 -20.7 0 -34.5 Z" fill="none" stroke="#f0c9a0" stroke-opacity=".35" stroke-width="1.1" transform="translate(0,-11.0)"/></g>
    <g transform="translate(430.0,529.3) rotate(180.0)"><path d="M0 -34.5 C39.1 -20.7 40.7 19.3 0 34.5 C-40.7 19.3 -39.1 -20.7 0 -34.5 Z" fill="url(#pg-scale-warm)" stroke="#0a0603" stroke-opacity=".55" stroke-width="1"/><path d="M0 -34.5 C39.1 -20.7 40.7 19.3 0 34.5 C-40.7 19.3 -39.1 -20.7 0 -34.5 Z" fill="none" stroke="#f0c9a0" stroke-opacity=".35" stroke-width="1.1" transform="translate(0,-11.0)"/></g>
    <g transform="translate(381.2,512.0) rotate(225.0)"><path d="M0 -34.5 C39.1 -20.7 40.7 19.3 0 34.5 C-40.7 19.3 -39.1 -20.7 0 -34.5 Z" fill="url(#pg-scale-warm)" stroke="#0a0603" stroke-opacity=".55" stroke-width="1"/><path d="M0 -34.5 C39.1 -20.7 40.7 19.3 0 34.5 C-40.7 19.3 -39.1 -20.7 0 -34.5 Z" fill="none" stroke="#f0c9a0" stroke-opacity=".35" stroke-width="1.1" transform="translate(0,-11.0)"/></g>
    <g transform="translate(361.0,470.0) rotate(270.0)"><path d="M0 -34.5 C39.1 -20.7 40.7 19.3 0 34.5 C-40.7 19.3 -39.1 -20.7 0 -34.5 Z" fill="url(#pg-scale-warm)" stroke="#0a0603" stroke-opacity=".55" stroke-width="1"/><path d="M0 -34.5 C39.1 -20.7 40.7 19.3 0 34.5 C-40.7 19.3 -39.1 -20.7 0 -34.5 Z" fill="none" stroke="#f0c9a0" stroke-opacity=".35" stroke-width="1.1" transform="translate(0,-11.0)"/></g>
    <g transform="translate(381.2,428.0) rotate(315.0)"><path d="M0 -34.5 C39.1 -20.7 40.7 19.3 0 34.5 C-40.7 19.3 -39.1 -20.7 0 -34.5 Z" fill="url(#pg-scale-warm)" stroke="#0a0603" stroke-opacity=".55" stroke-width="1"/><path d="M0 -34.5 C39.1 -20.7 40.7 19.3 0 34.5 C-40.7 19.3 -39.1 -20.7 0 -34.5 Z" fill="none" stroke="#f0c9a0" stroke-opacity=".35" stroke-width="1.1" transform="translate(0,-11.0)"/></g>
    <g transform="translate(430.0,410.7) rotate(360.0)"><path d="M0 -34.5 C39.1 -20.7 40.7 19.3 0 34.5 C-40.7 19.3 -39.1 -20.7 0 -34.5 Z" fill="url(#pg-scale-warm)" stroke="#0a0603" stroke-opacity=".55" stroke-width="1"/><path d="M0 -34.5 C39.1 -20.7 40.7 19.3 0 34.5 C-40.7 19.3 -39.1 -20.7 0 -34.5 Z" fill="none" stroke="#f0c9a0" stroke-opacity=".35" stroke-width="1.1" transform="translate(0,-11.0)"/></g>
    <g transform="translate(478.8,428.0) rotate(405.0)"><path d="M0 -34.5 C39.1 -20.7 40.7 19.3 0 34.5 C-40.7 19.3 -39.1 -20.7 0 -34.5 Z" fill="url(#pg-scale-warm)" stroke="#0a0603" stroke-opacity=".55" stroke-width="1"/><path d="M0 -34.5 C39.1 -20.7 40.7 19.3 0 34.5 C-40.7 19.3 -39.1 -20.7 0 -34.5 Z" fill="none" stroke="#f0c9a0" stroke-opacity=".35" stroke-width="1.1" transform="translate(0,-11.0)"/></g>
    </g>
  <g id="pg-ring-1" opacity="0.98">
    <g transform="translate(540.4,470.0) rotate(90.0)"><path d="M0 -34.5 C39.1 -20.7 40.7 19.3 0 34.5 C-40.7 19.3 -39.1 -20.7 0 -34.5 Z" fill="url(#pg-scale-cool)" stroke="#0a0603" stroke-opacity=".55" stroke-width="1"/></g>
    <g transform="translate(525.6,517.5) rotate(120.0)"><path d="M0 -34.5 C39.1 -20.7 40.7 19.3 0 34.5 C-40.7 19.3 -39.1 -20.7 0 -34.5 Z" fill="url(#pg-scale-cool)" stroke="#0a0603" stroke-opacity=".55" stroke-width="1"/></g>
    <g transform="translate(485.2,552.2) rotate(150.0)"><path d="M0 -34.5 C39.1 -20.7 40.7 19.3 0 34.5 C-40.7 19.3 -39.1 -20.7 0 -34.5 Z" fill="url(#pg-scale-cool)" stroke="#0a0603" stroke-opacity=".55" stroke-width="1"/></g>
    <g transform="translate(430.0,564.9) rotate(180.0)"><path d="M0 -34.5 C39.1 -20.7 40.7 19.3 0 34.5 C-40.7 19.3 -39.1 -20.7 0 -34.5 Z" fill="url(#pg-scale-cool)" stroke="#0a0603" stroke-opacity=".55" stroke-width="1"/></g>
    <g transform="translate(374.8,552.2) rotate(210.0)"><path d="M0 -34.5 C39.1 -20.7 40.7 19.3 0 34.5 C-40.7 19.3 -39.1 -20.7 0 -34.5 Z" fill="url(#pg-scale-cool)" stroke="#0a0603" stroke-opacity=".55" stroke-width="1"/></g>
    <g transform="translate(334.4,517.5) rotate(240.0)"><path d="M0 -34.5 C39.1 -20.7 40.7 19.3 0 34.5 C-40.7 19.3 -39.1 -20.7 0 -34.5 Z" fill="url(#pg-scale-cool)" stroke="#0a0603" stroke-opacity=".55" stroke-width="1"/></g>
    <g transform="translate(319.6,470.0) rotate(270.0)"><path d="M0 -34.5 C39.1 -20.7 40.7 19.3 0 34.5 C-40.7 19.3 -39.1 -20.7 0 -34.5 Z" fill="url(#pg-scale-cool)" stroke="#0a0603" stroke-opacity=".55" stroke-width="1"/></g>
    <g transform="translate(334.4,422.5) rotate(300.0)"><path d="M0 -34.5 C39.1 -20.7 40.7 19.3 0 34.5 C-40.7 19.3 -39.1 -20.7 0 -34.5 Z" fill="url(#pg-scale-cool)" stroke="#0a0603" stroke-opacity=".55" stroke-width="1"/></g>
    <g transform="translate(374.8,387.8) rotate(330.0)"><path d="M0 -34.5 C39.1 -20.7 40.7 19.3 0 34.5 C-40.7 19.3 -39.1 -20.7 0 -34.5 Z" fill="url(#pg-scale-cool)" stroke="#0a0603" stroke-opacity=".55" stroke-width="1"/></g>
    <g transform="translate(430.0,375.1) rotate(360.0)"><path d="M0 -34.5 C39.1 -20.7 40.7 19.3 0 34.5 C-40.7 19.3 -39.1 -20.7 0 -34.5 Z" fill="url(#pg-scale-cool)" stroke="#0a0603" stroke-opacity=".55" stroke-width="1"/></g>
    <g transform="translate(485.2,387.8) rotate(390.0)"><path d="M0 -34.5 C39.1 -20.7 40.7 19.3 0 34.5 C-40.7 19.3 -39.1 -20.7 0 -34.5 Z" fill="url(#pg-scale-cool)" stroke="#0a0603" stroke-opacity=".55" stroke-width="1"/></g>
    <g transform="translate(525.6,422.5) rotate(420.0)"><path d="M0 -34.5 C39.1 -20.7 40.7 19.3 0 34.5 C-40.7 19.3 -39.1 -20.7 0 -34.5 Z" fill="url(#pg-scale-cool)" stroke="#0a0603" stroke-opacity=".55" stroke-width="1"/></g>
    </g>
  <g id="pg-ring-2" opacity="0.96">
    <g transform="translate(581.8,470.0) rotate(90.0)"><path d="M0 -34.5 C36.8 -20.7 38.3 19.3 0 34.5 C-38.3 19.3 -36.8 -20.7 0 -34.5 Z" fill="url(#pg-scale-warm)" stroke="#0a0603" stroke-opacity=".55" stroke-width="1"/></g>
    <g transform="translate(568.7,523.1) rotate(114.0)"><path d="M0 -34.5 C36.8 -20.7 38.3 19.3 0 34.5 C-38.3 19.3 -36.8 -20.7 0 -34.5 Z" fill="url(#pg-scale-warm)" stroke="#0a0603" stroke-opacity=".55" stroke-width="1"/></g>
    <g transform="translate(531.6,567.0) rotate(138.0)"><path d="M0 -34.5 C36.8 -20.7 38.3 19.3 0 34.5 C-38.3 19.3 -36.8 -20.7 0 -34.5 Z" fill="url(#pg-scale-warm)" stroke="#0a0603" stroke-opacity=".55" stroke-width="1"/></g>
    <g transform="translate(476.9,594.2) rotate(162.0)"><path d="M0 -34.5 C36.8 -20.7 38.3 19.3 0 34.5 C-38.3 19.3 -36.8 -20.7 0 -34.5 Z" fill="url(#pg-scale-warm)" stroke="#0a0603" stroke-opacity=".55" stroke-width="1"/></g>
    <g transform="translate(414.1,599.8) rotate(186.0)"><path d="M0 -34.5 C36.8 -20.7 38.3 19.3 0 34.5 C-38.3 19.3 -36.8 -20.7 0 -34.5 Z" fill="url(#pg-scale-warm)" stroke="#0a0603" stroke-opacity=".55" stroke-width="1"/></g>
    <g transform="translate(354.1,583.1) rotate(210.0)"><path d="M0 -34.5 C36.8 -20.7 38.3 19.3 0 34.5 C-38.3 19.3 -36.8 -20.7 0 -34.5 Z" fill="url(#pg-scale-warm)" stroke="#0a0603" stroke-opacity=".55" stroke-width="1"/></g>
    <g transform="translate(307.2,546.7) rotate(234.0)"><path d="M0 -34.5 C36.8 -20.7 38.3 19.3 0 34.5 C-38.3 19.3 -36.8 -20.7 0 -34.5 Z" fill="url(#pg-scale-warm)" stroke="#0a0603" stroke-opacity=".55" stroke-width="1"/></g>
    <g transform="translate(281.5,497.1) rotate(258.0)"><path d="M0 -34.5 C36.8 -20.7 38.3 19.3 0 34.5 C-38.3 19.3 -36.8 -20.7 0 -34.5 Z" fill="url(#pg-scale-warm)" stroke="#0a0603" stroke-opacity=".55" stroke-width="1"/></g>
    <g transform="translate(281.5,442.9) rotate(282.0)"><path d="M0 -34.5 C36.8 -20.7 38.3 19.3 0 34.5 C-38.3 19.3 -36.8 -20.7 0 -34.5 Z" fill="url(#pg-scale-warm)" stroke="#0a0603" stroke-opacity=".55" stroke-width="1"/></g>
    <g transform="translate(307.2,393.3) rotate(306.0)"><path d="M0 -34.5 C36.8 -20.7 38.3 19.3 0 34.5 C-38.3 19.3 -36.8 -20.7 0 -34.5 Z" fill="url(#pg-scale-warm)" stroke="#0a0603" stroke-opacity=".55" stroke-width="1"/></g>
    <g transform="translate(354.1,356.9) rotate(330.0)"><path d="M0 -34.5 C36.8 -20.7 38.3 19.3 0 34.5 C-38.3 19.3 -36.8 -20.7 0 -34.5 Z" fill="url(#pg-scale-warm)" stroke="#0a0603" stroke-opacity=".55" stroke-width="1"/></g>
    <g transform="translate(414.1,340.2) rotate(354.0)"><path d="M0 -34.5 C36.8 -20.7 38.3 19.3 0 34.5 C-38.3 19.3 -36.8 -20.7 0 -34.5 Z" fill="url(#pg-scale-warm)" stroke="#0a0603" stroke-opacity=".55" stroke-width="1"/></g>
    <g transform="translate(476.9,345.8) rotate(378.0)"><path d="M0 -34.5 C36.8 -20.7 38.3 19.3 0 34.5 C-38.3 19.3 -36.8 -20.7 0 -34.5 Z" fill="url(#pg-scale-warm)" stroke="#0a0603" stroke-opacity=".55" stroke-width="1"/></g>
    <g transform="translate(531.6,373.0) rotate(402.0)"><path d="M0 -34.5 C36.8 -20.7 38.3 19.3 0 34.5 C-38.3 19.3 -36.8 -20.7 0 -34.5 Z" fill="url(#pg-scale-warm)" stroke="#0a0603" stroke-opacity=".55" stroke-width="1"/></g>
    <g transform="translate(568.7,416.9) rotate(426.0)"><path d="M0 -34.5 C36.8 -20.7 38.3 19.3 0 34.5 C-38.3 19.3 -36.8 -20.7 0 -34.5 Z" fill="url(#pg-scale-warm)" stroke="#0a0603" stroke-opacity=".55" stroke-width="1"/></g>
    </g>
  <g id="pg-ring-3" opacity="0.94">
    <g transform="translate(623.2,470.0) rotate(90.0)"><path d="M0 -32.2 C34.5 -19.3 35.9 18.0 0 32.2 C-35.9 18.0 -34.5 -19.3 0 -32.2 Z" fill="url(#pg-scale-cool)" stroke="#0a0603" stroke-opacity=".55" stroke-width="1"/></g>
    <g transform="translate(611.5,526.8) rotate(110.0)"><path d="M0 -32.2 C34.5 -19.3 35.9 18.0 0 32.2 C-35.9 18.0 -34.5 -19.3 0 -32.2 Z" fill="url(#pg-scale-cool)" stroke="#0a0603" stroke-opacity=".55" stroke-width="1"/></g>
    <g transform="translate(578.0,576.8) rotate(130.0)"><path d="M0 -32.2 C34.5 -19.3 35.9 18.0 0 32.2 C-35.9 18.0 -34.5 -19.3 0 -32.2 Z" fill="url(#pg-scale-cool)" stroke="#0a0603" stroke-opacity=".55" stroke-width="1"/></g>
    <g transform="translate(526.6,613.9) rotate(150.0)"><path d="M0 -32.2 C34.5 -19.3 35.9 18.0 0 32.2 C-35.9 18.0 -34.5 -19.3 0 -32.2 Z" fill="url(#pg-scale-cool)" stroke="#0a0603" stroke-opacity=".55" stroke-width="1"/></g>
    <g transform="translate(463.5,633.6) rotate(170.0)"><path d="M0 -32.2 C34.5 -19.3 35.9 18.0 0 32.2 C-35.9 18.0 -34.5 -19.3 0 -32.2 Z" fill="url(#pg-scale-cool)" stroke="#0a0603" stroke-opacity=".55" stroke-width="1"/></g>
    <g transform="translate(396.5,633.6) rotate(190.0)"><path d="M0 -32.2 C34.5 -19.3 35.9 18.0 0 32.2 C-35.9 18.0 -34.5 -19.3 0 -32.2 Z" fill="url(#pg-scale-cool)" stroke="#0a0603" stroke-opacity=".55" stroke-width="1"/></g>
    <g transform="translate(333.4,613.9) rotate(210.0)"><path d="M0 -32.2 C34.5 -19.3 35.9 18.0 0 32.2 C-35.9 18.0 -34.5 -19.3 0 -32.2 Z" fill="url(#pg-scale-cool)" stroke="#0a0603" stroke-opacity=".55" stroke-width="1"/></g>
    <g transform="translate(282.0,576.8) rotate(230.0)"><path d="M0 -32.2 C34.5 -19.3 35.9 18.0 0 32.2 C-35.9 18.0 -34.5 -19.3 0 -32.2 Z" fill="url(#pg-scale-cool)" stroke="#0a0603" stroke-opacity=".55" stroke-width="1"/></g>
    <g transform="translate(248.5,526.8) rotate(250.0)"><path d="M0 -32.2 C34.5 -19.3 35.9 18.0 0 32.2 C-35.9 18.0 -34.5 -19.3 0 -32.2 Z" fill="url(#pg-scale-cool)" stroke="#0a0603" stroke-opacity=".55" stroke-width="1"/></g>
    <g transform="translate(236.8,470.0) rotate(270.0)"><path d="M0 -32.2 C34.5 -19.3 35.9 18.0 0 32.2 C-35.9 18.0 -34.5 -19.3 0 -32.2 Z" fill="url(#pg-scale-cool)" stroke="#0a0603" stroke-opacity=".55" stroke-width="1"/></g>
    <g transform="translate(248.5,413.2) rotate(290.0)"><path d="M0 -32.2 C34.5 -19.3 35.9 18.0 0 32.2 C-35.9 18.0 -34.5 -19.3 0 -32.2 Z" fill="url(#pg-scale-cool)" stroke="#0a0603" stroke-opacity=".55" stroke-width="1"/></g>
    <g transform="translate(282.0,363.2) rotate(310.0)"><path d="M0 -32.2 C34.5 -19.3 35.9 18.0 0 32.2 C-35.9 18.0 -34.5 -19.3 0 -32.2 Z" fill="url(#pg-scale-cool)" stroke="#0a0603" stroke-opacity=".55" stroke-width="1"/></g>
    <g transform="translate(333.4,326.1) rotate(330.0)"><path d="M0 -32.2 C34.5 -19.3 35.9 18.0 0 32.2 C-35.9 18.0 -34.5 -19.3 0 -32.2 Z" fill="url(#pg-scale-cool)" stroke="#0a0603" stroke-opacity=".55" stroke-width="1"/></g>
    <g transform="translate(396.5,306.4) rotate(350.0)"><path d="M0 -32.2 C34.5 -19.3 35.9 18.0 0 32.2 C-35.9 18.0 -34.5 -19.3 0 -32.2 Z" fill="url(#pg-scale-cool)" stroke="#0a0603" stroke-opacity=".55" stroke-width="1"/></g>
    <g transform="translate(463.5,306.4) rotate(370.0)"><path d="M0 -32.2 C34.5 -19.3 35.9 18.0 0 32.2 C-35.9 18.0 -34.5 -19.3 0 -32.2 Z" fill="url(#pg-scale-cool)" stroke="#0a0603" stroke-opacity=".55" stroke-width="1"/></g>
    <g transform="translate(526.6,326.1) rotate(390.0)"><path d="M0 -32.2 C34.5 -19.3 35.9 18.0 0 32.2 C-35.9 18.0 -34.5 -19.3 0 -32.2 Z" fill="url(#pg-scale-cool)" stroke="#0a0603" stroke-opacity=".55" stroke-width="1"/></g>
    <g transform="translate(578.0,363.2) rotate(410.0)"><path d="M0 -32.2 C34.5 -19.3 35.9 18.0 0 32.2 C-35.9 18.0 -34.5 -19.3 0 -32.2 Z" fill="url(#pg-scale-cool)" stroke="#0a0603" stroke-opacity=".55" stroke-width="1"/></g>
    <g transform="translate(611.5,413.2) rotate(430.0)"><path d="M0 -32.2 C34.5 -19.3 35.9 18.0 0 32.2 C-35.9 18.0 -34.5 -19.3 0 -32.2 Z" fill="url(#pg-scale-cool)" stroke="#0a0603" stroke-opacity=".55" stroke-width="1"/></g>
    </g>
  <g id="pg-ring-4" opacity="0.92">
    <g transform="translate(657.7,470.0) rotate(90.0)"><path d="M0 -27.6 C29.9 -16.6 31.1 15.5 0 27.6 C-31.1 15.5 -29.9 -16.6 0 -27.6 Z" fill="url(#pg-scale-warm)" stroke="#0a0603" stroke-opacity=".55" stroke-width="1"/></g>
    <g transform="translate(647.6,527.7) rotate(107.1)"><path d="M0 -27.6 C29.9 -16.6 31.1 15.5 0 27.6 C-31.1 15.5 -29.9 -16.6 0 -27.6 Z" fill="url(#pg-scale-warm)" stroke="#0a0603" stroke-opacity=".55" stroke-width="1"/></g>
    <g transform="translate(618.1,580.3) rotate(124.3)"><path d="M0 -27.6 C29.9 -16.6 31.1 15.5 0 27.6 C-31.1 15.5 -29.9 -16.6 0 -27.6 Z" fill="url(#pg-scale-warm)" stroke="#0a0603" stroke-opacity=".55" stroke-width="1"/></g>
    <g transform="translate(572.0,623.1) rotate(141.4)"><path d="M0 -27.6 C29.9 -16.6 31.1 15.5 0 27.6 C-31.1 15.5 -29.9 -16.6 0 -27.6 Z" fill="url(#pg-scale-warm)" stroke="#0a0603" stroke-opacity=".55" stroke-width="1"/></g>
    <g transform="translate(513.2,652.3) rotate(158.6)"><path d="M0 -27.6 C29.9 -16.6 31.1 15.5 0 27.6 C-31.1 15.5 -29.9 -16.6 0 -27.6 Z" fill="url(#pg-scale-warm)" stroke="#0a0603" stroke-opacity=".55" stroke-width="1"/></g>
    <g transform="translate(447.0,665.3) rotate(175.7)"><path d="M0 -27.6 C29.9 -16.6 31.1 15.5 0 27.6 C-31.1 15.5 -29.9 -16.6 0 -27.6 Z" fill="url(#pg-scale-warm)" stroke="#0a0603" stroke-opacity=".55" stroke-width="1"/></g>
    <g transform="translate(379.3,660.9) rotate(192.9)"><path d="M0 -27.6 C29.9 -16.6 31.1 15.5 0 27.6 C-31.1 15.5 -29.9 -16.6 0 -27.6 Z" fill="url(#pg-scale-warm)" stroke="#0a0603" stroke-opacity=".55" stroke-width="1"/></g>
    <g transform="translate(316.2,639.6) rotate(210.0)"><path d="M0 -27.6 C29.9 -16.6 31.1 15.5 0 27.6 C-31.1 15.5 -29.9 -16.6 0 -27.6 Z" fill="url(#pg-scale-warm)" stroke="#0a0603" stroke-opacity=".55" stroke-width="1"/></g>
    <g transform="translate(263.1,603.2) rotate(227.1)"><path d="M0 -27.6 C29.9 -16.6 31.1 15.5 0 27.6 C-31.1 15.5 -29.9 -16.6 0 -27.6 Z" fill="url(#pg-scale-warm)" stroke="#0a0603" stroke-opacity=".55" stroke-width="1"/></g>
    <g transform="translate(224.8,555.0) rotate(244.3)"><path d="M0 -27.6 C29.9 -16.6 31.1 15.5 0 27.6 C-31.1 15.5 -29.9 -16.6 0 -27.6 Z" fill="url(#pg-scale-warm)" stroke="#0a0603" stroke-opacity=".55" stroke-width="1"/></g>
    <g transform="translate(204.8,499.2) rotate(261.4)"><path d="M0 -27.6 C29.9 -16.6 31.1 15.5 0 27.6 C-31.1 15.5 -29.9 -16.6 0 -27.6 Z" fill="url(#pg-scale-warm)" stroke="#0a0603" stroke-opacity=".55" stroke-width="1"/></g>
    <g transform="translate(204.8,440.8) rotate(278.6)"><path d="M0 -27.6 C29.9 -16.6 31.1 15.5 0 27.6 C-31.1 15.5 -29.9 -16.6 0 -27.6 Z" fill="url(#pg-scale-warm)" stroke="#0a0603" stroke-opacity=".55" stroke-width="1"/></g>
    <g transform="translate(224.8,385.0) rotate(295.7)"><path d="M0 -27.6 C29.9 -16.6 31.1 15.5 0 27.6 C-31.1 15.5 -29.9 -16.6 0 -27.6 Z" fill="url(#pg-scale-warm)" stroke="#0a0603" stroke-opacity=".55" stroke-width="1"/></g>
    <g transform="translate(263.1,336.8) rotate(312.9)"><path d="M0 -27.6 C29.9 -16.6 31.1 15.5 0 27.6 C-31.1 15.5 -29.9 -16.6 0 -27.6 Z" fill="url(#pg-scale-warm)" stroke="#0a0603" stroke-opacity=".55" stroke-width="1"/></g>
    <g transform="translate(316.1,300.4) rotate(330.0)"><path d="M0 -27.6 C29.9 -16.6 31.1 15.5 0 27.6 C-31.1 15.5 -29.9 -16.6 0 -27.6 Z" fill="url(#pg-scale-warm)" stroke="#0a0603" stroke-opacity=".55" stroke-width="1"/></g>
    <g transform="translate(379.3,279.1) rotate(347.1)"><path d="M0 -27.6 C29.9 -16.6 31.1 15.5 0 27.6 C-31.1 15.5 -29.9 -16.6 0 -27.6 Z" fill="url(#pg-scale-warm)" stroke="#0a0603" stroke-opacity=".55" stroke-width="1"/></g>
    <g transform="translate(447.0,274.7) rotate(364.3)"><path d="M0 -27.6 C29.9 -16.6 31.1 15.5 0 27.6 C-31.1 15.5 -29.9 -16.6 0 -27.6 Z" fill="url(#pg-scale-warm)" stroke="#0a0603" stroke-opacity=".55" stroke-width="1"/></g>
    <g transform="translate(513.2,287.7) rotate(381.4)"><path d="M0 -27.6 C29.9 -16.6 31.1 15.5 0 27.6 C-31.1 15.5 -29.9 -16.6 0 -27.6 Z" fill="url(#pg-scale-warm)" stroke="#0a0603" stroke-opacity=".55" stroke-width="1"/></g>
    <g transform="translate(572.0,316.9) rotate(398.6)"><path d="M0 -27.6 C29.9 -16.6 31.1 15.5 0 27.6 C-31.1 15.5 -29.9 -16.6 0 -27.6 Z" fill="url(#pg-scale-warm)" stroke="#0a0603" stroke-opacity=".55" stroke-width="1"/></g>
    <g transform="translate(618.1,359.7) rotate(415.7)"><path d="M0 -27.6 C29.9 -16.6 31.1 15.5 0 27.6 C-31.1 15.5 -29.9 -16.6 0 -27.6 Z" fill="url(#pg-scale-warm)" stroke="#0a0603" stroke-opacity=".55" stroke-width="1"/></g>
    <g transform="translate(647.6,412.3) rotate(432.9)"><path d="M0 -27.6 C29.9 -16.6 31.1 15.5 0 27.6 C-31.1 15.5 -29.9 -16.6 0 -27.6 Z" fill="url(#pg-scale-warm)" stroke="#0a0603" stroke-opacity=".55" stroke-width="1"/></g>
    </g>
  <path d="M287.4 612.6 A234.6 211.6 0 0 0 591.0 585.0 A197.8 179.4 0 0 1 499.0 677.0 A253.0 230.0 0 0 1 287.4 612.6 Z" fill="url(#pg-scale-cool)" stroke="#0a0603" stroke-opacity=".5" stroke-width="1.4" opacity=".97"/>
  <g filter="url(#pg-blur)"><path d="M397.6 603.4 C401.6 613.4 413.6 615.4 423.6 607.4 C415.6 601.4 405.6 599.4 397.6 603.4 Z" fill="#0a0603"/><circle cx="409.6" cy="605.4" r="1.6" fill="#f0c9a0" fill-opacity=".55"/></g></g>
</svg>
