<svg xmlns="http://www.w3.org/2000/svg" viewBox="0 0 400 500" role="img" aria-label="A pangolin curled tight into a ball on dark ground at night, closer and calmer, the closing seam just visible">
  <defs>
    <radialGradient id="pg-night" cx="50%" cy="24%" r="95%">
      <stop offset="0%" stop-color="#241407"/>
      <stop offset="55%" stop-color="#1a0f07"/>
      <stop offset="100%" stop-color="#150d08"/>
    </radialGradient>
    <radialGradient id="pg-ground" cx="50%" cy="0%" r="100%">
      <stop offset="0%" stop-color="#1f130a"/>
      <stop offset="100%" stop-color="#120b06"/>
    </radialGradient>
    <linearGradient id="pg-scale-warm" x1="0" y1="0" x2="0" y2="1">
      <stop offset="0%" stop-color="#c65a3c"/>
      <stop offset="100%" stop-color="#4a2418"/>
    </linearGradient>
    <linearGradient id="pg-scale-cool" x1="0" y1="0" x2="0" y2="1">
      <stop offset="0%" stop-color="#7a3a22"/>
      <stop offset="100%" stop-color="#4a2418"/>
    </linearGradient>
    <radialGradient id="pg-glow" cx="50%" cy="50%" r="50%">
      <stop offset="0%" stop-color="#f0c9a0" stop-opacity=".5"/>
      <stop offset="60%" stop-color="#c65a3c" stop-opacity=".16"/>
      <stop offset="100%" stop-color="#c65a3c" stop-opacity="0"/>
    </radialGradient>
    <filter id="pg-blur" x="-60%" y="-60%" width="220%" height="220%">
      <feGaussianBlur stdDeviation="8" result="b"/>
      <feMerge><feMergeNode in="b"/><feMergeNode in="SourceGraphic"/></feMerge>
    </filter>
  </defs>
  <rect width="400" height="500" rx="18" fill="url(#pg-night)"/>
  <g><circle cx="116" cy="133" r="1.0" fill="#e8ddc4" fill-opacity="0.46"/>
    <circle cx="240" cy="146" r="1.3" fill="#e8ddc4" fill-opacity="0.53"/>
    <circle cx="396" cy="267" r="1.1" fill="#e8ddc4" fill-opacity="0.29"/>
    <circle cx="280" cy="15" r="1.1" fill="#e8ddc4" fill-opacity="0.29"/>
    <circle cx="100" cy="30" r="0.7" fill="#e8ddc4" fill-opacity="0.29"/>
    <circle cx="112" cy="56" r="1.2" fill="#e8ddc4" fill-opacity="0.45"/>
    <circle cx="60" cy="228" r="0.7" fill="#e8ddc4" fill-opacity="0.45"/>
    <circle cx="120" cy="164" r="0.9" fill="#e8ddc4" fill-opacity="0.26"/>
    <circle cx="196" cy="28" r="1.0" fill="#e8ddc4" fill-opacity="0.42"/>
    <circle cx="368" cy="19" r="1.5" fill="#e8ddc4" fill-opacity="0.46"/>
    <circle cx="284" cy="158" r="0.8" fill="#e8ddc4" fill-opacity="0.48"/>
    <circle cx="232" cy="99" r="1.0" fill="#e8ddc4" fill-opacity="0.30"/>
    <circle cx="36" cy="76" r="1.4" fill="#e8ddc4" fill-opacity="0.56"/>
    <circle cx="224" cy="49" r="1.5" fill="#e8ddc4" fill-opacity="0.48"/>
    <circle cx="252" cy="21" r="0.8" fill="#e8ddc4" fill-opacity="0.56"/>
    <circle cx="232" cy="130" r="0.8" fill="#e8ddc4" fill-opacity="0.29"/>
    <circle cx="148" cy="174" r="1.2" fill="#e8ddc4" fill-opacity="0.50"/>
    <circle cx="320" cy="176" r="1.2" fill="#e8ddc4" fill-opacity="0.37"/>
    <circle cx="236" cy="26" r="0.6" fill="#e8ddc4" fill-opacity="0.21"/>
    <circle cx="8" cy="75" r="1.0" fill="#e8ddc4" fill-opacity="0.34"/>
    <circle cx="340" cy="240" r="0.8" fill="#e8ddc4" fill-opacity="0.24"/>
    <circle cx="304" cy="74" r="1.1" fill="#e8ddc4" fill-opacity="0.54"/>
    <circle cx="316" cy="67" r="0.8" fill="#e8ddc4" fill-opacity="0.50"/>
    <circle cx="232" cy="198" r="1.5" fill="#e8ddc4" fill-opacity="0.40"/></g>
  <path d="M0 310 C88 290 160 340 240 300 C320 265 368 330 400 300 L400 500 L0 500 Z"
        fill="url(#pg-ground)"/>
  <ellipse cx="70" cy="410" rx="24" ry="8" fill="#0a0603" fill-opacity=".55"/><ellipse cx="70" cy="410" rx="16.3" ry="4.4" fill="#150d08"/>
  <g><ellipse cx="85.9" cy="414.0" rx="3" ry="2" fill="#1f130a" opacity=".7"/>
    <ellipse cx="98.9" cy="417.0" rx="4" ry="2" fill="#1f130a" opacity=".7"/>
    <ellipse cx="103.9" cy="420.0" rx="3" ry="2" fill="#1f130a" opacity=".7"/>
    <ellipse cx="116.9" cy="414.0" rx="4" ry="2" fill="#1f130a" opacity=".7"/>
    <ellipse cx="121.9" cy="417.0" rx="3" ry="2" fill="#1f130a" opacity=".7"/></g>
  <ellipse cx="210" cy="423.2" rx="121.0" ry="24.2" fill="#0a0603" fill-opacity=".5"/>
  <g id="pg-overture"><ellipse cx="210.0" cy="239.5" rx="82.5" ry="44.0" fill="url(#pg-glow)"/>
  <g id="pg-ring-0" opacity="1.00">
    <g transform="translate(243.0,300.0) rotate(90.0)"><path d="M0 -16.5 C18.7 -9.9 19.4 9.2 0 16.5 C-19.4 9.2 -18.7 -9.9 0 -16.5 Z" fill="url(#pg-scale-warm)" stroke="#0a0603" stroke-opacity=".55" stroke-width="1"/><path d="M0 -16.5 C18.7 -9.9 19.4 9.2 0 16.5 C-19.4 9.2 -18.7 -9.9 0 -16.5 Z" fill="none" stroke="#f0c9a0" stroke-opacity=".35" stroke-width="1.1" transform="translate(0,-5.3)"/></g>
    <g transform="translate(233.3,320.1) rotate(135.0)"><path d="M0 -16.5 C18.7 -9.9 19.4 9.2 0 16.5 C-19.4 9.2 -18.7 -9.9 0 -16.5 Z" fill="url(#pg-scale-warm)" stroke="#0a0603" stroke-opacity=".55" stroke-width="1"/><path d="M0 -16.5 C18.7 -9.9 19.4 9.2 0 16.5 C-19.4 9.2 -18.7 -9.9 0 -16.5 Z" fill="none" stroke="#f0c9a0" stroke-opacity=".35" stroke-width="1.1" transform="translate(0,-5.3)"/></g>
    <g transform="translate(210.0,328.4) rotate(180.0)"><path d="M0 -16.5 C18.7 -9.9 19.4 9.2 0 16.5 C-19.4 9.2 -18.7 -9.9 0 -16.5 Z" fill="url(#pg-scale-warm)" stroke="#0a0603" stroke-opacity=".55" stroke-width="1"/><path d="M0 -16.5 C18.7 -9.9 19.4 9.2 0 16.5 C-19.4 9.2 -18.7 -9.9 0 -16.5 Z" fill="none" stroke="#f0c9a0" stroke-opacity=".35" stroke-width="1.1" transform="translate(0,-5.3)"/></g>
    <g transform="translate(186.7,320.1) rotate(225.0)"><path d="M0 -16.5 C18.7 -9.9 19.4 9.2 0 16.5 C-19.4 9.2 -18.7 -9.9 0 -16.5 Z" fill="url(#pg-scale-warm)" stroke="#0a0603" stroke-opacity=".55" stroke-width="1"/><path d="M0 -16.5 C18.7 -9.9 19.4 9.2 0 16.5 C-19.4 9.2 -18.7 -9.9 0 -16.5 Z" fill="none" stroke="#f0c9a0" stroke-opacity=".35" stroke-width="1.1" transform="translate(0,-5.3)"/></g>
    <g transform="translate(177.0,300.0) rotate(270.0)"><path d="M0 -16.5 C18.7 -9.9 19.4 9.2 0 16.5 C-19.4 9.2 -18.7 -9.9 0 -16.5 Z" fill="url(#pg-scale-warm)" stroke="#0a0603" stroke-opacity=".55" stroke-width="1"/><path d="M0 -16.5 C18.7 -9.9 19.4 9.2 0 16.5 C-19.4 9.2 -18.7 -9.9 0 -16.5 Z" fill="none" stroke="#f0c9a0" stroke-opacity=".35" stroke-width="1.1" transform="translate(0,-5.3)"/></g>
    <g transform="translate(186.7,279.9) rotate(315.0)"><path d="M0 -16.5 C18.7 -9.9 19.4 9.2 0 16.5 C-19.4 9.2 -18.7 -9.9 0 -16.5 Z" fill="url(#pg-scale-warm)" stroke="#0a0603" stroke-opacity=".55" stroke-width="1"/><path d="M0 -16.5 C18.7 -9.9 19.4 9.2 0 16.5 C-19.4 9.2 -18.7 -9.9 0 -16.5 Z" fill="none" stroke="#f0c9a0" stroke-opacity=".35" stroke-width="1.1" transform="translate(0,-5.3)"/></g>
    <g transform="translate(210.0,271.6) rotate(360.0)"><path d="M0 -16.5 C18.7 -9.9 19.4 9.2 0 16.5 C-19.4 9.2 -18.7 -9.9 0 -16.5 Z" fill="url(#pg-scale-warm)" stroke="#0a0603" stroke-opacity=".55" stroke-width="1"/><path d="M0 -16.5 C18.7 -9.9 19.4 9.2 0 16.5 C-19.4 9.2 -18.7 -9.9 0 -16.5 Z" fill="none" stroke="#f0c9a0" stroke-opacity=".35" stroke-width="1.1" transform="translate(0,-5.3)"/></g>
    <g transform="translate(233.3,279.9) rotate(405.0)"><path d="M0 -16.5 C18.7 -9.9 19.4 9.2 0 16.5 C-19.4 9.2 -18.7 -9.9 0 -16.5 Z" fill="url(#pg-scale-warm)" stroke="#0a0603" stroke-opacity=".55" stroke-width="1"/><path d="M0 -16.5 C18.7 -9.9 19.4 9.2 0 16.5 C-19.4 9.2 -18.7 -9.9 0 -16.5 Z" fill="none" stroke="#f0c9a0" stroke-opacity=".35" stroke-width="1.1" transform="translate(0,-5.3)"/></g>
    </g>
  <g id="pg-ring-1" opacity="0.98">
    <g transform="translate(262.8,300.0) rotate(90.0)"><path d="M0 -16.5 C18.7 -9.9 19.4 9.2 0 16.5 C-19.4 9.2 -18.7 -9.9 0 -16.5 Z" fill="url(#pg-scale-cool)" stroke="#0a0603" stroke-opacity=".55" stroke-width="1"/></g>
    <g transform="translate(255.7,322.7) rotate(120.0)"><path d="M0 -16.5 C18.7 -9.9 19.4 9.2 0 16.5 C-19.4 9.2 -18.7 -9.9 0 -16.5 Z" fill="url(#pg-scale-cool)" stroke="#0a0603" stroke-opacity=".55" stroke-width="1"/></g>
    <g transform="translate(236.4,339.3) rotate(150.0)"><path d="M0 -16.5 C18.7 -9.9 19.4 9.2 0 16.5 C-19.4 9.2 -18.7 -9.9 0 -16.5 Z" fill="url(#pg-scale-cool)" stroke="#0a0603" stroke-opacity=".55" stroke-width="1"/></g>
    <g transform="translate(210.0,345.4) rotate(180.0)"><path d="M0 -16.5 C18.7 -9.9 19.4 9.2 0 16.5 C-19.4 9.2 -18.7 -9.9 0 -16.5 Z" fill="url(#pg-scale-cool)" stroke="#0a0603" stroke-opacity=".55" stroke-width="1"/></g>
    <g transform="translate(183.6,339.3) rotate(210.0)"><path d="M0 -16.5 C18.7 -9.9 19.4 9.2 0 16.5 C-19.4 9.2 -18.7 -9.9 0 -16.5 Z" fill="url(#pg-scale-cool)" stroke="#0a0603" stroke-opacity=".55" stroke-width="1"/></g>
    <g transform="translate(164.3,322.7) rotate(240.0)"><path d="M0 -16.5 C18.7 -9.9 19.4 9.2 0 16.5 C-19.4 9.2 -18.7 -9.9 0 -16.5 Z" fill="url(#pg-scale-cool)" stroke="#0a0603" stroke-opacity=".55" stroke-width="1"/></g>
    <g transform="translate(157.2,300.0) rotate(270.0)"><path d="M0 -16.5 C18.7 -9.9 19.4 9.2 0 16.5 C-19.4 9.2 -18.7 -9.9 0 -16.5 Z" fill="url(#pg-scale-cool)" stroke="#0a0603" stroke-opacity=".55" stroke-width="1"/></g>
    <g transform="translate(164.3,277.3) rotate(300.0)"><path d="M0 -16.5 C18.7 -9.9 19.4 9.2 0 16.5 C-19.4 9.2 -18.7 -9.9 0 -16.5 Z" fill="url(#pg-scale-cool)" stroke="#0a0603" stroke-opacity=".55" stroke-width="1"/></g>
    <g transform="translate(183.6,260.7) rotate(330.0)"><path d="M0 -16.5 C18.7 -9.9 19.4 9.2 0 16.5 C-19.4 9.2 -18.7 -9.9 0 -16.5 Z" fill="url(#pg-scale-cool)" stroke="#0a0603" stroke-opacity=".55" stroke-width="1"/></g>
    <g transform="translate(210.0,254.6) rotate(360.0)"><path d="M0 -16.5 C18.7 -9.9 19.4 9.2 0 16.5 C-19.4 9.2 -18.7 -9.9 0 -16.5 Z" fill="url(#pg-scale-cool)" stroke="#0a0603" stroke-opacity=".55" stroke-width="1"/></g>
    <g transform="translate(236.4,260.7) rotate(390.0)"><path d="M0 -16.5 C18.7 -9.9 19.4 9.2 0 16.5 C-19.4 9.2 -18.7 -9.9 0 -16.5 Z" fill="url(#pg-scale-cool)" stroke="#0a0603" stroke-opacity=".55" stroke-width="1"/></g>
    <g transform="translate(255.7,277.3) rotate(420.0)"><path d="M0 -16.5 C18.7 -9.9 19.4 9.2 0 16.5 C-19.4 9.2 -18.7 -9.9 0 -16.5 Z" fill="url(#pg-scale-cool)" stroke="#0a0603" stroke-opacity=".55" stroke-width="1"/></g>
    </g>
  <g id="pg-ring-2" opacity="0.96">
    <g transform="translate(282.6,300.0) rotate(90.0)"><path d="M0 -16.5 C17.6 -9.9 18.3 9.2 0 16.5 C-18.3 9.2 -17.6 -9.9 0 -16.5 Z" fill="url(#pg-scale-warm)" stroke="#0a0603" stroke-opacity=".55" stroke-width="1"/></g>
    <g transform="translate(276.3,325.4) rotate(114.0)"><path d="M0 -16.5 C17.6 -9.9 18.3 9.2 0 16.5 C-18.3 9.2 -17.6 -9.9 0 -16.5 Z" fill="url(#pg-scale-warm)" stroke="#0a0603" stroke-opacity=".55" stroke-width="1"/></g>
    <g transform="translate(258.6,346.4) rotate(138.0)"><path d="M0 -16.5 C17.6 -9.9 18.3 9.2 0 16.5 C-18.3 9.2 -17.6 -9.9 0 -16.5 Z" fill="url(#pg-scale-warm)" stroke="#0a0603" stroke-opacity=".55" stroke-width="1"/></g>
    <g transform="translate(232.4,359.4) rotate(162.0)"><path d="M0 -16.5 C17.6 -9.9 18.3 9.2 0 16.5 C-18.3 9.2 -17.6 -9.9 0 -16.5 Z" fill="url(#pg-scale-warm)" stroke="#0a0603" stroke-opacity=".55" stroke-width="1"/></g>
    <g transform="translate(202.4,362.1) rotate(186.0)"><path d="M0 -16.5 C17.6 -9.9 18.3 9.2 0 16.5 C-18.3 9.2 -17.6 -9.9 0 -16.5 Z" fill="url(#pg-scale-warm)" stroke="#0a0603" stroke-opacity=".55" stroke-width="1"/></g>
    <g transform="translate(173.7,354.1) rotate(210.0)"><path d="M0 -16.5 C17.6 -9.9 18.3 9.2 0 16.5 C-18.3 9.2 -17.6 -9.9 0 -16.5 Z" fill="url(#pg-scale-warm)" stroke="#0a0603" stroke-opacity=".55" stroke-width="1"/></g>
    <g transform="translate(151.3,336.7) rotate(234.0)"><path d="M0 -16.5 C17.6 -9.9 18.3 9.2 0 16.5 C-18.3 9.2 -17.6 -9.9 0 -16.5 Z" fill="url(#pg-scale-warm)" stroke="#0a0603" stroke-opacity=".55" stroke-width="1"/></g>
    <g transform="translate(139.0,313.0) rotate(258.0)"><path d="M0 -16.5 C17.6 -9.9 18.3 9.2 0 16.5 C-18.3 9.2 -17.6 -9.9 0 -16.5 Z" fill="url(#pg-scale-warm)" stroke="#0a0603" stroke-opacity=".55" stroke-width="1"/></g>
    <g transform="translate(139.0,287.0) rotate(282.0)"><path d="M0 -16.5 C17.6 -9.9 18.3 9.2 0 16.5 C-18.3 9.2 -17.6 -9.9 0 -16.5 Z" fill="url(#pg-scale-warm)" stroke="#0a0603" stroke-opacity=".55" stroke-width="1"/></g>
    <g transform="translate(151.3,263.3) rotate(306.0)"><path d="M0 -16.5 C17.6 -9.9 18.3 9.2 0 16.5 C-18.3 9.2 -17.6 -9.9 0 -16.5 Z" fill="url(#pg-scale-warm)" stroke="#0a0603" stroke-opacity=".55" stroke-width="1"/></g>
    <g transform="translate(173.7,245.9) rotate(330.0)"><path d="M0 -16.5 C17.6 -9.9 18.3 9.2 0 16.5 C-18.3 9.2 -17.6 -9.9 0 -16.5 Z" fill="url(#pg-scale-warm)" stroke="#0a0603" stroke-opacity=".55" stroke-width="1"/></g>
    <g transform="translate(202.4,237.9) rotate(354.0)"><path d="M0 -16.5 C17.6 -9.9 18.3 9.2 0 16.5 C-18.3 9.2 -17.6 -9.9 0 -16.5 Z" fill="url(#pg-scale-warm)" stroke="#0a0603" stroke-opacity=".55" stroke-width="1"/></g>
    <g transform="translate(232.4,240.6) rotate(378.0)"><path d="M0 -16.5 C17.6 -9.9 18.3 9.2 0 16.5 C-18.3 9.2 -17.6 -9.9 0 -16.5 Z" fill="url(#pg-scale-warm)" stroke="#0a0603" stroke-opacity=".55" stroke-width="1"/></g>
    <g transform="translate(258.6,253.6) rotate(402.0)"><path d="M0 -16.5 C17.6 -9.9 18.3 9.2 0 16.5 C-18.3 9.2 -17.6 -9.9 0 -16.5 Z" fill="url(#pg-scale-warm)" stroke="#0a0603" stroke-opacity=".55" stroke-width="1"/></g>
    <g transform="translate(276.3,274.6) rotate(426.0)"><path d="M0 -16.5 C17.6 -9.9 18.3 9.2 0 16.5 C-18.3 9.2 -17.6 -9.9 0 -16.5 Z" fill="url(#pg-scale-warm)" stroke="#0a0603" stroke-opacity=".55" stroke-width="1"/></g>
    </g>
  <g id="pg-ring-3" opacity="0.94">
    <g transform="translate(302.4,300.0) rotate(90.0)"><path d="M0 -15.4 C16.5 -9.2 17.2 8.6 0 15.4 C-17.2 8.6 -16.5 -9.2 0 -15.4 Z" fill="url(#pg-scale-cool)" stroke="#0a0603" stroke-opacity=".55" stroke-width="1"/></g>
    <g transform="translate(296.8,327.2) rotate(110.0)"><path d="M0 -15.4 C16.5 -9.2 17.2 8.6 0 15.4 C-17.2 8.6 -16.5 -9.2 0 -15.4 Z" fill="url(#pg-scale-cool)" stroke="#0a0603" stroke-opacity=".55" stroke-width="1"/></g>
    <g transform="translate(280.8,351.1) rotate(130.0)"><path d="M0 -15.4 C16.5 -9.2 17.2 8.6 0 15.4 C-17.2 8.6 -16.5 -9.2 0 -15.4 Z" fill="url(#pg-scale-cool)" stroke="#0a0603" stroke-opacity=".55" stroke-width="1"/></g>
    <g transform="translate(256.2,368.8) rotate(150.0)"><path d="M0 -15.4 C16.5 -9.2 17.2 8.6 0 15.4 C-17.2 8.6 -16.5 -9.2 0 -15.4 Z" fill="url(#pg-scale-cool)" stroke="#0a0603" stroke-opacity=".55" stroke-width="1"/></g>
    <g transform="translate(226.0,378.3) rotate(170.0)"><path d="M0 -15.4 C16.5 -9.2 17.2 8.6 0 15.4 C-17.2 8.6 -16.5 -9.2 0 -15.4 Z" fill="url(#pg-scale-cool)" stroke="#0a0603" stroke-opacity=".55" stroke-width="1"/></g>
    <g transform="translate(194.0,378.3) rotate(190.0)"><path d="M0 -15.4 C16.5 -9.2 17.2 8.6 0 15.4 C-17.2 8.6 -16.5 -9.2 0 -15.4 Z" fill="url(#pg-scale-cool)" stroke="#0a0603" stroke-opacity=".55" stroke-width="1"/></g>
    <g transform="translate(163.8,368.8) rotate(210.0)"><path d="M0 -15.4 C16.5 -9.2 17.2 8.6 0 15.4 C-17.2 8.6 -16.5 -9.2 0 -15.4 Z" fill="url(#pg-scale-cool)" stroke="#0a0603" stroke-opacity=".55" stroke-width="1"/></g>
    <g transform="translate(139.2,351.1) rotate(230.0)"><path d="M0 -15.4 C16.5 -9.2 17.2 8.6 0 15.4 C-17.2 8.6 -16.5 -9.2 0 -15.4 Z" fill="url(#pg-scale-cool)" stroke="#0a0603" stroke-opacity=".55" stroke-width="1"/></g>
    <g transform="translate(123.2,327.2) rotate(250.0)"><path d="M0 -15.4 C16.5 -9.2 17.2 8.6 0 15.4 C-17.2 8.6 -16.5 -9.2 0 -15.4 Z" fill="url(#pg-scale-cool)" stroke="#0a0603" stroke-opacity=".55" stroke-width="1"/></g>
    <g transform="translate(117.6,300.0) rotate(270.0)"><path d="M0 -15.4 C16.5 -9.2 17.2 8.6 0 15.4 C-17.2 8.6 -16.5 -9.2 0 -15.4 Z" fill="url(#pg-scale-cool)" stroke="#0a0603" stroke-opacity=".55" stroke-width="1"/></g>
    <g transform="translate(123.2,272.8) rotate(290.0)"><path d="M0 -15.4 C16.5 -9.2 17.2 8.6 0 15.4 C-17.2 8.6 -16.5 -9.2 0 -15.4 Z" fill="url(#pg-scale-cool)" stroke="#0a0603" stroke-opacity=".55" stroke-width="1"/></g>
    <g transform="translate(139.2,248.9) rotate(310.0)"><path d="M0 -15.4 C16.5 -9.2 17.2 8.6 0 15.4 C-17.2 8.6 -16.5 -9.2 0 -15.4 Z" fill="url(#pg-scale-cool)" stroke="#0a0603" stroke-opacity=".55" stroke-width="1"/></g>
    <g transform="translate(163.8,231.2) rotate(330.0)"><path d="M0 -15.4 C16.5 -9.2 17.2 8.6 0 15.4 C-17.2 8.6 -16.5 -9.2 0 -15.4 Z" fill="url(#pg-scale-cool)" stroke="#0a0603" stroke-opacity=".55" stroke-width="1"/></g>
    <g transform="translate(194.0,221.7) rotate(350.0)"><path d="M0 -15.4 C16.5 -9.2 17.2 8.6 0 15.4 C-17.2 8.6 -16.5 -9.2 0 -15.4 Z" fill="url(#pg-scale-cool)" stroke="#0a0603" stroke-opacity=".55" stroke-width="1"/></g>
    <g transform="translate(226.0,221.7) rotate(370.0)"><path d="M0 -15.4 C16.5 -9.2 17.2 8.6 0 15.4 C-17.2 8.6 -16.5 -9.2 0 -15.4 Z" fill="url(#pg-scale-cool)" stroke="#0a0603" stroke-opacity=".55" stroke-width="1"/></g>
    <g transform="translate(256.2,231.2) rotate(390.0)"><path d="M0 -15.4 C16.5 -9.2 17.2 8.6 0 15.4 C-17.2 8.6 -16.5 -9.2 0 -15.4 Z" fill="url(#pg-scale-cool)" stroke="#0a0603" stroke-opacity=".55" stroke-width="1"/></g>
    <g transform="translate(280.8,248.9) rotate(410.0)"><path d="M0 -15.4 C16.5 -9.2 17.2 8.6 0 15.4 C-17.2 8.6 -16.5 -9.2 0 -15.4 Z" fill="url(#pg-scale-cool)" stroke="#0a0603" stroke-opacity=".55" stroke-width="1"/></g>
    <g transform="translate(296.8,272.8) rotate(430.0)"><path d="M0 -15.4 C16.5 -9.2 17.2 8.6 0 15.4 C-17.2 8.6 -16.5 -9.2 0 -15.4 Z" fill="url(#pg-scale-cool)" stroke="#0a0603" stroke-opacity=".55" stroke-width="1"/></g>
    </g>
  <g id="pg-ring-4" opacity="0.92">
    <g transform="translate(318.9,300.0) rotate(90.0)"><path d="M0 -13.2 C14.3 -7.9 14.9 7.4 0 13.2 C-14.9 7.4 -14.3 -7.9 0 -13.2 Z" fill="url(#pg-scale-warm)" stroke="#0a0603" stroke-opacity=".55" stroke-width="1"/></g>
    <g transform="translate(314.1,327.6) rotate(107.1)"><path d="M0 -13.2 C14.3 -7.9 14.9 7.4 0 13.2 C-14.9 7.4 -14.3 -7.9 0 -13.2 Z" fill="url(#pg-scale-warm)" stroke="#0a0603" stroke-opacity=".55" stroke-width="1"/></g>
    <g transform="translate(300.0,352.8) rotate(124.3)"><path d="M0 -13.2 C14.3 -7.9 14.9 7.4 0 13.2 C-14.9 7.4 -14.3 -7.9 0 -13.2 Z" fill="url(#pg-scale-warm)" stroke="#0a0603" stroke-opacity=".55" stroke-width="1"/></g>
    <g transform="translate(277.9,373.2) rotate(141.4)"><path d="M0 -13.2 C14.3 -7.9 14.9 7.4 0 13.2 C-14.9 7.4 -14.3 -7.9 0 -13.2 Z" fill="url(#pg-scale-warm)" stroke="#0a0603" stroke-opacity=".55" stroke-width="1"/></g>
    <g transform="translate(249.8,387.2) rotate(158.6)"><path d="M0 -13.2 C14.3 -7.9 14.9 7.4 0 13.2 C-14.9 7.4 -14.3 -7.9 0 -13.2 Z" fill="url(#pg-scale-warm)" stroke="#0a0603" stroke-opacity=".55" stroke-width="1"/></g>
    <g transform="translate(218.1,393.4) rotate(175.7)"><path d="M0 -13.2 C14.3 -7.9 14.9 7.4 0 13.2 C-14.9 7.4 -14.3 -7.9 0 -13.2 Z" fill="url(#pg-scale-warm)" stroke="#0a0603" stroke-opacity=".55" stroke-width="1"/></g>
    <g transform="translate(185.8,391.3) rotate(192.9)"><path d="M0 -13.2 C14.3 -7.9 14.9 7.4 0 13.2 C-14.9 7.4 -14.3 -7.9 0 -13.2 Z" fill="url(#pg-scale-warm)" stroke="#0a0603" stroke-opacity=".55" stroke-width="1"/></g>
    <g transform="translate(155.6,381.1) rotate(210.0)"><path d="M0 -13.2 C14.3 -7.9 14.9 7.4 0 13.2 C-14.9 7.4 -14.3 -7.9 0 -13.2 Z" fill="url(#pg-scale-warm)" stroke="#0a0603" stroke-opacity=".55" stroke-width="1"/></g>
    <g transform="translate(130.2,363.7) rotate(227.1)"><path d="M0 -13.2 C14.3 -7.9 14.9 7.4 0 13.2 C-14.9 7.4 -14.3 -7.9 0 -13.2 Z" fill="url(#pg-scale-warm)" stroke="#0a0603" stroke-opacity=".55" stroke-width="1"/></g>
    <g transform="translate(111.9,340.6) rotate(244.3)"><path d="M0 -13.2 C14.3 -7.9 14.9 7.4 0 13.2 C-14.9 7.4 -14.3 -7.9 0 -13.2 Z" fill="url(#pg-scale-warm)" stroke="#0a0603" stroke-opacity=".55" stroke-width="1"/></g>
    <g transform="translate(102.3,314.0) rotate(261.4)"><path d="M0 -13.2 C14.3 -7.9 14.9 7.4 0 13.2 C-14.9 7.4 -14.3 -7.9 0 -13.2 Z" fill="url(#pg-scale-warm)" stroke="#0a0603" stroke-opacity=".55" stroke-width="1"/></g>
    <g transform="translate(102.3,286.0) rotate(278.6)"><path d="M0 -13.2 C14.3 -7.9 14.9 7.4 0 13.2 C-14.9 7.4 -14.3 -7.9 0 -13.2 Z" fill="url(#pg-scale-warm)" stroke="#0a0603" stroke-opacity=".55" stroke-width="1"/></g>
    <g transform="translate(111.9,259.4) rotate(295.7)"><path d="M0 -13.2 C14.3 -7.9 14.9 7.4 0 13.2 C-14.9 7.4 -14.3 -7.9 0 -13.2 Z" fill="url(#pg-scale-warm)" stroke="#0a0603" stroke-opacity=".55" stroke-width="1"/></g>
    <g transform="translate(130.2,236.3) rotate(312.9)"><path d="M0 -13.2 C14.3 -7.9 14.9 7.4 0 13.2 C-14.9 7.4 -14.3 -7.9 0 -13.2 Z" fill="url(#pg-scale-warm)" stroke="#0a0603" stroke-opacity=".55" stroke-width="1"/></g>
    <g transform="translate(155.5,218.9) rotate(330.0)"><path d="M0 -13.2 C14.3 -7.9 14.9 7.4 0 13.2 C-14.9 7.4 -14.3 -7.9 0 -13.2 Z" fill="url(#pg-scale-warm)" stroke="#0a0603" stroke-opacity=".55" stroke-width="1"/></g>
    <g transform="translate(185.8,208.7) rotate(347.1)"><path d="M0 -13.2 C14.3 -7.9 14.9 7.4 0 13.2 C-14.9 7.4 -14.3 -7.9 0 -13.2 Z" fill="url(#pg-scale-warm)" stroke="#0a0603" stroke-opacity=".55" stroke-width="1"/></g>
    <g transform="translate(218.1,206.6) rotate(364.3)"><path d="M0 -13.2 C14.3 -7.9 14.9 7.4 0 13.2 C-14.9 7.4 -14.3 -7.9 0 -13.2 Z" fill="url(#pg-scale-warm)" stroke="#0a0603" stroke-opacity=".55" stroke-width="1"/></g>
    <g transform="translate(249.8,212.8) rotate(381.4)"><path d="M0 -13.2 C14.3 -7.9 14.9 7.4 0 13.2 C-14.9 7.4 -14.3 -7.9 0 -13.2 Z" fill="url(#pg-scale-warm)" stroke="#0a0603" stroke-opacity=".55" stroke-width="1"/></g>
    <g transform="translate(277.9,226.8) rotate(398.6)"><path d="M0 -13.2 C14.3 -7.9 14.9 7.4 0 13.2 C-14.9 7.4 -14.3 -7.9 0 -13.2 Z" fill="url(#pg-scale-warm)" stroke="#0a0603" stroke-opacity=".55" stroke-width="1"/></g>
    <g transform="translate(300.0,247.2) rotate(415.7)"><path d="M0 -13.2 C14.3 -7.9 14.9 7.4 0 13.2 C-14.9 7.4 -14.3 -7.9 0 -13.2 Z" fill="url(#pg-scale-warm)" stroke="#0a0603" stroke-opacity=".55" stroke-width="1"/></g>
    <g transform="translate(314.1,272.4) rotate(432.9)"><path d="M0 -13.2 C14.3 -7.9 14.9 7.4 0 13.2 C-14.9 7.4 -14.3 -7.9 0 -13.2 Z" fill="url(#pg-scale-warm)" stroke="#0a0603" stroke-opacity=".55" stroke-width="1"/></g>
    </g>
  <path d="M141.8 368.2 A112.2 101.2 0 0 0 287.0 355.0 A94.6 85.8 0 0 1 243.0 399.0 A121.0 110.0 0 0 1 141.8 368.2 Z" fill="url(#pg-scale-cool)" stroke="#0a0603" stroke-opacity=".5" stroke-width="1.4" opacity=".97"/>
  <g filter="url(#pg-blur)"><path d="M187.2 363.8 C191.2 373.8 203.2 375.8 213.2 367.8 C205.2 361.8 195.2 359.8 187.2 363.8 Z" fill="#0a0603"/><circle cx="199.2" cy="365.8" r="1.6" fill="#f0c9a0" fill-opacity=".55"/></g></g>
</svg>
