<svg class="sigil" viewBox="0 0 64 64" role="img" aria-labelledby="s-title s-desc" xmlns="http://www.w3.org/2000/svg"><title id="s-title">Sigil of the Albatross</title><desc id="s-desc">Sagittarius crossed with the Year of the Horse, a Fire animal.</desc><circle cx="32" cy="32" r="26" fill="var(--glow)" opacity=".5"/><g stroke="var(--accent)" stroke-width="1" stroke-linecap="round" fill="none" opacity=".8"><path d="M30.3 7.1 L30 4.1 M55.2 22.6 L58 21.5 M48.1 51.2 L50 53.4 M18.8 53.2 L17.2 55.7 M7.7 26 L4.8 25.2"/></g><g stroke-width="var(--glyph-stroke,1.5)" stroke-linecap="round" stroke-linejoin="round"><g transform="translate(16 17) scale(1.3)" opacity=".55"><g fill="none" stroke="var(--accent)"><path d="M6 6 L9 12 L6 18"/><path d="M9 12 L18 7"/><path d="M15 10 L12 13 L9 16"/></g><g fill="var(--accent-soft)"><circle cx="6" cy="6" r=".8"/><circle cx="6" cy="18" r=".8"/><circle cx="9" cy="12" r="1"/><circle cx="18" cy="7" r=".8"/><circle cx="15" cy="10" r=".8"/><circle cx="12" cy="13" r=".8"/><circle cx="9" cy="16" r=".8"/></g></g><g transform="translate(20 20) scale(1)"><g fill="none" stroke="var(--accent)"><path d="M7 5 L9 9 L7 12"/><path d="M9 9 L12 10 L17 9"/><path d="M17 9 L16 17 L10 16 L12 10"/></g><g fill="var(--accent-soft)"><circle cx="7" cy="5" r=".8"/><circle cx="9" cy="9" r="1"/><circle cx="7" cy="12" r=".8"/><circle cx="12" cy="10" r=".8"/><circle cx="17" cy="9" r=".8"/><circle cx="16" cy="17" r=".8"/><circle cx="10" cy="16" r=".8"/></g></g></g><g fill="none" stroke="var(--accent)" stroke-width=".5" opacity=".4"><path d="M37.1 41.4 L20.1 38.9"/></g><g fill="var(--accent)" opacity=".85"><circle cx="37.1" cy="41.4" r=".6"/><circle cx="20.1" cy="38.9" r=".9"/><circle cx="46.9" cy="23.1" r=".9"/><circle cx="42.5" cy="46.7" r="1"/><circle cx="19.7" cy="32.3" r="1"/></g></svg>
