<svg class="sigil" viewBox="0 0 64 64" role="img" aria-labelledby="s-title s-desc" xmlns="http://www.w3.org/2000/svg"><title id="s-title">Sigil of the Alpine Marmot</title><desc id="s-desc">Virgo crossed with the Year of the Goat, a Earth animal.</desc><circle cx="32" cy="32" r="26" fill="var(--glow)" opacity=".5"/><g stroke="var(--accent)" stroke-width="1" stroke-linecap="round" fill="none" opacity=".75"><path d="M17.3 11.8 L52.2 17.3 L46.7 52.2 L11.8 46.7 Z"/></g><g fill="var(--accent-soft)"><circle cx="17.3" cy="11.8" r="1.1"/><circle cx="52.2" cy="17.3" r="1.1"/><circle cx="46.7" cy="52.2" r="1.1"/><circle cx="11.8" cy="46.7" r="1.1"/></g><g stroke-width="var(--glyph-stroke,1.5)" stroke-linecap="round" stroke-linejoin="round"><g transform="translate(16 17) scale(1.3)" opacity=".55"><g fill="none" stroke="var(--accent)"><path d="M5 9 L9 11 L13 10 L16 13"/><path d="M16 13 L18 17"/><path d="M13 10 L12 15"/></g><g fill="var(--accent-soft)"><circle cx="5" cy="9" r=".8"/><circle cx="9" cy="11" r=".8"/><circle cx="13" cy="10" r=".8"/><circle cx="16" cy="13" r="1"/><circle cx="18" cy="17" r=".8"/><circle cx="12" cy="15" r=".8"/></g></g><g transform="translate(20 20) scale(1)"><g fill="none" stroke="var(--accent)"><path d="M6 7 L9 9 L7 12"/><path d="M9 9 L13 10 L18 10"/><path d="M18 10 L16 17 L10 16 L13 10"/></g><g fill="var(--accent-soft)"><circle cx="6" cy="7" r=".8"/><circle cx="9" cy="9" r="1"/><circle cx="7" cy="12" r=".8"/><circle cx="13" cy="10" r=".8"/><circle cx="18" cy="10" r=".8"/><circle cx="16" cy="17" r=".8"/><circle cx="10" cy="16" r=".8"/></g></g></g><g fill="none" stroke="var(--accent)" stroke-width=".5" opacity=".4"><path d="M39 16.5 L32.8 46 M28.9 22.3 L36.4 17"/></g><g fill="var(--accent)" opacity=".85"><circle cx="39" cy="16.5" r=".9"/><circle cx="32.8" cy="46" r=".7"/><circle cx="28.9" cy="22.3" r=".9"/><circle cx="36.4" cy="17" r=".6"/></g></svg>
