<svg class="sigil" viewBox="0 0 64 64" role="img" aria-labelledby="s-title s-desc" xmlns="http://www.w3.org/2000/svg"><title id="s-title">Sigil of the Anatolian Shepherd</title><desc id="s-desc">Taurus crossed with the Year of the Dog, a Earth animal.</desc><circle cx="32" cy="32" r="26" fill="var(--glow)" opacity=".5"/><g stroke="var(--accent)" stroke-width="1" stroke-linecap="round" fill="none" opacity=".75"><path d="M22.2 55 L9 22.2 L41.8 9 L55 41.8 Z"/></g><g fill="var(--accent-soft)"><circle cx="22.2" cy="55" r="1.1"/><circle cx="9" cy="22.2" r="1.1"/><circle cx="41.8" cy="9" r="1.1"/><circle cx="55" cy="41.8" r="1.1"/></g><g stroke-width="var(--glyph-stroke,1.5)" stroke-linecap="round" stroke-linejoin="round"><g transform="translate(16 17) scale(1.3)" opacity=".55"><g fill="none" stroke="var(--accent)"><path d="M6 8 L9 12 L12 15 L15 12 L18 8"/></g><g fill="var(--accent-soft)"><circle cx="12" cy="15" r="1"/><circle cx="9" cy="12" r=".8"/><circle cx="6" cy="8" r=".8"/><circle cx="15" cy="12" r=".8"/><circle cx="18" cy="8" r=".8"/><circle cx="12" cy="15" r=".8"/></g></g><g transform="translate(20 20) scale(1)"><g fill="none" stroke="var(--accent)"><path d="M8 6 L9 10"/><path d="M6 8 L9 10 L14 11 L18 10"/><path d="M18 10 L16 17 L10 16 L14 11"/></g><g fill="var(--accent-soft)"><circle cx="6" cy="8" r=".8"/><circle cx="8" cy="6" r=".8"/><circle cx="9" cy="10" r="1"/><circle cx="14" cy="11" r=".8"/><circle cx="18" cy="10" r=".8"/><circle cx="16" cy="17" r=".8"/><circle cx="10" cy="16" r=".8"/></g></g></g><g fill="none" stroke="var(--accent)" stroke-width=".5" opacity=".4"><path d="M42 33.5 L20.5 41.1"/></g><g fill="var(--accent)" opacity=".85"><circle cx="42" cy="33.5" r=".6"/><circle cx="20.5" cy="41.1" r="1"/><circle cx="31.7" cy="17.3" r="1"/></g></svg>
