<svg class="sigil" viewBox="0 0 64 64" role="img" aria-labelledby="s-title s-desc" xmlns="http://www.w3.org/2000/svg"><title id="s-title">Sigil of the Andean Condor</title><desc id="s-desc">Capricorn crossed with the Year of the Rooster, a Earth animal.</desc><circle cx="32" cy="32" r="26" fill="var(--glow)" opacity=".5"/><g stroke="var(--accent)" stroke-width="1" stroke-linecap="round" fill="none" opacity=".75"><path d="M22.2 55 L9 22.2 L41.8 9 L55 41.8 Z"/></g><g fill="var(--accent-soft)"><circle cx="22.2" cy="55" r="1.1"/><circle cx="9" cy="22.2" r="1.1"/><circle cx="41.8" cy="9" r="1.1"/><circle cx="55" cy="41.8" r="1.1"/></g><g stroke-width="var(--glyph-stroke,1.5)" stroke-linecap="round" stroke-linejoin="round"><g transform="translate(16 17) scale(1.3)" opacity=".55"><g fill="none" stroke="var(--accent)"><path d="M6 8 L10 6 L14 10 L18 17 L9 15 L6 8"/></g><g fill="var(--accent-soft)"><circle cx="6" cy="8" r=".8"/><circle cx="10" cy="6" r="1"/><circle cx="14" cy="10" r=".8"/><circle cx="18" cy="17" r=".8"/><circle cx="9" cy="15" r=".8"/><circle cx="6" cy="8" r=".8"/></g></g><g transform="translate(20 20) scale(1)"><g fill="none" stroke="var(--accent)"><path d="M6 6 L9 9"/><path d="M8 5 L9 9 L13 11 L17 13 L14 17 L10 16 L13 11"/></g><g fill="var(--accent-soft)"><circle cx="6" cy="6" r=".8"/><circle cx="8" cy="5" r=".8"/><circle cx="9" cy="9" r="1"/><circle cx="13" cy="11" r=".8"/><circle cx="17" cy="13" r=".8"/><circle cx="14" cy="17" r=".8"/><circle cx="10" cy="16" r=".8"/></g></g></g><g fill="var(--accent)" opacity=".85"><circle cx="15.8" cy="36.9" r=".9"/><circle cx="21" cy="19.3" r=".8"/><circle cx="36.2" cy="40.9" r="1"/></g></svg>
