<svg class="sigil" viewBox="0 0 64 64" role="img" aria-labelledby="s-title s-desc" xmlns="http://www.w3.org/2000/svg"><title id="s-title">Sigil of the Angelfish</title><desc id="s-desc">Pisces crossed with the Year of the Goat, a Water animal.</desc><circle cx="32" cy="32" r="26" fill="var(--glow)" opacity=".5"/><g stroke="var(--accent)" stroke-width="1" stroke-linecap="round" fill="none" opacity=".8"><path d="M18.6 12.1 L16.9 9.6 M39.2 9.1 L40.1 6.2 M54.4 23.3 L57.2 22.3 M52.7 44.1 L55.3 45.6 M35.5 55.7 L35.9 58.7 M15.6 49.5 L13.5 51.7 M8.1 30.1 L5.1 29.8"/></g><g stroke-width="var(--glyph-stroke,1.5)" stroke-linecap="round" stroke-linejoin="round"><g transform="translate(16 17) scale(1.3)" opacity=".55"><g fill="none" stroke="var(--accent)"><path d="M6 5 L5 9 L6 13"/><path d="M6 5 L12 9 L18 5"/><path d="M6 13 L12 9 L18 13"/><path d="M18 5 L19 9 L18 13"/></g><g fill="var(--accent-soft)"><circle cx="6" cy="5" r=".8"/><circle cx="5" cy="9" r=".8"/><circle cx="6" cy="13" r=".8"/><circle cx="12" cy="9" r="1"/><circle cx="18" cy="5" r=".8"/><circle cx="19" cy="9" r=".8"/><circle cx="18" cy="13" r=".8"/></g></g><g transform="translate(20 20) scale(1)"><g fill="none" stroke="var(--accent)"><path d="M6 7 L9 9 L7 12"/><path d="M9 9 L13 10 L18 10"/><path d="M18 10 L16 17 L10 16 L13 10"/></g><g fill="var(--accent-soft)"><circle cx="6" cy="7" r=".8"/><circle cx="9" cy="9" r="1"/><circle cx="7" cy="12" r=".8"/><circle cx="13" cy="10" r=".8"/><circle cx="18" cy="10" r=".8"/><circle cx="16" cy="17" r=".8"/><circle cx="10" cy="16" r=".8"/></g></g></g><g fill="none" stroke="var(--accent)" stroke-width=".5" opacity=".4"><path d="M29.5 42.7 L31.8 21"/></g><g fill="var(--accent)" opacity=".85"><circle cx="29.5" cy="42.7" r=".6"/><circle cx="31.8" cy="21" r=".9"/><circle cx="30.8" cy="50.6" r=".7"/></g></svg>
