<svg class="sigil" viewBox="0 0 64 64" role="img" aria-labelledby="s-title s-desc" xmlns="http://www.w3.org/2000/svg"><title id="s-title">Sigil of the Arabian Oryx</title><desc id="s-desc">Libra crossed with the Year of the Tiger, a Air animal.</desc><circle cx="32" cy="32" r="26" fill="var(--glow)" opacity=".5"/><circle cx="32" cy="32" r="25" stroke="var(--accent)" stroke-width="1" stroke-linecap="round" fill="none" stroke-dasharray="3 4" opacity=".75" transform="rotate(306 32 32)"/><g stroke-width="var(--glyph-stroke,1.5)" stroke-linecap="round" stroke-linejoin="round"><g transform="translate(16 17) scale(1.3)" opacity=".55"><g fill="none" stroke="var(--accent)"><path d="M6 11 L12 7 L18 11"/><path d="M6 11 L6 16"/><path d="M18 11 L18 16"/></g><g fill="var(--accent-soft)"><circle cx="12" cy="7" r="1"/><circle cx="6" cy="11" r=".8"/><circle cx="18" cy="11" r=".8"/><circle cx="6" cy="16" r=".8"/><circle cx="18" cy="16" r=".8"/></g></g><g transform="translate(20 20) scale(1)"><g fill="none" stroke="var(--accent)"><path d="M5 7 L8 9 L12 8 L16 10 L18 7"/><path d="M16 10 L16 16 L8 15 L8 9"/><path d="M8 15 L6 17"/></g><g fill="var(--accent-soft)"><circle cx="5" cy="7" r=".8"/><circle cx="8" cy="9" r="1"/><circle cx="12" cy="8" r=".8"/><circle cx="16" cy="10" r=".8"/><circle cx="18" cy="7" r=".8"/><circle cx="16" cy="16" r=".8"/><circle cx="8" cy="15" r=".8"/><circle cx="6" cy="17" r=".8"/></g></g></g><g fill="var(--accent)" opacity=".85"><circle cx="18.6" cy="31.6" r=".6"/><circle cx="17.3" cy="20.9" r=".8"/><circle cx="40.9" cy="18.8" r=".6"/><circle cx="19.6" cy="18.1" r=".6"/><circle cx="18.1" cy="17.6" r="1"/></g></svg>
