<svg class="sigil" viewBox="0 0 64 64" role="img" aria-labelledby="s-title s-desc" xmlns="http://www.w3.org/2000/svg"><title id="s-title">Sigil of the Archerfish</title><desc id="s-desc">Virgo crossed with the Year of the Dragon, a Earth animal.</desc><circle cx="32" cy="32" r="26" fill="var(--glow)" opacity=".5"/><g stroke="var(--accent)" stroke-width="1" stroke-linecap="round" fill="none" opacity=".75"><path d="M19.9 10.1 L53.9 19.9 L44.1 53.9 L10.1 44.1 Z"/></g><g fill="var(--accent-soft)"><circle cx="19.9" cy="10.1" r="1.1"/><circle cx="53.9" cy="19.9" r="1.1"/><circle cx="44.1" cy="53.9" r="1.1"/><circle cx="10.1" cy="44.1" r="1.1"/></g><g stroke-width="var(--glyph-stroke,1.5)" stroke-linecap="round" stroke-linejoin="round"><g transform="translate(16 17) scale(1.3)" opacity=".55"><g fill="none" stroke="var(--accent)"><path d="M5 9 L9 11 L13 10 L16 13"/><path d="M16 13 L18 17"/><path d="M13 10 L12 15"/></g><g fill="var(--accent-soft)"><circle cx="5" cy="9" r=".8"/><circle cx="9" cy="11" r=".8"/><circle cx="13" cy="10" r=".8"/><circle cx="16" cy="13" r="1"/><circle cx="18" cy="17" r=".8"/><circle cx="12" cy="15" r=".8"/></g></g><g transform="translate(20 20) scale(1)"><g fill="none" stroke="var(--accent)"><path d="M5 17 L7 13 L11 14 L13 10 L17 9 L19 5"/><path d="M17 9 L16 12"/></g><g fill="var(--accent-soft)"><circle cx="5" cy="17" r=".8"/><circle cx="7" cy="13" r=".8"/><circle cx="11" cy="14" r=".8"/><circle cx="13" cy="10" r=".8"/><circle cx="17" cy="9" r=".8"/><circle cx="19" cy="5" r="1"/><circle cx="16" cy="12" r=".8"/></g></g></g><g fill="none" stroke="var(--accent)" stroke-width=".5" opacity=".4"><path d="M19.2 38.9 L44.7 24.8"/></g><g fill="var(--accent)" opacity=".85"><circle cx="19.2" cy="38.9" r="1"/><circle cx="44.7" cy="24.8" r=".8"/><circle cx="15.7" cy="29.8" r="1"/></g></svg>
