<svg class="sigil" viewBox="0 0 64 64" role="img" aria-labelledby="s-title s-desc" xmlns="http://www.w3.org/2000/svg"><title id="s-title">Sigil of the Asian Elephant</title><desc id="s-desc">Cancer crossed with the Year of the Ox, a Water animal.</desc><circle cx="32" cy="32" r="26" fill="var(--glow)" opacity=".5"/><g stroke="var(--accent)" stroke-width="1" stroke-linecap="round" fill="none" opacity=".8"><path d="M47.1 50.7 L49 53 M26.8 55.4 L26.2 58.4 M10.5 42.6 L7.8 43.9 M10.3 21.7 L7.6 20.5 M26.5 8.6 L25.8 5.7 M46.8 13.1 L48.7 10.8 M56 31.8 L59 31.8"/></g><g stroke-width="var(--glyph-stroke,1.5)" stroke-linecap="round" stroke-linejoin="round"><g transform="translate(16 17) scale(1.3)" opacity=".55"><g fill="none" stroke="var(--accent)"><path d="M7 5 L12 8 L17 5"/><path d="M12 8 L12 14"/><path d="M8 18 L12 14 L16 18"/></g><g fill="var(--accent-soft)"><circle cx="12" cy="14" r="1"/><circle cx="12" cy="8" r=".8"/><circle cx="7" cy="5" r=".8"/><circle cx="17" cy="5" r=".8"/><circle cx="8" cy="18" r=".8"/><circle cx="16" cy="18" r=".8"/></g></g><g transform="translate(20 20) scale(1)"><g fill="none" stroke="var(--accent)"><path d="M6 5 L9 7 L6 9"/><path d="M9 7 L12 10 L17 9 L17 16 L10 16 L12 10"/></g><g fill="var(--accent-soft)"><circle cx="6" cy="9" r=".8"/><circle cx="9" cy="7" r="1"/><circle cx="6" cy="5" r=".8"/><circle cx="12" cy="10" r=".8"/><circle cx="17" cy="9" r=".8"/><circle cx="17" cy="16" r=".8"/><circle cx="10" cy="16" r=".8"/></g></g></g><g fill="none" stroke="var(--accent)" stroke-width=".5" opacity=".4"><path d="M39.7 26 L45.3 37.7 M30.8 51.7 L25.1 48.6"/></g><g fill="var(--accent)" opacity=".85"><circle cx="39.7" cy="26" r=".7"/><circle cx="45.3" cy="37.7" r="1"/><circle cx="39.8" cy="42.9" r=".9"/><circle cx="48" cy="36.5" r=".7"/><circle cx="30.8" cy="51.7" r=".9"/><circle cx="25.1" cy="48.6" r="1"/></g></svg>
