<svg class="sigil" viewBox="0 0 64 64" role="img" aria-labelledby="s-title s-desc" xmlns="http://www.w3.org/2000/svg"><title id="s-title">Sigil of the Aye-aye</title><desc id="s-desc">Scorpio crossed with the Year of the Monkey, a Water animal.</desc><circle cx="32" cy="32" r="26" fill="var(--glow)" opacity=".5"/><g stroke="var(--accent)" stroke-width="1" stroke-linecap="round" fill="none" opacity=".8"><path d="M49.8 48.1 L52.1 50.1 M30.6 56 L30.4 59 M12.4 45.8 L9.9 47.5 M9 25.3 L6.1 24.4 M22.9 9.8 L21.8 7 M43.7 11 L45.1 8.4 M55.7 28.1 L58.6 27.6"/></g><g stroke-width="var(--glyph-stroke,1.5)" stroke-linecap="round" stroke-linejoin="round"><g transform="translate(16 17) scale(1.3)" opacity=".55"><g fill="none" stroke="var(--accent)"><path d="M5 7 L6 11 L9 13 L13 13 L16 15 L18 18 L16 20"/><path d="M8 8 L9 13"/></g><g fill="var(--accent-soft)"><circle cx="5" cy="7" r=".8"/><circle cx="6" cy="11" r=".8"/><circle cx="9" cy="13" r=".8"/><circle cx="13" cy="13" r="1"/><circle cx="16" cy="15" r=".8"/><circle cx="18" cy="18" r=".8"/><circle cx="16" cy="20" r=".8"/><circle cx="8" cy="8" r=".8"/></g></g><g transform="translate(20 20) scale(1)"><g fill="none" stroke="var(--accent)"><path d="M9 6 L7 10 L10 13 L14 12 L16 16 L13 18"/><path d="M9 6 L13 9 L14 12"/></g><g fill="var(--accent-soft)"><circle cx="9" cy="6" r="1"/><circle cx="7" cy="10" r=".8"/><circle cx="10" cy="13" r=".8"/><circle cx="14" cy="12" r=".8"/><circle cx="16" cy="16" r=".8"/><circle cx="13" cy="18" r=".8"/><circle cx="13" cy="9" r=".8"/></g></g></g><g fill="none" stroke="var(--accent)" stroke-width=".5" opacity=".4"><path d="M45.2 20.6 L17.6 36.2 M40.3 27 L13 26.6"/></g><g fill="var(--accent)" opacity=".85"><circle cx="45.2" cy="20.6" r=".7"/><circle cx="17.6" cy="36.2" r=".7"/><circle cx="40.3" cy="27" r="1"/><circle cx="13" cy="26.6" r="1"/><circle cx="27.4" cy="12.7" r=".9"/></g></svg>
