<svg class="sigil" viewBox="0 0 64 64" role="img" aria-labelledby="s-title s-desc" xmlns="http://www.w3.org/2000/svg"><title id="s-title">Sigil of the Babirusa</title><desc id="s-desc">Leo crossed with the Year of the Pig, a Fire animal.</desc><circle cx="32" cy="32" r="26" fill="var(--glow)" opacity=".5"/><g stroke="var(--accent)" stroke-width="1" stroke-linecap="round" fill="none" opacity=".8"><path d="M15.3 13.4 L13.3 11.2 M44.5 10.3 L46 7.8 M56.5 37.2 L59.4 37.8 M34.6 56.9 L34.9 59.8 M9.2 42.2 L6.4 43.4"/></g><g stroke-width="var(--glyph-stroke,1.5)" stroke-linecap="round" stroke-linejoin="round"><g transform="translate(16 17) scale(1.3)" opacity=".55"><g fill="none" stroke="var(--accent)"><path d="M7 7 L6 11 L8 14 L12 15 L15 13"/><path d="M15 13 L15 18 L19 17"/><path d="M10 9 L12 15"/></g><g fill="var(--accent-soft)"><circle cx="7" cy="7" r=".8"/><circle cx="6" cy="11" r=".8"/><circle cx="8" cy="14" r=".8"/><circle cx="12" cy="15" r=".8"/><circle cx="15" cy="13" r="1"/><circle cx="15" cy="18" r=".8"/><circle cx="19" cy="17" r=".8"/><circle cx="10" cy="9" r=".8"/></g></g><g transform="translate(20 20) scale(1)"><g fill="none" stroke="var(--accent)"><path d="M7 9 L9 12"/><path d="M6 11 L9 12 L14 11 L17 12"/><path d="M17 12 L16 17 L9 17 L9 12"/></g><g fill="var(--accent-soft)"><circle cx="7" cy="9" r=".8"/><circle cx="6" cy="11" r=".8"/><circle cx="9" cy="12" r="1"/><circle cx="14" cy="11" r=".8"/><circle cx="17" cy="12" r=".8"/><circle cx="16" cy="17" r=".8"/><circle cx="9" cy="17" r=".8"/></g></g></g><g fill="none" stroke="var(--accent)" stroke-width=".5" opacity=".4"><path d="M32.1 49 L37.4 16.2"/></g><g fill="var(--accent)" opacity=".85"><circle cx="32.1" cy="49" r=".8"/><circle cx="37.4" cy="16.2" r=".7"/><circle cx="42.4" cy="41.5" r=".9"/></g></svg>
