<svg class="sigil" viewBox="0 0 64 64" role="img" aria-labelledby="s-title s-desc" xmlns="http://www.w3.org/2000/svg"><title id="s-title">Sigil of the Banded Mongoose</title><desc id="s-desc">Taurus crossed with the Year of the Dog, a Earth animal.</desc><circle cx="32" cy="32" r="26" fill="var(--glow)" opacity=".5"/><g stroke="var(--accent)" stroke-width="1" stroke-linecap="round" fill="none" opacity=".75"><path d="M36.3 7.4 L56.6 36.3 L27.7 56.6 L7.4 27.7 Z"/></g><g fill="var(--accent-soft)"><circle cx="36.3" cy="7.4" r="1.1"/><circle cx="56.6" cy="36.3" r="1.1"/><circle cx="27.7" cy="56.6" r="1.1"/><circle cx="7.4" cy="27.7" r="1.1"/></g><g stroke-width="var(--glyph-stroke,1.5)" stroke-linecap="round" stroke-linejoin="round"><g transform="translate(16 17) scale(1.3)" opacity=".55"><g fill="none" stroke="var(--accent)"><path d="M6 8 L9 12 L12 15 L15 12 L18 8"/></g><g fill="var(--accent-soft)"><circle cx="12" cy="15" r="1"/><circle cx="9" cy="12" r=".8"/><circle cx="6" cy="8" r=".8"/><circle cx="15" cy="12" r=".8"/><circle cx="18" cy="8" r=".8"/><circle cx="12" cy="15" r=".8"/></g></g><g transform="translate(20 20) scale(1)"><g fill="none" stroke="var(--accent)"><path d="M8 6 L9 10"/><path d="M6 8 L9 10 L14 11 L18 10"/><path d="M18 10 L16 17 L10 16 L14 11"/></g><g fill="var(--accent-soft)"><circle cx="6" cy="8" r=".8"/><circle cx="8" cy="6" r=".8"/><circle cx="9" cy="10" r="1"/><circle cx="14" cy="11" r=".8"/><circle cx="18" cy="10" r=".8"/><circle cx="16" cy="17" r=".8"/><circle cx="10" cy="16" r=".8"/></g></g></g><g fill="none" stroke="var(--accent)" stroke-width=".5" opacity=".4"><path d="M39.4 14.6 L42.3 39.4 M42.3 36.5 L35 19.3 M19.4 21.7 L27.7 40.5"/></g><g fill="var(--accent)" opacity=".85"><circle cx="39.4" cy="14.6" r=".8"/><circle cx="42.3" cy="39.4" r=".6"/><circle cx="42.3" cy="36.5" r=".7"/><circle cx="35" cy="19.3" r=".9"/><circle cx="19.4" cy="21.7" r=".7"/><circle cx="27.7" cy="40.5" r=".9"/></g></svg>
