<svg class="sigil" viewBox="0 0 64 64" role="img" aria-labelledby="s-title s-desc" xmlns="http://www.w3.org/2000/svg"><title id="s-title">Sigil of the Bearded Vulture</title><desc id="s-desc">Capricorn crossed with the Year of the Dragon, a Earth animal.</desc><circle cx="32" cy="32" r="26" fill="var(--glow)" opacity=".5"/><g stroke="var(--accent)" stroke-width="1" stroke-linecap="round" fill="none" opacity=".75"><path d="M53 45.6 L18.4 53 L11 18.4 L45.6 11 Z"/></g><g fill="var(--accent-soft)"><circle cx="53" cy="45.6" r="1.1"/><circle cx="18.4" cy="53" r="1.1"/><circle cx="11" cy="18.4" r="1.1"/><circle cx="45.6" cy="11" r="1.1"/></g><g stroke-width="var(--glyph-stroke,1.5)" stroke-linecap="round" stroke-linejoin="round"><g transform="translate(16 17) scale(1.3)" opacity=".55"><g fill="none" stroke="var(--accent)"><path d="M6 8 L10 6 L14 10 L18 17 L9 15 L6 8"/></g><g fill="var(--accent-soft)"><circle cx="6" cy="8" r=".8"/><circle cx="10" cy="6" r="1"/><circle cx="14" cy="10" r=".8"/><circle cx="18" cy="17" r=".8"/><circle cx="9" cy="15" r=".8"/><circle cx="6" cy="8" r=".8"/></g></g><g transform="translate(20 20) scale(1)"><g fill="none" stroke="var(--accent)"><path d="M5 17 L7 13 L11 14 L13 10 L17 9 L19 5"/><path d="M17 9 L16 12"/></g><g fill="var(--accent-soft)"><circle cx="5" cy="17" r=".8"/><circle cx="7" cy="13" r=".8"/><circle cx="11" cy="14" r=".8"/><circle cx="13" cy="10" r=".8"/><circle cx="17" cy="9" r=".8"/><circle cx="19" cy="5" r="1"/><circle cx="16" cy="12" r=".8"/></g></g></g><g fill="var(--accent)" opacity=".85"><circle cx="42.3" cy="31.1" r="1"/><circle cx="43.4" cy="29.1" r=".7"/><circle cx="35.9" cy="21.1" r=".8"/></g></svg>
