<svg class="sigil" viewBox="0 0 64 64" role="img" aria-labelledby="s-title s-desc" xmlns="http://www.w3.org/2000/svg"><title id="s-title">Sigil of the Blackbuck</title><desc id="s-desc">Leo crossed with the Year of the Horse, a Fire animal.</desc><circle cx="32" cy="32" r="26" fill="var(--glow)" opacity=".5"/><g stroke="var(--accent)" stroke-width="1" stroke-linecap="round" fill="none" opacity=".8"><path d="M47 12 L48.9 9.6 M55.6 40.1 L58.5 41.1 M31.6 57 L31.5 60 M8.1 39.3 L5.2 40.2 M17.7 11.5 L15.9 9.1"/></g><g stroke-width="var(--glyph-stroke,1.5)" stroke-linecap="round" stroke-linejoin="round"><g transform="translate(16 17) scale(1.3)" opacity=".55"><g fill="none" stroke="var(--accent)"><path d="M7 7 L6 11 L8 14 L12 15 L15 13"/><path d="M15 13 L15 18 L19 17"/><path d="M10 9 L12 15"/></g><g fill="var(--accent-soft)"><circle cx="7" cy="7" r=".8"/><circle cx="6" cy="11" r=".8"/><circle cx="8" cy="14" r=".8"/><circle cx="12" cy="15" r=".8"/><circle cx="15" cy="13" r="1"/><circle cx="15" cy="18" r=".8"/><circle cx="19" cy="17" r=".8"/><circle cx="10" cy="9" r=".8"/></g></g><g transform="translate(20 20) scale(1)"><g fill="none" stroke="var(--accent)"><path d="M7 5 L9 9 L7 12"/><path d="M9 9 L12 10 L17 9"/><path d="M17 9 L16 17 L10 16 L12 10"/></g><g fill="var(--accent-soft)"><circle cx="7" cy="5" r=".8"/><circle cx="9" cy="9" r="1"/><circle cx="7" cy="12" r=".8"/><circle cx="12" cy="10" r=".8"/><circle cx="17" cy="9" r=".8"/><circle cx="16" cy="17" r=".8"/><circle cx="10" cy="16" r=".8"/></g></g></g><g fill="none" stroke="var(--accent)" stroke-width=".5" opacity=".4"><path d="M34 45.8 L26.1 17.2 M32.9 18.4 L41.1 32.9"/></g><g fill="var(--accent)" opacity=".85"><circle cx="34" cy="45.8" r="1"/><circle cx="26.1" cy="17.2" r=".9"/><circle cx="32.9" cy="18.4" r=".9"/><circle cx="41.1" cy="32.9" r="1"/><circle cx="41.9" cy="15" r=".7"/><circle cx="46.6" cy="20.4" r="1"/></g></svg>
