<svg class="sigil" viewBox="0 0 64 64" role="img" aria-labelledby="s-title s-desc" xmlns="http://www.w3.org/2000/svg"><title id="s-title">Sigil of the Blue Glaucus</title><desc id="s-desc">Pisces crossed with the Year of the Pig, a Water animal.</desc><circle cx="32" cy="32" r="26" fill="var(--glow)" opacity=".5"/><g stroke="var(--accent)" stroke-width="1" stroke-linecap="round" fill="none" opacity=".8"><path d="M8 31.2 L5 31.1 M17.7 12.7 L15.9 10.3 M38.2 8.8 L38.9 5.9 M54 22.3 L56.7 21.1 M53.2 43.2 L55.9 44.6 M36.5 55.6 L37.1 58.5 M16.4 50.2 L14.4 52.5"/></g><g stroke-width="var(--glyph-stroke,1.5)" stroke-linecap="round" stroke-linejoin="round"><g transform="translate(16 17) scale(1.3)" opacity=".55"><g fill="none" stroke="var(--accent)"><path d="M6 5 L5 9 L6 13"/><path d="M6 5 L12 9 L18 5"/><path d="M6 13 L12 9 L18 13"/><path d="M18 5 L19 9 L18 13"/></g><g fill="var(--accent-soft)"><circle cx="6" cy="5" r=".8"/><circle cx="5" cy="9" r=".8"/><circle cx="6" cy="13" r=".8"/><circle cx="12" cy="9" r="1"/><circle cx="18" cy="5" r=".8"/><circle cx="19" cy="9" r=".8"/><circle cx="18" cy="13" r=".8"/></g></g><g transform="translate(20 20) scale(1)"><g fill="none" stroke="var(--accent)"><path d="M7 9 L9 12"/><path d="M6 11 L9 12 L14 11 L17 12"/><path d="M17 12 L16 17 L9 17 L9 12"/></g><g fill="var(--accent-soft)"><circle cx="7" cy="9" r=".8"/><circle cx="6" cy="11" r=".8"/><circle cx="9" cy="12" r="1"/><circle cx="14" cy="11" r=".8"/><circle cx="17" cy="12" r=".8"/><circle cx="16" cy="17" r=".8"/><circle cx="9" cy="17" r=".8"/></g></g></g><g fill="var(--accent)" opacity=".85"><circle cx="41.1" cy="23.5" r="1"/><circle cx="28.4" cy="42" r="1"/><circle cx="33.6" cy="17.6" r=".9"/><circle cx="19.1" cy="24.6" r=".7"/><circle cx="39.6" cy="23.9" r=".9"/></g></svg>
