<svg class="sigil" viewBox="0 0 64 64" role="img" aria-labelledby="s-title s-desc" xmlns="http://www.w3.org/2000/svg"><title id="s-title">Sigil of the Bongo</title><desc id="s-desc">Taurus crossed with the Year of the Pig, a Earth animal.</desc><circle cx="32" cy="32" r="26" fill="var(--glow)" opacity=".5"/><g stroke="var(--accent)" stroke-width="1" stroke-linecap="round" fill="none" opacity=".75"><path d="M24.7 55.9 L8.1 24.7 L39.3 8.1 L55.9 39.3 Z"/></g><g fill="var(--accent-soft)"><circle cx="24.7" cy="55.9" r="1.1"/><circle cx="8.1" cy="24.7" r="1.1"/><circle cx="39.3" cy="8.1" r="1.1"/><circle cx="55.9" cy="39.3" r="1.1"/></g><g stroke-width="var(--glyph-stroke,1.5)" stroke-linecap="round" stroke-linejoin="round"><g transform="translate(16 17) scale(1.3)" opacity=".55"><g fill="none" stroke="var(--accent)"><path d="M6 8 L9 12 L12 15 L15 12 L18 8"/></g><g fill="var(--accent-soft)"><circle cx="12" cy="15" r="1"/><circle cx="9" cy="12" r=".8"/><circle cx="6" cy="8" r=".8"/><circle cx="15" cy="12" r=".8"/><circle cx="18" cy="8" r=".8"/><circle cx="12" cy="15" r=".8"/></g></g><g transform="translate(20 20) scale(1)"><g fill="none" stroke="var(--accent)"><path d="M7 9 L9 12"/><path d="M6 11 L9 12 L14 11 L17 12"/><path d="M17 12 L16 17 L9 17 L9 12"/></g><g fill="var(--accent-soft)"><circle cx="7" cy="9" r=".8"/><circle cx="6" cy="11" r=".8"/><circle cx="9" cy="12" r="1"/><circle cx="14" cy="11" r=".8"/><circle cx="17" cy="12" r=".8"/><circle cx="16" cy="17" r=".8"/><circle cx="9" cy="17" r=".8"/></g></g></g><g fill="none" stroke="var(--accent)" stroke-width=".5" opacity=".4"><path d="M46.7 36 L26.5 50 M35 46.1 L21.1 47.1"/></g><g fill="var(--accent)" opacity=".85"><circle cx="46.7" cy="36" r=".9"/><circle cx="26.5" cy="50" r=".9"/><circle cx="35" cy="46.1" r=".8"/><circle cx="21.1" cy="47.1" r=".9"/><circle cx="30.5" cy="21.8" r="1"/></g></svg>
