<svg class="sigil" viewBox="0 0 64 64" role="img" aria-labelledby="s-title s-desc" xmlns="http://www.w3.org/2000/svg"><title id="s-title">Sigil of the Border Collie</title><desc id="s-desc">Virgo crossed with the Year of the Dog, a Earth animal.</desc><circle cx="32" cy="32" r="26" fill="var(--glow)" opacity=".5"/><g stroke="var(--accent)" stroke-width="1" stroke-linecap="round" fill="none" opacity=".75"><path d="M9.7 20.7 L43.3 9.7 L54.3 43.3 L20.7 54.3 Z"/></g><g fill="var(--accent-soft)"><circle cx="9.7" cy="20.7" r="1.1"/><circle cx="43.3" cy="9.7" r="1.1"/><circle cx="54.3" cy="43.3" r="1.1"/><circle cx="20.7" cy="54.3" r="1.1"/></g><g stroke-width="var(--glyph-stroke,1.5)" stroke-linecap="round" stroke-linejoin="round"><g transform="translate(16 17) scale(1.3)" opacity=".55"><g fill="none" stroke="var(--accent)"><path d="M5 9 L9 11 L13 10 L16 13"/><path d="M16 13 L18 17"/><path d="M13 10 L12 15"/></g><g fill="var(--accent-soft)"><circle cx="5" cy="9" r=".8"/><circle cx="9" cy="11" r=".8"/><circle cx="13" cy="10" r=".8"/><circle cx="16" cy="13" r="1"/><circle cx="18" cy="17" r=".8"/><circle cx="12" cy="15" r=".8"/></g></g><g transform="translate(20 20) scale(1)"><g fill="none" stroke="var(--accent)"><path d="M8 6 L9 10"/><path d="M6 8 L9 10 L14 11 L18 10"/><path d="M18 10 L16 17 L10 16 L14 11"/></g><g fill="var(--accent-soft)"><circle cx="6" cy="8" r=".8"/><circle cx="8" cy="6" r=".8"/><circle cx="9" cy="10" r="1"/><circle cx="14" cy="11" r=".8"/><circle cx="18" cy="10" r=".8"/><circle cx="16" cy="17" r=".8"/><circle cx="10" cy="16" r=".8"/></g></g></g><g fill="none" stroke="var(--accent)" stroke-width=".5" opacity=".4"><path d="M41.3 35.9 L27.6 24"/></g><g fill="var(--accent)" opacity=".85"><circle cx="51.6" cy="33.2" r=".6"/><circle cx="41.1" cy="41.8" r="1"/><circle cx="41.3" cy="35.9" r="1"/><circle cx="27.6" cy="24" r="1"/><circle cx="17.7" cy="45.4" r=".7"/></g></svg>
