<svg class="sigil" viewBox="0 0 64 64" role="img" aria-labelledby="s-title s-desc" xmlns="http://www.w3.org/2000/svg"><title id="s-title">Sigil of the Caracal</title><desc id="s-desc">Sagittarius crossed with the Year of the Tiger, a Fire animal.</desc><circle cx="32" cy="32" r="26" fill="var(--glow)" opacity=".5"/><g stroke="var(--accent)" stroke-width="1" stroke-linecap="round" fill="none" opacity=".8"><path d="M38 7.7 L38.8 4.8 M56.9 30.3 L59.9 30 M41.4 55.2 L42.5 58 M12.8 48.1 L10.6 50 M10.8 18.8 L8.3 17.2"/></g><g stroke-width="var(--glyph-stroke,1.5)" stroke-linecap="round" stroke-linejoin="round"><g transform="translate(16 17) scale(1.3)" opacity=".55"><g fill="none" stroke="var(--accent)"><path d="M6 6 L9 12 L6 18"/><path d="M9 12 L18 7"/><path d="M15 10 L12 13 L9 16"/></g><g fill="var(--accent-soft)"><circle cx="6" cy="6" r=".8"/><circle cx="6" cy="18" r=".8"/><circle cx="9" cy="12" r="1"/><circle cx="18" cy="7" r=".8"/><circle cx="15" cy="10" r=".8"/><circle cx="12" cy="13" r=".8"/><circle cx="9" cy="16" r=".8"/></g></g><g transform="translate(20 20) scale(1)"><g fill="none" stroke="var(--accent)"><path d="M5 7 L8 9 L12 8 L16 10 L18 7"/><path d="M16 10 L16 16 L8 15 L8 9"/><path d="M8 15 L6 17"/></g><g fill="var(--accent-soft)"><circle cx="5" cy="7" r=".8"/><circle cx="8" cy="9" r="1"/><circle cx="12" cy="8" r=".8"/><circle cx="16" cy="10" r=".8"/><circle cx="18" cy="7" r=".8"/><circle cx="16" cy="16" r=".8"/><circle cx="8" cy="15" r=".8"/><circle cx="6" cy="17" r=".8"/></g></g></g><g fill="none" stroke="var(--accent)" stroke-width=".5" opacity=".4"><path d="M40.7 17.3 L45.3 17.8"/></g><g fill="var(--accent)" opacity=".85"><circle cx="40.7" cy="17.3" r="1"/><circle cx="45.3" cy="17.8" r=".7"/><circle cx="48.4" cy="37.4" r=".9"/></g></svg>
