<svg class="sigil" viewBox="0 0 64 64" role="img" aria-labelledby="s-title s-desc" xmlns="http://www.w3.org/2000/svg"><title id="s-title">Sigil of the Chamois</title><desc id="s-desc">Aries crossed with the Year of the Goat, a Fire animal.</desc><circle cx="32" cy="32" r="26" fill="var(--glow)" opacity=".5"/><g stroke="var(--accent)" stroke-width="1" stroke-linecap="round" fill="none" opacity=".8"><path d="M28.1 7.3 L27.6 4.3 M54.3 20.7 L56.9 19.3 M49.7 49.7 L51.8 51.8 M20.7 54.3 L19.3 56.9 M7.3 28.1 L4.3 27.6"/></g><g stroke-width="var(--glyph-stroke,1.5)" stroke-linecap="round" stroke-linejoin="round"><g transform="translate(16 17) scale(1.3)" opacity=".55"><g fill="none" stroke="var(--accent)"><path d="M6 16 L9 10 L13 8 L16 11"/><path d="M13 8 L16 11 L19 9"/></g><g fill="var(--accent-soft)"><circle cx="6" cy="16" r=".8"/><circle cx="9" cy="10" r=".8"/><circle cx="13" cy="8" r="1"/><circle cx="16" cy="11" r=".8"/><circle cx="19" cy="9" r=".8"/></g></g><g transform="translate(20 20) scale(1)"><g fill="none" stroke="var(--accent)"><path d="M6 7 L9 9 L7 12"/><path d="M9 9 L13 10 L18 10"/><path d="M18 10 L16 17 L10 16 L13 10"/></g><g fill="var(--accent-soft)"><circle cx="6" cy="7" r=".8"/><circle cx="9" cy="9" r="1"/><circle cx="7" cy="12" r=".8"/><circle cx="13" cy="10" r=".8"/><circle cx="18" cy="10" r=".8"/><circle cx="16" cy="17" r=".8"/><circle cx="10" cy="16" r=".8"/></g></g></g><g fill="none" stroke="var(--accent)" stroke-width=".5" opacity=".4"><path d="M45.1 23.4 L47.5 37.8"/></g><g fill="var(--accent)" opacity=".85"><circle cx="45.1" cy="23.4" r=".8"/><circle cx="47.5" cy="37.8" r=".8"/><circle cx="30.9" cy="17.7" r="1"/><circle cx="19.4" cy="36.1" r=".9"/></g></svg>
