<svg class="sigil" viewBox="0 0 64 64" role="img" aria-labelledby="s-title s-desc" xmlns="http://www.w3.org/2000/svg"><title id="s-title">Sigil of the Clouded Leopard</title><desc id="s-desc">Scorpio crossed with the Year of the Tiger, a Water animal.</desc><circle cx="32" cy="32" r="26" fill="var(--glow)" opacity=".5"/><g stroke="var(--accent)" stroke-width="1" stroke-linecap="round" fill="none" opacity=".8"><path d="M27.4 8.4 L26.8 5.5 M47.6 13.7 L49.5 11.4 M56 32.8 L59 32.9 M46.3 51.2 L48.1 53.6 M25.9 55.2 L25.1 58.1 M10.1 41.7 L7.3 42.9 M10.7 20.9 L8.1 19.5"/></g><g stroke-width="var(--glyph-stroke,1.5)" stroke-linecap="round" stroke-linejoin="round"><g transform="translate(16 17) scale(1.3)" opacity=".55"><g fill="none" stroke="var(--accent)"><path d="M5 7 L6 11 L9 13 L13 13 L16 15 L18 18 L16 20"/><path d="M8 8 L9 13"/></g><g fill="var(--accent-soft)"><circle cx="5" cy="7" r=".8"/><circle cx="6" cy="11" r=".8"/><circle cx="9" cy="13" r=".8"/><circle cx="13" cy="13" r="1"/><circle cx="16" cy="15" r=".8"/><circle cx="18" cy="18" r=".8"/><circle cx="16" cy="20" r=".8"/><circle cx="8" cy="8" r=".8"/></g></g><g transform="translate(20 20) scale(1)"><g fill="none" stroke="var(--accent)"><path d="M5 7 L8 9 L12 8 L16 10 L18 7"/><path d="M16 10 L16 16 L8 15 L8 9"/><path d="M8 15 L6 17"/></g><g fill="var(--accent-soft)"><circle cx="5" cy="7" r=".8"/><circle cx="8" cy="9" r="1"/><circle cx="12" cy="8" r=".8"/><circle cx="16" cy="10" r=".8"/><circle cx="18" cy="7" r=".8"/><circle cx="16" cy="16" r=".8"/><circle cx="8" cy="15" r=".8"/><circle cx="6" cy="17" r=".8"/></g></g></g><g fill="none" stroke="var(--accent)" stroke-width=".5" opacity=".4"><path d="M35.4 22.8 L28.4 40.5 M16.1 24.1 L32.3 50.1"/></g><g fill="var(--accent)" opacity=".85"><circle cx="35.4" cy="22.8" r="1"/><circle cx="28.4" cy="40.5" r=".7"/><circle cx="16.1" cy="24.1" r=".8"/><circle cx="32.3" cy="50.1" r=".9"/><circle cx="29.2" cy="12.4" r=".9"/><circle cx="20" cy="34.7" r="1"/></g></svg>
