<svg class="sigil" viewBox="0 0 64 64" role="img" aria-labelledby="s-title s-desc" xmlns="http://www.w3.org/2000/svg"><title id="s-title">Sigil of the Crowned Crane</title><desc id="s-desc">Libra crossed with the Year of the Rabbit, a Air animal.</desc><circle cx="32" cy="32" r="26" fill="var(--glow)" opacity=".5"/><circle cx="32" cy="32" r="25" stroke="var(--accent)" stroke-width="1" stroke-linecap="round" fill="none" stroke-dasharray="3 4" opacity=".75" transform="rotate(25 32 32)"/><g stroke-width="var(--glyph-stroke,1.5)" stroke-linecap="round" stroke-linejoin="round"><g transform="translate(16 17) scale(1.3)" opacity=".55"><g fill="none" stroke="var(--accent)"><path d="M6 11 L12 7 L18 11"/><path d="M6 11 L6 16"/><path d="M18 11 L18 16"/></g><g fill="var(--accent-soft)"><circle cx="12" cy="7" r="1"/><circle cx="6" cy="11" r=".8"/><circle cx="18" cy="11" r=".8"/><circle cx="6" cy="16" r=".8"/><circle cx="18" cy="16" r=".8"/></g></g><g transform="translate(20 20) scale(1)"><g fill="none" stroke="var(--accent)"><path d="M8 6 L10 10 L12 6"/><path d="M10 10 L8 15"/><path d="M10 10 L14 14 L16 17"/></g><g fill="var(--accent-soft)"><circle cx="8" cy="6" r=".8"/><circle cx="10" cy="10" r="1"/><circle cx="12" cy="6" r=".8"/><circle cx="10" cy="10" r=".8"/><circle cx="8" cy="15" r=".8"/><circle cx="14" cy="14" r=".8"/><circle cx="16" cy="17" r=".8"/></g></g></g><g fill="var(--accent)" opacity=".85"><circle cx="16.7" cy="39.4" r=".8"/><circle cx="38.2" cy="20.3" r="1"/><circle cx="43.4" cy="43.8" r=".9"/><circle cx="44.8" cy="38.6" r="1"/></g></svg>
