<svg class="sigil" viewBox="0 0 64 64" role="img" aria-labelledby="s-title s-desc" xmlns="http://www.w3.org/2000/svg"><title id="s-title">Sigil of the Culpeo</title><desc id="s-desc">Sagittarius crossed with the Year of the Dog, a Fire animal.</desc><circle cx="32" cy="32" r="26" fill="var(--glow)" opacity=".5"/><g stroke="var(--accent)" stroke-width="1" stroke-linecap="round" fill="none" opacity=".8"><path d="M10.1 19.9 L7.5 18.4 M36.8 7.5 L37.3 4.5 M56.8 29 L59.8 28.6 M42.6 54.7 L43.8 57.4 M13.7 49 L11.5 51.1"/></g><g stroke-width="var(--glyph-stroke,1.5)" stroke-linecap="round" stroke-linejoin="round"><g transform="translate(16 17) scale(1.3)" opacity=".55"><g fill="none" stroke="var(--accent)"><path d="M6 6 L9 12 L6 18"/><path d="M9 12 L18 7"/><path d="M15 10 L12 13 L9 16"/></g><g fill="var(--accent-soft)"><circle cx="6" cy="6" r=".8"/><circle cx="6" cy="18" r=".8"/><circle cx="9" cy="12" r="1"/><circle cx="18" cy="7" r=".8"/><circle cx="15" cy="10" r=".8"/><circle cx="12" cy="13" r=".8"/><circle cx="9" cy="16" r=".8"/></g></g><g transform="translate(20 20) scale(1)"><g fill="none" stroke="var(--accent)"><path d="M8 6 L9 10"/><path d="M6 8 L9 10 L14 11 L18 10"/><path d="M18 10 L16 17 L10 16 L14 11"/></g><g fill="var(--accent-soft)"><circle cx="6" cy="8" r=".8"/><circle cx="8" cy="6" r=".8"/><circle cx="9" cy="10" r="1"/><circle cx="14" cy="11" r=".8"/><circle cx="18" cy="10" r=".8"/><circle cx="16" cy="17" r=".8"/><circle cx="10" cy="16" r=".8"/></g></g></g><g fill="none" stroke="var(--accent)" stroke-width=".5" opacity=".4"><path d="M43.5 38.1 L18.6 27.6"/></g><g fill="var(--accent)" opacity=".85"><circle cx="43.5" cy="38.1" r=".6"/><circle cx="18.6" cy="27.6" r=".9"/><circle cx="32.7" cy="42.3" r=".8"/><circle cx="30.8" cy="46.7" r=".9"/></g></svg>
