<svg class="sigil" viewBox="0 0 64 64" role="img" aria-labelledby="s-title s-desc" xmlns="http://www.w3.org/2000/svg"><title id="s-title">Sigil of the Dingo</title><desc id="s-desc">Aries crossed with the Year of the Dog, a Fire animal.</desc><circle cx="32" cy="32" r="26" fill="var(--glow)" opacity=".5"/><g stroke="var(--accent)" stroke-width="1" stroke-linecap="round" fill="none" opacity=".8"><path d="M55.8 24.3 L58.6 23.3 M46.7 52.2 L48.5 54.7 M17.3 52.2 L15.5 54.7 M8.2 24.3 L5.4 23.3 M32 7 L32 4"/></g><g stroke-width="var(--glyph-stroke,1.5)" stroke-linecap="round" stroke-linejoin="round"><g transform="translate(16 17) scale(1.3)" opacity=".55"><g fill="none" stroke="var(--accent)"><path d="M6 16 L9 10 L13 8 L16 11"/><path d="M13 8 L16 11 L19 9"/></g><g fill="var(--accent-soft)"><circle cx="6" cy="16" r=".8"/><circle cx="9" cy="10" r=".8"/><circle cx="13" cy="8" r="1"/><circle cx="16" cy="11" r=".8"/><circle cx="19" cy="9" r=".8"/></g></g><g transform="translate(20 20) scale(1)"><g fill="none" stroke="var(--accent)"><path d="M8 6 L9 10"/><path d="M6 8 L9 10 L14 11 L18 10"/><path d="M18 10 L16 17 L10 16 L14 11"/></g><g fill="var(--accent-soft)"><circle cx="6" cy="8" r=".8"/><circle cx="8" cy="6" r=".8"/><circle cx="9" cy="10" r="1"/><circle cx="14" cy="11" r=".8"/><circle cx="18" cy="10" r=".8"/><circle cx="16" cy="17" r=".8"/><circle cx="10" cy="16" r=".8"/></g></g></g><g fill="none" stroke="var(--accent)" stroke-width=".5" opacity=".4"><path d="M31.7 20.6 L40.2 26.1"/></g><g fill="var(--accent)" opacity=".85"><circle cx="31.7" cy="20.6" r="1"/><circle cx="40.2" cy="26.1" r=".7"/><circle cx="37.9" cy="47.2" r=".7"/><circle cx="35.5" cy="14.9" r=".7"/><circle cx="46.6" cy="35.2" r=".6"/></g></svg>
