<svg class="sigil" viewBox="0 0 64 64" role="img" aria-labelledby="s-title s-desc" xmlns="http://www.w3.org/2000/svg"><title id="s-title">Sigil of the Dugong</title><desc id="s-desc">Pisces crossed with the Year of the Ox, a Water animal.</desc><circle cx="32" cy="32" r="26" fill="var(--glow)" opacity=".5"/><g stroke="var(--accent)" stroke-width="1" stroke-linecap="round" fill="none" opacity=".8"><path d="M23.4 54.4 L22.3 57.2 M9.1 39.2 L6.3 40.2 M12.1 18.6 L9.6 17 M30 8.1 L29.8 5.1 M49.5 15.5 L51.7 13.5 M55.8 35.4 L58.7 35.8 M44.2 52.7 L45.7 55.3"/></g><g stroke-width="var(--glyph-stroke,1.5)" stroke-linecap="round" stroke-linejoin="round"><g transform="translate(16 17) scale(1.3)" opacity=".55"><g fill="none" stroke="var(--accent)"><path d="M6 5 L5 9 L6 13"/><path d="M6 5 L12 9 L18 5"/><path d="M6 13 L12 9 L18 13"/><path d="M18 5 L19 9 L18 13"/></g><g fill="var(--accent-soft)"><circle cx="6" cy="5" r=".8"/><circle cx="5" cy="9" r=".8"/><circle cx="6" cy="13" r=".8"/><circle cx="12" cy="9" r="1"/><circle cx="18" cy="5" r=".8"/><circle cx="19" cy="9" r=".8"/><circle cx="18" cy="13" r=".8"/></g></g><g transform="translate(20 20) scale(1)"><g fill="none" stroke="var(--accent)"><path d="M6 5 L9 7 L6 9"/><path d="M9 7 L12 10 L17 9 L17 16 L10 16 L12 10"/></g><g fill="var(--accent-soft)"><circle cx="6" cy="9" r=".8"/><circle cx="9" cy="7" r="1"/><circle cx="6" cy="5" r=".8"/><circle cx="12" cy="10" r=".8"/><circle cx="17" cy="9" r=".8"/><circle cx="17" cy="16" r=".8"/><circle cx="10" cy="16" r=".8"/></g></g></g><g fill="none" stroke="var(--accent)" stroke-width=".5" opacity=".4"><path d="M38.6 46.6 L42.4 32.6"/></g><g fill="var(--accent)" opacity=".85"><circle cx="46.5" cy="26" r=".7"/><circle cx="21.9" cy="35.6" r=".9"/><circle cx="38.6" cy="46.6" r=".7"/><circle cx="42.4" cy="32.6" r=".8"/><circle cx="27.5" cy="41.2" r=".8"/><circle cx="19.9" cy="43.8" r=".9"/></g></svg>
