<svg class="sigil" viewBox="0 0 64 64" role="img" aria-labelledby="s-title s-desc" xmlns="http://www.w3.org/2000/svg"><title id="s-title">Sigil of the Elephant Seal</title><desc id="s-desc">Cancer crossed with the Year of the Dog, a Water animal.</desc><circle cx="32" cy="32" r="26" fill="var(--glow)" opacity=".5"/><g stroke="var(--accent)" stroke-width="1" stroke-linecap="round" fill="none" opacity=".8"><path d="M32 56 L32 59 M13.2 47 L10.9 48.8 M8.6 26.7 L5.7 26 M21.6 10.4 L20.3 7.7 M42.4 10.4 L43.7 7.7 M55.4 26.7 L58.3 26 M50.8 47 L53.1 48.8"/></g><g stroke-width="var(--glyph-stroke,1.5)" stroke-linecap="round" stroke-linejoin="round"><g transform="translate(16 17) scale(1.3)" opacity=".55"><g fill="none" stroke="var(--accent)"><path d="M7 5 L12 8 L17 5"/><path d="M12 8 L12 14"/><path d="M8 18 L12 14 L16 18"/></g><g fill="var(--accent-soft)"><circle cx="12" cy="14" r="1"/><circle cx="12" cy="8" r=".8"/><circle cx="7" cy="5" r=".8"/><circle cx="17" cy="5" r=".8"/><circle cx="8" cy="18" r=".8"/><circle cx="16" cy="18" r=".8"/></g></g><g transform="translate(20 20) scale(1)"><g fill="none" stroke="var(--accent)"><path d="M8 6 L9 10"/><path d="M6 8 L9 10 L14 11 L18 10"/><path d="M18 10 L16 17 L10 16 L14 11"/></g><g fill="var(--accent-soft)"><circle cx="6" cy="8" r=".8"/><circle cx="8" cy="6" r=".8"/><circle cx="9" cy="10" r="1"/><circle cx="14" cy="11" r=".8"/><circle cx="18" cy="10" r=".8"/><circle cx="16" cy="17" r=".8"/><circle cx="10" cy="16" r=".8"/></g></g></g><g fill="none" stroke="var(--accent)" stroke-width=".5" opacity=".4"><path d="M31.3 44.5 L40.7 27.5"/></g><g fill="var(--accent)" opacity=".85"><circle cx="30" cy="21.6" r="1"/><circle cx="34.7" cy="13" r=".8"/><circle cx="31.3" cy="44.5" r=".8"/><circle cx="40.7" cy="27.5" r=".9"/><circle cx="14.6" cy="28" r="1"/></g></svg>
