<svg class="sigil" viewBox="0 0 64 64" role="img" aria-labelledby="s-title s-desc" xmlns="http://www.w3.org/2000/svg"><title id="s-title">Sigil of the Elephantnose Fish</title><desc id="s-desc">Scorpio crossed with the Year of the Monkey, a Water animal.</desc><circle cx="32" cy="32" r="26" fill="var(--glow)" opacity=".5"/><g stroke="var(--accent)" stroke-width="1" stroke-linecap="round" fill="none" opacity=".8"><path d="M26.2 8.7 L25.5 5.8 M46.6 12.9 L48.4 10.6 M56 31.5 L59 31.5 M47.3 50.5 L49.3 52.8 M27.1 55.5 L26.5 58.4 M10.6 42.8 L7.9 44.2 M10.2 22 L7.4 20.8"/></g><g stroke-width="var(--glyph-stroke,1.5)" stroke-linecap="round" stroke-linejoin="round"><g transform="translate(16 17) scale(1.3)" opacity=".55"><g fill="none" stroke="var(--accent)"><path d="M5 7 L6 11 L9 13 L13 13 L16 15 L18 18 L16 20"/><path d="M8 8 L9 13"/></g><g fill="var(--accent-soft)"><circle cx="5" cy="7" r=".8"/><circle cx="6" cy="11" r=".8"/><circle cx="9" cy="13" r=".8"/><circle cx="13" cy="13" r="1"/><circle cx="16" cy="15" r=".8"/><circle cx="18" cy="18" r=".8"/><circle cx="16" cy="20" r=".8"/><circle cx="8" cy="8" r=".8"/></g></g><g transform="translate(20 20) scale(1)"><g fill="none" stroke="var(--accent)"><path d="M9 6 L7 10 L10 13 L14 12 L16 16 L13 18"/><path d="M9 6 L13 9 L14 12"/></g><g fill="var(--accent-soft)"><circle cx="9" cy="6" r="1"/><circle cx="7" cy="10" r=".8"/><circle cx="10" cy="13" r=".8"/><circle cx="14" cy="12" r=".8"/><circle cx="16" cy="16" r=".8"/><circle cx="13" cy="18" r=".8"/><circle cx="13" cy="9" r=".8"/></g></g></g><g fill="none" stroke="var(--accent)" stroke-width=".5" opacity=".4"><path d="M31.6 20.1 L42.9 15.3"/></g><g fill="var(--accent)" opacity=".85"><circle cx="31.6" cy="20.1" r="1"/><circle cx="42.9" cy="15.3" r="1"/><circle cx="14.3" cy="39.9" r=".9"/></g></svg>
