<svg class="sigil" viewBox="0 0 64 64" role="img" aria-labelledby="s-title s-desc" xmlns="http://www.w3.org/2000/svg"><title id="s-title">Sigil of the Emperor Penguin</title><desc id="s-desc">Cancer crossed with the Year of the Rooster, a Water animal.</desc><circle cx="32" cy="32" r="26" fill="var(--glow)" opacity=".5"/><g stroke="var(--accent)" stroke-width="1" stroke-linecap="round" fill="none" opacity=".8"><path d="M9.7 23 L7 21.9 M25.2 9 L24.3 6.1 M45.7 12.3 L47.4 9.8 M55.9 30.4 L58.9 30.3 M48.1 49.8 L50.2 52 M28.2 55.7 L27.7 58.7 M11.1 43.8 L8.5 45.3"/></g><g stroke-width="var(--glyph-stroke,1.5)" stroke-linecap="round" stroke-linejoin="round"><g transform="translate(16 17) scale(1.3)" opacity=".55"><g fill="none" stroke="var(--accent)"><path d="M7 5 L12 8 L17 5"/><path d="M12 8 L12 14"/><path d="M8 18 L12 14 L16 18"/></g><g fill="var(--accent-soft)"><circle cx="12" cy="14" r="1"/><circle cx="12" cy="8" r=".8"/><circle cx="7" cy="5" r=".8"/><circle cx="17" cy="5" r=".8"/><circle cx="8" cy="18" r=".8"/><circle cx="16" cy="18" r=".8"/></g></g><g transform="translate(20 20) scale(1)"><g fill="none" stroke="var(--accent)"><path d="M6 6 L9 9"/><path d="M8 5 L9 9 L13 11 L17 13 L14 17 L10 16 L13 11"/></g><g fill="var(--accent-soft)"><circle cx="6" cy="6" r=".8"/><circle cx="8" cy="5" r=".8"/><circle cx="9" cy="9" r="1"/><circle cx="13" cy="11" r=".8"/><circle cx="17" cy="13" r=".8"/><circle cx="14" cy="17" r=".8"/><circle cx="10" cy="16" r=".8"/></g></g></g><g fill="none" stroke="var(--accent)" stroke-width=".5" opacity=".4"><path d="M39.6 49.7 L36.3 13.5 M17.7 42.2 L21.2 21.3"/></g><g fill="var(--accent)" opacity=".85"><circle cx="39.6" cy="49.7" r="1"/><circle cx="36.3" cy="13.5" r=".8"/><circle cx="17.7" cy="42.2" r=".7"/><circle cx="21.2" cy="21.3" r="1"/><circle cx="22.4" cy="16.4" r="1"/></g></svg>
