<svg class="sigil" viewBox="0 0 64 64" role="img" aria-labelledby="s-title s-desc" xmlns="http://www.w3.org/2000/svg"><title id="s-title">Sigil of the Fennec Fox</title><desc id="s-desc">Gemini crossed with the Year of the Rabbit, a Air animal.</desc><circle cx="32" cy="32" r="26" fill="var(--glow)" opacity=".5"/><circle cx="32" cy="32" r="25" stroke="var(--accent)" stroke-width="1" stroke-linecap="round" fill="none" stroke-dasharray="3 4" opacity=".75" transform="rotate(280 32 32)"/><g stroke-width="var(--glyph-stroke,1.5)" stroke-linecap="round" stroke-linejoin="round"><g transform="translate(16 17) scale(1.3)" opacity=".55"><g fill="none" stroke="var(--accent)"><path d="M9 5 L9 12 L9 19"/><path d="M15 5 L15 12 L15 19"/><path d="M9 5 L15 5"/><path d="M9 19 L15 19"/></g><g fill="var(--accent-soft)"><circle cx="9" cy="5" r=".8"/><circle cx="9" cy="12" r=".8"/><circle cx="9" cy="19" r=".8"/><circle cx="15" cy="5" r="1"/><circle cx="15" cy="12" r=".8"/><circle cx="15" cy="19" r=".8"/></g></g><g transform="translate(20 20) scale(1)"><g fill="none" stroke="var(--accent)"><path d="M8 6 L10 10 L12 6"/><path d="M10 10 L8 15"/><path d="M10 10 L14 14 L16 17"/></g><g fill="var(--accent-soft)"><circle cx="8" cy="6" r=".8"/><circle cx="10" cy="10" r="1"/><circle cx="12" cy="6" r=".8"/><circle cx="10" cy="10" r=".8"/><circle cx="8" cy="15" r=".8"/><circle cx="14" cy="14" r=".8"/><circle cx="16" cy="17" r=".8"/></g></g></g><g fill="var(--accent)" opacity=".85"><circle cx="13.1" cy="36.4" r=".9"/><circle cx="29.6" cy="17.5" r=".6"/><circle cx="30.5" cy="23.1" r=".7"/></g></svg>
