<svg class="sigil" viewBox="0 0 64 64" role="img" aria-labelledby="s-title s-desc" xmlns="http://www.w3.org/2000/svg"><title id="s-title">Sigil of the Flying Fish</title><desc id="s-desc">Sagittarius crossed with the Year of the Rabbit, a Fire animal.</desc><circle cx="32" cy="32" r="26" fill="var(--glow)" opacity=".5"/><g stroke="var(--accent)" stroke-width="1" stroke-linecap="round" fill="none" opacity=".8"><path d="M22.2 9 L21.1 6.2 M50.9 15.6 L53.1 13.6 M53.4 44.9 L56 46.4 M26.4 56.4 L25.7 59.3 M7.1 34.2 L4.1 34.4"/></g><g stroke-width="var(--glyph-stroke,1.5)" stroke-linecap="round" stroke-linejoin="round"><g transform="translate(16 17) scale(1.3)" opacity=".55"><g fill="none" stroke="var(--accent)"><path d="M6 6 L9 12 L6 18"/><path d="M9 12 L18 7"/><path d="M15 10 L12 13 L9 16"/></g><g fill="var(--accent-soft)"><circle cx="6" cy="6" r=".8"/><circle cx="6" cy="18" r=".8"/><circle cx="9" cy="12" r="1"/><circle cx="18" cy="7" r=".8"/><circle cx="15" cy="10" r=".8"/><circle cx="12" cy="13" r=".8"/><circle cx="9" cy="16" r=".8"/></g></g><g transform="translate(20 20) scale(1)"><g fill="none" stroke="var(--accent)"><path d="M8 6 L10 10 L12 6"/><path d="M10 10 L8 15"/><path d="M10 10 L14 14 L16 17"/></g><g fill="var(--accent-soft)"><circle cx="8" cy="6" r=".8"/><circle cx="10" cy="10" r="1"/><circle cx="12" cy="6" r=".8"/><circle cx="10" cy="10" r=".8"/><circle cx="8" cy="15" r=".8"/><circle cx="14" cy="14" r=".8"/><circle cx="16" cy="17" r=".8"/></g></g></g><g fill="none" stroke="var(--accent)" stroke-width=".5" opacity=".4"><path d="M41.3 34.9 L48.1 30.2 M33 44.5 L44.4 47 M27.8 13.1 L49.1 23.7"/></g><g fill="var(--accent)" opacity=".85"><circle cx="41.3" cy="34.9" r=".9"/><circle cx="48.1" cy="30.2" r=".7"/><circle cx="33" cy="44.5" r=".9"/><circle cx="44.4" cy="47" r=".7"/><circle cx="27.8" cy="13.1" r=".6"/><circle cx="49.1" cy="23.7" r=".8"/></g></svg>
