<svg class="sigil" viewBox="0 0 64 64" role="img" aria-labelledby="s-title s-desc" xmlns="http://www.w3.org/2000/svg"><title id="s-title">Sigil of the Fork-tailed Drongo</title><desc id="s-desc">Gemini crossed with the Year of the Rooster, a Air animal.</desc><circle cx="32" cy="32" r="26" fill="var(--glow)" opacity=".5"/><circle cx="32" cy="32" r="25" stroke="var(--accent)" stroke-width="1" stroke-linecap="round" fill="none" stroke-dasharray="3 4" opacity=".75" transform="rotate(3 32 32)"/><g stroke-width="var(--glyph-stroke,1.5)" stroke-linecap="round" stroke-linejoin="round"><g transform="translate(16 17) scale(1.3)" opacity=".55"><g fill="none" stroke="var(--accent)"><path d="M9 5 L9 12 L9 19"/><path d="M15 5 L15 12 L15 19"/><path d="M9 5 L15 5"/><path d="M9 19 L15 19"/></g><g fill="var(--accent-soft)"><circle cx="9" cy="5" r=".8"/><circle cx="9" cy="12" r=".8"/><circle cx="9" cy="19" r=".8"/><circle cx="15" cy="5" r="1"/><circle cx="15" cy="12" r=".8"/><circle cx="15" cy="19" r=".8"/></g></g><g transform="translate(20 20) scale(1)"><g fill="none" stroke="var(--accent)"><path d="M6 6 L9 9"/><path d="M8 5 L9 9 L13 11 L17 13 L14 17 L10 16 L13 11"/></g><g fill="var(--accent-soft)"><circle cx="6" cy="6" r=".8"/><circle cx="8" cy="5" r=".8"/><circle cx="9" cy="9" r="1"/><circle cx="13" cy="11" r=".8"/><circle cx="17" cy="13" r=".8"/><circle cx="14" cy="17" r=".8"/><circle cx="10" cy="16" r=".8"/></g></g></g><g fill="none" stroke="var(--accent)" stroke-width=".5" opacity=".4"><path d="M20.8 28.3 L21.2 29.5"/></g><g fill="var(--accent)" opacity=".85"><circle cx="22.7" cy="40.1" r=".6"/><circle cx="40.3" cy="22" r=".8"/><circle cx="38.2" cy="46.7" r=".6"/><circle cx="50.7" cy="28.5" r=".9"/><circle cx="20.8" cy="28.3" r="1"/><circle cx="21.2" cy="29.5" r=".8"/></g></svg>
