<svg class="sigil" viewBox="0 0 64 64" role="img" aria-labelledby="s-title s-desc" xmlns="http://www.w3.org/2000/svg"><title id="s-title">Sigil of the Fossa</title><desc id="s-desc">Aries crossed with the Year of the Rat, a Fire animal.</desc><circle cx="32" cy="32" r="26" fill="var(--glow)" opacity=".5"/><g stroke="var(--accent)" stroke-width="1" stroke-linecap="round" fill="none" opacity=".8"><path d="M44.1 10.1 L45.6 7.5 M56.5 36.8 L59.5 37.3 M35 56.8 L35.4 59.8 M9.3 42.6 L6.6 43.8 M15 13.7 L12.9 11.5"/></g><g stroke-width="var(--glyph-stroke,1.5)" stroke-linecap="round" stroke-linejoin="round"><g transform="translate(16 17) scale(1.3)" opacity=".55"><g fill="none" stroke="var(--accent)"><path d="M6 16 L9 10 L13 8 L16 11"/><path d="M13 8 L16 11 L19 9"/></g><g fill="var(--accent-soft)"><circle cx="6" cy="16" r=".8"/><circle cx="9" cy="10" r=".8"/><circle cx="13" cy="8" r="1"/><circle cx="16" cy="11" r=".8"/><circle cx="19" cy="9" r=".8"/></g></g><g transform="translate(20 20) scale(1)"><g fill="none" stroke="var(--accent)"><path d="M8 17 L6 14 L9 11 L13 12 L16 10 L18 7"/><path d="M13 12 L16 15"/></g><g fill="var(--accent-soft)"><circle cx="6" cy="14" r="1"/><circle cx="9" cy="11" r=".8"/><circle cx="13" cy="12" r=".8"/><circle cx="16" cy="10" r=".8"/><circle cx="18" cy="7" r=".8"/><circle cx="16" cy="15" r=".8"/><circle cx="8" cy="17" r=".8"/></g></g></g><g fill="none" stroke="var(--accent)" stroke-width=".5" opacity=".4"><path d="M47.5 34.9 L38.6 38.5 M27.4 46.7 L31.8 42.6"/></g><g fill="var(--accent)" opacity=".85"><circle cx="30.2" cy="48.6" r=".7"/><circle cx="19.2" cy="18.6" r=".6"/><circle cx="47.5" cy="34.9" r=".8"/><circle cx="38.6" cy="38.5" r="1"/><circle cx="27.4" cy="46.7" r="1"/><circle cx="31.8" cy="42.6" r=".9"/></g></svg>
