<svg class="sigil" viewBox="0 0 64 64" role="img" aria-labelledby="s-title s-desc" xmlns="http://www.w3.org/2000/svg"><title id="s-title">Sigil of the Frigatebird</title><desc id="s-desc">Sagittarius crossed with the Year of the Dragon, a Fire animal.</desc><circle cx="32" cy="32" r="26" fill="var(--glow)" opacity=".5"/><g stroke="var(--accent)" stroke-width="1" stroke-linecap="round" fill="none" opacity=".8"><path d="M7.2 28.5 L4.3 28.1 M27.7 7.4 L27.1 4.4 M54.1 20.3 L56.7 18.9 M50 49.4 L52.1 51.5 M21 54.5 L19.7 57.2"/></g><g stroke-width="var(--glyph-stroke,1.5)" stroke-linecap="round" stroke-linejoin="round"><g transform="translate(16 17) scale(1.3)" opacity=".55"><g fill="none" stroke="var(--accent)"><path d="M6 6 L9 12 L6 18"/><path d="M9 12 L18 7"/><path d="M15 10 L12 13 L9 16"/></g><g fill="var(--accent-soft)"><circle cx="6" cy="6" r=".8"/><circle cx="6" cy="18" r=".8"/><circle cx="9" cy="12" r="1"/><circle cx="18" cy="7" r=".8"/><circle cx="15" cy="10" r=".8"/><circle cx="12" cy="13" r=".8"/><circle cx="9" cy="16" r=".8"/></g></g><g transform="translate(20 20) scale(1)"><g fill="none" stroke="var(--accent)"><path d="M5 17 L7 13 L11 14 L13 10 L17 9 L19 5"/><path d="M17 9 L16 12"/></g><g fill="var(--accent-soft)"><circle cx="5" cy="17" r=".8"/><circle cx="7" cy="13" r=".8"/><circle cx="11" cy="14" r=".8"/><circle cx="13" cy="10" r=".8"/><circle cx="17" cy="9" r=".8"/><circle cx="19" cy="5" r="1"/><circle cx="16" cy="12" r=".8"/></g></g></g><g fill="none" stroke="var(--accent)" stroke-width=".5" opacity=".4"><path d="M20 44.9 L24 44.1"/></g><g fill="var(--accent)" opacity=".85"><circle cx="20" cy="44.9" r="1"/><circle cx="24" cy="44.1" r=".9"/><circle cx="47.3" cy="32.8" r="1"/></g></svg>
