<svg class="sigil" viewBox="0 0 64 64" role="img" aria-labelledby="s-title s-desc" xmlns="http://www.w3.org/2000/svg"><title id="s-title">Sigil of the Giant Salamander</title><desc id="s-desc">Scorpio crossed with the Year of the Ox, a Water animal.</desc><circle cx="32" cy="32" r="26" fill="var(--glow)" opacity=".5"/><g stroke="var(--accent)" stroke-width="1" stroke-linecap="round" fill="none" opacity=".8"><path d="M34.1 55.9 L34.4 58.9 M14.6 48.5 L12.4 50.6 M8.2 28.7 L5.3 28.3 M19.7 11.4 L18.2 8.8 M40.5 9.6 L41.6 6.7 M54.8 24.6 L57.7 23.7 M52 45.3 L54.5 46.9"/></g><g stroke-width="var(--glyph-stroke,1.5)" stroke-linecap="round" stroke-linejoin="round"><g transform="translate(16 17) scale(1.3)" opacity=".55"><g fill="none" stroke="var(--accent)"><path d="M5 7 L6 11 L9 13 L13 13 L16 15 L18 18 L16 20"/><path d="M8 8 L9 13"/></g><g fill="var(--accent-soft)"><circle cx="5" cy="7" r=".8"/><circle cx="6" cy="11" r=".8"/><circle cx="9" cy="13" r=".8"/><circle cx="13" cy="13" r="1"/><circle cx="16" cy="15" r=".8"/><circle cx="18" cy="18" r=".8"/><circle cx="16" cy="20" r=".8"/><circle cx="8" cy="8" r=".8"/></g></g><g transform="translate(20 20) scale(1)"><g fill="none" stroke="var(--accent)"><path d="M6 5 L9 7 L6 9"/><path d="M9 7 L12 10 L17 9 L17 16 L10 16 L12 10"/></g><g fill="var(--accent-soft)"><circle cx="6" cy="9" r=".8"/><circle cx="9" cy="7" r="1"/><circle cx="6" cy="5" r=".8"/><circle cx="12" cy="10" r=".8"/><circle cx="17" cy="9" r=".8"/><circle cx="17" cy="16" r=".8"/><circle cx="10" cy="16" r=".8"/></g></g></g><g fill="none" stroke="var(--accent)" stroke-width=".5" opacity=".4"><path d="M43.5 27.3 L39.4 47.1 M21.3 20.8 L33.1 14.8"/></g><g fill="var(--accent)" opacity=".85"><circle cx="43.5" cy="27.3" r="1"/><circle cx="39.4" cy="47.1" r="1"/><circle cx="21.3" cy="20.8" r="1"/><circle cx="33.1" cy="14.8" r=".9"/></g></svg>
