<svg class="sigil" viewBox="0 0 64 64" role="img" aria-labelledby="s-title s-desc" xmlns="http://www.w3.org/2000/svg"><title id="s-title">Sigil of the Giant Clam</title><desc id="s-desc">Taurus crossed with the Year of the Ox, a Earth animal.</desc><circle cx="32" cy="32" r="26" fill="var(--glow)" opacity=".5"/><g stroke="var(--accent)" stroke-width="1" stroke-linecap="round" fill="none" opacity=".75"><path d="M20.7 54.3 L9.7 20.7 L43.3 9.7 L54.3 43.3 Z"/></g><g fill="var(--accent-soft)"><circle cx="20.7" cy="54.3" r="1.1"/><circle cx="9.7" cy="20.7" r="1.1"/><circle cx="43.3" cy="9.7" r="1.1"/><circle cx="54.3" cy="43.3" r="1.1"/></g><g stroke-width="var(--glyph-stroke,1.5)" stroke-linecap="round" stroke-linejoin="round"><g transform="translate(16 17) scale(1.3)" opacity=".55"><g fill="none" stroke="var(--accent)"><path d="M6 8 L9 12 L12 15 L15 12 L18 8"/></g><g fill="var(--accent-soft)"><circle cx="12" cy="15" r="1"/><circle cx="9" cy="12" r=".8"/><circle cx="6" cy="8" r=".8"/><circle cx="15" cy="12" r=".8"/><circle cx="18" cy="8" r=".8"/><circle cx="12" cy="15" r=".8"/></g></g><g transform="translate(20 20) scale(1)"><g fill="none" stroke="var(--accent)"><path d="M6 5 L9 7 L6 9"/><path d="M9 7 L12 10 L17 9 L17 16 L10 16 L12 10"/></g><g fill="var(--accent-soft)"><circle cx="6" cy="9" r=".8"/><circle cx="9" cy="7" r="1"/><circle cx="6" cy="5" r=".8"/><circle cx="12" cy="10" r=".8"/><circle cx="17" cy="9" r=".8"/><circle cx="17" cy="16" r=".8"/><circle cx="10" cy="16" r=".8"/></g></g></g><g fill="none" stroke="var(--accent)" stroke-width=".5" opacity=".4"><path d="M40.4 48.7 L41.3 36.9"/></g><g fill="var(--accent)" opacity=".85"><circle cx="40.4" cy="48.7" r="1"/><circle cx="41.3" cy="36.9" r=".7"/><circle cx="29.5" cy="18.6" r=".9"/></g></svg>
