<svg class="sigil" viewBox="0 0 64 64" role="img" aria-labelledby="s-title s-desc" xmlns="http://www.w3.org/2000/svg"><title id="s-title">Sigil of the Giant Centipede</title><desc id="s-desc">Scorpio crossed with the Year of the Tiger, a Water animal.</desc><circle cx="32" cy="32" r="26" fill="var(--glow)" opacity=".5"/><g stroke="var(--accent)" stroke-width="1" stroke-linecap="round" fill="none" opacity=".8"><path d="M55.9 29.5 L58.9 29.2 M48.8 49.1 L50.9 51.2 M29.1 55.8 L28.8 58.8 M11.6 44.6 L9 46.2 M9.4 23.9 L6.6 22.9 M24.2 9.3 L23.3 6.4 M44.9 11.8 L46.5 9.2"/></g><g stroke-width="var(--glyph-stroke,1.5)" stroke-linecap="round" stroke-linejoin="round"><g transform="translate(16 17) scale(1.3)" opacity=".55"><g fill="none" stroke="var(--accent)"><path d="M5 7 L6 11 L9 13 L13 13 L16 15 L18 18 L16 20"/><path d="M8 8 L9 13"/></g><g fill="var(--accent-soft)"><circle cx="5" cy="7" r=".8"/><circle cx="6" cy="11" r=".8"/><circle cx="9" cy="13" r=".8"/><circle cx="13" cy="13" r="1"/><circle cx="16" cy="15" r=".8"/><circle cx="18" cy="18" r=".8"/><circle cx="16" cy="20" r=".8"/><circle cx="8" cy="8" r=".8"/></g></g><g transform="translate(20 20) scale(1)"><g fill="none" stroke="var(--accent)"><path d="M5 7 L8 9 L12 8 L16 10 L18 7"/><path d="M16 10 L16 16 L8 15 L8 9"/><path d="M8 15 L6 17"/></g><g fill="var(--accent-soft)"><circle cx="5" cy="7" r=".8"/><circle cx="8" cy="9" r="1"/><circle cx="12" cy="8" r=".8"/><circle cx="16" cy="10" r=".8"/><circle cx="18" cy="7" r=".8"/><circle cx="16" cy="16" r=".8"/><circle cx="8" cy="15" r=".8"/><circle cx="6" cy="17" r=".8"/></g></g></g><g fill="none" stroke="var(--accent)" stroke-width=".5" opacity=".4"><path d="M41.3 40.7 L42 20"/></g><g fill="var(--accent)" opacity=".85"><circle cx="16.6" cy="37.1" r=".7"/><circle cx="16.6" cy="39" r=".9"/><circle cx="41.3" cy="40.7" r=".7"/><circle cx="42" cy="20" r=".9"/><circle cx="42.9" cy="33.8" r="1"/></g></svg>
