<svg class="sigil" viewBox="0 0 64 64" role="img" aria-labelledby="s-title s-desc" xmlns="http://www.w3.org/2000/svg"><title id="s-title">Sigil of the Gila Monster</title><desc id="s-desc">Scorpio crossed with the Year of the Dragon, a Water animal.</desc><circle cx="32" cy="32" r="26" fill="var(--glow)" opacity=".5"/><g stroke="var(--accent)" stroke-width="1" stroke-linecap="round" fill="none" opacity=".8"><path d="M28.2 8.3 L27.8 5.3 M48.2 14.3 L50.2 12.1 M55.9 33.6 L58.9 33.8 M45.7 51.7 L47.4 54.2 M25.1 55 L24.2 57.9 M9.7 40.9 L6.9 42.1 M11.1 20.2 L8.5 18.7"/></g><g stroke-width="var(--glyph-stroke,1.5)" stroke-linecap="round" stroke-linejoin="round"><g transform="translate(16 17) scale(1.3)" opacity=".55"><g fill="none" stroke="var(--accent)"><path d="M5 7 L6 11 L9 13 L13 13 L16 15 L18 18 L16 20"/><path d="M8 8 L9 13"/></g><g fill="var(--accent-soft)"><circle cx="5" cy="7" r=".8"/><circle cx="6" cy="11" r=".8"/><circle cx="9" cy="13" r=".8"/><circle cx="13" cy="13" r="1"/><circle cx="16" cy="15" r=".8"/><circle cx="18" cy="18" r=".8"/><circle cx="16" cy="20" r=".8"/><circle cx="8" cy="8" r=".8"/></g></g><g transform="translate(20 20) scale(1)"><g fill="none" stroke="var(--accent)"><path d="M5 17 L7 13 L11 14 L13 10 L17 9 L19 5"/><path d="M17 9 L16 12"/></g><g fill="var(--accent-soft)"><circle cx="5" cy="17" r=".8"/><circle cx="7" cy="13" r=".8"/><circle cx="11" cy="14" r=".8"/><circle cx="13" cy="10" r=".8"/><circle cx="17" cy="9" r=".8"/><circle cx="19" cy="5" r="1"/><circle cx="16" cy="12" r=".8"/></g></g></g><g fill="none" stroke="var(--accent)" stroke-width=".5" opacity=".4"><path d="M47.7 42.4 L44.5 37.7 M21.1 16.6 L40.6 23.4"/></g><g fill="var(--accent)" opacity=".85"><circle cx="47.7" cy="42.4" r=".9"/><circle cx="44.5" cy="37.7" r=".8"/><circle cx="21.1" cy="16.6" r=".6"/><circle cx="40.6" cy="23.4" r="1"/></g></svg>
