<svg class="sigil" viewBox="0 0 64 64" role="img" aria-labelledby="s-title s-desc" xmlns="http://www.w3.org/2000/svg"><title id="s-title">Sigil of the Glass Frog</title><desc id="s-desc">Pisces crossed with the Year of the Snake, a Water animal.</desc><circle cx="32" cy="32" r="26" fill="var(--glow)" opacity=".5"/><g stroke="var(--accent)" stroke-width="1" stroke-linecap="round" fill="none" opacity=".8"><path d="M45.4 12.1 L47.1 9.6 M55.9 30.1 L58.9 29.8 M48.4 49.5 L50.5 51.7 M28.5 55.7 L28.1 58.7 M11.3 44.1 L8.7 45.6 M9.6 23.3 L6.8 22.3 M24.8 9.1 L23.9 6.2"/></g><g stroke-width="var(--glyph-stroke,1.5)" stroke-linecap="round" stroke-linejoin="round"><g transform="translate(16 17) scale(1.3)" opacity=".55"><g fill="none" stroke="var(--accent)"><path d="M6 5 L5 9 L6 13"/><path d="M6 5 L12 9 L18 5"/><path d="M6 13 L12 9 L18 13"/><path d="M18 5 L19 9 L18 13"/></g><g fill="var(--accent-soft)"><circle cx="6" cy="5" r=".8"/><circle cx="5" cy="9" r=".8"/><circle cx="6" cy="13" r=".8"/><circle cx="12" cy="9" r="1"/><circle cx="18" cy="5" r=".8"/><circle cx="19" cy="9" r=".8"/><circle cx="18" cy="13" r=".8"/></g></g><g transform="translate(20 20) scale(1)"><g fill="none" stroke="var(--accent)"><path d="M6 6 L10 7 L12 11 L9 14 L12 17 L17 17 L19 13"/></g><g fill="var(--accent-soft)"><circle cx="6" cy="6" r=".8"/><circle cx="10" cy="7" r=".8"/><circle cx="12" cy="11" r=".8"/><circle cx="9" cy="14" r=".8"/><circle cx="12" cy="17" r=".8"/><circle cx="17" cy="17" r="1"/><circle cx="19" cy="13" r=".8"/></g></g></g><g fill="var(--accent)" opacity=".85"><circle cx="23.4" cy="37.7" r="1"/><circle cx="34.7" cy="20.2" r="1"/><circle cx="33" cy="42.6" r=".7"/></g></svg>
