<svg class="sigil" viewBox="0 0 64 64" role="img" aria-labelledby="s-title s-desc" xmlns="http://www.w3.org/2000/svg"><title id="s-title">Sigil of the Glasswing Butterfly</title><desc id="s-desc">Cancer crossed with the Year of the Goat, a Water animal.</desc><circle cx="32" cy="32" r="26" fill="var(--glow)" opacity=".5"/><g stroke="var(--accent)" stroke-width="1" stroke-linecap="round" fill="none" opacity=".8"><path d="M23.8 9.4 L22.8 6.6 M44.5 11.5 L46.1 9 M55.8 29 L58.8 28.6 M49.2 48.8 L51.3 50.9 M29.6 55.9 L29.3 58.9 M11.8 45 L9.3 46.6 M9.2 24.4 L6.4 23.4"/></g><g stroke-width="var(--glyph-stroke,1.5)" stroke-linecap="round" stroke-linejoin="round"><g transform="translate(16 17) scale(1.3)" opacity=".55"><g fill="none" stroke="var(--accent)"><path d="M7 5 L12 8 L17 5"/><path d="M12 8 L12 14"/><path d="M8 18 L12 14 L16 18"/></g><g fill="var(--accent-soft)"><circle cx="12" cy="14" r="1"/><circle cx="12" cy="8" r=".8"/><circle cx="7" cy="5" r=".8"/><circle cx="17" cy="5" r=".8"/><circle cx="8" cy="18" r=".8"/><circle cx="16" cy="18" r=".8"/></g></g><g transform="translate(20 20) scale(1)"><g fill="none" stroke="var(--accent)"><path d="M6 7 L9 9 L7 12"/><path d="M9 9 L13 10 L18 10"/><path d="M18 10 L16 17 L10 16 L13 10"/></g><g fill="var(--accent-soft)"><circle cx="6" cy="7" r=".8"/><circle cx="9" cy="9" r="1"/><circle cx="7" cy="12" r=".8"/><circle cx="13" cy="10" r=".8"/><circle cx="18" cy="10" r=".8"/><circle cx="16" cy="17" r=".8"/><circle cx="10" cy="16" r=".8"/></g></g></g><g fill="none" stroke="var(--accent)" stroke-width=".5" opacity=".4"><path d="M38.6 43.3 L46.6 20.1"/></g><g fill="var(--accent)" opacity=".85"><circle cx="44.2" cy="31.5" r=".7"/><circle cx="49.5" cy="23.3" r=".8"/><circle cx="38.6" cy="43.3" r=".7"/><circle cx="46.6" cy="20.1" r=".9"/><circle cx="46.3" cy="40.2" r="1"/></g></svg>
