<svg class="sigil" viewBox="0 0 64 64" role="img" aria-labelledby="s-title s-desc" xmlns="http://www.w3.org/2000/svg"><title id="s-title">Sigil of the Golden Brushtail Possum</title><desc id="s-desc">Leo crossed with the Year of the Goat, a Fire animal.</desc><circle cx="32" cy="32" r="26" fill="var(--glow)" opacity=".5"/><g stroke="var(--accent)" stroke-width="1" stroke-linecap="round" fill="none" opacity=".8"><path d="M55.9 24.7 L58.8 23.8 M46.3 52.5 L48.1 54.9 M17 52 L15.1 54.4 M8.4 23.9 L5.5 22.9 M32.4 7 L32.5 4"/></g><g stroke-width="var(--glyph-stroke,1.5)" stroke-linecap="round" stroke-linejoin="round"><g transform="translate(16 17) scale(1.3)" opacity=".55"><g fill="none" stroke="var(--accent)"><path d="M7 7 L6 11 L8 14 L12 15 L15 13"/><path d="M15 13 L15 18 L19 17"/><path d="M10 9 L12 15"/></g><g fill="var(--accent-soft)"><circle cx="7" cy="7" r=".8"/><circle cx="6" cy="11" r=".8"/><circle cx="8" cy="14" r=".8"/><circle cx="12" cy="15" r=".8"/><circle cx="15" cy="13" r="1"/><circle cx="15" cy="18" r=".8"/><circle cx="19" cy="17" r=".8"/><circle cx="10" cy="9" r=".8"/></g></g><g transform="translate(20 20) scale(1)"><g fill="none" stroke="var(--accent)"><path d="M6 7 L9 9 L7 12"/><path d="M9 9 L13 10 L18 10"/><path d="M18 10 L16 17 L10 16 L13 10"/></g><g fill="var(--accent-soft)"><circle cx="6" cy="7" r=".8"/><circle cx="9" cy="9" r="1"/><circle cx="7" cy="12" r=".8"/><circle cx="13" cy="10" r=".8"/><circle cx="18" cy="10" r=".8"/><circle cx="16" cy="17" r=".8"/><circle cx="10" cy="16" r=".8"/></g></g></g><g fill="none" stroke="var(--accent)" stroke-width=".5" opacity=".4"><path d="M37.8 40 L17.3 22.7"/></g><g fill="var(--accent)" opacity=".85"><circle cx="40.8" cy="29" r=".8"/><circle cx="22.9" cy="39.3" r=".8"/><circle cx="25" cy="23.9" r="1"/><circle cx="31.9" cy="46.9" r=".7"/><circle cx="37.8" cy="40" r=".9"/><circle cx="17.3" cy="22.7" r=".9"/></g></svg>
