<svg class="sigil" viewBox="0 0 64 64" role="img" aria-labelledby="s-title s-desc" xmlns="http://www.w3.org/2000/svg"><title id="s-title">Sigil of the Green Sea Turtle</title><desc id="s-desc">Cancer crossed with the Year of the Horse, a Water animal.</desc><circle cx="32" cy="32" r="26" fill="var(--glow)" opacity=".5"/><g stroke="var(--accent)" stroke-width="1" stroke-linecap="round" fill="none" opacity=".8"><path d="M22.6 9.9 L21.5 7.1 M43.4 10.9 L44.9 8.3 M55.6 27.8 L58.6 27.2 M50 47.8 L52.3 49.8 M30.9 56 L30.7 59 M12.5 46.1 L10.1 47.8 M8.9 25.6 L6 24.8"/></g><g stroke-width="var(--glyph-stroke,1.5)" stroke-linecap="round" stroke-linejoin="round"><g transform="translate(16 17) scale(1.3)" opacity=".55"><g fill="none" stroke="var(--accent)"><path d="M7 5 L12 8 L17 5"/><path d="M12 8 L12 14"/><path d="M8 18 L12 14 L16 18"/></g><g fill="var(--accent-soft)"><circle cx="12" cy="14" r="1"/><circle cx="12" cy="8" r=".8"/><circle cx="7" cy="5" r=".8"/><circle cx="17" cy="5" r=".8"/><circle cx="8" cy="18" r=".8"/><circle cx="16" cy="18" r=".8"/></g></g><g transform="translate(20 20) scale(1)"><g fill="none" stroke="var(--accent)"><path d="M7 5 L9 9 L7 12"/><path d="M9 9 L12 10 L17 9"/><path d="M17 9 L16 17 L10 16 L12 10"/></g><g fill="var(--accent-soft)"><circle cx="7" cy="5" r=".8"/><circle cx="9" cy="9" r="1"/><circle cx="7" cy="12" r=".8"/><circle cx="12" cy="10" r=".8"/><circle cx="17" cy="9" r=".8"/><circle cx="16" cy="17" r=".8"/><circle cx="10" cy="16" r=".8"/></g></g></g><g fill="none" stroke="var(--accent)" stroke-width=".5" opacity=".4"><path d="M32.6 50.6 L21.4 48.8 M45 47 L23 38.4"/></g><g fill="var(--accent)" opacity=".85"><circle cx="32.6" cy="50.6" r="1"/><circle cx="21.4" cy="48.8" r="1"/><circle cx="45" cy="47" r=".9"/><circle cx="23" cy="38.4" r="1"/><circle cx="41.4" cy="46.1" r=".8"/><circle cx="40.8" cy="49.4" r=".9"/></g></svg>
