<svg class="sigil" viewBox="0 0 64 64" role="img" aria-labelledby="s-title s-desc" xmlns="http://www.w3.org/2000/svg"><title id="s-title">Sigil of the Humpback Whale</title><desc id="s-desc">Cancer crossed with the Year of the Dragon, a Water animal.</desc><circle cx="32" cy="32" r="26" fill="var(--glow)" opacity=".5"/><g stroke="var(--accent)" stroke-width="1" stroke-linecap="round" fill="none" opacity=".8"><path d="M11.6 19.3 L9.1 17.7 M29.3 8.2 L28.9 5.2 M48.9 15 L51 12.9 M55.9 34.6 L58.8 35 M44.8 52.3 L46.4 54.8 M24.1 54.7 L23.1 57.5 M9.4 40 L6.5 41"/></g><g stroke-width="var(--glyph-stroke,1.5)" stroke-linecap="round" stroke-linejoin="round"><g transform="translate(16 17) scale(1.3)" opacity=".55"><g fill="none" stroke="var(--accent)"><path d="M7 5 L12 8 L17 5"/><path d="M12 8 L12 14"/><path d="M8 18 L12 14 L16 18"/></g><g fill="var(--accent-soft)"><circle cx="12" cy="14" r="1"/><circle cx="12" cy="8" r=".8"/><circle cx="7" cy="5" r=".8"/><circle cx="17" cy="5" r=".8"/><circle cx="8" cy="18" r=".8"/><circle cx="16" cy="18" r=".8"/></g></g><g transform="translate(20 20) scale(1)"><g fill="none" stroke="var(--accent)"><path d="M5 17 L7 13 L11 14 L13 10 L17 9 L19 5"/><path d="M17 9 L16 12"/></g><g fill="var(--accent-soft)"><circle cx="5" cy="17" r=".8"/><circle cx="7" cy="13" r=".8"/><circle cx="11" cy="14" r=".8"/><circle cx="13" cy="10" r=".8"/><circle cx="17" cy="9" r=".8"/><circle cx="19" cy="5" r="1"/><circle cx="16" cy="12" r=".8"/></g></g></g><g fill="var(--accent)" opacity=".85"><circle cx="30.2" cy="17.7" r=".9"/><circle cx="21.2" cy="43.1" r="1"/><circle cx="43.1" cy="36.2" r=".9"/></g></svg>
