<svg class="sigil" viewBox="0 0 64 64" role="img" aria-labelledby="s-title s-desc" xmlns="http://www.w3.org/2000/svg"><title id="s-title">Sigil of the Japanese Macaque</title><desc id="s-desc">Capricorn crossed with the Year of the Monkey, a Earth animal.</desc><circle cx="32" cy="32" r="26" fill="var(--glow)" opacity=".5"/><g stroke="var(--accent)" stroke-width="1" stroke-linecap="round" fill="none" opacity=".75"><path d="M29 56.8 L7.2 29 L35 7.2 L56.8 35 Z"/></g><g fill="var(--accent-soft)"><circle cx="29" cy="56.8" r="1.1"/><circle cx="7.2" cy="29" r="1.1"/><circle cx="35" cy="7.2" r="1.1"/><circle cx="56.8" cy="35" r="1.1"/></g><g stroke-width="var(--glyph-stroke,1.5)" stroke-linecap="round" stroke-linejoin="round"><g transform="translate(16 17) scale(1.3)" opacity=".55"><g fill="none" stroke="var(--accent)"><path d="M6 8 L10 6 L14 10 L18 17 L9 15 L6 8"/></g><g fill="var(--accent-soft)"><circle cx="6" cy="8" r=".8"/><circle cx="10" cy="6" r="1"/><circle cx="14" cy="10" r=".8"/><circle cx="18" cy="17" r=".8"/><circle cx="9" cy="15" r=".8"/><circle cx="6" cy="8" r=".8"/></g></g><g transform="translate(20 20) scale(1)"><g fill="none" stroke="var(--accent)"><path d="M9 6 L7 10 L10 13 L14 12 L16 16 L13 18"/><path d="M9 6 L13 9 L14 12"/></g><g fill="var(--accent-soft)"><circle cx="9" cy="6" r="1"/><circle cx="7" cy="10" r=".8"/><circle cx="10" cy="13" r=".8"/><circle cx="14" cy="12" r=".8"/><circle cx="16" cy="16" r=".8"/><circle cx="13" cy="18" r=".8"/><circle cx="13" cy="9" r=".8"/></g></g></g><g fill="none" stroke="var(--accent)" stroke-width=".5" opacity=".4"><path d="M21.9 34.8 L49.8 25.6"/></g><g fill="var(--accent)" opacity=".85"><circle cx="21.9" cy="34.8" r=".7"/><circle cx="49.8" cy="25.6" r=".6"/><circle cx="37.9" cy="49.3" r=".9"/></g></svg>
