<svg class="sigil" viewBox="0 0 64 64" role="img" aria-labelledby="s-title s-desc" xmlns="http://www.w3.org/2000/svg"><title id="s-title">Sigil of the Jerboa</title><desc id="s-desc">Sagittarius crossed with the Year of the Rat, a Fire animal.</desc><circle cx="32" cy="32" r="26" fill="var(--glow)" opacity=".5"/><g stroke="var(--accent)" stroke-width="1" stroke-linecap="round" fill="none" opacity=".8"><path d="M54.8 42.2 L57.6 43.4 M29.4 56.9 L29.1 59.8 M7.5 37.2 L4.6 37.8 M19.5 10.3 L18 7.8 M48.7 13.4 L50.7 11.2"/></g><g stroke-width="var(--glyph-stroke,1.5)" stroke-linecap="round" stroke-linejoin="round"><g transform="translate(16 17) scale(1.3)" opacity=".55"><g fill="none" stroke="var(--accent)"><path d="M6 6 L9 12 L6 18"/><path d="M9 12 L18 7"/><path d="M15 10 L12 13 L9 16"/></g><g fill="var(--accent-soft)"><circle cx="6" cy="6" r=".8"/><circle cx="6" cy="18" r=".8"/><circle cx="9" cy="12" r="1"/><circle cx="18" cy="7" r=".8"/><circle cx="15" cy="10" r=".8"/><circle cx="12" cy="13" r=".8"/><circle cx="9" cy="16" r=".8"/></g></g><g transform="translate(20 20) scale(1)"><g fill="none" stroke="var(--accent)"><path d="M8 17 L6 14 L9 11 L13 12 L16 10 L18 7"/><path d="M13 12 L16 15"/></g><g fill="var(--accent-soft)"><circle cx="6" cy="14" r="1"/><circle cx="9" cy="11" r=".8"/><circle cx="13" cy="12" r=".8"/><circle cx="16" cy="10" r=".8"/><circle cx="18" cy="7" r=".8"/><circle cx="16" cy="15" r=".8"/><circle cx="8" cy="17" r=".8"/></g></g></g><g fill="none" stroke="var(--accent)" stroke-width=".5" opacity=".4"><path d="M45.6 42.6 L44.6 34.2"/></g><g fill="var(--accent)" opacity=".85"><circle cx="45.6" cy="42.6" r=".7"/><circle cx="44.6" cy="34.2" r=".7"/><circle cx="19.6" cy="43.7" r=".8"/></g></svg>
