<svg class="sigil" viewBox="0 0 64 64" role="img" aria-labelledby="s-title s-desc" xmlns="http://www.w3.org/2000/svg"><title id="s-title">Sigil of the Kea</title><desc id="s-desc">Gemini crossed with the Year of the Monkey, a Air animal.</desc><circle cx="32" cy="32" r="26" fill="var(--glow)" opacity=".5"/><circle cx="32" cy="32" r="25" stroke="var(--accent)" stroke-width="1" stroke-linecap="round" fill="none" stroke-dasharray="3 4" opacity=".75" transform="rotate(244 32 32)"/><g stroke-width="var(--glyph-stroke,1.5)" stroke-linecap="round" stroke-linejoin="round"><g transform="translate(16 17) scale(1.3)" opacity=".55"><g fill="none" stroke="var(--accent)"><path d="M9 5 L9 12 L9 19"/><path d="M15 5 L15 12 L15 19"/><path d="M9 5 L15 5"/><path d="M9 19 L15 19"/></g><g fill="var(--accent-soft)"><circle cx="9" cy="5" r=".8"/><circle cx="9" cy="12" r=".8"/><circle cx="9" cy="19" r=".8"/><circle cx="15" cy="5" r="1"/><circle cx="15" cy="12" r=".8"/><circle cx="15" cy="19" r=".8"/></g></g><g transform="translate(20 20) scale(1)"><g fill="none" stroke="var(--accent)"><path d="M9 6 L7 10 L10 13 L14 12 L16 16 L13 18"/><path d="M9 6 L13 9 L14 12"/></g><g fill="var(--accent-soft)"><circle cx="9" cy="6" r="1"/><circle cx="7" cy="10" r=".8"/><circle cx="10" cy="13" r=".8"/><circle cx="14" cy="12" r=".8"/><circle cx="16" cy="16" r=".8"/><circle cx="13" cy="18" r=".8"/><circle cx="13" cy="9" r=".8"/></g></g></g><g fill="none" stroke="var(--accent)" stroke-width=".5" opacity=".4"><path d="M50.2 27.5 L40.6 28.2"/></g><g fill="var(--accent)" opacity=".85"><circle cx="50.2" cy="27.5" r=".9"/><circle cx="40.6" cy="28.2" r=".7"/><circle cx="21.7" cy="42.6" r="1"/></g></svg>
