<svg class="sigil" viewBox="0 0 64 64" role="img" aria-labelledby="s-title s-desc" xmlns="http://www.w3.org/2000/svg"><title id="s-title">Sigil of the King Cobra</title><desc id="s-desc">Leo crossed with the Year of the Snake, a Fire animal.</desc><circle cx="32" cy="32" r="26" fill="var(--glow)" opacity=".5"/><g stroke="var(--accent)" stroke-width="1" stroke-linecap="round" fill="none" opacity=".8"><path d="M8.8 41.4 L6 42.5 M15.9 12.8 L14 10.6 M45.2 10.8 L46.8 8.3 M56.3 38 L59.2 38.8 M33.7 56.9 L34 59.9"/></g><g stroke-width="var(--glyph-stroke,1.5)" stroke-linecap="round" stroke-linejoin="round"><g transform="translate(16 17) scale(1.3)" opacity=".55"><g fill="none" stroke="var(--accent)"><path d="M7 7 L6 11 L8 14 L12 15 L15 13"/><path d="M15 13 L15 18 L19 17"/><path d="M10 9 L12 15"/></g><g fill="var(--accent-soft)"><circle cx="7" cy="7" r=".8"/><circle cx="6" cy="11" r=".8"/><circle cx="8" cy="14" r=".8"/><circle cx="12" cy="15" r=".8"/><circle cx="15" cy="13" r="1"/><circle cx="15" cy="18" r=".8"/><circle cx="19" cy="17" r=".8"/><circle cx="10" cy="9" r=".8"/></g></g><g transform="translate(20 20) scale(1)"><g fill="none" stroke="var(--accent)"><path d="M6 6 L10 7 L12 11 L9 14 L12 17 L17 17 L19 13"/></g><g fill="var(--accent-soft)"><circle cx="6" cy="6" r=".8"/><circle cx="10" cy="7" r=".8"/><circle cx="12" cy="11" r=".8"/><circle cx="9" cy="14" r=".8"/><circle cx="12" cy="17" r=".8"/><circle cx="17" cy="17" r="1"/><circle cx="19" cy="13" r=".8"/></g></g></g><g fill="none" stroke="var(--accent)" stroke-width=".5" opacity=".4"><path d="M24.8 42.3 L35 22.6 M46 26.2 L17.5 40"/></g><g fill="var(--accent)" opacity=".85"><circle cx="24.8" cy="42.3" r="1"/><circle cx="35" cy="22.6" r=".9"/><circle cx="46" cy="26.2" r=".6"/><circle cx="17.5" cy="40" r=".9"/><circle cx="28.3" cy="23" r=".9"/></g></svg>
