<svg class="sigil" viewBox="0 0 64 64" role="img" aria-labelledby="s-title s-desc" xmlns="http://www.w3.org/2000/svg"><title id="s-title">Sigil of the Kori Bustard</title><desc id="s-desc">Sagittarius crossed with the Year of the Rooster, a Fire animal.</desc><circle cx="32" cy="32" r="26" fill="var(--glow)" opacity=".5"/><g stroke="var(--accent)" stroke-width="1" stroke-linecap="round" fill="none" opacity=".8"><path d="M15.3 13.4 L13.3 11.2 M44.5 10.3 L46 7.8 M56.5 37.2 L59.4 37.8 M34.6 56.9 L34.9 59.8 M9.2 42.2 L6.4 43.4"/></g><g stroke-width="var(--glyph-stroke,1.5)" stroke-linecap="round" stroke-linejoin="round"><g transform="translate(16 17) scale(1.3)" opacity=".55"><g fill="none" stroke="var(--accent)"><path d="M6 6 L9 12 L6 18"/><path d="M9 12 L18 7"/><path d="M15 10 L12 13 L9 16"/></g><g fill="var(--accent-soft)"><circle cx="6" cy="6" r=".8"/><circle cx="6" cy="18" r=".8"/><circle cx="9" cy="12" r="1"/><circle cx="18" cy="7" r=".8"/><circle cx="15" cy="10" r=".8"/><circle cx="12" cy="13" r=".8"/><circle cx="9" cy="16" r=".8"/></g></g><g transform="translate(20 20) scale(1)"><g fill="none" stroke="var(--accent)"><path d="M6 6 L9 9"/><path d="M8 5 L9 9 L13 11 L17 13 L14 17 L10 16 L13 11"/></g><g fill="var(--accent-soft)"><circle cx="6" cy="6" r=".8"/><circle cx="8" cy="5" r=".8"/><circle cx="9" cy="9" r="1"/><circle cx="13" cy="11" r=".8"/><circle cx="17" cy="13" r=".8"/><circle cx="14" cy="17" r=".8"/><circle cx="10" cy="16" r=".8"/></g></g></g><g fill="none" stroke="var(--accent)" stroke-width=".5" opacity=".4"><path d="M42.9 27 L27.3 49.7"/></g><g fill="var(--accent)" opacity=".85"><circle cx="42.9" cy="27" r=".9"/><circle cx="27.3" cy="49.7" r="1"/><circle cx="40.3" cy="22.4" r=".7"/></g></svg>
