<svg class="sigil" viewBox="0 0 64 64" role="img" aria-labelledby="s-title s-desc" xmlns="http://www.w3.org/2000/svg"><title id="s-title">Sigil of the Leafcutter Ant</title><desc id="s-desc">Virgo crossed with the Year of the Rat, a Earth animal.</desc><circle cx="32" cy="32" r="26" fill="var(--glow)" opacity=".5"/><g stroke="var(--accent)" stroke-width="1" stroke-linecap="round" fill="none" opacity=".75"><path d="M55 41.8 L22.2 55 L9 22.2 L41.8 9 Z"/></g><g fill="var(--accent-soft)"><circle cx="55" cy="41.8" r="1.1"/><circle cx="22.2" cy="55" r="1.1"/><circle cx="9" cy="22.2" r="1.1"/><circle cx="41.8" cy="9" r="1.1"/></g><g stroke-width="var(--glyph-stroke,1.5)" stroke-linecap="round" stroke-linejoin="round"><g transform="translate(16 17) scale(1.3)" opacity=".55"><g fill="none" stroke="var(--accent)"><path d="M5 9 L9 11 L13 10 L16 13"/><path d="M16 13 L18 17"/><path d="M13 10 L12 15"/></g><g fill="var(--accent-soft)"><circle cx="5" cy="9" r=".8"/><circle cx="9" cy="11" r=".8"/><circle cx="13" cy="10" r=".8"/><circle cx="16" cy="13" r="1"/><circle cx="18" cy="17" r=".8"/><circle cx="12" cy="15" r=".8"/></g></g><g transform="translate(20 20) scale(1)"><g fill="none" stroke="var(--accent)"><path d="M8 17 L6 14 L9 11 L13 12 L16 10 L18 7"/><path d="M13 12 L16 15"/></g><g fill="var(--accent-soft)"><circle cx="6" cy="14" r="1"/><circle cx="9" cy="11" r=".8"/><circle cx="13" cy="12" r=".8"/><circle cx="16" cy="10" r=".8"/><circle cx="18" cy="7" r=".8"/><circle cx="16" cy="15" r=".8"/><circle cx="8" cy="17" r=".8"/></g></g></g><g fill="none" stroke="var(--accent)" stroke-width=".5" opacity=".4"><path d="M14.6 38.8 L37.8 20.1"/></g><g fill="var(--accent)" opacity=".85"><circle cx="14.6" cy="38.8" r=".6"/><circle cx="37.8" cy="20.1" r="1"/><circle cx="39.5" cy="26.2" r=".7"/><circle cx="38.7" cy="38.4" r="1"/><circle cx="43.2" cy="16.8" r=".7"/></g></svg>
