<svg class="sigil" viewBox="0 0 64 64" role="img" aria-labelledby="s-title s-desc" xmlns="http://www.w3.org/2000/svg"><title id="s-title">Sigil of the Luna Moth</title><desc id="s-desc">Libra crossed with the Year of the Goat, a Air animal.</desc><circle cx="32" cy="32" r="26" fill="var(--glow)" opacity=".5"/><circle cx="32" cy="32" r="25" stroke="var(--accent)" stroke-width="1" stroke-linecap="round" fill="none" stroke-dasharray="3 4" opacity=".75" transform="rotate(150 32 32)"/><g stroke-width="var(--glyph-stroke,1.5)" stroke-linecap="round" stroke-linejoin="round"><g transform="translate(16 17) scale(1.3)" opacity=".55"><g fill="none" stroke="var(--accent)"><path d="M6 11 L12 7 L18 11"/><path d="M6 11 L6 16"/><path d="M18 11 L18 16"/></g><g fill="var(--accent-soft)"><circle cx="12" cy="7" r="1"/><circle cx="6" cy="11" r=".8"/><circle cx="18" cy="11" r=".8"/><circle cx="6" cy="16" r=".8"/><circle cx="18" cy="16" r=".8"/></g></g><g transform="translate(20 20) scale(1)"><g fill="none" stroke="var(--accent)"><path d="M6 7 L9 9 L7 12"/><path d="M9 9 L13 10 L18 10"/><path d="M18 10 L16 17 L10 16 L13 10"/></g><g fill="var(--accent-soft)"><circle cx="6" cy="7" r=".8"/><circle cx="9" cy="9" r="1"/><circle cx="7" cy="12" r=".8"/><circle cx="13" cy="10" r=".8"/><circle cx="18" cy="10" r=".8"/><circle cx="16" cy="17" r=".8"/><circle cx="10" cy="16" r=".8"/></g></g></g><g fill="none" stroke="var(--accent)" stroke-width=".5" opacity=".4"><path d="M41.8 31.3 L24.1 18.2"/></g><g fill="var(--accent)" opacity=".85"><circle cx="26" cy="46.9" r=".8"/><circle cx="23.1" cy="40.3" r=".8"/><circle cx="41.8" cy="31.3" r=".9"/><circle cx="24.1" cy="18.2" r="1"/><circle cx="22.9" cy="38.6" r="1"/></g></svg>
