<svg class="sigil" viewBox="0 0 64 64" role="img" aria-labelledby="s-title s-desc" xmlns="http://www.w3.org/2000/svg"><title id="s-title">Sigil of the Manatee</title><desc id="s-desc">Pisces crossed with the Year of the Pig, a Water animal.</desc><circle cx="32" cy="32" r="26" fill="var(--glow)" opacity=".5"/><g stroke="var(--accent)" stroke-width="1" stroke-linecap="round" fill="none" opacity=".8"><path d="M14.7 15.3 L12.6 13.2 M34.3 8.1 L34.6 5.1 M52.1 18.9 L54.6 17.2 M54.8 39.5 L57.6 40.5 M40.3 54.5 L41.4 57.3 M19.6 52.5 L18 55.1 M8.2 35.1 L5.2 35.5"/></g><g stroke-width="var(--glyph-stroke,1.5)" stroke-linecap="round" stroke-linejoin="round"><g transform="translate(16 17) scale(1.3)" opacity=".55"><g fill="none" stroke="var(--accent)"><path d="M6 5 L5 9 L6 13"/><path d="M6 5 L12 9 L18 5"/><path d="M6 13 L12 9 L18 13"/><path d="M18 5 L19 9 L18 13"/></g><g fill="var(--accent-soft)"><circle cx="6" cy="5" r=".8"/><circle cx="5" cy="9" r=".8"/><circle cx="6" cy="13" r=".8"/><circle cx="12" cy="9" r="1"/><circle cx="18" cy="5" r=".8"/><circle cx="19" cy="9" r=".8"/><circle cx="18" cy="13" r=".8"/></g></g><g transform="translate(20 20) scale(1)"><g fill="none" stroke="var(--accent)"><path d="M7 9 L9 12"/><path d="M6 11 L9 12 L14 11 L17 12"/><path d="M17 12 L16 17 L9 17 L9 12"/></g><g fill="var(--accent-soft)"><circle cx="7" cy="9" r=".8"/><circle cx="6" cy="11" r=".8"/><circle cx="9" cy="12" r="1"/><circle cx="14" cy="11" r=".8"/><circle cx="17" cy="12" r=".8"/><circle cx="16" cy="17" r=".8"/><circle cx="9" cy="17" r=".8"/></g></g></g><g fill="var(--accent)" opacity=".85"><circle cx="21.5" cy="36.2" r="1"/><circle cx="41" cy="42.9" r=".9"/><circle cx="48.6" cy="34.5" r="1"/></g></svg>
