<svg class="sigil" viewBox="0 0 64 64" role="img" aria-labelledby="s-title s-desc" xmlns="http://www.w3.org/2000/svg"><title id="s-title">Sigil of the Mandarin Dragonet</title><desc id="s-desc">Pisces crossed with the Year of the Rooster, a Water animal.</desc><circle cx="32" cy="32" r="26" fill="var(--glow)" opacity=".5"/><g stroke="var(--accent)" stroke-width="1" stroke-linecap="round" fill="none" opacity=".8"><path d="M33.7 55.9 L33.9 58.9 M14.3 48.2 L12.1 50.3 M8.3 28.3 L5.3 27.8 M20.1 11.2 L18.6 8.6 M40.9 9.7 L42 6.9 M55 25 L57.8 24.2 M51.8 45.6 L54.2 47.3"/></g><g stroke-width="var(--glyph-stroke,1.5)" stroke-linecap="round" stroke-linejoin="round"><g transform="translate(16 17) scale(1.3)" opacity=".55"><g fill="none" stroke="var(--accent)"><path d="M6 5 L5 9 L6 13"/><path d="M6 5 L12 9 L18 5"/><path d="M6 13 L12 9 L18 13"/><path d="M18 5 L19 9 L18 13"/></g><g fill="var(--accent-soft)"><circle cx="6" cy="5" r=".8"/><circle cx="5" cy="9" r=".8"/><circle cx="6" cy="13" r=".8"/><circle cx="12" cy="9" r="1"/><circle cx="18" cy="5" r=".8"/><circle cx="19" cy="9" r=".8"/><circle cx="18" cy="13" r=".8"/></g></g><g transform="translate(20 20) scale(1)"><g fill="none" stroke="var(--accent)"><path d="M6 6 L9 9"/><path d="M8 5 L9 9 L13 11 L17 13 L14 17 L10 16 L13 11"/></g><g fill="var(--accent-soft)"><circle cx="6" cy="6" r=".8"/><circle cx="8" cy="5" r=".8"/><circle cx="9" cy="9" r="1"/><circle cx="13" cy="11" r=".8"/><circle cx="17" cy="13" r=".8"/><circle cx="14" cy="17" r=".8"/><circle cx="10" cy="16" r=".8"/></g></g></g><g fill="var(--accent)" opacity=".85"><circle cx="48.5" cy="34.9" r="1"/><circle cx="42.7" cy="17.5" r=".8"/><circle cx="29.8" cy="44.4" r="1"/><circle cx="29.6" cy="47.2" r="1"/><circle cx="47.2" cy="36.7" r=".9"/></g></svg>
