<svg class="sigil" viewBox="0 0 64 64" role="img" aria-labelledby="s-title s-desc" xmlns="http://www.w3.org/2000/svg"><title id="s-title">Sigil of the Mangshan Pit Viper</title><desc id="s-desc">Capricorn crossed with the Year of the Snake, a Earth animal.</desc><circle cx="32" cy="32" r="26" fill="var(--glow)" opacity=".5"/><g stroke="var(--accent)" stroke-width="1" stroke-linecap="round" fill="none" opacity=".75"><path d="M12.3 16.6 L47.4 12.3 L51.7 47.4 L16.6 51.7 Z"/></g><g fill="var(--accent-soft)"><circle cx="12.3" cy="16.6" r="1.1"/><circle cx="47.4" cy="12.3" r="1.1"/><circle cx="51.7" cy="47.4" r="1.1"/><circle cx="16.6" cy="51.7" r="1.1"/></g><g stroke-width="var(--glyph-stroke,1.5)" stroke-linecap="round" stroke-linejoin="round"><g transform="translate(16 17) scale(1.3)" opacity=".55"><g fill="none" stroke="var(--accent)"><path d="M6 8 L10 6 L14 10 L18 17 L9 15 L6 8"/></g><g fill="var(--accent-soft)"><circle cx="6" cy="8" r=".8"/><circle cx="10" cy="6" r="1"/><circle cx="14" cy="10" r=".8"/><circle cx="18" cy="17" r=".8"/><circle cx="9" cy="15" r=".8"/><circle cx="6" cy="8" r=".8"/></g></g><g transform="translate(20 20) scale(1)"><g fill="none" stroke="var(--accent)"><path d="M6 6 L10 7 L12 11 L9 14 L12 17 L17 17 L19 13"/></g><g fill="var(--accent-soft)"><circle cx="6" cy="6" r=".8"/><circle cx="10" cy="7" r=".8"/><circle cx="12" cy="11" r=".8"/><circle cx="9" cy="14" r=".8"/><circle cx="12" cy="17" r=".8"/><circle cx="17" cy="17" r="1"/><circle cx="19" cy="13" r=".8"/></g></g></g><g fill="none" stroke="var(--accent)" stroke-width=".5" opacity=".4"><path d="M18.7 43 L28.1 23"/></g><g fill="var(--accent)" opacity=".85"><circle cx="34.1" cy="13.9" r=".9"/><circle cx="34.2" cy="46" r="1"/><circle cx="18.7" cy="43" r="1"/><circle cx="28.1" cy="23" r=".9"/></g></svg>
