<svg class="sigil" viewBox="0 0 64 64" role="img" aria-labelledby="s-title s-desc" xmlns="http://www.w3.org/2000/svg"><title id="s-title">Sigil of the Marbled Polecat</title><desc id="s-desc">Capricorn crossed with the Year of the Rat, a Earth animal.</desc><circle cx="32" cy="32" r="26" fill="var(--glow)" opacity=".5"/><g stroke="var(--accent)" stroke-width="1" stroke-linecap="round" fill="none" opacity=".75"><path d="M44.5 10.3 L53.7 44.5 L19.5 53.7 L10.3 19.5 Z"/></g><g fill="var(--accent-soft)"><circle cx="44.5" cy="10.3" r="1.1"/><circle cx="53.7" cy="44.5" r="1.1"/><circle cx="19.5" cy="53.7" r="1.1"/><circle cx="10.3" cy="19.5" r="1.1"/></g><g stroke-width="var(--glyph-stroke,1.5)" stroke-linecap="round" stroke-linejoin="round"><g transform="translate(16 17) scale(1.3)" opacity=".55"><g fill="none" stroke="var(--accent)"><path d="M6 8 L10 6 L14 10 L18 17 L9 15 L6 8"/></g><g fill="var(--accent-soft)"><circle cx="6" cy="8" r=".8"/><circle cx="10" cy="6" r="1"/><circle cx="14" cy="10" r=".8"/><circle cx="18" cy="17" r=".8"/><circle cx="9" cy="15" r=".8"/><circle cx="6" cy="8" r=".8"/></g></g><g transform="translate(20 20) scale(1)"><g fill="none" stroke="var(--accent)"><path d="M8 17 L6 14 L9 11 L13 12 L16 10 L18 7"/><path d="M13 12 L16 15"/></g><g fill="var(--accent-soft)"><circle cx="6" cy="14" r="1"/><circle cx="9" cy="11" r=".8"/><circle cx="13" cy="12" r=".8"/><circle cx="16" cy="10" r=".8"/><circle cx="18" cy="7" r=".8"/><circle cx="16" cy="15" r=".8"/><circle cx="8" cy="17" r=".8"/></g></g></g><g fill="none" stroke="var(--accent)" stroke-width=".5" opacity=".4"><path d="M29 13.9 L42 27.7"/></g><g fill="var(--accent)" opacity=".85"><circle cx="43.4" cy="39.6" r="1"/><circle cx="15.1" cy="21.5" r="1"/><circle cx="18.1" cy="34" r="1"/><circle cx="23.9" cy="46" r=".9"/><circle cx="29" cy="13.9" r="1"/><circle cx="42" cy="27.7" r=".8"/></g></svg>
