<svg class="sigil" viewBox="0 0 64 64" role="img" aria-labelledby="s-title s-desc" xmlns="http://www.w3.org/2000/svg"><title id="s-title">Sigil of the Moon Bear</title><desc id="s-desc">Cancer crossed with the Year of the Tiger, a Water animal.</desc><circle cx="32" cy="32" r="26" fill="var(--glow)" opacity=".5"/><g stroke="var(--accent)" stroke-width="1" stroke-linecap="round" fill="none" opacity=".8"><path d="M9 25 L6.2 24.1 M23.2 9.7 L22.1 6.9 M43.9 11.2 L45.4 8.6 M55.7 28.4 L58.7 27.9 M49.6 48.3 L51.8 50.3 M30.3 55.9 L30 58.9 M12.2 45.6 L9.7 47.3"/></g><g stroke-width="var(--glyph-stroke,1.5)" stroke-linecap="round" stroke-linejoin="round"><g transform="translate(16 17) scale(1.3)" opacity=".55"><g fill="none" stroke="var(--accent)"><path d="M7 5 L12 8 L17 5"/><path d="M12 8 L12 14"/><path d="M8 18 L12 14 L16 18"/></g><g fill="var(--accent-soft)"><circle cx="12" cy="14" r="1"/><circle cx="12" cy="8" r=".8"/><circle cx="7" cy="5" r=".8"/><circle cx="17" cy="5" r=".8"/><circle cx="8" cy="18" r=".8"/><circle cx="16" cy="18" r=".8"/></g></g><g transform="translate(20 20) scale(1)"><g fill="none" stroke="var(--accent)"><path d="M5 7 L8 9 L12 8 L16 10 L18 7"/><path d="M16 10 L16 16 L8 15 L8 9"/><path d="M8 15 L6 17"/></g><g fill="var(--accent-soft)"><circle cx="5" cy="7" r=".8"/><circle cx="8" cy="9" r="1"/><circle cx="12" cy="8" r=".8"/><circle cx="16" cy="10" r=".8"/><circle cx="18" cy="7" r=".8"/><circle cx="16" cy="16" r=".8"/><circle cx="8" cy="15" r=".8"/><circle cx="6" cy="17" r=".8"/></g></g></g><g fill="var(--accent)" opacity=".85"><circle cx="39.1" cy="48.2" r=".9"/><circle cx="33.5" cy="45.8" r=".9"/><circle cx="34.1" cy="40.9" r=".7"/><circle cx="31.4" cy="16.9" r="1"/></g></svg>
