<svg class="sigil" viewBox="0 0 64 64" role="img" aria-labelledby="s-title s-desc" xmlns="http://www.w3.org/2000/svg"><title id="s-title">Sigil of the Mountain Pygmy Possum</title><desc id="s-desc">Capricorn crossed with the Year of the Rabbit, a Earth animal.</desc><circle cx="32" cy="32" r="26" fill="var(--glow)" opacity=".5"/><g stroke="var(--accent)" stroke-width="1" stroke-linecap="round" fill="none" opacity=".75"><path d="M9.5 43 L21 9.5 L54.5 21 L43 54.5 Z"/></g><g fill="var(--accent-soft)"><circle cx="9.5" cy="43" r="1.1"/><circle cx="21" cy="9.5" r="1.1"/><circle cx="54.5" cy="21" r="1.1"/><circle cx="43" cy="54.5" r="1.1"/></g><g stroke-width="var(--glyph-stroke,1.5)" stroke-linecap="round" stroke-linejoin="round"><g transform="translate(16 17) scale(1.3)" opacity=".55"><g fill="none" stroke="var(--accent)"><path d="M6 8 L10 6 L14 10 L18 17 L9 15 L6 8"/></g><g fill="var(--accent-soft)"><circle cx="6" cy="8" r=".8"/><circle cx="10" cy="6" r="1"/><circle cx="14" cy="10" r=".8"/><circle cx="18" cy="17" r=".8"/><circle cx="9" cy="15" r=".8"/><circle cx="6" cy="8" r=".8"/></g></g><g transform="translate(20 20) scale(1)"><g fill="none" stroke="var(--accent)"><path d="M8 6 L10 10 L12 6"/><path d="M10 10 L8 15"/><path d="M10 10 L14 14 L16 17"/></g><g fill="var(--accent-soft)"><circle cx="8" cy="6" r=".8"/><circle cx="10" cy="10" r="1"/><circle cx="12" cy="6" r=".8"/><circle cx="10" cy="10" r=".8"/><circle cx="8" cy="15" r=".8"/><circle cx="14" cy="14" r=".8"/><circle cx="16" cy="17" r=".8"/></g></g></g><g fill="none" stroke="var(--accent)" stroke-width=".5" opacity=".4"><path d="M23.6 26.9 L28.3 42.5"/></g><g fill="var(--accent)" opacity=".85"><circle cx="42.8" cy="33.6" r=".9"/><circle cx="29.7" cy="18.3" r=".9"/><circle cx="23.6" cy="26.9" r=".7"/><circle cx="28.3" cy="42.5" r="1"/></g></svg>
