<svg class="sigil" viewBox="0 0 64 64" role="img" aria-labelledby="s-title s-desc" xmlns="http://www.w3.org/2000/svg"><title id="s-title">Sigil of the Mountain Lion</title><desc id="s-desc">Capricorn crossed with the Year of the Tiger, a Earth animal.</desc><circle cx="32" cy="32" r="26" fill="var(--glow)" opacity=".5"/><g stroke="var(--accent)" stroke-width="1" stroke-linecap="round" fill="none" opacity=".75"><path d="M15.3 50.6 L13.4 15.3 L48.7 13.4 L50.6 48.7 Z"/></g><g fill="var(--accent-soft)"><circle cx="15.3" cy="50.6" r="1.1"/><circle cx="13.4" cy="15.3" r="1.1"/><circle cx="48.7" cy="13.4" r="1.1"/><circle cx="50.6" cy="48.7" r="1.1"/></g><g stroke-width="var(--glyph-stroke,1.5)" stroke-linecap="round" stroke-linejoin="round"><g transform="translate(16 17) scale(1.3)" opacity=".55"><g fill="none" stroke="var(--accent)"><path d="M6 8 L10 6 L14 10 L18 17 L9 15 L6 8"/></g><g fill="var(--accent-soft)"><circle cx="6" cy="8" r=".8"/><circle cx="10" cy="6" r="1"/><circle cx="14" cy="10" r=".8"/><circle cx="18" cy="17" r=".8"/><circle cx="9" cy="15" r=".8"/><circle cx="6" cy="8" r=".8"/></g></g><g transform="translate(20 20) scale(1)"><g fill="none" stroke="var(--accent)"><path d="M5 7 L8 9 L12 8 L16 10 L18 7"/><path d="M16 10 L16 16 L8 15 L8 9"/><path d="M8 15 L6 17"/></g><g fill="var(--accent-soft)"><circle cx="5" cy="7" r=".8"/><circle cx="8" cy="9" r="1"/><circle cx="12" cy="8" r=".8"/><circle cx="16" cy="10" r=".8"/><circle cx="18" cy="7" r=".8"/><circle cx="16" cy="16" r=".8"/><circle cx="8" cy="15" r=".8"/><circle cx="6" cy="17" r=".8"/></g></g></g><g fill="none" stroke="var(--accent)" stroke-width=".5" opacity=".4"><path d="M44.6 29.2 L39.2 42.2"/></g><g fill="var(--accent)" opacity=".85"><circle cx="44.6" cy="29.2" r="1"/><circle cx="39.2" cy="42.2" r=".7"/><circle cx="37.3" cy="16.2" r=".6"/><circle cx="32.3" cy="46.6" r=".8"/><circle cx="44.2" cy="18.9" r=".7"/><circle cx="38" cy="39.2" r="1"/></g></svg>
