<svg class="sigil" viewBox="0 0 64 64" role="img" aria-labelledby="s-title s-desc" xmlns="http://www.w3.org/2000/svg"><title id="s-title">Sigil of the Mountain Zebra</title><desc id="s-desc">Capricorn crossed with the Year of the Horse, a Earth animal.</desc><circle cx="32" cy="32" r="26" fill="var(--glow)" opacity=".5"/><g stroke="var(--accent)" stroke-width="1" stroke-linecap="round" fill="none" opacity=".75"><path d="M18 52.7 L11.3 18 L46 11.3 L52.7 46 Z"/></g><g fill="var(--accent-soft)"><circle cx="18" cy="52.7" r="1.1"/><circle cx="11.3" cy="18" r="1.1"/><circle cx="46" cy="11.3" r="1.1"/><circle cx="52.7" cy="46" r="1.1"/></g><g stroke-width="var(--glyph-stroke,1.5)" stroke-linecap="round" stroke-linejoin="round"><g transform="translate(16 17) scale(1.3)" opacity=".55"><g fill="none" stroke="var(--accent)"><path d="M6 8 L10 6 L14 10 L18 17 L9 15 L6 8"/></g><g fill="var(--accent-soft)"><circle cx="6" cy="8" r=".8"/><circle cx="10" cy="6" r="1"/><circle cx="14" cy="10" r=".8"/><circle cx="18" cy="17" r=".8"/><circle cx="9" cy="15" r=".8"/><circle cx="6" cy="8" r=".8"/></g></g><g transform="translate(20 20) scale(1)"><g fill="none" stroke="var(--accent)"><path d="M7 5 L9 9 L7 12"/><path d="M9 9 L12 10 L17 9"/><path d="M17 9 L16 17 L10 16 L12 10"/></g><g fill="var(--accent-soft)"><circle cx="7" cy="5" r=".8"/><circle cx="9" cy="9" r="1"/><circle cx="7" cy="12" r=".8"/><circle cx="12" cy="10" r=".8"/><circle cx="17" cy="9" r=".8"/><circle cx="16" cy="17" r=".8"/><circle cx="10" cy="16" r=".8"/></g></g></g><g fill="none" stroke="var(--accent)" stroke-width=".5" opacity=".4"><path d="M24.7 18.6 L42.3 26.9 M20.9 24.5 L40.7 38 M20.2 41.6 L18.3 34.3"/></g><g fill="var(--accent)" opacity=".85"><circle cx="24.7" cy="18.6" r=".9"/><circle cx="42.3" cy="26.9" r=".7"/><circle cx="20.9" cy="24.5" r="1"/><circle cx="40.7" cy="38" r=".6"/><circle cx="20.2" cy="41.6" r=".9"/><circle cx="18.3" cy="34.3" r=".9"/></g></svg>
