<svg class="sigil" viewBox="0 0 64 64" role="img" aria-labelledby="s-title s-desc" xmlns="http://www.w3.org/2000/svg"><title id="s-title">Sigil of the New Caledonian Crow</title><desc id="s-desc">Virgo crossed with the Year of the Monkey, a Earth animal.</desc><circle cx="32" cy="32" r="26" fill="var(--glow)" opacity=".5"/><g stroke="var(--accent)" stroke-width="1" stroke-linecap="round" fill="none" opacity=".75"><path d="M56.8 29 L35 56.8 L7.2 35 L29 7.2 Z"/></g><g fill="var(--accent-soft)"><circle cx="56.8" cy="29" r="1.1"/><circle cx="35" cy="56.8" r="1.1"/><circle cx="7.2" cy="35" r="1.1"/><circle cx="29" cy="7.2" r="1.1"/></g><g stroke-width="var(--glyph-stroke,1.5)" stroke-linecap="round" stroke-linejoin="round"><g transform="translate(16 17) scale(1.3)" opacity=".55"><g fill="none" stroke="var(--accent)"><path d="M5 9 L9 11 L13 10 L16 13"/><path d="M16 13 L18 17"/><path d="M13 10 L12 15"/></g><g fill="var(--accent-soft)"><circle cx="5" cy="9" r=".8"/><circle cx="9" cy="11" r=".8"/><circle cx="13" cy="10" r=".8"/><circle cx="16" cy="13" r="1"/><circle cx="18" cy="17" r=".8"/><circle cx="12" cy="15" r=".8"/></g></g><g transform="translate(20 20) scale(1)"><g fill="none" stroke="var(--accent)"><path d="M9 6 L7 10 L10 13 L14 12 L16 16 L13 18"/><path d="M9 6 L13 9 L14 12"/></g><g fill="var(--accent-soft)"><circle cx="9" cy="6" r="1"/><circle cx="7" cy="10" r=".8"/><circle cx="10" cy="13" r=".8"/><circle cx="14" cy="12" r=".8"/><circle cx="16" cy="16" r=".8"/><circle cx="13" cy="18" r=".8"/><circle cx="13" cy="9" r=".8"/></g></g></g><g fill="none" stroke="var(--accent)" stroke-width=".5" opacity=".4"><path d="M36 17 L43.6 26.3"/></g><g fill="var(--accent)" opacity=".85"><circle cx="36" cy="17" r=".7"/><circle cx="43.6" cy="26.3" r=".9"/><circle cx="47.9" cy="23.3" r=".9"/></g></svg>
