<svg class="sigil" viewBox="0 0 64 64" role="img" aria-labelledby="s-title s-desc" xmlns="http://www.w3.org/2000/svg"><title id="s-title">Sigil of the Orangutan</title><desc id="s-desc">Taurus crossed with the Year of the Monkey, a Earth animal.</desc><circle cx="32" cy="32" r="26" fill="var(--glow)" opacity=".5"/><g stroke="var(--accent)" stroke-width="1" stroke-linecap="round" fill="none" opacity=".75"><path d="M44.1 10.1 L53.9 44.1 L19.9 53.9 L10.1 19.9 Z"/></g><g fill="var(--accent-soft)"><circle cx="44.1" cy="10.1" r="1.1"/><circle cx="53.9" cy="44.1" r="1.1"/><circle cx="19.9" cy="53.9" r="1.1"/><circle cx="10.1" cy="19.9" r="1.1"/></g><g stroke-width="var(--glyph-stroke,1.5)" stroke-linecap="round" stroke-linejoin="round"><g transform="translate(16 17) scale(1.3)" opacity=".55"><g fill="none" stroke="var(--accent)"><path d="M6 8 L9 12 L12 15 L15 12 L18 8"/></g><g fill="var(--accent-soft)"><circle cx="12" cy="15" r="1"/><circle cx="9" cy="12" r=".8"/><circle cx="6" cy="8" r=".8"/><circle cx="15" cy="12" r=".8"/><circle cx="18" cy="8" r=".8"/><circle cx="12" cy="15" r=".8"/></g></g><g transform="translate(20 20) scale(1)"><g fill="none" stroke="var(--accent)"><path d="M9 6 L7 10 L10 13 L14 12 L16 16 L13 18"/><path d="M9 6 L13 9 L14 12"/></g><g fill="var(--accent-soft)"><circle cx="9" cy="6" r="1"/><circle cx="7" cy="10" r=".8"/><circle cx="10" cy="13" r=".8"/><circle cx="14" cy="12" r=".8"/><circle cx="16" cy="16" r=".8"/><circle cx="13" cy="18" r=".8"/><circle cx="13" cy="9" r=".8"/></g></g></g><g fill="var(--accent)" opacity=".85"><circle cx="18.7" cy="42.2" r="1"/><circle cx="22" cy="23.5" r="1"/><circle cx="43.5" cy="28.1" r=".9"/><circle cx="17.6" cy="24.8" r="1"/><circle cx="33.7" cy="22.6" r=".7"/></g></svg>
