<svg class="sigil" viewBox="0 0 64 64" role="img" aria-labelledby="s-title s-desc" xmlns="http://www.w3.org/2000/svg"><title id="s-title">Sigil of the Pallas's Cat</title><desc id="s-desc">Scorpio crossed with the Year of the Rabbit, a Water animal.</desc><circle cx="32" cy="32" r="26" fill="var(--glow)" opacity=".5"/><g stroke="var(--accent)" stroke-width="1" stroke-linecap="round" fill="none" opacity=".8"><path d="M44.7 52.4 L46.3 54.9 M24 54.6 L23 57.5 M9.3 39.9 L6.5 40.9 M11.7 19.2 L9.2 17.6 M29.4 8.1 L29 5.2 M49 15.1 L51.1 13 M55.8 34.7 L58.8 35.1"/></g><g stroke-width="var(--glyph-stroke,1.5)" stroke-linecap="round" stroke-linejoin="round"><g transform="translate(16 17) scale(1.3)" opacity=".55"><g fill="none" stroke="var(--accent)"><path d="M5 7 L6 11 L9 13 L13 13 L16 15 L18 18 L16 20"/><path d="M8 8 L9 13"/></g><g fill="var(--accent-soft)"><circle cx="5" cy="7" r=".8"/><circle cx="6" cy="11" r=".8"/><circle cx="9" cy="13" r=".8"/><circle cx="13" cy="13" r="1"/><circle cx="16" cy="15" r=".8"/><circle cx="18" cy="18" r=".8"/><circle cx="16" cy="20" r=".8"/><circle cx="8" cy="8" r=".8"/></g></g><g transform="translate(20 20) scale(1)"><g fill="none" stroke="var(--accent)"><path d="M8 6 L10 10 L12 6"/><path d="M10 10 L8 15"/><path d="M10 10 L14 14 L16 17"/></g><g fill="var(--accent-soft)"><circle cx="8" cy="6" r=".8"/><circle cx="10" cy="10" r="1"/><circle cx="12" cy="6" r=".8"/><circle cx="10" cy="10" r=".8"/><circle cx="8" cy="15" r=".8"/><circle cx="14" cy="14" r=".8"/><circle cx="16" cy="17" r=".8"/></g></g></g><g fill="none" stroke="var(--accent)" stroke-width=".5" opacity=".4"><path d="M21.3 46.8 L24.4 24.9"/></g><g fill="var(--accent)" opacity=".85"><circle cx="42.7" cy="39.9" r=".9"/><circle cx="35.1" cy="44.9" r="1"/><circle cx="21.3" cy="46.8" r="1"/><circle cx="24.4" cy="24.9" r=".9"/><circle cx="36.8" cy="39.9" r="1"/></g></svg>
