<svg class="sigil" viewBox="0 0 64 64" role="img" aria-labelledby="s-title s-desc" xmlns="http://www.w3.org/2000/svg"><title id="s-title">Sigil of the Pangolin</title><desc id="s-desc">Taurus crossed with the Year of the Snake, a Earth animal.</desc><circle cx="32" cy="32" r="26" fill="var(--glow)" opacity=".5"/><g stroke="var(--accent)" stroke-width="1" stroke-linecap="round" fill="none" opacity=".75"><path d="M52.7 46 L18 52.7 L11.3 18 L46 11.3 Z"/></g><g fill="var(--accent-soft)"><circle cx="52.7" cy="46" r="1.1"/><circle cx="18" cy="52.7" r="1.1"/><circle cx="11.3" cy="18" r="1.1"/><circle cx="46" cy="11.3" r="1.1"/></g><g stroke-width="var(--glyph-stroke,1.5)" stroke-linecap="round" stroke-linejoin="round"><g transform="translate(16 17) scale(1.3)" opacity=".55"><g fill="none" stroke="var(--accent)"><path d="M6 8 L9 12 L12 15 L15 12 L18 8"/></g><g fill="var(--accent-soft)"><circle cx="12" cy="15" r="1"/><circle cx="9" cy="12" r=".8"/><circle cx="6" cy="8" r=".8"/><circle cx="15" cy="12" r=".8"/><circle cx="18" cy="8" r=".8"/><circle cx="12" cy="15" r=".8"/></g></g><g transform="translate(20 20) scale(1)"><g fill="none" stroke="var(--accent)"><path d="M6 6 L10 7 L12 11 L9 14 L12 17 L17 17 L19 13"/></g><g fill="var(--accent-soft)"><circle cx="6" cy="6" r=".8"/><circle cx="10" cy="7" r=".8"/><circle cx="12" cy="11" r=".8"/><circle cx="9" cy="14" r=".8"/><circle cx="12" cy="17" r=".8"/><circle cx="17" cy="17" r="1"/><circle cx="19" cy="13" r=".8"/></g></g></g><g fill="none" stroke="var(--accent)" stroke-width=".5" opacity=".4"><path d="M40.6 26.4 L16.9 30"/></g><g fill="var(--accent)" opacity=".85"><circle cx="30.1" cy="43.4" r="1"/><circle cx="29.9" cy="13.5" r=".8"/><circle cx="40.6" cy="26.4" r=".9"/><circle cx="16.9" cy="30" r=".7"/></g></svg>
