<svg class="sigil" viewBox="0 0 64 64" role="img" aria-labelledby="s-title s-desc" xmlns="http://www.w3.org/2000/svg"><title id="s-title">Sigil of the Paradise Riflebird</title><desc id="s-desc">Leo crossed with the Year of the Horse, a Fire animal.</desc><circle cx="32" cy="32" r="26" fill="var(--glow)" opacity=".5"/><g stroke="var(--accent)" stroke-width="1" stroke-linecap="round" fill="none" opacity=".8"><path d="M8 38.9 L5.1 39.7 M18 11.3 L16.3 8.8 M47.4 12.3 L49.2 9.9 M55.5 40.6 L58.3 41.6 M31.1 57 L31 60"/></g><g stroke-width="var(--glyph-stroke,1.5)" stroke-linecap="round" stroke-linejoin="round"><g transform="translate(16 17) scale(1.3)" opacity=".55"><g fill="none" stroke="var(--accent)"><path d="M7 7 L6 11 L8 14 L12 15 L15 13"/><path d="M15 13 L15 18 L19 17"/><path d="M10 9 L12 15"/></g><g fill="var(--accent-soft)"><circle cx="7" cy="7" r=".8"/><circle cx="6" cy="11" r=".8"/><circle cx="8" cy="14" r=".8"/><circle cx="12" cy="15" r=".8"/><circle cx="15" cy="13" r="1"/><circle cx="15" cy="18" r=".8"/><circle cx="19" cy="17" r=".8"/><circle cx="10" cy="9" r=".8"/></g></g><g transform="translate(20 20) scale(1)"><g fill="none" stroke="var(--accent)"><path d="M7 5 L9 9 L7 12"/><path d="M9 9 L12 10 L17 9"/><path d="M17 9 L16 17 L10 16 L12 10"/></g><g fill="var(--accent-soft)"><circle cx="7" cy="5" r=".8"/><circle cx="9" cy="9" r="1"/><circle cx="7" cy="12" r=".8"/><circle cx="12" cy="10" r=".8"/><circle cx="17" cy="9" r=".8"/><circle cx="16" cy="17" r=".8"/><circle cx="10" cy="16" r=".8"/></g></g></g><g fill="none" stroke="var(--accent)" stroke-width=".5" opacity=".4"><path d="M40.2 16.4 L42.6 19.5"/></g><g fill="var(--accent)" opacity=".85"><circle cx="40.2" cy="16.4" r=".6"/><circle cx="42.6" cy="19.5" r=".9"/><circle cx="48.8" cy="42.8" r=".8"/></g></svg>
