<svg class="sigil" viewBox="0 0 64 64" role="img" aria-labelledby="s-title s-desc" xmlns="http://www.w3.org/2000/svg"><title id="s-title">Sigil of the Penduline Tit</title><desc id="s-desc">Virgo crossed with the Year of the Rabbit, a Earth animal.</desc><circle cx="32" cy="32" r="26" fill="var(--glow)" opacity=".5"/><g stroke="var(--accent)" stroke-width="1" stroke-linecap="round" fill="none" opacity=".75"><path d="M55.8 39.7 L24.3 55.8 L8.2 24.3 L39.7 8.2 Z"/></g><g fill="var(--accent-soft)"><circle cx="55.8" cy="39.7" r="1.1"/><circle cx="24.3" cy="55.8" r="1.1"/><circle cx="8.2" cy="24.3" r="1.1"/><circle cx="39.7" cy="8.2" r="1.1"/></g><g stroke-width="var(--glyph-stroke,1.5)" stroke-linecap="round" stroke-linejoin="round"><g transform="translate(16 17) scale(1.3)" opacity=".55"><g fill="none" stroke="var(--accent)"><path d="M5 9 L9 11 L13 10 L16 13"/><path d="M16 13 L18 17"/><path d="M13 10 L12 15"/></g><g fill="var(--accent-soft)"><circle cx="5" cy="9" r=".8"/><circle cx="9" cy="11" r=".8"/><circle cx="13" cy="10" r=".8"/><circle cx="16" cy="13" r="1"/><circle cx="18" cy="17" r=".8"/><circle cx="12" cy="15" r=".8"/></g></g><g transform="translate(20 20) scale(1)"><g fill="none" stroke="var(--accent)"><path d="M8 6 L10 10 L12 6"/><path d="M10 10 L8 15"/><path d="M10 10 L14 14 L16 17"/></g><g fill="var(--accent-soft)"><circle cx="8" cy="6" r=".8"/><circle cx="10" cy="10" r="1"/><circle cx="12" cy="6" r=".8"/><circle cx="10" cy="10" r=".8"/><circle cx="8" cy="15" r=".8"/><circle cx="14" cy="14" r=".8"/><circle cx="16" cy="17" r=".8"/></g></g></g><g fill="var(--accent)" opacity=".85"><circle cx="43.5" cy="33.7" r="1"/><circle cx="26.9" cy="42.6" r=".7"/><circle cx="23.6" cy="25.8" r=".9"/><circle cx="33.9" cy="42.1" r=".8"/></g></svg>
