<svg class="sigil" viewBox="0 0 64 64" role="img" aria-labelledby="s-title s-desc" xmlns="http://www.w3.org/2000/svg"><title id="s-title">Sigil of the Portuguese Man o' War</title><desc id="s-desc">Aquarius crossed with the Year of the Snake, a Air animal.</desc><circle cx="32" cy="32" r="26" fill="var(--glow)" opacity=".5"/><circle cx="32" cy="32" r="25" stroke="var(--accent)" stroke-width="1" stroke-linecap="round" fill="none" stroke-dasharray="3 4" opacity=".75" transform="rotate(330 32 32)"/><g stroke-width="var(--glyph-stroke,1.5)" stroke-linecap="round" stroke-linejoin="round"><g transform="translate(16 17) scale(1.3)" opacity=".55"><g fill="none" stroke="var(--accent)"><path d="M5 9 L8 11 L11 9 L14 11 L17 9"/><path d="M5 14 L8 16 L11 14 L14 16 L17 14"/></g><g fill="var(--accent-soft)"><circle cx="5" cy="9" r=".8"/><circle cx="8" cy="11" r=".8"/><circle cx="11" cy="9" r=".8"/><circle cx="14" cy="11" r=".8"/><circle cx="17" cy="9" r="1"/><circle cx="5" cy="14" r=".8"/><circle cx="8" cy="16" r=".8"/><circle cx="11" cy="14" r=".8"/><circle cx="14" cy="16" r=".8"/><circle cx="17" cy="14" r=".8"/></g></g><g transform="translate(20 20) scale(1)"><g fill="none" stroke="var(--accent)"><path d="M6 6 L10 7 L12 11 L9 14 L12 17 L17 17 L19 13"/></g><g fill="var(--accent-soft)"><circle cx="6" cy="6" r=".8"/><circle cx="10" cy="7" r=".8"/><circle cx="12" cy="11" r=".8"/><circle cx="9" cy="14" r=".8"/><circle cx="12" cy="17" r=".8"/><circle cx="17" cy="17" r="1"/><circle cx="19" cy="13" r=".8"/></g></g></g><g fill="var(--accent)" opacity=".85"><circle cx="29" cy="17" r="1"/><circle cx="21.1" cy="42.8" r="1"/><circle cx="28.6" cy="16.2" r=".9"/><circle cx="23" cy="15" r=".7"/><circle cx="31.9" cy="46.1" r=".8"/></g></svg>
