<svg class="sigil" viewBox="0 0 64 64" role="img" aria-labelledby="s-title s-desc" xmlns="http://www.w3.org/2000/svg"><title id="s-title">Sigil of the Raven</title><desc id="s-desc">Aquarius crossed with the Year of the Monkey, a Air animal.</desc><circle cx="32" cy="32" r="26" fill="var(--glow)" opacity=".5"/><circle cx="32" cy="32" r="25" stroke="var(--accent)" stroke-width="1" stroke-linecap="round" fill="none" stroke-dasharray="3 4" opacity=".75" transform="rotate(221 32 32)"/><g stroke-width="var(--glyph-stroke,1.5)" stroke-linecap="round" stroke-linejoin="round"><g transform="translate(16 17) scale(1.3)" opacity=".55"><g fill="none" stroke="var(--accent)"><path d="M5 9 L8 11 L11 9 L14 11 L17 9"/><path d="M5 14 L8 16 L11 14 L14 16 L17 14"/></g><g fill="var(--accent-soft)"><circle cx="5" cy="9" r=".8"/><circle cx="8" cy="11" r=".8"/><circle cx="11" cy="9" r=".8"/><circle cx="14" cy="11" r=".8"/><circle cx="17" cy="9" r="1"/><circle cx="5" cy="14" r=".8"/><circle cx="8" cy="16" r=".8"/><circle cx="11" cy="14" r=".8"/><circle cx="14" cy="16" r=".8"/><circle cx="17" cy="14" r=".8"/></g></g><g transform="translate(20 20) scale(1)"><g fill="none" stroke="var(--accent)"><path d="M9 6 L7 10 L10 13 L14 12 L16 16 L13 18"/><path d="M9 6 L13 9 L14 12"/></g><g fill="var(--accent-soft)"><circle cx="9" cy="6" r="1"/><circle cx="7" cy="10" r=".8"/><circle cx="10" cy="13" r=".8"/><circle cx="14" cy="12" r=".8"/><circle cx="16" cy="16" r=".8"/><circle cx="13" cy="18" r=".8"/><circle cx="13" cy="9" r=".8"/></g></g></g><g fill="none" stroke="var(--accent)" stroke-width=".5" opacity=".4"><path d="M48.4 34.3 L34.2 47.4 M35.7 51.6 L31.4 21.1"/></g><g fill="var(--accent)" opacity=".85"><circle cx="48.4" cy="34.3" r=".9"/><circle cx="34.2" cy="47.4" r=".6"/><circle cx="35.7" cy="51.6" r=".8"/><circle cx="31.4" cy="21.1" r=".9"/></g></svg>
