<svg class="sigil" viewBox="0 0 64 64" role="img" aria-labelledby="s-title s-desc" xmlns="http://www.w3.org/2000/svg"><title id="s-title">Sigil of the Roseate Spoonbill</title><desc id="s-desc">Libra crossed with the Year of the Pig, a Air animal.</desc><circle cx="32" cy="32" r="26" fill="var(--glow)" opacity=".5"/><circle cx="32" cy="32" r="25" stroke="var(--accent)" stroke-width="1" stroke-linecap="round" fill="none" stroke-dasharray="3 4" opacity=".75" transform="rotate(135 32 32)"/><g stroke-width="var(--glyph-stroke,1.5)" stroke-linecap="round" stroke-linejoin="round"><g transform="translate(16 17) scale(1.3)" opacity=".55"><g fill="none" stroke="var(--accent)"><path d="M6 11 L12 7 L18 11"/><path d="M6 11 L6 16"/><path d="M18 11 L18 16"/></g><g fill="var(--accent-soft)"><circle cx="12" cy="7" r="1"/><circle cx="6" cy="11" r=".8"/><circle cx="18" cy="11" r=".8"/><circle cx="6" cy="16" r=".8"/><circle cx="18" cy="16" r=".8"/></g></g><g transform="translate(20 20) scale(1)"><g fill="none" stroke="var(--accent)"><path d="M7 9 L9 12"/><path d="M6 11 L9 12 L14 11 L17 12"/><path d="M17 12 L16 17 L9 17 L9 12"/></g><g fill="var(--accent-soft)"><circle cx="7" cy="9" r=".8"/><circle cx="6" cy="11" r=".8"/><circle cx="9" cy="12" r="1"/><circle cx="14" cy="11" r=".8"/><circle cx="17" cy="12" r=".8"/><circle cx="16" cy="17" r=".8"/><circle cx="9" cy="17" r=".8"/></g></g></g><g fill="none" stroke="var(--accent)" stroke-width=".5" opacity=".4"><path d="M34.6 48.9 L37.4 12.9"/></g><g fill="var(--accent)" opacity=".85"><circle cx="34.6" cy="48.9" r="1"/><circle cx="37.4" cy="12.9" r=".6"/><circle cx="23.3" cy="22.5" r="1"/><circle cx="35.9" cy="44.2" r="1"/><circle cx="32.2" cy="15.9" r=".9"/><circle cx="46.5" cy="35.7" r=".8"/></g></svg>
