<svg class="sigil" viewBox="0 0 64 64" role="img" aria-labelledby="s-title s-desc" xmlns="http://www.w3.org/2000/svg"><title id="s-title">Sigil of the Sable Antelope</title><desc id="s-desc">Taurus crossed with the Year of the Tiger, a Earth animal.</desc><circle cx="32" cy="32" r="26" fill="var(--glow)" opacity=".5"/><g stroke="var(--accent)" stroke-width="1" stroke-linecap="round" fill="none" opacity=".75"><path d="M36.3 56.6 L7.4 36.3 L27.7 7.4 L56.6 27.7 Z"/></g><g fill="var(--accent-soft)"><circle cx="36.3" cy="56.6" r="1.1"/><circle cx="7.4" cy="36.3" r="1.1"/><circle cx="27.7" cy="7.4" r="1.1"/><circle cx="56.6" cy="27.7" r="1.1"/></g><g stroke-width="var(--glyph-stroke,1.5)" stroke-linecap="round" stroke-linejoin="round"><g transform="translate(16 17) scale(1.3)" opacity=".55"><g fill="none" stroke="var(--accent)"><path d="M6 8 L9 12 L12 15 L15 12 L18 8"/></g><g fill="var(--accent-soft)"><circle cx="12" cy="15" r="1"/><circle cx="9" cy="12" r=".8"/><circle cx="6" cy="8" r=".8"/><circle cx="15" cy="12" r=".8"/><circle cx="18" cy="8" r=".8"/><circle cx="12" cy="15" r=".8"/></g></g><g transform="translate(20 20) scale(1)"><g fill="none" stroke="var(--accent)"><path d="M5 7 L8 9 L12 8 L16 10 L18 7"/><path d="M16 10 L16 16 L8 15 L8 9"/><path d="M8 15 L6 17"/></g><g fill="var(--accent-soft)"><circle cx="5" cy="7" r=".8"/><circle cx="8" cy="9" r="1"/><circle cx="12" cy="8" r=".8"/><circle cx="16" cy="10" r=".8"/><circle cx="18" cy="7" r=".8"/><circle cx="16" cy="16" r=".8"/><circle cx="8" cy="15" r=".8"/><circle cx="6" cy="17" r=".8"/></g></g></g><g fill="none" stroke="var(--accent)" stroke-width=".5" opacity=".4"><path d="M44 30.3 L44.3 39 M45.5 38.1 L42.2 33.9"/></g><g fill="var(--accent)" opacity=".85"><circle cx="44" cy="30.3" r=".9"/><circle cx="44.3" cy="39" r="1"/><circle cx="45.5" cy="38.1" r="1"/><circle cx="42.2" cy="33.9" r=".9"/><circle cx="50.1" cy="34.9" r=".6"/><circle cx="42.1" cy="20.6" r=".6"/></g></svg>
