<svg class="sigil" viewBox="0 0 64 64" role="img" aria-labelledby="s-title s-desc" xmlns="http://www.w3.org/2000/svg"><title id="s-title">Sigil of the Satin Bowerbird</title><desc id="s-desc">Libra crossed with the Year of the Rooster, a Air animal.</desc><circle cx="32" cy="32" r="26" fill="var(--glow)" opacity=".5"/><circle cx="32" cy="32" r="25" stroke="var(--accent)" stroke-width="1" stroke-linecap="round" fill="none" stroke-dasharray="3 4" opacity=".75" transform="rotate(157 32 32)"/><g stroke-width="var(--glyph-stroke,1.5)" stroke-linecap="round" stroke-linejoin="round"><g transform="translate(16 17) scale(1.3)" opacity=".55"><g fill="none" stroke="var(--accent)"><path d="M6 11 L12 7 L18 11"/><path d="M6 11 L6 16"/><path d="M18 11 L18 16"/></g><g fill="var(--accent-soft)"><circle cx="12" cy="7" r="1"/><circle cx="6" cy="11" r=".8"/><circle cx="18" cy="11" r=".8"/><circle cx="6" cy="16" r=".8"/><circle cx="18" cy="16" r=".8"/></g></g><g transform="translate(20 20) scale(1)"><g fill="none" stroke="var(--accent)"><path d="M6 6 L9 9"/><path d="M8 5 L9 9 L13 11 L17 13 L14 17 L10 16 L13 11"/></g><g fill="var(--accent-soft)"><circle cx="6" cy="6" r=".8"/><circle cx="8" cy="5" r=".8"/><circle cx="9" cy="9" r="1"/><circle cx="13" cy="11" r=".8"/><circle cx="17" cy="13" r=".8"/><circle cx="14" cy="17" r=".8"/><circle cx="10" cy="16" r=".8"/></g></g></g><g fill="none" stroke="var(--accent)" stroke-width=".5" opacity=".4"><path d="M41 18.5 L40.7 49.4 M38.8 46.8 L37.2 16"/></g><g fill="var(--accent)" opacity=".85"><circle cx="41" cy="18.5" r=".7"/><circle cx="40.7" cy="49.4" r=".9"/><circle cx="38.8" cy="46.8" r=".9"/><circle cx="37.2" cy="16" r=".7"/></g></svg>
