<svg class="sigil" viewBox="0 0 64 64" role="img" aria-labelledby="s-title s-desc" xmlns="http://www.w3.org/2000/svg"><title id="s-title">Sigil of the Sea Angel</title><desc id="s-desc">Pisces crossed with the Year of the Horse, a Water animal.</desc><circle cx="32" cy="32" r="26" fill="var(--glow)" opacity=".5"/><g stroke="var(--accent)" stroke-width="1" stroke-linecap="round" fill="none" opacity=".8"><path d="M44 11.2 L45.5 8.6 M55.7 28.4 L58.7 28 M49.6 48.3 L51.8 50.4 M30.2 55.9 L30 58.9 M12.2 45.5 L9.7 47.2 M9.1 24.9 L6.2 24 M23.2 9.7 L22.1 6.9"/></g><g stroke-width="var(--glyph-stroke,1.5)" stroke-linecap="round" stroke-linejoin="round"><g transform="translate(16 17) scale(1.3)" opacity=".55"><g fill="none" stroke="var(--accent)"><path d="M6 5 L5 9 L6 13"/><path d="M6 5 L12 9 L18 5"/><path d="M6 13 L12 9 L18 13"/><path d="M18 5 L19 9 L18 13"/></g><g fill="var(--accent-soft)"><circle cx="6" cy="5" r=".8"/><circle cx="5" cy="9" r=".8"/><circle cx="6" cy="13" r=".8"/><circle cx="12" cy="9" r="1"/><circle cx="18" cy="5" r=".8"/><circle cx="19" cy="9" r=".8"/><circle cx="18" cy="13" r=".8"/></g></g><g transform="translate(20 20) scale(1)"><g fill="none" stroke="var(--accent)"><path d="M7 5 L9 9 L7 12"/><path d="M9 9 L12 10 L17 9"/><path d="M17 9 L16 17 L10 16 L12 10"/></g><g fill="var(--accent-soft)"><circle cx="7" cy="5" r=".8"/><circle cx="9" cy="9" r="1"/><circle cx="7" cy="12" r=".8"/><circle cx="12" cy="10" r=".8"/><circle cx="17" cy="9" r=".8"/><circle cx="16" cy="17" r=".8"/><circle cx="10" cy="16" r=".8"/></g></g></g><g fill="var(--accent)" opacity=".85"><circle cx="21.3" cy="21.7" r=".9"/><circle cx="18.5" cy="29.1" r=".8"/><circle cx="40.6" cy="22.3" r=".6"/></g></svg>
