<svg class="sigil" viewBox="0 0 64 64" role="img" aria-labelledby="s-title s-desc" xmlns="http://www.w3.org/2000/svg"><title id="s-title">Sigil of the Secretary Bird</title><desc id="s-desc">Aries crossed with the Year of the Dragon, a Fire animal.</desc><circle cx="32" cy="32" r="26" fill="var(--glow)" opacity=".5"/><g stroke="var(--accent)" stroke-width="1" stroke-linecap="round" fill="none" opacity=".8"><path d="M20.7 9.7 L19.3 7.1 M49.7 14.3 L51.8 12.2 M54.3 43.3 L56.9 44.7 M28.1 56.7 L27.6 59.7 M7.3 35.9 L4.3 36.4"/></g><g stroke-width="var(--glyph-stroke,1.5)" stroke-linecap="round" stroke-linejoin="round"><g transform="translate(16 17) scale(1.3)" opacity=".55"><g fill="none" stroke="var(--accent)"><path d="M6 16 L9 10 L13 8 L16 11"/><path d="M13 8 L16 11 L19 9"/></g><g fill="var(--accent-soft)"><circle cx="6" cy="16" r=".8"/><circle cx="9" cy="10" r=".8"/><circle cx="13" cy="8" r="1"/><circle cx="16" cy="11" r=".8"/><circle cx="19" cy="9" r=".8"/></g></g><g transform="translate(20 20) scale(1)"><g fill="none" stroke="var(--accent)"><path d="M5 17 L7 13 L11 14 L13 10 L17 9 L19 5"/><path d="M17 9 L16 12"/></g><g fill="var(--accent-soft)"><circle cx="5" cy="17" r=".8"/><circle cx="7" cy="13" r=".8"/><circle cx="11" cy="14" r=".8"/><circle cx="13" cy="10" r=".8"/><circle cx="17" cy="9" r=".8"/><circle cx="19" cy="5" r="1"/><circle cx="16" cy="12" r=".8"/></g></g></g><g fill="none" stroke="var(--accent)" stroke-width=".5" opacity=".4"><path d="M42.7 41.2 L23.9 19.5 M25.7 21.6 L46.5 24.8 M14 39.5 L38.8 14"/></g><g fill="var(--accent)" opacity=".85"><circle cx="42.7" cy="41.2" r=".9"/><circle cx="23.9" cy="19.5" r=".8"/><circle cx="25.7" cy="21.6" r=".7"/><circle cx="46.5" cy="24.8" r=".9"/><circle cx="14" cy="39.5" r=".7"/><circle cx="38.8" cy="14" r=".8"/></g></svg>
