<svg class="sigil" viewBox="0 0 64 64" role="img" aria-labelledby="s-title s-desc" xmlns="http://www.w3.org/2000/svg"><title id="s-title">Sigil of the Shoebill</title><desc id="s-desc">Capricorn crossed with the Year of the Ox, a Earth animal.</desc><circle cx="32" cy="32" r="26" fill="var(--glow)" opacity=".5"/><g stroke="var(--accent)" stroke-width="1" stroke-linecap="round" fill="none" opacity=".75"><path d="M11.8 17.3 L46.7 11.8 L52.2 46.7 L17.3 52.2 Z"/></g><g fill="var(--accent-soft)"><circle cx="11.8" cy="17.3" r="1.1"/><circle cx="46.7" cy="11.8" r="1.1"/><circle cx="52.2" cy="46.7" r="1.1"/><circle cx="17.3" cy="52.2" r="1.1"/></g><g stroke-width="var(--glyph-stroke,1.5)" stroke-linecap="round" stroke-linejoin="round"><g transform="translate(16 17) scale(1.3)" opacity=".55"><g fill="none" stroke="var(--accent)"><path d="M6 8 L10 6 L14 10 L18 17 L9 15 L6 8"/></g><g fill="var(--accent-soft)"><circle cx="6" cy="8" r=".8"/><circle cx="10" cy="6" r="1"/><circle cx="14" cy="10" r=".8"/><circle cx="18" cy="17" r=".8"/><circle cx="9" cy="15" r=".8"/><circle cx="6" cy="8" r=".8"/></g></g><g transform="translate(20 20) scale(1)"><g fill="none" stroke="var(--accent)"><path d="M6 5 L9 7 L6 9"/><path d="M9 7 L12 10 L17 9 L17 16 L10 16 L12 10"/></g><g fill="var(--accent-soft)"><circle cx="6" cy="9" r=".8"/><circle cx="9" cy="7" r="1"/><circle cx="6" cy="5" r=".8"/><circle cx="12" cy="10" r=".8"/><circle cx="17" cy="9" r=".8"/><circle cx="17" cy="16" r=".8"/><circle cx="10" cy="16" r=".8"/></g></g></g><g fill="none" stroke="var(--accent)" stroke-width=".5" opacity=".4"><path d="M38.3 41.4 L13.7 38.1"/></g><g fill="var(--accent)" opacity=".85"><circle cx="51.1" cy="28.7" r="1"/><circle cx="26.3" cy="40.2" r=".8"/><circle cx="44.5" cy="20.9" r=".8"/><circle cx="21.3" cy="28.4" r=".8"/><circle cx="38.3" cy="41.4" r="1"/><circle cx="13.7" cy="38.1" r="1"/></g></svg>
