<svg class="sigil" viewBox="0 0 64 64" role="img" aria-labelledby="s-title s-desc" xmlns="http://www.w3.org/2000/svg"><title id="s-title">Sigil of the Snowy Owl</title><desc id="s-desc">Capricorn crossed with the Year of the Monkey, a Earth animal.</desc><circle cx="32" cy="32" r="26" fill="var(--glow)" opacity=".5"/><g stroke="var(--accent)" stroke-width="1" stroke-linecap="round" fill="none" opacity=".75"><path d="M56.7 28.1 L35.9 56.7 L7.3 35.9 L28.1 7.3 Z"/></g><g fill="var(--accent-soft)"><circle cx="56.7" cy="28.1" r="1.1"/><circle cx="35.9" cy="56.7" r="1.1"/><circle cx="7.3" cy="35.9" r="1.1"/><circle cx="28.1" cy="7.3" r="1.1"/></g><g stroke-width="var(--glyph-stroke,1.5)" stroke-linecap="round" stroke-linejoin="round"><g transform="translate(16 17) scale(1.3)" opacity=".55"><g fill="none" stroke="var(--accent)"><path d="M6 8 L10 6 L14 10 L18 17 L9 15 L6 8"/></g><g fill="var(--accent-soft)"><circle cx="6" cy="8" r=".8"/><circle cx="10" cy="6" r="1"/><circle cx="14" cy="10" r=".8"/><circle cx="18" cy="17" r=".8"/><circle cx="9" cy="15" r=".8"/><circle cx="6" cy="8" r=".8"/></g></g><g transform="translate(20 20) scale(1)"><g fill="none" stroke="var(--accent)"><path d="M9 6 L7 10 L10 13 L14 12 L16 16 L13 18"/><path d="M9 6 L13 9 L14 12"/></g><g fill="var(--accent-soft)"><circle cx="9" cy="6" r="1"/><circle cx="7" cy="10" r=".8"/><circle cx="10" cy="13" r=".8"/><circle cx="14" cy="12" r=".8"/><circle cx="16" cy="16" r=".8"/><circle cx="13" cy="18" r=".8"/><circle cx="13" cy="9" r=".8"/></g></g></g><g fill="none" stroke="var(--accent)" stroke-width=".5" opacity=".4"><path d="M28.3 17.4 L19.8 28.3"/></g><g fill="var(--accent)" opacity=".85"><circle cx="28.3" cy="17.4" r="1"/><circle cx="19.8" cy="28.3" r=".9"/><circle cx="36.9" cy="18.8" r=".9"/><circle cx="16.9" cy="31.5" r="1"/><circle cx="28.4" cy="19.6" r=".9"/></g></svg>
