<svg class="sigil" viewBox="0 0 64 64" role="img" aria-labelledby="s-title s-desc" xmlns="http://www.w3.org/2000/svg"><title id="s-title">Sigil of the Snow Leopard</title><desc id="s-desc">Scorpio crossed with the Year of the Goat, a Water animal.</desc><circle cx="32" cy="32" r="26" fill="var(--glow)" opacity=".5"/><g stroke="var(--accent)" stroke-width="1" stroke-linecap="round" fill="none" opacity=".8"><path d="M54.3 23 L57 21.9 M52.9 43.8 L55.5 45.3 M35.8 55.7 L36.3 58.7 M15.9 49.8 L13.8 52 M8.1 30.4 L5.1 30.3 M18.3 12.3 L16.6 9.8 M38.8 9 L39.7 6.1"/></g><g stroke-width="var(--glyph-stroke,1.5)" stroke-linecap="round" stroke-linejoin="round"><g transform="translate(16 17) scale(1.3)" opacity=".55"><g fill="none" stroke="var(--accent)"><path d="M5 7 L6 11 L9 13 L13 13 L16 15 L18 18 L16 20"/><path d="M8 8 L9 13"/></g><g fill="var(--accent-soft)"><circle cx="5" cy="7" r=".8"/><circle cx="6" cy="11" r=".8"/><circle cx="9" cy="13" r=".8"/><circle cx="13" cy="13" r="1"/><circle cx="16" cy="15" r=".8"/><circle cx="18" cy="18" r=".8"/><circle cx="16" cy="20" r=".8"/><circle cx="8" cy="8" r=".8"/></g></g><g transform="translate(20 20) scale(1)"><g fill="none" stroke="var(--accent)"><path d="M6 7 L9 9 L7 12"/><path d="M9 9 L13 10 L18 10"/><path d="M18 10 L16 17 L10 16 L13 10"/></g><g fill="var(--accent-soft)"><circle cx="6" cy="7" r=".8"/><circle cx="9" cy="9" r="1"/><circle cx="7" cy="12" r=".8"/><circle cx="13" cy="10" r=".8"/><circle cx="18" cy="10" r=".8"/><circle cx="16" cy="17" r=".8"/><circle cx="10" cy="16" r=".8"/></g></g></g><g fill="var(--accent)" opacity=".85"><circle cx="32.4" cy="21.9" r=".9"/><circle cx="51" cy="25.8" r="1"/><circle cx="46" cy="38.4" r=".8"/><circle cx="27.6" cy="48.8" r=".9"/><circle cx="22" cy="38.1" r=".7"/></g></svg>
