<svg class="sigil" viewBox="0 0 64 64" role="img" aria-labelledby="s-title s-desc" xmlns="http://www.w3.org/2000/svg"><title id="s-title">Sigil of the Snow Petrel</title><desc id="s-desc">Taurus crossed with the Year of the Goat, a Earth animal.</desc><circle cx="32" cy="32" r="26" fill="var(--glow)" opacity=".5"/><g stroke="var(--accent)" stroke-width="1" stroke-linecap="round" fill="none" opacity=".75"><path d="M21.8 54.8 L9.2 21.8 L42.2 9.2 L54.8 42.2 Z"/></g><g fill="var(--accent-soft)"><circle cx="21.8" cy="54.8" r="1.1"/><circle cx="9.2" cy="21.8" r="1.1"/><circle cx="42.2" cy="9.2" r="1.1"/><circle cx="54.8" cy="42.2" r="1.1"/></g><g stroke-width="var(--glyph-stroke,1.5)" stroke-linecap="round" stroke-linejoin="round"><g transform="translate(16 17) scale(1.3)" opacity=".55"><g fill="none" stroke="var(--accent)"><path d="M6 8 L9 12 L12 15 L15 12 L18 8"/></g><g fill="var(--accent-soft)"><circle cx="12" cy="15" r="1"/><circle cx="9" cy="12" r=".8"/><circle cx="6" cy="8" r=".8"/><circle cx="15" cy="12" r=".8"/><circle cx="18" cy="8" r=".8"/><circle cx="12" cy="15" r=".8"/></g></g><g transform="translate(20 20) scale(1)"><g fill="none" stroke="var(--accent)"><path d="M6 7 L9 9 L7 12"/><path d="M9 9 L13 10 L18 10"/><path d="M18 10 L16 17 L10 16 L13 10"/></g><g fill="var(--accent-soft)"><circle cx="6" cy="7" r=".8"/><circle cx="9" cy="9" r="1"/><circle cx="7" cy="12" r=".8"/><circle cx="13" cy="10" r=".8"/><circle cx="18" cy="10" r=".8"/><circle cx="16" cy="17" r=".8"/><circle cx="10" cy="16" r=".8"/></g></g></g><g fill="var(--accent)" opacity=".85"><circle cx="47.9" cy="23.1" r="1"/><circle cx="48.8" cy="42.8" r=".8"/><circle cx="24.7" cy="25.6" r=".6"/><circle cx="41.3" cy="23.5" r="1"/></g></svg>
