<svg class="sigil" viewBox="0 0 64 64" role="img" aria-labelledby="s-title s-desc" xmlns="http://www.w3.org/2000/svg"><title id="s-title">Sigil of the Southern Cassowary</title><desc id="s-desc">Aries crossed with the Year of the Rooster, a Fire animal.</desc><circle cx="32" cy="32" r="26" fill="var(--glow)" opacity=".5"/><g stroke="var(--accent)" stroke-width="1" stroke-linecap="round" fill="none" opacity=".8"><path d="M43.7 54.1 L45.1 56.7 M14.6 50 L12.5 52.1 M9.5 21 L6.8 19.7 M35.5 7.2 L35.9 4.3 M56.6 27.7 L59.6 27.1"/></g><g stroke-width="var(--glyph-stroke,1.5)" stroke-linecap="round" stroke-linejoin="round"><g transform="translate(16 17) scale(1.3)" opacity=".55"><g fill="none" stroke="var(--accent)"><path d="M6 16 L9 10 L13 8 L16 11"/><path d="M13 8 L16 11 L19 9"/></g><g fill="var(--accent-soft)"><circle cx="6" cy="16" r=".8"/><circle cx="9" cy="10" r=".8"/><circle cx="13" cy="8" r="1"/><circle cx="16" cy="11" r=".8"/><circle cx="19" cy="9" r=".8"/></g></g><g transform="translate(20 20) scale(1)"><g fill="none" stroke="var(--accent)"><path d="M6 6 L9 9"/><path d="M8 5 L9 9 L13 11 L17 13 L14 17 L10 16 L13 11"/></g><g fill="var(--accent-soft)"><circle cx="6" cy="6" r=".8"/><circle cx="8" cy="5" r=".8"/><circle cx="9" cy="9" r="1"/><circle cx="13" cy="11" r=".8"/><circle cx="17" cy="13" r=".8"/><circle cx="14" cy="17" r=".8"/><circle cx="10" cy="16" r=".8"/></g></g></g><g fill="none" stroke="var(--accent)" stroke-width=".5" opacity=".4"><path d="M28 50.5 L20.8 19.8"/></g><g fill="var(--accent)" opacity=".85"><circle cx="28" cy="50.5" r=".6"/><circle cx="20.8" cy="19.8" r=".7"/><circle cx="20.4" cy="32.4" r=".8"/><circle cx="18.7" cy="34.2" r=".8"/><circle cx="31.9" cy="50.9" r="1"/></g></svg>
