<svg class="sigil" viewBox="0 0 64 64" role="img" aria-labelledby="s-title s-desc" xmlns="http://www.w3.org/2000/svg"><title id="s-title">Sigil of the Spider Monkey</title><desc id="s-desc">Sagittarius crossed with the Year of the Monkey, a Fire animal.</desc><circle cx="32" cy="32" r="26" fill="var(--glow)" opacity=".5"/><g stroke="var(--accent)" stroke-width="1" stroke-linecap="round" fill="none" opacity=".8"><path d="M53.7 44.5 L56.2 46 M26.8 56.5 L26.2 59.4 M7.1 34.6 L4.2 34.9 M21.8 9.2 L20.6 6.4 M50.6 15.3 L52.8 13.3"/></g><g stroke-width="var(--glyph-stroke,1.5)" stroke-linecap="round" stroke-linejoin="round"><g transform="translate(16 17) scale(1.3)" opacity=".55"><g fill="none" stroke="var(--accent)"><path d="M6 6 L9 12 L6 18"/><path d="M9 12 L18 7"/><path d="M15 10 L12 13 L9 16"/></g><g fill="var(--accent-soft)"><circle cx="6" cy="6" r=".8"/><circle cx="6" cy="18" r=".8"/><circle cx="9" cy="12" r="1"/><circle cx="18" cy="7" r=".8"/><circle cx="15" cy="10" r=".8"/><circle cx="12" cy="13" r=".8"/><circle cx="9" cy="16" r=".8"/></g></g><g transform="translate(20 20) scale(1)"><g fill="none" stroke="var(--accent)"><path d="M9 6 L7 10 L10 13 L14 12 L16 16 L13 18"/><path d="M9 6 L13 9 L14 12"/></g><g fill="var(--accent-soft)"><circle cx="9" cy="6" r="1"/><circle cx="7" cy="10" r=".8"/><circle cx="10" cy="13" r=".8"/><circle cx="14" cy="12" r=".8"/><circle cx="16" cy="16" r=".8"/><circle cx="13" cy="18" r=".8"/><circle cx="13" cy="9" r=".8"/></g></g></g><g fill="none" stroke="var(--accent)" stroke-width=".5" opacity=".4"><path d="M42 19.6 L21.6 36.1"/></g><g fill="var(--accent)" opacity=".85"><circle cx="42" cy="19.6" r="1"/><circle cx="21.6" cy="36.1" r="1"/><circle cx="46.3" cy="23" r=".7"/><circle cx="28" cy="49.5" r="1"/><circle cx="48.7" cy="31.5" r="1"/></g></svg>
