<svg class="sigil" viewBox="0 0 64 64" role="img" aria-labelledby="s-title s-desc" xmlns="http://www.w3.org/2000/svg"><title id="s-title">Sigil of the Spotted Cuscus</title><desc id="s-desc">Cancer crossed with the Year of the Monkey, a Water animal.</desc><circle cx="32" cy="32" r="26" fill="var(--glow)" opacity=".5"/><g stroke="var(--accent)" stroke-width="1" stroke-linecap="round" fill="none" opacity=".8"><path d="M28.2 55.7 L27.8 58.7 M11.1 43.8 L8.5 45.3 M9.7 23.1 L6.9 21.9 M25.1 9 L24.2 6.1 M45.7 12.3 L47.4 9.8 M55.9 30.4 L58.9 30.2 M48.2 49.7 L50.2 51.9"/></g><g stroke-width="var(--glyph-stroke,1.5)" stroke-linecap="round" stroke-linejoin="round"><g transform="translate(16 17) scale(1.3)" opacity=".55"><g fill="none" stroke="var(--accent)"><path d="M7 5 L12 8 L17 5"/><path d="M12 8 L12 14"/><path d="M8 18 L12 14 L16 18"/></g><g fill="var(--accent-soft)"><circle cx="12" cy="14" r="1"/><circle cx="12" cy="8" r=".8"/><circle cx="7" cy="5" r=".8"/><circle cx="17" cy="5" r=".8"/><circle cx="8" cy="18" r=".8"/><circle cx="16" cy="18" r=".8"/></g></g><g transform="translate(20 20) scale(1)"><g fill="none" stroke="var(--accent)"><path d="M9 6 L7 10 L10 13 L14 12 L16 16 L13 18"/><path d="M9 6 L13 9 L14 12"/></g><g fill="var(--accent-soft)"><circle cx="9" cy="6" r="1"/><circle cx="7" cy="10" r=".8"/><circle cx="10" cy="13" r=".8"/><circle cx="14" cy="12" r=".8"/><circle cx="16" cy="16" r=".8"/><circle cx="13" cy="18" r=".8"/><circle cx="13" cy="9" r=".8"/></g></g></g><g fill="none" stroke="var(--accent)" stroke-width=".5" opacity=".4"><path d="M26.3 24 L21.3 33.3 M34.8 43.9 L40.8 35.5"/></g><g fill="var(--accent)" opacity=".85"><circle cx="36.4" cy="18.1" r="1"/><circle cx="39.8" cy="47.6" r=".8"/><circle cx="26.3" cy="24" r=".6"/><circle cx="21.3" cy="33.3" r="1"/><circle cx="34.8" cy="43.9" r=".6"/><circle cx="40.8" cy="35.5" r=".9"/></g></svg>
