<svg class="sigil" viewBox="0 0 64 64" role="img" aria-labelledby="s-title s-desc" xmlns="http://www.w3.org/2000/svg"><title id="s-title">Sigil of the Star-nosed Mole</title><desc id="s-desc">Virgo crossed with the Year of the Pig, a Earth animal.</desc><circle cx="32" cy="32" r="26" fill="var(--glow)" opacity=".5"/><g stroke="var(--accent)" stroke-width="1" stroke-linecap="round" fill="none" opacity=".75"><path d="M15.3 50.6 L13.4 15.3 L48.7 13.4 L50.6 48.7 Z"/></g><g fill="var(--accent-soft)"><circle cx="15.3" cy="50.6" r="1.1"/><circle cx="13.4" cy="15.3" r="1.1"/><circle cx="48.7" cy="13.4" r="1.1"/><circle cx="50.6" cy="48.7" r="1.1"/></g><g stroke-width="var(--glyph-stroke,1.5)" stroke-linecap="round" stroke-linejoin="round"><g transform="translate(16 17) scale(1.3)" opacity=".55"><g fill="none" stroke="var(--accent)"><path d="M5 9 L9 11 L13 10 L16 13"/><path d="M16 13 L18 17"/><path d="M13 10 L12 15"/></g><g fill="var(--accent-soft)"><circle cx="5" cy="9" r=".8"/><circle cx="9" cy="11" r=".8"/><circle cx="13" cy="10" r=".8"/><circle cx="16" cy="13" r="1"/><circle cx="18" cy="17" r=".8"/><circle cx="12" cy="15" r=".8"/></g></g><g transform="translate(20 20) scale(1)"><g fill="none" stroke="var(--accent)"><path d="M7 9 L9 12"/><path d="M6 11 L9 12 L14 11 L17 12"/><path d="M17 12 L16 17 L9 17 L9 12"/></g><g fill="var(--accent-soft)"><circle cx="7" cy="9" r=".8"/><circle cx="6" cy="11" r=".8"/><circle cx="9" cy="12" r="1"/><circle cx="14" cy="11" r=".8"/><circle cx="17" cy="12" r=".8"/><circle cx="16" cy="17" r=".8"/><circle cx="9" cy="17" r=".8"/></g></g></g><g fill="var(--accent)" opacity=".85"><circle cx="29.9" cy="50.5" r="1"/><circle cx="29.2" cy="45.6" r=".8"/><circle cx="37" cy="23.4" r=".9"/><circle cx="19.2" cy="42.5" r="1"/><circle cx="22.6" cy="46.4" r=".6"/><circle cx="18.6" cy="34.4" r=".8"/></g></svg>
