<svg class="sigil" viewBox="0 0 64 64" role="img" aria-labelledby="s-title s-desc" xmlns="http://www.w3.org/2000/svg"><title id="s-title">Sigil of the Star-nosed Mole</title><desc id="s-desc">Pisces crossed with the Year of the Rat, a Water animal.</desc><circle cx="32" cy="32" r="26" fill="var(--glow)" opacity=".5"/><g stroke="var(--accent)" stroke-width="1" stroke-linecap="round" fill="none" opacity=".8"><path d="M33.3 56 L33.4 59 M14 47.9 L11.8 49.9 M8.4 27.9 L5.4 27.4 M20.5 11 L19 8.3 M41.3 9.9 L42.4 7.1 M55.1 25.4 L58 24.6 M51.5 46 L54 47.7"/></g><g stroke-width="var(--glyph-stroke,1.5)" stroke-linecap="round" stroke-linejoin="round"><g transform="translate(16 17) scale(1.3)" opacity=".55"><g fill="none" stroke="var(--accent)"><path d="M6 5 L5 9 L6 13"/><path d="M6 5 L12 9 L18 5"/><path d="M6 13 L12 9 L18 13"/><path d="M18 5 L19 9 L18 13"/></g><g fill="var(--accent-soft)"><circle cx="6" cy="5" r=".8"/><circle cx="5" cy="9" r=".8"/><circle cx="6" cy="13" r=".8"/><circle cx="12" cy="9" r="1"/><circle cx="18" cy="5" r=".8"/><circle cx="19" cy="9" r=".8"/><circle cx="18" cy="13" r=".8"/></g></g><g transform="translate(20 20) scale(1)"><g fill="none" stroke="var(--accent)"><path d="M8 17 L6 14 L9 11 L13 12 L16 10 L18 7"/><path d="M13 12 L16 15"/></g><g fill="var(--accent-soft)"><circle cx="6" cy="14" r="1"/><circle cx="9" cy="11" r=".8"/><circle cx="13" cy="12" r=".8"/><circle cx="16" cy="10" r=".8"/><circle cx="18" cy="7" r=".8"/><circle cx="16" cy="15" r=".8"/><circle cx="8" cy="17" r=".8"/></g></g></g><g fill="var(--accent)" opacity=".85"><circle cx="29.9" cy="50.5" r="1"/><circle cx="29.2" cy="45.6" r=".8"/><circle cx="37" cy="23.4" r=".9"/><circle cx="19.2" cy="42.5" r="1"/><circle cx="22.6" cy="46.4" r=".6"/><circle cx="18.6" cy="34.4" r=".8"/></g></svg>
