<svg class="sigil" viewBox="0 0 64 64" role="img" aria-labelledby="s-title s-desc" xmlns="http://www.w3.org/2000/svg"><title id="s-title">Sigil of the Sun Bear</title><desc id="s-desc">Aries crossed with the Year of the Ox, a Fire animal.</desc><circle cx="32" cy="32" r="26" fill="var(--glow)" opacity=".5"/><g stroke="var(--accent)" stroke-width="1" stroke-linecap="round" fill="none" opacity=".8"><path d="M10.3 19.5 L7.8 18 M37.2 7.5 L37.8 4.6 M56.9 29.4 L59.8 29.1 M42.2 54.8 L43.4 57.6 M13.4 48.7 L11.2 50.7"/></g><g stroke-width="var(--glyph-stroke,1.5)" stroke-linecap="round" stroke-linejoin="round"><g transform="translate(16 17) scale(1.3)" opacity=".55"><g fill="none" stroke="var(--accent)"><path d="M6 16 L9 10 L13 8 L16 11"/><path d="M13 8 L16 11 L19 9"/></g><g fill="var(--accent-soft)"><circle cx="6" cy="16" r=".8"/><circle cx="9" cy="10" r=".8"/><circle cx="13" cy="8" r="1"/><circle cx="16" cy="11" r=".8"/><circle cx="19" cy="9" r=".8"/></g></g><g transform="translate(20 20) scale(1)"><g fill="none" stroke="var(--accent)"><path d="M6 5 L9 7 L6 9"/><path d="M9 7 L12 10 L17 9 L17 16 L10 16 L12 10"/></g><g fill="var(--accent-soft)"><circle cx="6" cy="9" r=".8"/><circle cx="9" cy="7" r="1"/><circle cx="6" cy="5" r=".8"/><circle cx="12" cy="10" r=".8"/><circle cx="17" cy="9" r=".8"/><circle cx="17" cy="16" r=".8"/><circle cx="10" cy="16" r=".8"/></g></g></g><g fill="none" stroke="var(--accent)" stroke-width=".5" opacity=".4"><path d="M24.2 25 L22.9 25.5 M23.2 23.8 L19.5 35.9"/></g><g fill="var(--accent)" opacity=".85"><circle cx="24.2" cy="25" r=".9"/><circle cx="22.9" cy="25.5" r="1"/><circle cx="23.2" cy="23.8" r=".7"/><circle cx="19.5" cy="35.9" r="1"/><circle cx="33.3" cy="16.6" r=".7"/></g></svg>
