<svg class="sigil" viewBox="0 0 64 64" role="img" aria-labelledby="s-title s-desc" xmlns="http://www.w3.org/2000/svg"><title id="s-title">Sigil of the Superb Lyrebird</title><desc id="s-desc">Gemini crossed with the Year of the Dragon, a Air animal.</desc><circle cx="32" cy="32" r="26" fill="var(--glow)" opacity=".5"/><circle cx="32" cy="32" r="25" stroke="var(--accent)" stroke-width="1" stroke-linecap="round" fill="none" stroke-dasharray="3 4" opacity=".75" transform="rotate(48 32 32)"/><g stroke-width="var(--glyph-stroke,1.5)" stroke-linecap="round" stroke-linejoin="round"><g transform="translate(16 17) scale(1.3)" opacity=".55"><g fill="none" stroke="var(--accent)"><path d="M9 5 L9 12 L9 19"/><path d="M15 5 L15 12 L15 19"/><path d="M9 5 L15 5"/><path d="M9 19 L15 19"/></g><g fill="var(--accent-soft)"><circle cx="9" cy="5" r=".8"/><circle cx="9" cy="12" r=".8"/><circle cx="9" cy="19" r=".8"/><circle cx="15" cy="5" r="1"/><circle cx="15" cy="12" r=".8"/><circle cx="15" cy="19" r=".8"/></g></g><g transform="translate(20 20) scale(1)"><g fill="none" stroke="var(--accent)"><path d="M5 17 L7 13 L11 14 L13 10 L17 9 L19 5"/><path d="M17 9 L16 12"/></g><g fill="var(--accent-soft)"><circle cx="5" cy="17" r=".8"/><circle cx="7" cy="13" r=".8"/><circle cx="11" cy="14" r=".8"/><circle cx="13" cy="10" r=".8"/><circle cx="17" cy="9" r=".8"/><circle cx="19" cy="5" r="1"/><circle cx="16" cy="12" r=".8"/></g></g></g><g fill="none" stroke="var(--accent)" stroke-width=".5" opacity=".4"><path d="M41.2 38.1 L37.1 16.7"/></g><g fill="var(--accent)" opacity=".85"><circle cx="41.2" cy="38.1" r=".9"/><circle cx="37.1" cy="16.7" r=".7"/><circle cx="40.5" cy="49.3" r="1"/></g></svg>
