<svg class="sigil" viewBox="0 0 64 64" role="img" aria-labelledby="s-title s-desc" xmlns="http://www.w3.org/2000/svg"><title id="s-title">Sigil of the Tapir</title><desc id="s-desc">Taurus crossed with the Year of the Pig, a Earth animal.</desc><circle cx="32" cy="32" r="26" fill="var(--glow)" opacity=".5"/><g stroke="var(--accent)" stroke-width="1" stroke-linecap="round" fill="none" opacity=".75"><path d="M10.3 44.5 L19.5 10.3 L53.7 19.5 L44.5 53.7 Z"/></g><g fill="var(--accent-soft)"><circle cx="10.3" cy="44.5" r="1.1"/><circle cx="19.5" cy="10.3" r="1.1"/><circle cx="53.7" cy="19.5" r="1.1"/><circle cx="44.5" cy="53.7" r="1.1"/></g><g stroke-width="var(--glyph-stroke,1.5)" stroke-linecap="round" stroke-linejoin="round"><g transform="translate(16 17) scale(1.3)" opacity=".55"><g fill="none" stroke="var(--accent)"><path d="M6 8 L9 12 L12 15 L15 12 L18 8"/></g><g fill="var(--accent-soft)"><circle cx="12" cy="15" r="1"/><circle cx="9" cy="12" r=".8"/><circle cx="6" cy="8" r=".8"/><circle cx="15" cy="12" r=".8"/><circle cx="18" cy="8" r=".8"/><circle cx="12" cy="15" r=".8"/></g></g><g transform="translate(20 20) scale(1)"><g fill="none" stroke="var(--accent)"><path d="M7 9 L9 12"/><path d="M6 11 L9 12 L14 11 L17 12"/><path d="M17 12 L16 17 L9 17 L9 12"/></g><g fill="var(--accent-soft)"><circle cx="7" cy="9" r=".8"/><circle cx="6" cy="11" r=".8"/><circle cx="9" cy="12" r="1"/><circle cx="14" cy="11" r=".8"/><circle cx="17" cy="12" r=".8"/><circle cx="16" cy="17" r=".8"/><circle cx="9" cy="17" r=".8"/></g></g></g><g fill="none" stroke="var(--accent)" stroke-width=".5" opacity=".4"><path d="M25 45 L38.1 38.8 M47.2 40.1 L17.9 21.5"/></g><g fill="var(--accent)" opacity=".85"><circle cx="25" cy="45" r=".9"/><circle cx="38.1" cy="38.8" r="1"/><circle cx="47.2" cy="40.1" r=".8"/><circle cx="17.9" cy="21.5" r="1"/></g></svg>
