<svg class="sigil" viewBox="0 0 64 64" role="img" aria-labelledby="s-title s-desc" xmlns="http://www.w3.org/2000/svg"><title id="s-title">Sigil of the Tarsier</title><desc id="s-desc">Scorpio crossed with the Year of the Rat, a Water animal.</desc><circle cx="32" cy="32" r="26" fill="var(--glow)" opacity=".5"/><g stroke="var(--accent)" stroke-width="1" stroke-linecap="round" fill="none" opacity=".8"><path d="M27.4 8.4 L26.8 5.5 M47.6 13.7 L49.5 11.4 M56 32.8 L59 32.9 M46.3 51.2 L48.1 53.6 M25.9 55.2 L25.1 58.1 M10.1 41.7 L7.3 42.9 M10.7 20.9 L8.1 19.5"/></g><g stroke-width="var(--glyph-stroke,1.5)" stroke-linecap="round" stroke-linejoin="round"><g transform="translate(16 17) scale(1.3)" opacity=".55"><g fill="none" stroke="var(--accent)"><path d="M5 7 L6 11 L9 13 L13 13 L16 15 L18 18 L16 20"/><path d="M8 8 L9 13"/></g><g fill="var(--accent-soft)"><circle cx="5" cy="7" r=".8"/><circle cx="6" cy="11" r=".8"/><circle cx="9" cy="13" r=".8"/><circle cx="13" cy="13" r="1"/><circle cx="16" cy="15" r=".8"/><circle cx="18" cy="18" r=".8"/><circle cx="16" cy="20" r=".8"/><circle cx="8" cy="8" r=".8"/></g></g><g transform="translate(20 20) scale(1)"><g fill="none" stroke="var(--accent)"><path d="M8 17 L6 14 L9 11 L13 12 L16 10 L18 7"/><path d="M13 12 L16 15"/></g><g fill="var(--accent-soft)"><circle cx="6" cy="14" r="1"/><circle cx="9" cy="11" r=".8"/><circle cx="13" cy="12" r=".8"/><circle cx="16" cy="10" r=".8"/><circle cx="18" cy="7" r=".8"/><circle cx="16" cy="15" r=".8"/><circle cx="8" cy="17" r=".8"/></g></g></g><g fill="none" stroke="var(--accent)" stroke-width=".5" opacity=".4"><path d="M44 38.2 L32.2 19.8"/></g><g fill="var(--accent)" opacity=".85"><circle cx="25.4" cy="41.6" r=".9"/><circle cx="16.4" cy="27" r=".8"/><circle cx="44" cy="38.2" r=".8"/><circle cx="32.2" cy="19.8" r="1"/><circle cx="39.8" cy="23.9" r=".9"/><circle cx="51.2" cy="28.7" r="1"/></g></svg>
