<svg class="sigil" viewBox="0 0 64 64" role="img" aria-labelledby="s-title s-desc" xmlns="http://www.w3.org/2000/svg"><title id="s-title">Sigil of the Tibetan Mastiff</title><desc id="s-desc">Capricorn crossed with the Year of the Dog, a Earth animal.</desc><circle cx="32" cy="32" r="26" fill="var(--glow)" opacity=".5"/><g stroke="var(--accent)" stroke-width="1" stroke-linecap="round" fill="none" opacity=".75"><path d="M32.9 7 L57 32.9 L31.1 57 L7 31.1 Z"/></g><g fill="var(--accent-soft)"><circle cx="32.9" cy="7" r="1.1"/><circle cx="57" cy="32.9" r="1.1"/><circle cx="31.1" cy="57" r="1.1"/><circle cx="7" cy="31.1" r="1.1"/></g><g stroke-width="var(--glyph-stroke,1.5)" stroke-linecap="round" stroke-linejoin="round"><g transform="translate(16 17) scale(1.3)" opacity=".55"><g fill="none" stroke="var(--accent)"><path d="M6 8 L10 6 L14 10 L18 17 L9 15 L6 8"/></g><g fill="var(--accent-soft)"><circle cx="6" cy="8" r=".8"/><circle cx="10" cy="6" r="1"/><circle cx="14" cy="10" r=".8"/><circle cx="18" cy="17" r=".8"/><circle cx="9" cy="15" r=".8"/><circle cx="6" cy="8" r=".8"/></g></g><g transform="translate(20 20) scale(1)"><g fill="none" stroke="var(--accent)"><path d="M8 6 L9 10"/><path d="M6 8 L9 10 L14 11 L18 10"/><path d="M18 10 L16 17 L10 16 L14 11"/></g><g fill="var(--accent-soft)"><circle cx="6" cy="8" r=".8"/><circle cx="8" cy="6" r=".8"/><circle cx="9" cy="10" r="1"/><circle cx="14" cy="11" r=".8"/><circle cx="18" cy="10" r=".8"/><circle cx="16" cy="17" r=".8"/><circle cx="10" cy="16" r=".8"/></g></g></g><g fill="none" stroke="var(--accent)" stroke-width=".5" opacity=".4"><path d="M39.1 39.7 L29.2 44.1"/></g><g fill="var(--accent)" opacity=".85"><circle cx="17.6" cy="41.4" r=".9"/><circle cx="44" cy="29" r=".9"/><circle cx="39.1" cy="39.7" r=".7"/><circle cx="29.2" cy="44.1" r=".9"/><circle cx="25.1" cy="23.6" r="1"/><circle cx="18.8" cy="23.9" r="1"/></g></svg>
