<svg class="sigil" viewBox="0 0 64 64" role="img" aria-labelledby="s-title s-desc" xmlns="http://www.w3.org/2000/svg"><title id="s-title">Sigil of the Tibetan Antelope</title><desc id="s-desc">Taurus crossed with the Year of the Goat, a Earth animal.</desc><circle cx="32" cy="32" r="26" fill="var(--glow)" opacity=".5"/><g stroke="var(--accent)" stroke-width="1" stroke-linecap="round" fill="none" opacity=".75"><path d="M22.6 55.2 L8.8 22.6 L41.4 8.8 L55.2 41.4 Z"/></g><g fill="var(--accent-soft)"><circle cx="22.6" cy="55.2" r="1.1"/><circle cx="8.8" cy="22.6" r="1.1"/><circle cx="41.4" cy="8.8" r="1.1"/><circle cx="55.2" cy="41.4" r="1.1"/></g><g stroke-width="var(--glyph-stroke,1.5)" stroke-linecap="round" stroke-linejoin="round"><g transform="translate(16 17) scale(1.3)" opacity=".55"><g fill="none" stroke="var(--accent)"><path d="M6 8 L9 12 L12 15 L15 12 L18 8"/></g><g fill="var(--accent-soft)"><circle cx="12" cy="15" r="1"/><circle cx="9" cy="12" r=".8"/><circle cx="6" cy="8" r=".8"/><circle cx="15" cy="12" r=".8"/><circle cx="18" cy="8" r=".8"/><circle cx="12" cy="15" r=".8"/></g></g><g transform="translate(20 20) scale(1)"><g fill="none" stroke="var(--accent)"><path d="M6 7 L9 9 L7 12"/><path d="M9 9 L13 10 L18 10"/><path d="M18 10 L16 17 L10 16 L13 10"/></g><g fill="var(--accent-soft)"><circle cx="6" cy="7" r=".8"/><circle cx="9" cy="9" r="1"/><circle cx="7" cy="12" r=".8"/><circle cx="13" cy="10" r=".8"/><circle cx="18" cy="10" r=".8"/><circle cx="16" cy="17" r=".8"/><circle cx="10" cy="16" r=".8"/></g></g></g><g fill="none" stroke="var(--accent)" stroke-width=".5" opacity=".4"><path d="M19.3 37.7 L22.5 29.6 M51.6 35.2 L51.1 33.8"/></g><g fill="var(--accent)" opacity=".85"><circle cx="19.3" cy="37.7" r=".8"/><circle cx="22.5" cy="29.6" r="1"/><circle cx="20" cy="35.2" r="1"/><circle cx="41" cy="29.3" r="1"/><circle cx="51.6" cy="35.2" r="1"/><circle cx="51.1" cy="33.8" r=".6"/></g></svg>
