<svg class="sigil" viewBox="0 0 64 64" role="img" aria-labelledby="s-title s-desc" xmlns="http://www.w3.org/2000/svg"><title id="s-title">Sigil of the Tuatara</title><desc id="s-desc">Capricorn crossed with the Year of the Snake, a Earth animal.</desc><circle cx="32" cy="32" r="26" fill="var(--glow)" opacity=".5"/><g stroke="var(--accent)" stroke-width="1" stroke-linecap="round" fill="none" opacity=".75"><path d="M57 32 L32 57 L7 32 L32 7 Z"/></g><g fill="var(--accent-soft)"><circle cx="57" cy="32" r="1.1"/><circle cx="32" cy="57" r="1.1"/><circle cx="7" cy="32" r="1.1"/><circle cx="32" cy="7" r="1.1"/></g><g stroke-width="var(--glyph-stroke,1.5)" stroke-linecap="round" stroke-linejoin="round"><g transform="translate(16 17) scale(1.3)" opacity=".55"><g fill="none" stroke="var(--accent)"><path d="M6 8 L10 6 L14 10 L18 17 L9 15 L6 8"/></g><g fill="var(--accent-soft)"><circle cx="6" cy="8" r=".8"/><circle cx="10" cy="6" r="1"/><circle cx="14" cy="10" r=".8"/><circle cx="18" cy="17" r=".8"/><circle cx="9" cy="15" r=".8"/><circle cx="6" cy="8" r=".8"/></g></g><g transform="translate(20 20) scale(1)"><g fill="none" stroke="var(--accent)"><path d="M6 6 L10 7 L12 11 L9 14 L12 17 L17 17 L19 13"/></g><g fill="var(--accent-soft)"><circle cx="6" cy="6" r=".8"/><circle cx="10" cy="7" r=".8"/><circle cx="12" cy="11" r=".8"/><circle cx="9" cy="14" r=".8"/><circle cx="12" cy="17" r=".8"/><circle cx="17" cy="17" r="1"/><circle cx="19" cy="13" r=".8"/></g></g></g><g fill="none" stroke="var(--accent)" stroke-width=".5" opacity=".4"><path d="M15.5 32 L23 44.4 M16.2 22.7 L23.2 30.2"/></g><g fill="var(--accent)" opacity=".85"><circle cx="15.5" cy="32" r=".8"/><circle cx="23" cy="44.4" r="1"/><circle cx="32.9" cy="42.8" r=".7"/><circle cx="39.5" cy="47.8" r=".9"/><circle cx="16.2" cy="22.7" r="1"/><circle cx="23.2" cy="30.2" r=".6"/></g></svg>
