<svg class="sigil" viewBox="0 0 64 64" role="img" aria-labelledby="s-title s-desc" xmlns="http://www.w3.org/2000/svg"><title id="s-title">Sigil of the Vampire Squid</title><desc id="s-desc">Pisces crossed with the Year of the Rat, a Water animal.</desc><circle cx="32" cy="32" r="26" fill="var(--glow)" opacity=".5"/><g stroke="var(--accent)" stroke-width="1" stroke-linecap="round" fill="none" opacity=".8"><path d="M33.7 8.1 L33.9 5.1 M51.8 18.4 L54.2 16.7 M55 39 L57.8 39.8 M40.9 54.3 L42 57.1 M20.1 52.8 L18.6 55.4 M8.3 35.7 L5.3 36.2 M14.3 15.8 L12.1 13.7"/></g><g stroke-width="var(--glyph-stroke,1.5)" stroke-linecap="round" stroke-linejoin="round"><g transform="translate(16 17) scale(1.3)" opacity=".55"><g fill="none" stroke="var(--accent)"><path d="M6 5 L5 9 L6 13"/><path d="M6 5 L12 9 L18 5"/><path d="M6 13 L12 9 L18 13"/><path d="M18 5 L19 9 L18 13"/></g><g fill="var(--accent-soft)"><circle cx="6" cy="5" r=".8"/><circle cx="5" cy="9" r=".8"/><circle cx="6" cy="13" r=".8"/><circle cx="12" cy="9" r="1"/><circle cx="18" cy="5" r=".8"/><circle cx="19" cy="9" r=".8"/><circle cx="18" cy="13" r=".8"/></g></g><g transform="translate(20 20) scale(1)"><g fill="none" stroke="var(--accent)"><path d="M8 17 L6 14 L9 11 L13 12 L16 10 L18 7"/><path d="M13 12 L16 15"/></g><g fill="var(--accent-soft)"><circle cx="6" cy="14" r="1"/><circle cx="9" cy="11" r=".8"/><circle cx="13" cy="12" r=".8"/><circle cx="16" cy="10" r=".8"/><circle cx="18" cy="7" r=".8"/><circle cx="16" cy="15" r=".8"/><circle cx="8" cy="17" r=".8"/></g></g></g><g fill="var(--accent)" opacity=".85"><circle cx="47.8" cy="29.9" r=".9"/><circle cx="26" cy="21.3" r=".7"/><circle cx="21.7" cy="30.1" r="1"/><circle cx="27.3" cy="42.2" r=".8"/><circle cx="49.3" cy="23.8" r=".9"/></g></svg>
