<svg class="sigil" viewBox="0 0 64 64" role="img" aria-labelledby="s-title s-desc" xmlns="http://www.w3.org/2000/svg"><title id="s-title">Sigil of the Vampire Bat</title><desc id="s-desc">Aquarius crossed with the Year of the Dog, a Air animal.</desc><circle cx="32" cy="32" r="26" fill="var(--glow)" opacity=".5"/><circle cx="32" cy="32" r="25" stroke="var(--accent)" stroke-width="1" stroke-linecap="round" fill="none" stroke-dasharray="3 4" opacity=".75" transform="rotate(291 32 32)"/><g stroke-width="var(--glyph-stroke,1.5)" stroke-linecap="round" stroke-linejoin="round"><g transform="translate(16 17) scale(1.3)" opacity=".55"><g fill="none" stroke="var(--accent)"><path d="M5 9 L8 11 L11 9 L14 11 L17 9"/><path d="M5 14 L8 16 L11 14 L14 16 L17 14"/></g><g fill="var(--accent-soft)"><circle cx="5" cy="9" r=".8"/><circle cx="8" cy="11" r=".8"/><circle cx="11" cy="9" r=".8"/><circle cx="14" cy="11" r=".8"/><circle cx="17" cy="9" r="1"/><circle cx="5" cy="14" r=".8"/><circle cx="8" cy="16" r=".8"/><circle cx="11" cy="14" r=".8"/><circle cx="14" cy="16" r=".8"/><circle cx="17" cy="14" r=".8"/></g></g><g transform="translate(20 20) scale(1)"><g fill="none" stroke="var(--accent)"><path d="M8 6 L9 10"/><path d="M6 8 L9 10 L14 11 L18 10"/><path d="M18 10 L16 17 L10 16 L14 11"/></g><g fill="var(--accent-soft)"><circle cx="6" cy="8" r=".8"/><circle cx="8" cy="6" r=".8"/><circle cx="9" cy="10" r="1"/><circle cx="14" cy="11" r=".8"/><circle cx="18" cy="10" r=".8"/><circle cx="16" cy="17" r=".8"/><circle cx="10" cy="16" r=".8"/></g></g></g><g fill="var(--accent)" opacity=".85"><circle cx="45.6" cy="22.4" r=".9"/><circle cx="37.9" cy="18.2" r=".8"/><circle cx="20.4" cy="47.1" r="1"/><circle cx="22.8" cy="19.1" r="1"/><circle cx="26.6" cy="44.7" r=".9"/><circle cx="18.7" cy="32.9" r="1"/></g></svg>
