<svg class="sigil" viewBox="0 0 64 64" role="img" aria-labelledby="s-title s-desc" xmlns="http://www.w3.org/2000/svg"><title id="s-title">Sigil of the Warthog</title><desc id="s-desc">Sagittarius crossed with the Year of the Pig, a Fire animal.</desc><circle cx="32" cy="32" r="26" fill="var(--glow)" opacity=".5"/><g stroke="var(--accent)" stroke-width="1" stroke-linecap="round" fill="none" opacity=".8"><path d="M12 47 L9.6 48.9 M11.5 17.7 L9.1 15.9 M39.3 8.1 L40.2 5.2 M57 31.6 L60 31.5 M40.1 55.6 L41.1 58.5"/></g><g stroke-width="var(--glyph-stroke,1.5)" stroke-linecap="round" stroke-linejoin="round"><g transform="translate(16 17) scale(1.3)" opacity=".55"><g fill="none" stroke="var(--accent)"><path d="M6 6 L9 12 L6 18"/><path d="M9 12 L18 7"/><path d="M15 10 L12 13 L9 16"/></g><g fill="var(--accent-soft)"><circle cx="6" cy="6" r=".8"/><circle cx="6" cy="18" r=".8"/><circle cx="9" cy="12" r="1"/><circle cx="18" cy="7" r=".8"/><circle cx="15" cy="10" r=".8"/><circle cx="12" cy="13" r=".8"/><circle cx="9" cy="16" r=".8"/></g></g><g transform="translate(20 20) scale(1)"><g fill="none" stroke="var(--accent)"><path d="M7 9 L9 12"/><path d="M6 11 L9 12 L14 11 L17 12"/><path d="M17 12 L16 17 L9 17 L9 12"/></g><g fill="var(--accent-soft)"><circle cx="7" cy="9" r=".8"/><circle cx="6" cy="11" r=".8"/><circle cx="9" cy="12" r="1"/><circle cx="14" cy="11" r=".8"/><circle cx="17" cy="12" r=".8"/><circle cx="16" cy="17" r=".8"/><circle cx="9" cy="17" r=".8"/></g></g></g><g fill="none" stroke="var(--accent)" stroke-width=".5" opacity=".4"><path d="M33.6 44.4 L43.6 23.3"/></g><g fill="var(--accent)" opacity=".85"><circle cx="33.6" cy="44.4" r=".8"/><circle cx="43.6" cy="23.3" r=".9"/><circle cx="41.3" cy="24.4" r=".7"/><circle cx="34.9" cy="43" r=".9"/><circle cx="19.8" cy="24.7" r=".8"/><circle cx="14.6" cy="23.8" r=".8"/></g></svg>
