<svg class="sigil" viewBox="0 0 64 64" role="img" aria-labelledby="s-title s-desc" xmlns="http://www.w3.org/2000/svg"><title id="s-title">Sigil of the Water Deer</title><desc id="s-desc">Cancer crossed with the Year of the Goat, a Water animal.</desc><circle cx="32" cy="32" r="26" fill="var(--glow)" opacity=".5"/><g stroke="var(--accent)" stroke-width="1" stroke-linecap="round" fill="none" opacity=".8"><path d="M55.4 26.6 L58.3 25.9 M50.8 46.9 L53.2 48.8 M32.1 56 L32.1 59 M13.3 47 L10.9 48.9 M8.6 26.7 L5.7 26.1 M21.5 10.4 L20.2 7.7 M42.4 10.4 L43.7 7.6"/></g><g stroke-width="var(--glyph-stroke,1.5)" stroke-linecap="round" stroke-linejoin="round"><g transform="translate(16 17) scale(1.3)" opacity=".55"><g fill="none" stroke="var(--accent)"><path d="M7 5 L12 8 L17 5"/><path d="M12 8 L12 14"/><path d="M8 18 L12 14 L16 18"/></g><g fill="var(--accent-soft)"><circle cx="12" cy="14" r="1"/><circle cx="12" cy="8" r=".8"/><circle cx="7" cy="5" r=".8"/><circle cx="17" cy="5" r=".8"/><circle cx="8" cy="18" r=".8"/><circle cx="16" cy="18" r=".8"/></g></g><g transform="translate(20 20) scale(1)"><g fill="none" stroke="var(--accent)"><path d="M6 7 L9 9 L7 12"/><path d="M9 9 L13 10 L18 10"/><path d="M18 10 L16 17 L10 16 L13 10"/></g><g fill="var(--accent-soft)"><circle cx="6" cy="7" r=".8"/><circle cx="9" cy="9" r="1"/><circle cx="7" cy="12" r=".8"/><circle cx="13" cy="10" r=".8"/><circle cx="18" cy="10" r=".8"/><circle cx="16" cy="17" r=".8"/><circle cx="10" cy="16" r=".8"/></g></g></g><g fill="none" stroke="var(--accent)" stroke-width=".5" opacity=".4"><path d="M48.4 28.8 L12.8 32.4 M18.8 37.3 L43.6 32.1"/></g><g fill="var(--accent)" opacity=".85"><circle cx="48.4" cy="28.8" r="1"/><circle cx="12.8" cy="32.4" r="1"/><circle cx="18.8" cy="37.3" r=".7"/><circle cx="43.6" cy="32.1" r=".7"/><circle cx="24.5" cy="14.7" r="1"/><circle cx="42.6" cy="48.3" r=".7"/></g></svg>
