<svg class="sigil" viewBox="0 0 64 64" role="img" aria-labelledby="s-title s-desc" xmlns="http://www.w3.org/2000/svg"><title id="s-title">Sigil of the Weaverbird</title><desc id="s-desc">Virgo crossed with the Year of the Rooster, a Earth animal.</desc><circle cx="32" cy="32" r="26" fill="var(--glow)" opacity=".5"/><g stroke="var(--accent)" stroke-width="1" stroke-linecap="round" fill="none" opacity=".75"><path d="M40.1 55.6 L8.4 40.1 L23.9 8.4 L55.6 23.9 Z"/></g><g fill="var(--accent-soft)"><circle cx="40.1" cy="55.6" r="1.1"/><circle cx="8.4" cy="40.1" r="1.1"/><circle cx="23.9" cy="8.4" r="1.1"/><circle cx="55.6" cy="23.9" r="1.1"/></g><g stroke-width="var(--glyph-stroke,1.5)" stroke-linecap="round" stroke-linejoin="round"><g transform="translate(16 17) scale(1.3)" opacity=".55"><g fill="none" stroke="var(--accent)"><path d="M5 9 L9 11 L13 10 L16 13"/><path d="M16 13 L18 17"/><path d="M13 10 L12 15"/></g><g fill="var(--accent-soft)"><circle cx="5" cy="9" r=".8"/><circle cx="9" cy="11" r=".8"/><circle cx="13" cy="10" r=".8"/><circle cx="16" cy="13" r="1"/><circle cx="18" cy="17" r=".8"/><circle cx="12" cy="15" r=".8"/></g></g><g transform="translate(20 20) scale(1)"><g fill="none" stroke="var(--accent)"><path d="M6 6 L9 9"/><path d="M8 5 L9 9 L13 11 L17 13 L14 17 L10 16 L13 11"/></g><g fill="var(--accent-soft)"><circle cx="6" cy="6" r=".8"/><circle cx="8" cy="5" r=".8"/><circle cx="9" cy="9" r="1"/><circle cx="13" cy="11" r=".8"/><circle cx="17" cy="13" r=".8"/><circle cx="14" cy="17" r=".8"/><circle cx="10" cy="16" r=".8"/></g></g></g><g fill="none" stroke="var(--accent)" stroke-width=".5" opacity=".4"><path d="M17.1 42.5 L21.8 28.5 M34.7 43.9 L36.5 49.6"/></g><g fill="var(--accent)" opacity=".85"><circle cx="17.1" cy="42.5" r=".7"/><circle cx="21.8" cy="28.5" r=".6"/><circle cx="34.7" cy="43.9" r=".6"/><circle cx="36.5" cy="49.6" r="1"/><circle cx="16" cy="29.7" r="1"/></g></svg>
