<svg class="sigil" viewBox="0 0 64 64" role="img" aria-labelledby="s-title s-desc" xmlns="http://www.w3.org/2000/svg"><title id="s-title">Sigil of the White-lipped Peccary</title><desc id="s-desc">Aries crossed with the Year of the Pig, a Fire animal.</desc><circle cx="32" cy="32" r="26" fill="var(--glow)" opacity=".5"/><g stroke="var(--accent)" stroke-width="1" stroke-linecap="round" fill="none" opacity=".8"><path d="M47.7 51.4 L49.6 53.8 M18.4 53 L16.8 55.5 M7.9 25.5 L5 24.8 M30.7 7 L30.5 4 M55.3 23 L58.1 22"/></g><g stroke-width="var(--glyph-stroke,1.5)" stroke-linecap="round" stroke-linejoin="round"><g transform="translate(16 17) scale(1.3)" opacity=".55"><g fill="none" stroke="var(--accent)"><path d="M6 16 L9 10 L13 8 L16 11"/><path d="M13 8 L16 11 L19 9"/></g><g fill="var(--accent-soft)"><circle cx="6" cy="16" r=".8"/><circle cx="9" cy="10" r=".8"/><circle cx="13" cy="8" r="1"/><circle cx="16" cy="11" r=".8"/><circle cx="19" cy="9" r=".8"/></g></g><g transform="translate(20 20) scale(1)"><g fill="none" stroke="var(--accent)"><path d="M7 9 L9 12"/><path d="M6 11 L9 12 L14 11 L17 12"/><path d="M17 12 L16 17 L9 17 L9 12"/></g><g fill="var(--accent-soft)"><circle cx="7" cy="9" r=".8"/><circle cx="6" cy="11" r=".8"/><circle cx="9" cy="12" r="1"/><circle cx="14" cy="11" r=".8"/><circle cx="17" cy="12" r=".8"/><circle cx="16" cy="17" r=".8"/><circle cx="9" cy="17" r=".8"/></g></g></g><g fill="none" stroke="var(--accent)" stroke-width=".5" opacity=".4"><path d="M18.3 38.3 L39 40.9 M48.6 23.8 L31 18.6"/></g><g fill="var(--accent)" opacity=".85"><circle cx="18.3" cy="38.3" r=".6"/><circle cx="39" cy="40.9" r="1"/><circle cx="19.2" cy="23.4" r="1"/><circle cx="35" cy="17.5" r=".9"/><circle cx="48.6" cy="23.8" r=".7"/><circle cx="31" cy="18.6" r=".8"/></g></svg>
