<svg class="sigil" viewBox="0 0 64 64" role="img" aria-labelledby="s-title s-desc" xmlns="http://www.w3.org/2000/svg"><title id="s-title">Sigil of the Wolverine</title><desc id="s-desc">Aries crossed with the Year of the Tiger, a Fire animal.</desc><circle cx="32" cy="32" r="26" fill="var(--glow)" opacity=".5"/><g stroke="var(--accent)" stroke-width="1" stroke-linecap="round" fill="none" opacity=".8"><path d="M22.6 8.8 L21.5 6 M51.2 15.9 L53.4 14 M53.2 45.2 L55.7 46.8 M26 56.3 L25.2 59.2 M7.1 33.7 L4.1 34"/></g><g stroke-width="var(--glyph-stroke,1.5)" stroke-linecap="round" stroke-linejoin="round"><g transform="translate(16 17) scale(1.3)" opacity=".55"><g fill="none" stroke="var(--accent)"><path d="M6 16 L9 10 L13 8 L16 11"/><path d="M13 8 L16 11 L19 9"/></g><g fill="var(--accent-soft)"><circle cx="6" cy="16" r=".8"/><circle cx="9" cy="10" r=".8"/><circle cx="13" cy="8" r="1"/><circle cx="16" cy="11" r=".8"/><circle cx="19" cy="9" r=".8"/></g></g><g transform="translate(20 20) scale(1)"><g fill="none" stroke="var(--accent)"><path d="M5 7 L8 9 L12 8 L16 10 L18 7"/><path d="M16 10 L16 16 L8 15 L8 9"/><path d="M8 15 L6 17"/></g><g fill="var(--accent-soft)"><circle cx="5" cy="7" r=".8"/><circle cx="8" cy="9" r="1"/><circle cx="12" cy="8" r=".8"/><circle cx="16" cy="10" r=".8"/><circle cx="18" cy="7" r=".8"/><circle cx="16" cy="16" r=".8"/><circle cx="8" cy="15" r=".8"/><circle cx="6" cy="17" r=".8"/></g></g></g><g fill="none" stroke="var(--accent)" stroke-width=".5" opacity=".4"><path d="M41.7 27 L19.1 22.9"/></g><g fill="var(--accent)" opacity=".85"><circle cx="41.7" cy="27" r=".8"/><circle cx="19.1" cy="22.9" r="1"/><circle cx="17.8" cy="33.4" r=".9"/></g></svg>
