<svg class="sigil" viewBox="0 0 64 64" role="img" aria-labelledby="s-title s-desc" xmlns="http://www.w3.org/2000/svg"><title id="s-title">Sigil of the Yellow-footed Rock-wallaby</title><desc id="s-desc">Capricorn crossed with the Year of the Rabbit, a Earth animal.</desc><circle cx="32" cy="32" r="26" fill="var(--glow)" opacity=".5"/><g stroke="var(--accent)" stroke-width="1" stroke-linecap="round" fill="none" opacity=".75"><path d="M56.8 35 L29 56.8 L7.2 29 L35 7.2 Z"/></g><g fill="var(--accent-soft)"><circle cx="56.8" cy="35" r="1.1"/><circle cx="29" cy="56.8" r="1.1"/><circle cx="7.2" cy="29" r="1.1"/><circle cx="35" cy="7.2" r="1.1"/></g><g stroke-width="var(--glyph-stroke,1.5)" stroke-linecap="round" stroke-linejoin="round"><g transform="translate(16 17) scale(1.3)" opacity=".55"><g fill="none" stroke="var(--accent)"><path d="M6 8 L10 6 L14 10 L18 17 L9 15 L6 8"/></g><g fill="var(--accent-soft)"><circle cx="6" cy="8" r=".8"/><circle cx="10" cy="6" r="1"/><circle cx="14" cy="10" r=".8"/><circle cx="18" cy="17" r=".8"/><circle cx="9" cy="15" r=".8"/><circle cx="6" cy="8" r=".8"/></g></g><g transform="translate(20 20) scale(1)"><g fill="none" stroke="var(--accent)"><path d="M8 6 L10 10 L12 6"/><path d="M10 10 L8 15"/><path d="M10 10 L14 14 L16 17"/></g><g fill="var(--accent-soft)"><circle cx="8" cy="6" r=".8"/><circle cx="10" cy="10" r="1"/><circle cx="12" cy="6" r=".8"/><circle cx="10" cy="10" r=".8"/><circle cx="8" cy="15" r=".8"/><circle cx="14" cy="14" r=".8"/><circle cx="16" cy="17" r=".8"/></g></g></g><g fill="var(--accent)" opacity=".85"><circle cx="35.5" cy="40.5" r=".8"/><circle cx="19.1" cy="32.5" r="1"/><circle cx="18.9" cy="21.8" r=".6"/><circle cx="41.1" cy="33.2" r="1"/><circle cx="43.9" cy="24.8" r=".8"/></g></svg>
