<svg xmlns="http://www.w3.org/2000/svg" viewBox="0 0 400 500" role="img" aria-label="A giant clam at rest in a sunlit reef, mantle open and glowing, closer and calmer">
  <defs>
    <radialGradient id="gc-water" cx="50%" cy="8%" r="105%">
      <stop offset="0%" stop-color="#1e5266"/>
      <stop offset="55%" stop-color="#123344"/>
      <stop offset="100%" stop-color="#0b2430"/>
    </radialGradient>
    <linearGradient id="gc-sunbeam" x1="0.5" y1="0" x2="0.5" y2="1">
      <stop offset="0%" stop-color="#fdf6da" stop-opacity=".55"/>
      <stop offset="45%" stop-color="#bfe6de" stop-opacity=".16"/>
      <stop offset="100%" stop-color="#bfe6de" stop-opacity="0"/>
    </linearGradient>
    <linearGradient id="gc-shell" x1="0" y1="0" x2="0" y2="1">
      <stop offset="0%" stop-color="#e8ddc0"/>
      <stop offset="100%" stop-color="#93825f"/>
    </linearGradient>
    <linearGradient id="gc-mantle" x1="0" y1="0" x2="1" y2="0.3">
      <stop offset="0%" stop-color="#2fa79a"/>
      <stop offset="100%" stop-color="#1f7a72"/>
    </linearGradient>
    <radialGradient id="gc-glow" cx="50%" cy="35%" r="65%">
      <stop offset="0%" stop-color="#fdf6da" stop-opacity=".5"/>
      <stop offset="60%" stop-color="#2fa79a" stop-opacity=".14"/>
      <stop offset="100%" stop-color="#2fa79a" stop-opacity="0"/>
    </radialGradient>
    <filter id="gc-blur" x="-60%" y="-60%" width="220%" height="220%">
      <feGaussianBlur stdDeviation="8" result="b"/>
      <feMerge><feMergeNode in="b"/><feMergeNode in="SourceGraphic"/></feMerge>
    </filter>
  </defs>
  <rect width="400" height="500" rx="18" fill="url(#gc-water)"/>
  <path d="M140 0 L280 0 L360 430.0 L60 430.0 Z" fill="url(#gc-sunbeam)"/>
  <g opacity=".9"><path d="M0 402 C72.0 384 136.0 416 200.0 398 C272.0 382 336.0 412 400 396 L400 500 L0 500 Z" fill="#264a45"/>
    <circle cx="29" cy="411" r="22" fill="#173230" opacity=".85"/>
    <circle cx="86" cy="415" r="32" fill="#173230" opacity=".85"/>
    <circle cx="143" cy="419" r="42" fill="#173230" opacity=".85"/>
    <circle cx="200" cy="411" r="22" fill="#173230" opacity=".85"/>
    <circle cx="257" cy="415" r="32" fill="#173230" opacity=".85"/>
    <circle cx="314" cy="419" r="42" fill="#173230" opacity=".85"/>
    <circle cx="371" cy="411" r="22" fill="#173230" opacity=".85"/></g>
  <g opacity=".8"><path d="M70 160 L64.0 155.8 L64.0 164.2 Z" fill="#e8c25a" opacity=".85"/><path d="M70 160 C79.6 154.6 90.4 156.4 94.0 160 C90.4 163.6 79.6 165.4 70 160 Z" fill="#e8c25a" opacity=".85"/><circle cx="88" cy="159" r="1.0" fill="#081418"/>
  <path d="M330 130 L335.0 126.5 L335.0 133.5 Z" fill="#e8c25a" opacity=".85"/><path d="M330 130 C322.0 125.5 313.0 127.0 310.0 130 C313.0 133.0 322.0 134.5 330 130 Z" fill="#e8c25a" opacity=".85"/><circle cx="315" cy="129" r="0.8" fill="#081418"/></g>
  <ellipse cx="210" cy="340" rx="211.60000000000002" ry="156.4" fill="url(#gc-glow)"/>
  
  <g id="gc-clam" transform="translate(210,340) scale(0.92)">
    <ellipse cx="0" cy="156" rx="190" ry="26" fill="#081418" fill-opacity=".4"/>
    <path d="M-170 120 M-170 120 L-137 106 L-104 55 L-72 46 L-39 -5 L-6 -14 L-6 150 L-170 150 Z" fill="url(#gc-shell)" stroke="#081418" stroke-opacity=".8" stroke-width="1.8"/>
    <path d="M6 150 L6 -24 M6 -24 L39 21 L72 29 L106 78 L139 86 L172 136 L172 150 Z" fill="url(#gc-shell)" stroke="#081418" stroke-opacity=".8" stroke-width="1.8"/>
    <line x1="-150" y1="128" x2="-70" y2="2" stroke="#6f6045" stroke-opacity=".35" stroke-width="2"/>
      <line x1="-116" y1="128" x2="-32" y2="2" stroke="#6f6045" stroke-opacity=".35" stroke-width="2"/>
      <line x1="-82" y1="128" x2="6" y2="2" stroke="#6f6045" stroke-opacity=".35" stroke-width="2"/>
      <line x1="-48" y1="128" x2="44" y2="2" stroke="#6f6045" stroke-opacity=".35" stroke-width="2"/>
      <line x1="150" y1="128" x2="70" y2="-2" stroke="#6f6045" stroke-opacity=".35" stroke-width="2"/>
      <line x1="116" y1="128" x2="32" y2="-2" stroke="#6f6045" stroke-opacity=".35" stroke-width="2"/>
      <line x1="82" y1="128" x2="-6" y2="-2" stroke="#6f6045" stroke-opacity=".35" stroke-width="2"/>
      <line x1="48" y1="128" x2="-44" y2="-2" stroke="#6f6045" stroke-opacity=".35" stroke-width="2"/>
    <g filter="url(#gc-blur)">
      <path d="M-140 58 C-110 18 -60 2 -8 8 C44 2 96 16 134 52 C108 70 70 82 22 80 C-2 92 -34 92 -58 80 C-96 82 -122 72 -140 58 Z" fill="url(#gc-mantle)" stroke="#081418" stroke-opacity=".5" stroke-width="1.4"/>
      <circle cx="-96" cy="40" r="8" fill="#e0b23c" opacity=".8"/><circle cx="-52" cy="60" r="6" fill="#3f8fd6" opacity=".8"/><circle cx="-16" cy="44" r="7" fill="#8a5fc0" opacity=".8"/><circle cx="26" cy="58" r="6" fill="#e0b23c" opacity=".8"/><circle cx="66" cy="42" r="8" fill="#3f8fd6" opacity=".8"/><circle cx="100" cy="56" r="6" fill="#8a5fc0" opacity=".8"/><circle cx="-70" cy="66" r="4" fill="#e0b23c" opacity=".8"/><circle cx="10" cy="70" r="4" fill="#3f8fd6" opacity=".8"/><circle cx="48" cy="68" r="4" fill="#8a5fc0" opacity=".8"/>
    </g>
  </g>
</svg>
