<svg xmlns="http://www.w3.org/2000/svg" viewBox="0 0 800 800" role="img" aria-label="An Asian elephant standing in moonlit savanna grass beneath a full moon, its trunk reaching down toward a pale skull and tusks resting in the grass">
  <defs>
    <radialGradient id="ae-night" cx="66%" cy="20%" r="92%">
      <stop offset="0%" stop-color="#2c2013"/>
      <stop offset="55%" stop-color="#1f170d"/>
      <stop offset="100%" stop-color="#1c150c"/>
    </radialGradient>
    <radialGradient id="ae-moon" cx="50%" cy="50%" r="50%">
      <stop offset="0%" stop-color="#f2e2c4" stop-opacity=".55"/>
      <stop offset="65%" stop-color="#f2e2c4" stop-opacity=".22"/>
      <stop offset="100%" stop-color="#f2e2c4" stop-opacity="0"/>
    </radialGradient>
    <radialGradient id="ae-glow" cx="50%" cy="45%" r="60%">
      <stop offset="0%" stop-color="#f6ecd6"/>
      <stop offset="55%" stop-color="#e8ddbe"/>
      <stop offset="100%" stop-color="#c99a4a"/>
    </radialGradient>
    <linearGradient id="ae-body" x1="0" y1="0" x2="1" y2="1">
      <stop offset="0%" stop-color="#6b4f30"/>
      <stop offset="100%" stop-color="#332512"/>
    </linearGradient>
    <filter id="ae-blur" x="-60%" y="-60%" width="220%" height="220%">
      <feGaussianBlur stdDeviation="9" result="b"/>
      <feMerge><feMergeNode in="b"/><feMergeNode in="SourceGraphic"/></feMerge>
    </filter>
  </defs>
  <rect width="800" height="800" rx="24" fill="url(#ae-night)"/>
  <g opacity=".95"><circle cx="690" cy="112" r="42" fill="#f2e2c4" fill-opacity=".9" stroke="#e8ddbe" stroke-opacity=".25" stroke-width="1"/>
  <circle cx="690" cy="112" r="68" fill="url(#ae-moon)"/></g>
  <g id="ae-tree"><path d="M60 723.0 Q57.3 687.0 60 660" fill="none" stroke="#170f08" stroke-width="6.3" stroke-linecap="round"/><path d="M-3.0 661.8 C6.0 640.2 42.0 629.4 60 633.0 C78.0 629.4 114.0 640.2 123.0 661.8 C105.0 654.6 78.0 651.0 60 652.8 C42.0 651.0 15.0 654.6 -3.0 661.8 Z" fill="#170f08"/>
    <path d="M150 687.0 Q146.7 643.0 150 610" fill="none" stroke="#170f08" stroke-width="7.7" stroke-linecap="round"/><path d="M73.0 612.2 C84.0 585.8 128.0 572.6 150 577.0 C172.0 572.6 216.0 585.8 227.0 612.2 C205.0 603.4 172.0 599.0 150 601.2 C128.0 599.0 95.0 603.4 73.0 612.2 Z" fill="#170f08"/>
    <path d="M700 710.0 Q697.0 670.0 700 640" fill="none" stroke="#170f08" stroke-width="7.0" stroke-linecap="round"/><path d="M630.0 642.0 C640.0 618.0 680.0 606.0 700 610.0 C720.0 606.0 760.0 618.0 770.0 642.0 C750.0 634.0 720.0 630.0 700 632.0 C680.0 630.0 650.0 634.0 630.0 642.0 Z" fill="#170f08"/>
    <path d="M760 656.0 Q757.6 624.0 760 600" fill="none" stroke="#170f08" stroke-width="5.6" stroke-linecap="round"/><path d="M704.0 601.6 C712.0 582.4 744.0 572.8 760 576.0 C776.0 572.8 808.0 582.4 816.0 601.6 C800.0 595.2 776.0 592.0 760 593.6 C744.0 592.0 720.0 595.2 704.0 601.6 Z" fill="#170f08"/></g>
  <path d="M0 560 C160.0 540 320.0 576 496.0 554 C640.0 542 720.0 568 800 558 L800 800 L0 800 Z"
        fill="#241a0f" opacity=".92"/>
  <g opacity=".7"><path d="M29 580 Q32 571.6 35 566" fill="none" stroke="#170f08" stroke-width="2.4" stroke-linecap="round" opacity=".8"/>
    <path d="M86 586 Q83 574.0 80 566" fill="none" stroke="#170f08" stroke-width="2.4" stroke-linecap="round" opacity=".8"/>
    <path d="M143 592 Q146 576.4 149 566" fill="none" stroke="#170f08" stroke-width="2.4" stroke-linecap="round" opacity=".8"/>
    <path d="M200 580 Q197 571.6 194 566" fill="none" stroke="#170f08" stroke-width="2.4" stroke-linecap="round" opacity=".8"/>
    <path d="M257 586 Q260 574.0 263 566" fill="none" stroke="#170f08" stroke-width="2.4" stroke-linecap="round" opacity=".8"/>
    <path d="M314 592 Q311 576.4 308 566" fill="none" stroke="#170f08" stroke-width="2.4" stroke-linecap="round" opacity=".8"/>
    <path d="M371 580 Q374 571.6 377 566" fill="none" stroke="#170f08" stroke-width="2.4" stroke-linecap="round" opacity=".8"/>
    <path d="M429 586 Q426 574.0 423 566" fill="none" stroke="#170f08" stroke-width="2.4" stroke-linecap="round" opacity=".8"/>
    <path d="M486 592 Q489 576.4 492 566" fill="none" stroke="#170f08" stroke-width="2.4" stroke-linecap="round" opacity=".8"/>
    <path d="M543 580 Q540 571.6 537 566" fill="none" stroke="#170f08" stroke-width="2.4" stroke-linecap="round" opacity=".8"/>
    <path d="M600 586 Q603 574.0 606 566" fill="none" stroke="#170f08" stroke-width="2.4" stroke-linecap="round" opacity=".8"/>
    <path d="M657 592 Q654 576.4 651 566" fill="none" stroke="#170f08" stroke-width="2.4" stroke-linecap="round" opacity=".8"/>
    <path d="M714 580 Q717 571.6 720 566" fill="none" stroke="#170f08" stroke-width="2.4" stroke-linecap="round" opacity=".8"/>
    <path d="M771 586 Q768 574.0 765 566" fill="none" stroke="#170f08" stroke-width="2.4" stroke-linecap="round" opacity=".8"/></g>
  
  <g filter="url(#ae-blur)">
    <path d="M538.4 617.6 Q507.2 632.0 490.4 658.4" fill="none" stroke="#e8ddbe" stroke-opacity=".85" stroke-width="6.0" stroke-linecap="round"/>
    <path d="M562.4 622.4 Q586.4 641.6 596.0 665.6" fill="none" stroke="#e8ddbe" stroke-opacity=".85" stroke-width="6.0" stroke-linecap="round"/>
    <path d="M519.2 603.2 C514.4 581.6 531.2 564.8 555.2 562.4 C579.2 560.0 598.4 574.4 600.8 593.6 C603.2 610.4 591.2 624.8 569.6 627.2 C545.6 629.6 524.0 617.6 519.2 603.2 Z" fill="url(#ae-glow)" stroke="#0d0904" stroke-opacity=".6" stroke-width="1.4"/>
  </g>
  <ellipse cx="380" cy="622.0" rx="150.0" ry="24.0" fill="#0d0904" fill-opacity=".5"/>
  
  <g id="ae-elephant" transform="translate(380,430) scale(1.0)">
    <g id="ae-legs-back">
            <path d="M56 82 L58 192" fill="none" stroke="#4a3620" stroke-width="28" stroke-linecap="round"/>
            <path d="M118 64 L126 186" fill="none" stroke="#4a3620" stroke-width="26" stroke-linecap="round"/>
    </g>
    <path d="M148 -22 Q176 30 170 86" fill="none" stroke="#332512" stroke-width="5" stroke-linecap="round"/>
    <path d="M-150 -70 C-170 -92 -150 -116 -118 -118 C-90 -120 -70 -116 -58 -104 C-20 -118 40 -122 90 -112 C128 -104 156 -78 160 -40 C164 -6 152 30 140 60 C128 82 96 90 60 82 C10 90 -40 86 -72 68 C-108 48 -130 18 -138 -12 C-142 -30 -148 -50 -150 -70 Z" fill="url(#ae-body)" stroke="#0d0904" stroke-opacity=".9" stroke-width="1.8"/>
    <path d="M-150 -70 C-170 -92 -150 -116 -118 -118"
          fill="none" stroke="#d9c9a3" stroke-opacity=".24" stroke-width="2.2"/>
    <path d="M-96 -96 C-134 -102 -176 -78 -184 -34 C-188 -4 -176 26 -150 38 C-160 8 -158 -26 -140 -54 C-128 -72 -110 -86 -96 -96 Z" fill="#332512" stroke="#0d0904" stroke-opacity=".85" stroke-width="1.4"/>
    <path d="M-140 6 Q-166 28 -172 58" fill="none" stroke="#e8ddbe" stroke-opacity=".9" stroke-width="4.2" stroke-linecap="round"/>
    <path d="M-130 16 Q-150 38 -156 64" fill="none" stroke="#e8ddbe" stroke-opacity=".9" stroke-width="4.2" stroke-linecap="round"/>
    <path d="M-146 -18 C-160 8 -158 40 -142 68 C-128 94 -118 122 -122 150 C-125 170 -112 186 -92 190 C-104 178 -108 162 -100 150 C-112 124 -116 96 -108 66 C-100 38 -104 8 -118 -16 Z" fill="#4a3620" stroke="#0d0904" stroke-opacity=".9" stroke-width="1.6"/>
    <circle cx="-118" cy="-72" r="3.4" fill="#0d0904"/><circle cx="-119" cy="-73" r="1" fill="#d9c9a3" fill-opacity=".8"/>
    <g id="ae-legs-front">
      <path d="M-104 50 L-112 188" fill="none" stroke="#332512" stroke-width="26" stroke-linecap="round"/>
            <path d="M-42 72 L-46 192" fill="none" stroke="#332512" stroke-width="28" stroke-linecap="round"/>
    </g>
  </g>
</svg>
