<svg xmlns="http://www.w3.org/2000/svg" viewBox="0 0 800 800" role="img" aria-label="A Secretary Bird mid-stomp in golden savanna grass at late afternoon, one leg driven down into the grass and wings flared for balance, its quill-crest and calm posture otherwise still">
  <defs>
    <linearGradient id="sb-sky" x1="0" y1="0" x2="0" y2="1">
      <stop offset="0%" stop-color="#f2d9a0"/>
      <stop offset="62%" stop-color="#d9843f"/>
      <stop offset="100%" stop-color="#c96a34"/>
    </linearGradient>
    <radialGradient id="sb-sun" cx="50%" cy="50%" r="50%">
      <stop offset="0%" stop-color="#fff3d6" stop-opacity=".85"/>
      <stop offset="55%" stop-color="#f2d9a0" stop-opacity=".35"/>
      <stop offset="100%" stop-color="#f2d9a0" stop-opacity="0"/>
    </radialGradient>
    <linearGradient id="sb-grass" x1="0" y1="0" x2="0" y2="1">
      <stop offset="0%" stop-color="#c9973f"/>
      <stop offset="100%" stop-color="#6e4f1e"/>
    </linearGradient>
    <linearGradient id="sb-body" x1="0" y1="0" x2="1" y2="1">
      <stop offset="0%" stop-color="#cdd0d3"/>
      <stop offset="100%" stop-color="#5c5f63"/>
    </linearGradient>
    <radialGradient id="sb-impact" cx="50%" cy="50%" r="50%">
      <stop offset="0%" stop-color="#f0dfae" stop-opacity=".8"/>
      <stop offset="60%" stop-color="#f0dfae" stop-opacity=".28"/>
      <stop offset="100%" stop-color="#f0dfae" stop-opacity="0"/>
    </radialGradient>
    <filter id="sb-blur" x="-60%" y="-60%" width="220%" height="220%">
      <feGaussianBlur stdDeviation="7" result="b"/>
      <feMerge><feMergeNode in="b"/><feMergeNode in="SourceGraphic"/></feMerge>
    </filter>
  </defs>
  <rect width="800" height="800" rx="24" fill="url(#sb-sky)"/>
  <g opacity=".95"><circle cx="650" cy="150" r="46" fill="#fff3d6" fill-opacity=".9"/>
  <circle cx="650" cy="150" r="86" fill="url(#sb-sun)"/></g>
  <g id="sb-tree" opacity=".9"><path d="M70 555.0 Q67.45 526.1 70 504" fill="none" stroke="#6e4f1e" stroke-width="5.1" stroke-linecap="round"/><path d="M17.300000000000004 505.7 C25.800000000000004 487.0 54.7 478.5 70 481.9 C85.3 478.5 114.19999999999999 487.0 122.69999999999999 505.7 C107.4 500.6 85.3 497.2 70 498.9 C54.7 497.2 32.6 500.6 17.300000000000004 505.7 Z" fill="#6e4f1e" opacity=".85"/>
    <path d="M170 522.0 Q167.0 488.0 170 462" fill="none" stroke="#6e4f1e" stroke-width="6.0" stroke-linecap="round"/><path d="M108.0 464.0 C118.0 442.0 152.0 432.0 170 436.0 C188.0 432.0 222.0 442.0 232.0 464.0 C214.0 458.0 188.0 454.0 170 456.0 C152.0 454.0 126.0 458.0 108.0 464.0 Z" fill="#6e4f1e" opacity=".85"/>
    <path d="M720 538.0 Q717.3 507.4 720 484" fill="none" stroke="#6e4f1e" stroke-width="5.4" stroke-linecap="round"/><path d="M664.2 485.8 C673.2 466.0 703.8 457.0 720 460.6 C736.2 457.0 766.8 466.0 775.8 485.8 C759.6 480.4 736.2 476.8 720 478.6 C703.8 476.8 680.4 480.4 664.2 485.8 Z" fill="#6e4f1e" opacity=".85"/>
    <path d="M770 496.0 Q767.9 472.2 770 454" fill="none" stroke="#6e4f1e" stroke-width="4.2" stroke-linecap="round"/><path d="M726.6 455.4 C733.6 440.0 757.4 433.0 770 435.8 C782.6 433.0 806.4 440.0 813.4 455.4 C800.8 451.2 782.6 448.4 770 449.8 C757.4 448.4 739.2 451.2 726.6 455.4 Z" fill="#6e4f1e" opacity=".85"/></g>
  <path d="M0 520 C176.0 504 336.0 534 480.0 516 C640.0 504 720.0 526 800 518 L800 800 L0 800 Z"
        fill="url(#sb-grass)"/>
  <g opacity=".8"><path d="M22 538 Q26 529.6 29 524" fill="none" stroke="#6e4f1e" stroke-width="2.6" stroke-linecap="round" opacity=".75"/>
    <path d="M67 545 Q63 532.4 60 524" fill="none" stroke="#6e4f1e" stroke-width="2.6" stroke-linecap="round" opacity=".75"/>
    <path d="M111 552 Q115 535.2 118 524" fill="none" stroke="#6e4f1e" stroke-width="2.6" stroke-linecap="round" opacity=".75"/>
    <path d="M156 538 Q152 529.6 149 524" fill="none" stroke="#6e4f1e" stroke-width="2.6" stroke-linecap="round" opacity=".75"/>
    <path d="M200 545 Q204 532.4 207 524" fill="none" stroke="#6e4f1e" stroke-width="2.6" stroke-linecap="round" opacity=".75"/>
    <path d="M244 552 Q241 535.2 237 524" fill="none" stroke="#6e4f1e" stroke-width="2.6" stroke-linecap="round" opacity=".75"/>
    <path d="M289 538 Q292 529.6 296 524" fill="none" stroke="#6e4f1e" stroke-width="2.6" stroke-linecap="round" opacity=".75"/>
    <path d="M333 545 Q330 532.4 326 524" fill="none" stroke="#6e4f1e" stroke-width="2.6" stroke-linecap="round" opacity=".75"/>
    <path d="M378 552 Q381 535.2 385 524" fill="none" stroke="#6e4f1e" stroke-width="2.6" stroke-linecap="round" opacity=".75"/>
    <path d="M422 538 Q419 529.6 415 524" fill="none" stroke="#6e4f1e" stroke-width="2.6" stroke-linecap="round" opacity=".75"/>
    <path d="M467 545 Q470 532.4 474 524" fill="none" stroke="#6e4f1e" stroke-width="2.6" stroke-linecap="round" opacity=".75"/>
    <path d="M511 552 Q508 535.2 504 524" fill="none" stroke="#6e4f1e" stroke-width="2.6" stroke-linecap="round" opacity=".75"/>
    <path d="M556 538 Q559 529.6 563 524" fill="none" stroke="#6e4f1e" stroke-width="2.6" stroke-linecap="round" opacity=".75"/>
    <path d="M600 545 Q596 532.4 593 524" fill="none" stroke="#6e4f1e" stroke-width="2.6" stroke-linecap="round" opacity=".75"/>
    <path d="M644 552 Q648 535.2 651 524" fill="none" stroke="#6e4f1e" stroke-width="2.6" stroke-linecap="round" opacity=".75"/>
    <path d="M689 538 Q685 529.6 682 524" fill="none" stroke="#6e4f1e" stroke-width="2.6" stroke-linecap="round" opacity=".75"/>
    <path d="M733 545 Q737 532.4 740 524" fill="none" stroke="#6e4f1e" stroke-width="2.6" stroke-linecap="round" opacity=".75"/>
    <path d="M778 552 Q774 535.2 771 524" fill="none" stroke="#6e4f1e" stroke-width="2.6" stroke-linecap="round" opacity=".75"/></g>
  <g opacity=".55"><path d="M40 576 Q44 560.4 47 550" fill="none" stroke="#6e4f1e" stroke-width="2.6" stroke-linecap="round" opacity=".75"/>
    <path d="M120 583 Q116 563.2 113 550" fill="none" stroke="#6e4f1e" stroke-width="2.6" stroke-linecap="round" opacity=".75"/>
    <path d="M200 590 Q204 566.0 207 550" fill="none" stroke="#6e4f1e" stroke-width="2.6" stroke-linecap="round" opacity=".75"/>
    <path d="M280 576 Q276 560.4 273 550" fill="none" stroke="#6e4f1e" stroke-width="2.6" stroke-linecap="round" opacity=".75"/>
    <path d="M360 583 Q364 563.2 367 550" fill="none" stroke="#6e4f1e" stroke-width="2.6" stroke-linecap="round" opacity=".75"/>
    <path d="M440 590 Q436 566.0 433 550" fill="none" stroke="#6e4f1e" stroke-width="2.6" stroke-linecap="round" opacity=".75"/>
    <path d="M520 576 Q524 560.4 527 550" fill="none" stroke="#6e4f1e" stroke-width="2.6" stroke-linecap="round" opacity=".75"/>
    <path d="M600 583 Q596 563.2 593 550" fill="none" stroke="#6e4f1e" stroke-width="2.6" stroke-linecap="round" opacity=".75"/>
    <path d="M680 590 Q684 566.0 687 550" fill="none" stroke="#6e4f1e" stroke-width="2.6" stroke-linecap="round" opacity=".75"/>
    <path d="M760 576 Q756 560.4 753 550" fill="none" stroke="#6e4f1e" stroke-width="2.6" stroke-linecap="round" opacity=".75"/></g>
  <g filter="url(#sb-blur)"><ellipse cx="396" cy="628" rx="28" ry="8" fill="url(#sb-impact)" opacity=".8"/><ellipse cx="396" cy="628" rx="16" ry="3" fill="none" stroke="#f0dfae" stroke-opacity="0.26" stroke-width="2.3"/>
    <ellipse cx="396" cy="630" rx="25" ry="5" fill="none" stroke="#f0dfae" stroke-opacity="0.18" stroke-width="2.3"/>
    <ellipse cx="396" cy="632" rx="34" ry="7" fill="none" stroke="#f0dfae" stroke-opacity="0.10" stroke-width="2.3"/></g>
  <ellipse cx="360" cy="627.5" rx="63.0" ry="14.5" fill="#241a0f" fill-opacity=".35"/>
  
  <g id="sb-bird" transform="translate(360,470) scale(1.05)">
    <path d="M-30 -70 C-70 -72 -108 -52 -126 -14 C-132 -2 -128 10 -116 12 C-92 -10 -64 -30 -30 -40 Z" fill="#5c5f63" stroke="#171310" stroke-opacity=".8" stroke-width="1.6"/>
    <path d="M-52 -6 C-78 10 -96 30 -100 54 C-84 46 -64 26 -48 6 Z" fill="#171310" opacity=".92"/>
    <path d="M-10 18 Q-34 24 -50 6" fill="none" stroke="#5c5f63" stroke-opacity=".95" stroke-width="9" stroke-linecap="round"/><path d="M-10 18 Q-34 24 -50 6" fill="none" stroke="#9c8862" stroke-width="6.4" stroke-linecap="round"/><path d="M-50 6 L-64 2 M-50 6 L-60 14 M-50 6 L-58 -6" fill="none" stroke="#9c8862" stroke-width="4.2" stroke-linecap="round"/>
    <path d="M-34 -96 C-58 -104 -72 -78 -70 -48 C-68 -18 -56 8 -30 18 C-4 28 26 22 42 2 C56 -16 56 -52 38 -78 C22 -100 -8 -108 -34 -96 Z" fill="url(#sb-body)" stroke="#171310" stroke-opacity=".85" stroke-width="1.8"/>
    <path d="M-30 -40 C-40 -16 -30 8 -8 16 C10 22 28 12 34 -6 C14 2 -10 2 -30 -40 Z" fill="#eae6da" opacity=".9"/>
    <path d="M2 -4 C22 2 30 18 22 30 C8 26 -4 12 2 -4 Z" fill="#5c5f63"/>
    <path d="M18 14 L30 70 L34 150" fill="none" stroke="#cdb98f" stroke-width="10" stroke-linecap="round"/><path d="M34 150 L16 164 M34 150 L40 168 M34 150 L54 160" fill="none" stroke="#cdb98f" stroke-width="5.2" stroke-linecap="round"/>
    <path d="M10 -60 C40 -78 78 -80 104 -58 C114 -50 114 -38 102 -36 C72 -46 40 -40 14 -24 Z" fill="url(#sb-body)" stroke="#171310" stroke-opacity=".8" stroke-width="1.6"/>
    <path d="M30 -92 C50 -118 66 -146 72 -172 C74 -182 70 -190 62 -192 C54 -166 40 -136 18 -104 Z" fill="#cdd0d3" stroke="#171310" stroke-opacity=".8" stroke-width="1.6"/>
    <circle cx="78" cy="-196" r="21" fill="#cdd0d3" stroke="#171310" stroke-opacity=".8" stroke-width="1.6"/>
    <path d="M72 -210 A18 18 0 0 1 94 -198 L80 -188 A18 18 0 0 1 72 -210 Z" fill="#d9502e" stroke="#a83a1e" stroke-width="1"/>
    <path d="M94 -198 C108 -194 112 -186 104 -180 C96 -184 90 -190 86 -198 Z" fill="#3a332c"/>
    <path d="M64 -206 Q42 -222 32 -244" fill="none" stroke="#171310" stroke-width="4.4" stroke-linecap="round"/>
      <path d="M68 -212 Q48 -234 44 -260" fill="none" stroke="#171310" stroke-width="4" stroke-linecap="round"/>
      <path d="M74 -214 Q62 -240 64 -266" fill="none" stroke="#171310" stroke-width="3.6" stroke-linecap="round"/>
    <circle cx="76" cy="-202" r="3.2" fill="#171310"/><path d="M69 -207 Q76 -211 83 -206" fill="none" stroke="#171310" stroke-width="1.6" stroke-linecap="round"/>
  </g>
</svg>
