<svg xmlns="http://www.w3.org/2000/svg" viewBox="0 0 400 500" role="img" aria-label="A Secretary Bird striking in golden savanna grass, closer and calmer, its quill-crest visible">
  <defs>
    <linearGradient id="sb-sky" x1="0" y1="0" x2="0" y2="1">
      <stop offset="0%" stop-color="#f2d9a0"/>
      <stop offset="62%" stop-color="#d9843f"/>
      <stop offset="100%" stop-color="#c96a34"/>
    </linearGradient>
    <radialGradient id="sb-sun" cx="50%" cy="50%" r="50%">
      <stop offset="0%" stop-color="#fff3d6" stop-opacity=".85"/>
      <stop offset="55%" stop-color="#f2d9a0" stop-opacity=".35"/>
      <stop offset="100%" stop-color="#f2d9a0" stop-opacity="0"/>
    </radialGradient>
    <linearGradient id="sb-grass" x1="0" y1="0" x2="0" y2="1">
      <stop offset="0%" stop-color="#c9973f"/>
      <stop offset="100%" stop-color="#6e4f1e"/>
    </linearGradient>
    <linearGradient id="sb-body" x1="0" y1="0" x2="1" y2="1">
      <stop offset="0%" stop-color="#cdd0d3"/>
      <stop offset="100%" stop-color="#5c5f63"/>
    </linearGradient>
    <radialGradient id="sb-impact" cx="50%" cy="50%" r="50%">
      <stop offset="0%" stop-color="#f0dfae" stop-opacity=".8"/>
      <stop offset="60%" stop-color="#f0dfae" stop-opacity=".28"/>
      <stop offset="100%" stop-color="#f0dfae" stop-opacity="0"/>
    </radialGradient>
    <filter id="sb-blur" x="-60%" y="-60%" width="220%" height="220%">
      <feGaussianBlur stdDeviation="7" result="b"/>
      <feMerge><feMergeNode in="b"/><feMergeNode in="SourceGraphic"/></feMerge>
    </filter>
  </defs>
  <rect width="400" height="500" rx="18" fill="url(#sb-sky)"/>
  <g opacity=".95"><circle cx="320" cy="84" r="24" fill="#fff3d6" fill-opacity=".9"/>
  <circle cx="320" cy="84" r="64" fill="url(#sb-sun)"/></g>
  <g id="sb-tree" opacity=".9"><path d="M38 362.0 Q36.5 345.0 38 332" fill="none" stroke="#6e4f1e" stroke-width="3.0" stroke-linecap="round"/><path d="M7.0 333.0 C12.0 322.0 29.0 317.0 38 319.0 C47.0 317.0 64.0 322.0 69.0 333.0 C60.0 330.0 47.0 328.0 38 329.0 C29.0 328.0 16.0 330.0 7.0 333.0 Z" fill="#6e4f1e" opacity=".85"/>
    <path d="M362 335.0 Q360.35 316.3 362 302" fill="none" stroke="#6e4f1e" stroke-width="3.3" stroke-linecap="round"/><path d="M327.9 303.1 C333.4 291.0 352.1 285.5 362 287.7 C371.9 285.5 390.6 291.0 396.1 303.1 C386.2 299.8 371.9 297.6 362 298.7 C352.1 297.6 337.8 299.8 327.9 303.1 Z" fill="#6e4f1e" opacity=".85"/></g>
  <path d="M0 344 C88.0 328 168.0 358 240.0 340 C320.0 328 360.0 350 400 342 L400 500 L0 500 Z"
        fill="url(#sb-grass)"/>
  <g opacity=".8"><path d="M11 362 Q15 353.6 18 348" fill="none" stroke="#6e4f1e" stroke-width="2.6" stroke-linecap="round" opacity=".75"/>
    <path d="M33 369 Q30 356.4 26 348" fill="none" stroke="#6e4f1e" stroke-width="2.6" stroke-linecap="round" opacity=".75"/>
    <path d="M56 376 Q59 359.2 63 348" fill="none" stroke="#6e4f1e" stroke-width="2.6" stroke-linecap="round" opacity=".75"/>
    <path d="M78 362 Q74 353.6 71 348" fill="none" stroke="#6e4f1e" stroke-width="2.6" stroke-linecap="round" opacity=".75"/>
    <path d="M100 369 Q104 356.4 107 348" fill="none" stroke="#6e4f1e" stroke-width="2.6" stroke-linecap="round" opacity=".75"/>
    <path d="M122 376 Q119 359.2 115 348" fill="none" stroke="#6e4f1e" stroke-width="2.6" stroke-linecap="round" opacity=".75"/>
    <path d="M144 362 Q148 353.6 151 348" fill="none" stroke="#6e4f1e" stroke-width="2.6" stroke-linecap="round" opacity=".75"/>
    <path d="M167 369 Q163 356.4 160 348" fill="none" stroke="#6e4f1e" stroke-width="2.6" stroke-linecap="round" opacity=".75"/>
    <path d="M189 376 Q192 359.2 196 348" fill="none" stroke="#6e4f1e" stroke-width="2.6" stroke-linecap="round" opacity=".75"/>
    <path d="M211 362 Q208 353.6 204 348" fill="none" stroke="#6e4f1e" stroke-width="2.6" stroke-linecap="round" opacity=".75"/>
    <path d="M233 369 Q237 356.4 240 348" fill="none" stroke="#6e4f1e" stroke-width="2.6" stroke-linecap="round" opacity=".75"/>
    <path d="M256 376 Q252 359.2 249 348" fill="none" stroke="#6e4f1e" stroke-width="2.6" stroke-linecap="round" opacity=".75"/>
    <path d="M278 362 Q281 353.6 285 348" fill="none" stroke="#6e4f1e" stroke-width="2.6" stroke-linecap="round" opacity=".75"/>
    <path d="M300 369 Q296 356.4 293 348" fill="none" stroke="#6e4f1e" stroke-width="2.6" stroke-linecap="round" opacity=".75"/>
    <path d="M322 376 Q326 359.2 329 348" fill="none" stroke="#6e4f1e" stroke-width="2.6" stroke-linecap="round" opacity=".75"/>
    <path d="M344 362 Q341 353.6 337 348" fill="none" stroke="#6e4f1e" stroke-width="2.6" stroke-linecap="round" opacity=".75"/>
    <path d="M367 369 Q370 356.4 374 348" fill="none" stroke="#6e4f1e" stroke-width="2.6" stroke-linecap="round" opacity=".75"/>
    <path d="M389 376 Q385 359.2 382 348" fill="none" stroke="#6e4f1e" stroke-width="2.6" stroke-linecap="round" opacity=".75"/></g>
  <g opacity=".55"><path d="M20 400 Q24 384.4 27 374" fill="none" stroke="#6e4f1e" stroke-width="2.6" stroke-linecap="round" opacity=".75"/>
    <path d="M60 407 Q56 387.2 53 374" fill="none" stroke="#6e4f1e" stroke-width="2.6" stroke-linecap="round" opacity=".75"/>
    <path d="M100 414 Q104 390.0 107 374" fill="none" stroke="#6e4f1e" stroke-width="2.6" stroke-linecap="round" opacity=".75"/>
    <path d="M140 400 Q136 384.4 133 374" fill="none" stroke="#6e4f1e" stroke-width="2.6" stroke-linecap="round" opacity=".75"/>
    <path d="M180 407 Q184 387.2 187 374" fill="none" stroke="#6e4f1e" stroke-width="2.6" stroke-linecap="round" opacity=".75"/>
    <path d="M220 414 Q216 390.0 213 374" fill="none" stroke="#6e4f1e" stroke-width="2.6" stroke-linecap="round" opacity=".75"/>
    <path d="M260 400 Q264 384.4 267 374" fill="none" stroke="#6e4f1e" stroke-width="2.6" stroke-linecap="round" opacity=".75"/>
    <path d="M300 407 Q296 387.2 293 374" fill="none" stroke="#6e4f1e" stroke-width="2.6" stroke-linecap="round" opacity=".75"/>
    <path d="M340 414 Q344 390.0 347 374" fill="none" stroke="#6e4f1e" stroke-width="2.6" stroke-linecap="round" opacity=".75"/>
    <path d="M380 400 Q376 384.4 373 374" fill="none" stroke="#6e4f1e" stroke-width="2.6" stroke-linecap="round" opacity=".75"/></g>
  <g filter="url(#sb-blur)"><ellipse cx="188" cy="387" rx="15" ry="4" fill="url(#sb-impact)" opacity=".8"/><ellipse cx="188" cy="387" rx="9" ry="2" fill="none" stroke="#f0dfae" stroke-opacity="0.26" stroke-width="1.2"/>
    <ellipse cx="188" cy="389" rx="14" ry="3" fill="none" stroke="#f0dfae" stroke-opacity="0.18" stroke-width="1.2"/>
    <ellipse cx="188" cy="391" rx="19" ry="4" fill="none" stroke="#f0dfae" stroke-opacity="0.10" stroke-width="1.2"/></g>
  <ellipse cx="168" cy="387.0" rx="34.8" ry="9.8" fill="#241a0f" fill-opacity=".35"/>
  
  <g id="sb-bird" transform="translate(168,300) scale(0.58)">
    <path d="M-30 -70 C-70 -72 -108 -52 -126 -14 C-132 -2 -128 10 -116 12 C-92 -10 -64 -30 -30 -40 Z" fill="#5c5f63" stroke="#171310" stroke-opacity=".8" stroke-width="1.6"/>
    <path d="M-52 -6 C-78 10 -96 30 -100 54 C-84 46 -64 26 -48 6 Z" fill="#171310" opacity=".92"/>
    <path d="M-10 18 Q-34 24 -50 6" fill="none" stroke="#5c5f63" stroke-opacity=".95" stroke-width="9" stroke-linecap="round"/><path d="M-10 18 Q-34 24 -50 6" fill="none" stroke="#9c8862" stroke-width="6.4" stroke-linecap="round"/><path d="M-50 6 L-64 2 M-50 6 L-60 14 M-50 6 L-58 -6" fill="none" stroke="#9c8862" stroke-width="4.2" stroke-linecap="round"/>
    <path d="M-34 -96 C-58 -104 -72 -78 -70 -48 C-68 -18 -56 8 -30 18 C-4 28 26 22 42 2 C56 -16 56 -52 38 -78 C22 -100 -8 -108 -34 -96 Z" fill="url(#sb-body)" stroke="#171310" stroke-opacity=".85" stroke-width="1.8"/>
    <path d="M-30 -40 C-40 -16 -30 8 -8 16 C10 22 28 12 34 -6 C14 2 -10 2 -30 -40 Z" fill="#eae6da" opacity=".9"/>
    <path d="M2 -4 C22 2 30 18 22 30 C8 26 -4 12 2 -4 Z" fill="#5c5f63"/>
    <path d="M18 14 L30 70 L34 150" fill="none" stroke="#cdb98f" stroke-width="10" stroke-linecap="round"/><path d="M34 150 L16 164 M34 150 L40 168 M34 150 L54 160" fill="none" stroke="#cdb98f" stroke-width="5.2" stroke-linecap="round"/>
    <path d="M10 -60 C40 -78 78 -80 104 -58 C114 -50 114 -38 102 -36 C72 -46 40 -40 14 -24 Z" fill="url(#sb-body)" stroke="#171310" stroke-opacity=".8" stroke-width="1.6"/>
    <path d="M30 -92 C50 -118 66 -146 72 -172 C74 -182 70 -190 62 -192 C54 -166 40 -136 18 -104 Z" fill="#cdd0d3" stroke="#171310" stroke-opacity=".8" stroke-width="1.6"/>
    <circle cx="78" cy="-196" r="21" fill="#cdd0d3" stroke="#171310" stroke-opacity=".8" stroke-width="1.6"/>
    <path d="M72 -210 A18 18 0 0 1 94 -198 L80 -188 A18 18 0 0 1 72 -210 Z" fill="#d9502e" stroke="#a83a1e" stroke-width="1"/>
    <path d="M94 -198 C108 -194 112 -186 104 -180 C96 -184 90 -190 86 -198 Z" fill="#3a332c"/>
    <path d="M64 -206 Q42 -222 32 -244" fill="none" stroke="#171310" stroke-width="4.4" stroke-linecap="round"/>
      <path d="M68 -212 Q48 -234 44 -260" fill="none" stroke="#171310" stroke-width="4" stroke-linecap="round"/>
      <path d="M74 -214 Q62 -240 64 -266" fill="none" stroke="#171310" stroke-width="3.6" stroke-linecap="round"/>
    <circle cx="76" cy="-202" r="3.2" fill="#171310"/><path d="M69 -207 Q76 -211 83 -206" fill="none" stroke="#171310" stroke-width="1.6" stroke-linecap="round"/>
  </g>
</svg>
