<svg xmlns="http://www.w3.org/2000/svg" style="display:none" aria-hidden="true">
<symbol id="aries" viewBox="0 0 24 24" role="img" aria-labelledby="aries-t aries-d"><title id="aries-t">Aries, the Ram</title><desc id="aries-d">A curved ram-horn arc of stars.</desc><g fill="none" stroke="var(--accent)" stroke-width="var(--glyph-stroke,1.5)" stroke-linecap="round" stroke-linejoin="round"><path d="M6 16 L9 10 L13 8 L16 11"/><path d="M13 8 L16 11 L19 9"/></g><g fill="var(--accent-soft)"><circle cx="6" cy="16" r="0.85"/><circle cx="9" cy="10" r="0.85"/><circle cx="13" cy="8" r="1.05"/><circle cx="16" cy="11" r="0.85"/><circle cx="19" cy="9" r="0.85"/></g><g fill="var(--accent)" opacity="0.55"><circle cx="11" cy="14" r="0.4"/><circle cx="17" cy="14" r="0.4"/></g></symbol>
<symbol id="taurus" viewBox="0 0 24 24" role="img" aria-labelledby="taurus-t taurus-d"><title id="taurus-t">Taurus, the Bull</title><desc id="taurus-d">A V of the Hyades rising to two horn tips.</desc><g fill="none" stroke="var(--accent)" stroke-width="var(--glyph-stroke,1.5)" stroke-linecap="round" stroke-linejoin="round"><path d="M6 8 L9 12 L12 15 L15 12 L18 8"/></g><g fill="var(--accent-soft)"><circle cx="12" cy="15" r="1.05"/><circle cx="9" cy="12" r="0.85"/><circle cx="6" cy="8" r="0.85"/><circle cx="15" cy="12" r="0.85"/><circle cx="18" cy="8" r="0.85"/><circle cx="12" cy="15" r="0.85"/></g><g fill="var(--accent)" opacity="0.55"><circle cx="8" cy="17" r="0.4"/><circle cx="16" cy="17" r="0.4"/></g></symbol>
<symbol id="gemini" viewBox="0 0 24 24" role="img" aria-labelledby="gemini-t gemini-d"><title id="gemini-t">Gemini, the Twins</title><desc id="gemini-d">Twin parallel columns joined at head and foot.</desc><g fill="none" stroke="var(--accent)" stroke-width="var(--glyph-stroke,1.5)" stroke-linecap="round" stroke-linejoin="round"><path d="M9 5 L9 12 L9 19"/><path d="M15 5 L15 12 L15 19"/><path d="M9 5 L15 5"/><path d="M9 19 L15 19"/></g><g fill="var(--accent-soft)"><circle cx="9" cy="5" r="0.85"/><circle cx="9" cy="12" r="0.85"/><circle cx="9" cy="19" r="0.85"/><circle cx="15" cy="5" r="1.05"/><circle cx="15" cy="12" r="0.85"/><circle cx="15" cy="19" r="0.85"/></g><g fill="var(--accent)" opacity="0.55"><circle cx="12" cy="8" r="0.4"/></g></symbol>
<symbol id="cancer" viewBox="0 0 24 24" role="img" aria-labelledby="cancer-t cancer-d"><title id="cancer-t">Cancer, the Crab</title><desc id="cancer-d">An inverted Y crab body.</desc><g fill="none" stroke="var(--accent)" stroke-width="var(--glyph-stroke,1.5)" stroke-linecap="round" stroke-linejoin="round"><path d="M7 5 L12 8 L17 5"/><path d="M12 8 L12 14"/><path d="M8 18 L12 14 L16 18"/></g><g fill="var(--accent-soft)"><circle cx="12" cy="14" r="1.05"/><circle cx="12" cy="8" r="0.85"/><circle cx="7" cy="5" r="0.85"/><circle cx="17" cy="5" r="0.85"/><circle cx="8" cy="18" r="0.85"/><circle cx="16" cy="18" r="0.85"/></g><g fill="var(--accent)" opacity="0.55"><circle cx="12" cy="11" r="0.4"/></g></symbol>
<symbol id="leo" viewBox="0 0 24 24" role="img" aria-labelledby="leo-t leo-d"><title id="leo-t">Leo, the Lion</title><desc id="leo-d">The sickle curving into a haunch triangle.</desc><g fill="none" stroke="var(--accent)" stroke-width="var(--glyph-stroke,1.5)" stroke-linecap="round" stroke-linejoin="round"><path d="M7 7 L6 11 L8 14 L12 15 L15 13"/><path d="M15 13 L15 18 L19 17"/><path d="M10 9 L12 15"/></g><g fill="var(--accent-soft)"><circle cx="7" cy="7" r="0.85"/><circle cx="6" cy="11" r="0.85"/><circle cx="8" cy="14" r="0.85"/><circle cx="12" cy="15" r="0.85"/><circle cx="15" cy="13" r="1.05"/><circle cx="15" cy="18" r="0.85"/><circle cx="19" cy="17" r="0.85"/><circle cx="10" cy="9" r="0.85"/></g><g fill="var(--accent)" opacity="0.55"><circle cx="11" cy="12" r="0.4"/></g></symbol>
<symbol id="virgo" viewBox="0 0 24 24" role="img" aria-labelledby="virgo-t virgo-d"><title id="virgo-t">Virgo, the Maiden</title><desc id="virgo-d">A reclining bent line anchored by a bright star.</desc><g fill="none" stroke="var(--accent)" stroke-width="var(--glyph-stroke,1.5)" stroke-linecap="round" stroke-linejoin="round"><path d="M5 9 L9 11 L13 10 L16 13"/><path d="M16 13 L18 17"/><path d="M13 10 L12 15"/></g><g fill="var(--accent-soft)"><circle cx="5" cy="9" r="0.85"/><circle cx="9" cy="11" r="0.85"/><circle cx="13" cy="10" r="0.85"/><circle cx="16" cy="13" r="1.05"/><circle cx="18" cy="17" r="0.85"/><circle cx="12" cy="15" r="0.85"/></g><g fill="var(--accent)" opacity="0.55"><circle cx="8" cy="15" r="0.4"/></g></symbol>
<symbol id="libra" viewBox="0 0 24 24" role="img" aria-labelledby="libra-t libra-d"><title id="libra-t">Libra, the Scales</title><desc id="libra-d">A beam with two hanging pans.</desc><g fill="none" stroke="var(--accent)" stroke-width="var(--glyph-stroke,1.5)" stroke-linecap="round" stroke-linejoin="round"><path d="M6 11 L12 7 L18 11"/><path d="M6 11 L6 16"/><path d="M18 11 L18 16"/></g><g fill="var(--accent-soft)"><circle cx="12" cy="7" r="1.05"/><circle cx="6" cy="11" r="0.85"/><circle cx="18" cy="11" r="0.85"/><circle cx="6" cy="16" r="0.85"/><circle cx="18" cy="16" r="0.85"/></g><g fill="var(--accent)" opacity="0.55"><circle cx="12" cy="10" r="0.4"/></g></symbol>
<symbol id="scorpio" viewBox="0 0 24 24" role="img" aria-labelledby="scorpio-t scorpio-d"><title id="scorpio-t">Scorpio, the Scorpion</title><desc id="scorpio-d">A long curved tail ending in a hooked stinger.</desc><g fill="none" stroke="var(--accent)" stroke-width="var(--glyph-stroke,1.5)" stroke-linecap="round" stroke-linejoin="round"><path d="M5 7 L6 11 L9 13 L13 13 L16 15 L18 18 L16 20"/><path d="M8 8 L9 13"/></g><g fill="var(--accent-soft)"><circle cx="5" cy="7" r="0.85"/><circle cx="6" cy="11" r="0.85"/><circle cx="9" cy="13" r="0.85"/><circle cx="13" cy="13" r="1.05"/><circle cx="16" cy="15" r="0.85"/><circle cx="18" cy="18" r="0.85"/><circle cx="16" cy="20" r="0.85"/><circle cx="8" cy="8" r="0.85"/></g><g fill="var(--accent)" opacity="0.55"><circle cx="11" cy="10" r="0.4"/></g></symbol>
<symbol id="sagittarius" viewBox="0 0 24 24" role="img" aria-labelledby="sagittarius-t sagittarius-d"><title id="sagittarius-t">Sagittarius, the Archer</title><desc id="sagittarius-d">A drawn bow and the shaft of an arrow.</desc><g fill="none" stroke="var(--accent)" stroke-width="var(--glyph-stroke,1.5)" stroke-linecap="round" stroke-linejoin="round"><path d="M6 6 L9 12 L6 18"/><path d="M9 12 L18 7"/><path d="M15 10 L12 13 L9 16"/></g><g fill="var(--accent-soft)"><circle cx="6" cy="6" r="0.85"/><circle cx="6" cy="18" r="0.85"/><circle cx="9" cy="12" r="1.05"/><circle cx="18" cy="7" r="0.85"/><circle cx="15" cy="10" r="0.85"/><circle cx="12" cy="13" r="0.85"/><circle cx="9" cy="16" r="0.85"/></g><g fill="var(--accent)" opacity="0.55"><circle cx="13" cy="9" r="0.4"/></g></symbol>
<symbol id="capricorn" viewBox="0 0 24 24" role="img" aria-labelledby="capricorn-t capricorn-d"><title id="capricorn-t">Capricorn, the Sea-Goat</title><desc id="capricorn-d">A triangular sea-goat wedge.</desc><g fill="none" stroke="var(--accent)" stroke-width="var(--glyph-stroke,1.5)" stroke-linecap="round" stroke-linejoin="round"><path d="M6 8 L10 6 L14 10 L18 17 L9 15 L6 8"/></g><g fill="var(--accent-soft)"><circle cx="6" cy="8" r="0.85"/><circle cx="10" cy="6" r="1.05"/><circle cx="14" cy="10" r="0.85"/><circle cx="18" cy="17" r="0.85"/><circle cx="9" cy="15" r="0.85"/><circle cx="6" cy="8" r="0.85"/></g><g fill="var(--accent)" opacity="0.55"><circle cx="12" cy="13" r="0.4"/></g></symbol>
<symbol id="aquarius" viewBox="0 0 24 24" role="img" aria-labelledby="aquarius-t aquarius-d"><title id="aquarius-t">Aquarius, the Water-Bearer</title><desc id="aquarius-d">Double zigzag water lines.</desc><g fill="none" stroke="var(--accent)" stroke-width="var(--glyph-stroke,1.5)" stroke-linecap="round" stroke-linejoin="round"><path d="M5 9 L8 11 L11 9 L14 11 L17 9"/><path d="M5 14 L8 16 L11 14 L14 16 L17 14"/></g><g fill="var(--accent-soft)"><circle cx="5" cy="9" r="0.85"/><circle cx="8" cy="11" r="0.85"/><circle cx="11" cy="9" r="0.85"/><circle cx="14" cy="11" r="0.85"/><circle cx="17" cy="9" r="1.05"/><circle cx="5" cy="14" r="0.85"/><circle cx="8" cy="16" r="0.85"/><circle cx="11" cy="14" r="0.85"/><circle cx="14" cy="16" r="0.85"/><circle cx="17" cy="14" r="0.85"/></g><g fill="var(--accent)" opacity="0.55"><circle cx="11" cy="12" r="0.4"/></g></symbol>
<symbol id="pisces" viewBox="0 0 24 24" role="img" aria-labelledby="pisces-t pisces-d"><title id="pisces-t">Pisces, the Fishes</title><desc id="pisces-d">Two arcs tied at a central knot star.</desc><g fill="none" stroke="var(--accent)" stroke-width="var(--glyph-stroke,1.5)" stroke-linecap="round" stroke-linejoin="round"><path d="M6 5 L5 9 L6 13"/><path d="M6 5 L12 9 L18 5"/><path d="M6 13 L12 9 L18 13"/><path d="M18 5 L19 9 L18 13"/></g><g fill="var(--accent-soft)"><circle cx="6" cy="5" r="0.85"/><circle cx="5" cy="9" r="0.85"/><circle cx="6" cy="13" r="0.85"/><circle cx="12" cy="9" r="1.05"/><circle cx="18" cy="5" r="0.85"/><circle cx="19" cy="9" r="0.85"/><circle cx="18" cy="13" r="0.85"/></g><g fill="var(--accent)" opacity="0.55"><circle cx="12" cy="14" r="0.4"/></g></symbol>
<symbol id="rat" viewBox="0 0 24 24" role="img" aria-labelledby="rat-t rat-d"><title id="rat-t">Year of the Rat</title><desc id="rat-d">A minimal line-creature suggesting a rat.</desc><g fill="none" stroke="var(--accent)" stroke-width="var(--glyph-stroke,1.5)" stroke-linecap="round" stroke-linejoin="round"><path d="M8 17 L6 14 L9 11 L13 12 L16 10 L18 7"/><path d="M13 12 L16 15"/></g><g fill="var(--accent-soft)"><circle cx="6" cy="14" r="1.05"/><circle cx="9" cy="11" r="0.85"/><circle cx="13" cy="12" r="0.85"/><circle cx="16" cy="10" r="0.85"/><circle cx="18" cy="7" r="0.85"/><circle cx="16" cy="15" r="0.85"/><circle cx="8" cy="17" r="0.85"/></g><g fill="var(--accent)" opacity="0.55"><circle cx="11" cy="9" r="0.4"/></g></symbol>
<symbol id="ox" viewBox="0 0 24 24" role="img" aria-labelledby="ox-t ox-d"><title id="ox-t">Year of the Ox</title><desc id="ox-d">A minimal line-creature suggesting an ox.</desc><g fill="none" stroke="var(--accent)" stroke-width="var(--glyph-stroke,1.5)" stroke-linecap="round" stroke-linejoin="round"><path d="M6 5 L9 7 L6 9"/><path d="M9 7 L12 10 L17 9 L17 16 L10 16 L12 10"/></g><g fill="var(--accent-soft)"><circle cx="6" cy="9" r="0.85"/><circle cx="9" cy="7" r="1.05"/><circle cx="6" cy="5" r="0.85"/><circle cx="12" cy="10" r="0.85"/><circle cx="17" cy="9" r="0.85"/><circle cx="17" cy="16" r="0.85"/><circle cx="10" cy="16" r="0.85"/></g><g fill="var(--accent)" opacity="0.55"><circle cx="13" cy="13" r="0.4"/></g></symbol>
<symbol id="tiger" viewBox="0 0 24 24" role="img" aria-labelledby="tiger-t tiger-d"><title id="tiger-t">Year of the Tiger</title><desc id="tiger-d">A minimal line-creature suggesting a tiger.</desc><g fill="none" stroke="var(--accent)" stroke-width="var(--glyph-stroke,1.5)" stroke-linecap="round" stroke-linejoin="round"><path d="M5 7 L8 9 L12 8 L16 10 L18 7"/><path d="M16 10 L16 16 L8 15 L8 9"/><path d="M8 15 L6 17"/></g><g fill="var(--accent-soft)"><circle cx="5" cy="7" r="0.85"/><circle cx="8" cy="9" r="1.05"/><circle cx="12" cy="8" r="0.85"/><circle cx="16" cy="10" r="0.85"/><circle cx="18" cy="7" r="0.85"/><circle cx="16" cy="16" r="0.85"/><circle cx="8" cy="15" r="0.85"/><circle cx="6" cy="17" r="0.85"/></g><g fill="var(--accent)" opacity="0.55"><circle cx="12" cy="12" r="0.4"/></g></symbol>
<symbol id="rabbit" viewBox="0 0 24 24" role="img" aria-labelledby="rabbit-t rabbit-d"><title id="rabbit-t">Year of the Rabbit</title><desc id="rabbit-d">A minimal line-creature suggesting a rabbit.</desc><g fill="none" stroke="var(--accent)" stroke-width="var(--glyph-stroke,1.5)" stroke-linecap="round" stroke-linejoin="round"><path d="M8 6 L10 10 L12 6"/><path d="M10 10 L8 15"/><path d="M10 10 L14 14 L16 17"/></g><g fill="var(--accent-soft)"><circle cx="8" cy="6" r="0.85"/><circle cx="10" cy="10" r="1.05"/><circle cx="12" cy="6" r="0.85"/><circle cx="10" cy="10" r="0.85"/><circle cx="8" cy="15" r="0.85"/><circle cx="14" cy="14" r="0.85"/><circle cx="16" cy="17" r="0.85"/></g><g fill="var(--accent)" opacity="0.55"><circle cx="7" cy="9" r="0.4"/><circle cx="13" cy="9" r="0.4"/></g></symbol>
<symbol id="dragon" viewBox="0 0 24 24" role="img" aria-labelledby="dragon-t dragon-d"><title id="dragon-t">Year of the Dragon</title><desc id="dragon-d">A minimal line-creature suggesting a dragon.</desc><g fill="none" stroke="var(--accent)" stroke-width="var(--glyph-stroke,1.5)" stroke-linecap="round" stroke-linejoin="round"><path d="M5 17 L7 13 L11 14 L13 10 L17 9 L19 5"/><path d="M17 9 L16 12"/></g><g fill="var(--accent-soft)"><circle cx="5" cy="17" r="0.85"/><circle cx="7" cy="13" r="0.85"/><circle cx="11" cy="14" r="0.85"/><circle cx="13" cy="10" r="0.85"/><circle cx="17" cy="9" r="0.85"/><circle cx="19" cy="5" r="1.05"/><circle cx="16" cy="12" r="0.85"/></g><g fill="var(--accent)" opacity="0.55"><circle cx="9" cy="11" r="0.4"/><circle cx="15" cy="7" r="0.4"/></g></symbol>
<symbol id="snake" viewBox="0 0 24 24" role="img" aria-labelledby="snake-t snake-d"><title id="snake-t">Year of the Snake</title><desc id="snake-d">A minimal line-creature suggesting a snake.</desc><g fill="none" stroke="var(--accent)" stroke-width="var(--glyph-stroke,1.5)" stroke-linecap="round" stroke-linejoin="round"><path d="M6 6 L10 7 L12 11 L9 14 L12 17 L17 17 L19 13"/></g><g fill="var(--accent-soft)"><circle cx="6" cy="6" r="0.85"/><circle cx="10" cy="7" r="0.85"/><circle cx="12" cy="11" r="0.85"/><circle cx="9" cy="14" r="0.85"/><circle cx="12" cy="17" r="0.85"/><circle cx="17" cy="17" r="1.05"/><circle cx="19" cy="13" r="0.85"/></g><g fill="var(--accent)" opacity="0.55"><circle cx="8" cy="10" r="0.4"/><circle cx="15" cy="15" r="0.4"/></g></symbol>
<symbol id="horse" viewBox="0 0 24 24" role="img" aria-labelledby="horse-t horse-d"><title id="horse-t">Year of the Horse</title><desc id="horse-d">A minimal line-creature suggesting a horse.</desc><g fill="none" stroke="var(--accent)" stroke-width="var(--glyph-stroke,1.5)" stroke-linecap="round" stroke-linejoin="round"><path d="M7 5 L9 9 L7 12"/><path d="M9 9 L12 10 L17 9"/><path d="M17 9 L16 17 L10 16 L12 10"/></g><g fill="var(--accent-soft)"><circle cx="7" cy="5" r="0.85"/><circle cx="9" cy="9" r="1.05"/><circle cx="7" cy="12" r="0.85"/><circle cx="12" cy="10" r="0.85"/><circle cx="17" cy="9" r="0.85"/><circle cx="16" cy="17" r="0.85"/><circle cx="10" cy="16" r="0.85"/></g><g fill="var(--accent)" opacity="0.55"><circle cx="13" cy="13" r="0.4"/></g></symbol>
<symbol id="goat" viewBox="0 0 24 24" role="img" aria-labelledby="goat-t goat-d"><title id="goat-t">Year of the Goat</title><desc id="goat-d">A minimal line-creature suggesting a goat.</desc><g fill="none" stroke="var(--accent)" stroke-width="var(--glyph-stroke,1.5)" stroke-linecap="round" stroke-linejoin="round"><path d="M6 7 L9 9 L7 12"/><path d="M9 9 L13 10 L18 10"/><path d="M18 10 L16 17 L10 16 L13 10"/></g><g fill="var(--accent-soft)"><circle cx="6" cy="7" r="0.85"/><circle cx="9" cy="9" r="1.05"/><circle cx="7" cy="12" r="0.85"/><circle cx="13" cy="10" r="0.85"/><circle cx="18" cy="10" r="0.85"/><circle cx="16" cy="17" r="0.85"/><circle cx="10" cy="16" r="0.85"/></g><g fill="var(--accent)" opacity="0.55"><circle cx="6" cy="5" r="0.4"/><circle cx="14" cy="13" r="0.4"/></g></symbol>
<symbol id="monkey" viewBox="0 0 24 24" role="img" aria-labelledby="monkey-t monkey-d"><title id="monkey-t">Year of the Monkey</title><desc id="monkey-d">A minimal line-creature suggesting a monkey.</desc><g fill="none" stroke="var(--accent)" stroke-width="var(--glyph-stroke,1.5)" stroke-linecap="round" stroke-linejoin="round"><path d="M9 6 L7 10 L10 13 L14 12 L16 16 L13 18"/><path d="M9 6 L13 9 L14 12"/></g><g fill="var(--accent-soft)"><circle cx="9" cy="6" r="1.05"/><circle cx="7" cy="10" r="0.85"/><circle cx="10" cy="13" r="0.85"/><circle cx="14" cy="12" r="0.85"/><circle cx="16" cy="16" r="0.85"/><circle cx="13" cy="18" r="0.85"/><circle cx="13" cy="9" r="0.85"/></g><g fill="var(--accent)" opacity="0.55"><circle cx="7" cy="7" r="0.4"/></g></symbol>
<symbol id="rooster" viewBox="0 0 24 24" role="img" aria-labelledby="rooster-t rooster-d"><title id="rooster-t">Year of the Rooster</title><desc id="rooster-d">A minimal line-creature suggesting a rooster.</desc><g fill="none" stroke="var(--accent)" stroke-width="var(--glyph-stroke,1.5)" stroke-linecap="round" stroke-linejoin="round"><path d="M6 6 L9 9"/><path d="M8 5 L9 9 L13 11 L17 13 L14 17 L10 16 L13 11"/></g><g fill="var(--accent-soft)"><circle cx="6" cy="6" r="0.85"/><circle cx="8" cy="5" r="0.85"/><circle cx="9" cy="9" r="1.05"/><circle cx="13" cy="11" r="0.85"/><circle cx="17" cy="13" r="0.85"/><circle cx="14" cy="17" r="0.85"/><circle cx="10" cy="16" r="0.85"/></g><g fill="var(--accent)" opacity="0.55"><circle cx="7" cy="4" r="0.4"/><circle cx="15" cy="15" r="0.4"/></g></symbol>
<symbol id="dog" viewBox="0 0 24 24" role="img" aria-labelledby="dog-t dog-d"><title id="dog-t">Year of the Dog</title><desc id="dog-d">A minimal line-creature suggesting a dog.</desc><g fill="none" stroke="var(--accent)" stroke-width="var(--glyph-stroke,1.5)" stroke-linecap="round" stroke-linejoin="round"><path d="M8 6 L9 10"/><path d="M6 8 L9 10 L14 11 L18 10"/><path d="M18 10 L16 17 L10 16 L14 11"/></g><g fill="var(--accent-soft)"><circle cx="6" cy="8" r="0.85"/><circle cx="8" cy="6" r="0.85"/><circle cx="9" cy="10" r="1.05"/><circle cx="14" cy="11" r="0.85"/><circle cx="18" cy="10" r="0.85"/><circle cx="16" cy="17" r="0.85"/><circle cx="10" cy="16" r="0.85"/></g><g fill="var(--accent)" opacity="0.55"><circle cx="15" cy="13" r="0.4"/></g></symbol>
<symbol id="pig" viewBox="0 0 24 24" role="img" aria-labelledby="pig-t pig-d"><title id="pig-t">Year of the Pig</title><desc id="pig-d">A minimal line-creature suggesting a pig.</desc><g fill="none" stroke="var(--accent)" stroke-width="var(--glyph-stroke,1.5)" stroke-linecap="round" stroke-linejoin="round"><path d="M7 9 L9 12"/><path d="M6 11 L9 12 L14 11 L17 12"/><path d="M17 12 L16 17 L9 17 L9 12"/></g><g fill="var(--accent-soft)"><circle cx="7" cy="9" r="0.85"/><circle cx="6" cy="11" r="0.85"/><circle cx="9" cy="12" r="1.05"/><circle cx="14" cy="11" r="0.85"/><circle cx="17" cy="12" r="0.85"/><circle cx="16" cy="17" r="0.85"/><circle cx="9" cy="17" r="0.85"/></g><g fill="var(--accent)" opacity="0.55"><circle cx="12" cy="14" r="0.4"/></g></symbol>
<symbol id="moon-new" viewBox="0 0 24 24" role="img" aria-labelledby="moon-new-t moon-new-d"><title id="moon-new-t">New moon</title><desc id="moon-new-d">The dark disc of the new moon.</desc><circle cx="12" cy="12" r="9" fill="var(--atmo-bottom,#05070f)"/><circle cx="12" cy="12" r="9" fill="none" stroke="var(--accent-soft)" stroke-width="0.75" opacity="0.7"/></symbol>
<symbol id="moon-waxing-crescent" viewBox="0 0 24 24" role="img" aria-labelledby="moon-waxing-crescent-t moon-waxing-crescent-d"><title id="moon-waxing-crescent-t">Waxing crescent moon</title><desc id="moon-waxing-crescent-d">A thin lit crescent on the right.</desc><circle cx="12" cy="12" r="9" fill="var(--atmo-bottom,#05070f)"/><path d="M12 3 A9 9 0 0 1 12 21 A6.36 9 0 0 0 12 3 Z" fill="var(--accent)"/><circle cx="12" cy="12" r="9" fill="none" stroke="var(--accent-soft)" stroke-width="0.75" opacity="0.7"/></symbol>
<symbol id="moon-first-quarter" viewBox="0 0 24 24" role="img" aria-labelledby="moon-first-quarter-t moon-first-quarter-d"><title id="moon-first-quarter-t">First quarter moon</title><desc id="moon-first-quarter-d">The right half lit.</desc><circle cx="12" cy="12" r="9" fill="var(--atmo-bottom,#05070f)"/><path d="M12 3 A9 9 0 0 1 12 21 A0 9 0 0 0 12 3 Z" fill="var(--accent)"/><circle cx="12" cy="12" r="9" fill="none" stroke="var(--accent-soft)" stroke-width="0.75" opacity="0.7"/></symbol>
<symbol id="moon-waxing-gibbous" viewBox="0 0 24 24" role="img" aria-labelledby="moon-waxing-gibbous-t moon-waxing-gibbous-d"><title id="moon-waxing-gibbous-t">Waxing gibbous moon</title><desc id="moon-waxing-gibbous-d">Most of the disc lit, growing.</desc><circle cx="12" cy="12" r="9" fill="var(--atmo-bottom,#05070f)"/><path d="M12 3 A9 9 0 0 1 12 21 A6.36 9 0 0 1 12 3 Z" fill="var(--accent)"/><circle cx="12" cy="12" r="9" fill="none" stroke="var(--accent-soft)" stroke-width="0.75" opacity="0.7"/></symbol>
<symbol id="moon-full" viewBox="0 0 24 24" role="img" aria-labelledby="moon-full-t moon-full-d"><title id="moon-full-t">Full moon</title><desc id="moon-full-d">The whole disc lit.</desc><circle cx="12" cy="12" r="9" fill="var(--accent)"/><circle cx="12" cy="12" r="9" fill="none" stroke="var(--accent-soft)" stroke-width="0.75" opacity="0.7"/></symbol>
<symbol id="moon-waning-gibbous" viewBox="0 0 24 24" role="img" aria-labelledby="moon-waning-gibbous-t moon-waning-gibbous-d"><title id="moon-waning-gibbous-t">Waning gibbous moon</title><desc id="moon-waning-gibbous-d">Most of the disc lit, shrinking.</desc><circle cx="12" cy="12" r="9" fill="var(--atmo-bottom,#05070f)"/><path d="M12 3 A9 9 0 0 0 12 21 A6.36 9 0 0 0 12 3 Z" fill="var(--accent)"/><circle cx="12" cy="12" r="9" fill="none" stroke="var(--accent-soft)" stroke-width="0.75" opacity="0.7"/></symbol>
<symbol id="moon-last-quarter" viewBox="0 0 24 24" role="img" aria-labelledby="moon-last-quarter-t moon-last-quarter-d"><title id="moon-last-quarter-t">Last quarter moon</title><desc id="moon-last-quarter-d">The left half lit.</desc><circle cx="12" cy="12" r="9" fill="var(--atmo-bottom,#05070f)"/><path d="M12 3 A9 9 0 0 0 12 21 A0 9 0 0 1 12 3 Z" fill="var(--accent)"/><circle cx="12" cy="12" r="9" fill="none" stroke="var(--accent-soft)" stroke-width="0.75" opacity="0.7"/></symbol>
<symbol id="moon-waning-crescent" viewBox="0 0 24 24" role="img" aria-labelledby="moon-waning-crescent-t moon-waning-crescent-d"><title id="moon-waning-crescent-t">Waning crescent moon</title><desc id="moon-waning-crescent-d">A thin lit crescent on the left.</desc><circle cx="12" cy="12" r="9" fill="var(--atmo-bottom,#05070f)"/><path d="M12 3 A9 9 0 0 0 12 21 A6.36 9 0 0 1 12 3 Z" fill="var(--accent)"/><circle cx="12" cy="12" r="9" fill="none" stroke="var(--accent-soft)" stroke-width="0.75" opacity="0.7"/></symbol>
</svg>
